<?xml version="1.0" encoding="utf-8" standalone="no"?>
<!DOCTYPE svg PUBLIC "-//W3C//DTD SVG 1.1//EN"
  "http://www.w3.org/Graphics/SVG/1.1/DTD/svg11.dtd">
<svg xmlns:xlink="http://www.w3.org/1999/xlink" width="864pt" height="432pt" viewBox="0 0 864 432" xmlns="http://www.w3.org/2000/svg" version="1.1">
 <metadata>
  <rdf:RDF xmlns:dc="http://purl.org/dc/elements/1.1/" xmlns:cc="http://creativecommons.org/ns#" xmlns:rdf="http://www.w3.org/1999/02/22-rdf-syntax-ns#">
   <cc:Work>
    <dc:type rdf:resource="http://purl.org/dc/dcmitype/StillImage"/>
    <dc:date>2024-10-01T10:15:29.404753</dc:date>
    <dc:format>image/svg+xml</dc:format>
    <dc:creator>
     <cc:Agent>
      <dc:title>Matplotlib v3.8.4, https://matplotlib.org/</dc:title>
     </cc:Agent>
    </dc:creator>
   </cc:Work>
  </rdf:RDF>
 </metadata>
 <defs>
  <style type="text/css">*{stroke-linejoin: round; stroke-linecap: butt}</style>
 </defs>
 <g id="figure_1">
  <g id="patch_1">
   <path d="M 0 432 
L 864 432 
L 864 0 
L 0 0 
z
" style="fill: #ffffff"/>
  </g>
  <g id="axes_1">
   <g id="patch_2">
    <path d="M 46.64 390.04 
L 853.2 390.04 
L 853.2 25.44 
L 46.64 25.44 
z
" style="fill: #ffffff"/>
   </g>
   <g id="PolyCollection_1">
    <defs>
     <path id="mb2d3abe22c" d="M 83.301818 -95.109436 
L 83.301818 -95.109436 
L 91.98488 -102.342851 
L 100.667943 -104.382307 
L 109.351005 -92.113096 
L 118.034067 -81.02977 
L 126.717129 -95.58266 
L 135.400191 -104.241619 
L 144.083254 -106.77291 
L 152.766316 -99.636866 
L 161.449378 -100.889944 
L 170.13244 -95.679934 
L 178.815502 -105.461017 
L 187.498565 -105.319222 
L 196.181627 -110.395259 
L 204.864689 -115.844807 
L 213.547751 -114.573025 
L 222.230813 -109.331482 
L 230.913876 -119.562866 
L 239.596938 -120.740055 
L 248.28 -119.671388 
L 256.963062 -116.183596 
L 265.646124 -112.997302 
L 274.329187 -115.259815 
L 283.012249 -121.552895 
L 291.695311 -109.407963 
L 300.378373 -99.213847 
L 309.061435 -119.885023 
L 317.744498 -126.961069 
L 326.42756 -125.921164 
L 335.110622 -131.558443 
L 343.793684 -127.686901 
L 352.476746 -120.729729 
L 361.159809 -111.733886 
L 369.842871 -120.354626 
L 378.525933 -131.290407 
L 387.208995 -133.657309 
L 395.892057 -127.945285 
L 404.57512 -132.971093 
L 413.258182 -139.519015 
L 421.941244 -137.249568 
L 430.624306 -139.158728 
L 430.624306 -139.158728 
L 430.624306 -139.158728 
L 421.941244 -142.05045 
L 413.258182 -155.598871 
L 404.57512 -160.179533 
L 395.892057 -156.904006 
L 387.208995 -148.604128 
L 378.525933 -143.304034 
L 369.842871 -139.590411 
L 361.159809 -141.531459 
L 352.476746 -144.448791 
L 343.793684 -147.37577 
L 335.110622 -159.279597 
L 326.42756 -178.689944 
L 317.744498 -166.187851 
L 309.061435 -151.811993 
L 300.378373 -146.472677 
L 291.695311 -134.748757 
L 283.012249 -136.548981 
L 274.329187 -145.184956 
L 265.646124 -136.277267 
L 256.963062 -126.743064 
L 248.28 -129.695226 
L 239.596938 -133.347521 
L 230.913876 -127.615651 
L 222.230813 -129.629072 
L 213.547751 -126.621833 
L 204.864689 -126.285016 
L 196.181627 -140.358255 
L 187.498565 -156.90263 
L 178.815502 -136.686549 
L 170.13244 -118.651225 
L 161.449378 -116.827928 
L 152.766316 -131.740931 
L 144.083254 -134.658875 
L 135.400191 -133.365884 
L 126.717129 -125.523796 
L 118.034067 -121.512813 
L 109.351005 -122.24878 
L 100.667943 -120.387418 
L 91.98488 -114.127163 
L 83.301818 -95.109436 
z
" style="stroke: #1f77b4; stroke-opacity: 0.2"/>
    </defs>
    <g clip-path="url(#pd320d7a9d4)">
     <use xlink:href="#mb2d3abe22c" x="0" y="432" style="fill: #1f77b4; fill-opacity: 0.2; stroke: #1f77b4; stroke-opacity: 0.2"/>
    </g>
   </g>
   <g id="PolyCollection_2">
    <defs>
     <path id="mfc9bf96336" d="M 486.581818 -259.246771 
L 486.581818 -259.246771 
L 495.26488 -282.735342 
L 503.947943 -295.210943 
L 512.631005 -278.416476 
L 521.314067 -272.278872 
L 529.997129 -273.916667 
L 538.680191 -259.244338 
L 547.363254 -267.6121 
L 556.046316 -274.626464 
L 564.729378 -267.84566 
L 573.41244 -254.921522 
L 582.095502 -257.467274 
L 590.778565 -254.196897 
L 599.461627 -274.119988 
L 608.144689 -293.447402 
L 616.827751 -285.152924 
L 625.510813 -273.258361 
L 634.193876 -286.24133 
L 642.876938 -283.991036 
L 651.56 -285.251957 
L 660.243062 -278.559301 
L 668.926124 -288.021816 
L 677.609187 -292.32645 
L 686.292249 -284.931919 
L 694.975311 -289.315465 
L 703.658373 -292.256269 
L 712.341435 -292.655053 
L 721.024498 -286.979364 
L 729.70756 -273.777698 
L 738.390622 -291.329058 
L 747.073684 -292.402795 
L 755.756746 -294.762187 
L 764.439809 -294.55614 
L 773.122871 -290.148749 
L 781.805933 -291.361913 
L 790.488995 -295.317342 
L 799.172057 -299.862322 
L 807.85512 -301.551677 
L 816.538182 -299.296222 
L 816.538182 -321.409207 
L 816.538182 -321.409207 
L 807.85512 -319.463871 
L 799.172057 -313.86234 
L 790.488995 -312.102397 
L 781.805933 -312.102719 
L 773.122871 -308.296496 
L 764.439809 -309.259763 
L 755.756746 -320.710484 
L 747.073684 -325.150803 
L 738.390622 -309.361907 
L 729.70756 -311.178554 
L 721.024498 -313.300821 
L 712.341435 -317.905657 
L 703.658373 -310.348569 
L 694.975311 -302.68397 
L 686.292249 -298.560207 
L 677.609187 -298.583177 
L 668.926124 -306.525915 
L 660.243062 -313.224391 
L 651.56 -307.415577 
L 642.876938 -307.089216 
L 634.193876 -303.588124 
L 625.510813 -315.985182 
L 616.827751 -314.052054 
L 608.144689 -305.663536 
L 599.461627 -300.477746 
L 590.778565 -297.344934 
L 582.095502 -293.229609 
L 573.41244 -305.870782 
L 564.729378 -295.884938 
L 556.046316 -293.964833 
L 547.363254 -299.713004 
L 538.680191 -290.369848 
L 529.997129 -280.062094 
L 521.314067 -301.19766 
L 512.631005 -315.184729 
L 503.947943 -321.471154 
L 495.26488 -312.615447 
L 486.581818 -259.246771 
z
" style="stroke: #1f77b4; stroke-opacity: 0.2"/>
    </defs>
    <g clip-path="url(#pd320d7a9d4)">
     <use xlink:href="#mfc9bf96336" x="0" y="432" style="fill: #1f77b4; fill-opacity: 0.2; stroke: #1f77b4; stroke-opacity: 0.2"/>
    </g>
   </g>
   <g id="PolyCollection_3">
    <defs>
     <path id="mba878673dd" d="M 83.301818 -92.818915 
L 83.301818 -92.818915 
L 91.98488 -98.979614 
L 100.667943 -95.377052 
L 109.351005 -100.822455 
L 118.034067 -75.254214 
L 126.717129 -89.100593 
L 135.400191 -99.758851 
L 144.083254 -89.016529 
L 152.766316 -60.807638 
L 161.449378 -58.532727 
L 170.13244 -77.988487 
L 178.815502 -98.647194 
L 187.498565 -81.022602 
L 196.181627 -107.605337 
L 204.864689 -101.418071 
L 213.547751 -96.287823 
L 222.230813 -101.146428 
L 230.913876 -112.142203 
L 239.596938 -123.73899 
L 248.28 -135.730189 
L 256.963062 -125.000856 
L 265.646124 -110.45279 
L 274.329187 -69.346937 
L 283.012249 -67.017482 
L 291.695311 -95.170531 
L 300.378373 -121.181561 
L 309.061435 -120.048359 
L 317.744498 -113.538532 
L 326.42756 -105.292587 
L 335.110622 -87.070307 
L 343.793684 -62.384585 
L 352.476746 -63.068935 
L 361.159809 -73.908977 
L 369.842871 -113.097209 
L 378.525933 -110.443738 
L 387.208995 -118.771051 
L 395.892057 -100.601731 
L 404.57512 -120.863237 
L 413.258182 -106.038048 
L 421.941244 -79.194351 
L 430.624306 -132.701073 
L 430.624306 -132.701073 
L 430.624306 -132.701073 
L 421.941244 -161.166114 
L 413.258182 -180.5434 
L 404.57512 -143.422103 
L 395.892057 -145.466687 
L 387.208995 -166.676609 
L 378.525933 -205.972016 
L 369.842871 -155.104577 
L 361.159809 -158.203953 
L 352.476746 -159.14249 
L 343.793684 -159.609552 
L 335.110622 -147.144967 
L 326.42756 -148.070336 
L 317.744498 -154.935331 
L 309.061435 -168.172526 
L 300.378373 -157.97343 
L 291.695311 -134.725556 
L 283.012249 -129.397657 
L 274.329187 -127.3857 
L 265.646124 -131.444397 
L 256.963062 -172.771145 
L 248.28 -167.884472 
L 239.596938 -170.267721 
L 230.913876 -160.267378 
L 222.230813 -147.092779 
L 213.547751 -154.289539 
L 204.864689 -161.484218 
L 196.181627 -148.181538 
L 187.498565 -152.99632 
L 178.815502 -137.928978 
L 170.13244 -164.083402 
L 161.449378 -142.887813 
L 152.766316 -128.903786 
L 144.083254 -129.361538 
L 135.400191 -160.959874 
L 126.717129 -153.085628 
L 118.034067 -127.79958 
L 109.351005 -105.217618 
L 100.667943 -139.133754 
L 91.98488 -134.088991 
L 83.301818 -92.818915 
z
" style="stroke: #ff7f0e; stroke-opacity: 0.2"/>
    </defs>
    <g clip-path="url(#pd320d7a9d4)">
     <use xlink:href="#mba878673dd" x="0" y="432" style="fill: #ff7f0e; fill-opacity: 0.2; stroke: #ff7f0e; stroke-opacity: 0.2"/>
    </g>
   </g>
   <g id="PolyCollection_4">
    <defs>
     <path id="m15466ddb05" d="M 486.581818 -364.261704 
L 486.581818 -364.261704 
L 495.26488 -301.150559 
L 503.947943 -247.574131 
L 512.631005 -260.117846 
L 521.314067 -246.673578 
L 529.997129 -249.093857 
L 538.680191 -249.737027 
L 547.363254 -257.912043 
L 556.046316 -263.72808 
L 564.729378 -268.182853 
L 573.41244 -241.585486 
L 582.095502 -242.429533 
L 590.778565 -257.533474 
L 599.461627 -274.728143 
L 608.144689 -256.576861 
L 616.827751 -239.04199 
L 625.510813 -240.972891 
L 634.193876 -252.388033 
L 642.876938 -225.936501 
L 651.56 -226.728378 
L 660.243062 -210.170656 
L 668.926124 -237.489361 
L 677.609187 -266.117253 
L 686.292249 -259.672356 
L 694.975311 -261.351502 
L 703.658373 -273.562734 
L 712.341435 -251.39557 
L 721.024498 -251.387015 
L 729.70756 -237.813596 
L 738.390622 -264.520734 
L 747.073684 -258.923592 
L 755.756746 -281.927032 
L 764.439809 -285.094057 
L 773.122871 -260.376015 
L 781.805933 -265.841398 
L 790.488995 -269.138934 
L 799.172057 -263.928124 
L 807.85512 -255.414413 
L 816.538182 -267.80674 
L 816.538182 -369.293317 
L 816.538182 -369.293317 
L 807.85512 -389.987273 
L 799.172057 -364.222187 
L 790.488995 -329.841011 
L 781.805933 -313.904633 
L 773.122871 -331.131798 
L 764.439809 -357.532518 
L 755.756746 -382.230065 
L 747.073684 -379.041218 
L 738.390622 -310.640975 
L 729.70756 -301.913812 
L 721.024498 -315.00042 
L 712.341435 -336.40903 
L 703.658373 -338.127485 
L 694.975311 -357.22558 
L 686.292249 -345.677017 
L 677.609187 -324.36348 
L 668.926124 -323.549809 
L 660.243062 -312.774733 
L 651.56 -329.387279 
L 642.876938 -377.559843 
L 634.193876 -340.283162 
L 625.510813 -337.124341 
L 616.827751 -341.957869 
L 608.144689 -355.794664 
L 599.461627 -332.073128 
L 590.778565 -323.633781 
L 582.095502 -322.048528 
L 573.41244 -317.875133 
L 564.729378 -310.825102 
L 556.046316 -328.388348 
L 547.363254 -311.307329 
L 538.680191 -303.988371 
L 529.997129 -313.652806 
L 521.314067 -311.288993 
L 512.631005 -288.963694 
L 503.947943 -296.272742 
L 495.26488 -311.978127 
L 486.581818 -364.261704 
z
" style="stroke: #ff7f0e; stroke-opacity: 0.2"/>
    </defs>
    <g clip-path="url(#pd320d7a9d4)">
     <use xlink:href="#m15466ddb05" x="0" y="432" style="fill: #ff7f0e; fill-opacity: 0.2; stroke: #ff7f0e; stroke-opacity: 0.2"/>
    </g>
   </g>
   <g id="matplotlib.axis_1">
    <g id="xtick_1">
     <g id="line2d_1">
      <path d="M 64.006124 390.04 
L 64.006124 25.44 
" clip-path="url(#pd320d7a9d4)" style="fill: none; stroke-dasharray: 2.96,1.28; stroke-dashoffset: 0; stroke: #b0b0b0; stroke-opacity: 0.7; stroke-width: 0.8"/>
     </g>
     <g id="line2d_2">
      <defs>
       <path id="m0ba4169840" d="M 0 0 
L 0 3.5 
" style="stroke: #000000; stroke-width: 0.8"/>
      </defs>
      <g>
       <use xlink:href="#m0ba4169840" x="64.006124" y="390.04" style="stroke: #000000; stroke-width: 0.8"/>
      </g>
     </g>
     <g id="text_1">
      <!-- −100 -->
      <g transform="translate(50.272531 404.638438) scale(0.1 -0.1)">
       <defs>
        <path id="DejaVuSans-2212" d="M 678 2272 
L 4684 2272 
L 4684 1741 
L 678 1741 
L 678 2272 
z
" transform="scale(0.015625)"/>
        <path id="DejaVuSans-31" d="M 794 531 
L 1825 531 
L 1825 4091 
L 703 3866 
L 703 4441 
L 1819 4666 
L 2450 4666 
L 2450 531 
L 3481 531 
L 3481 0 
L 794 0 
L 794 531 
z
" transform="scale(0.015625)"/>
        <path id="DejaVuSans-30" d="M 2034 4250 
Q 1547 4250 1301 3770 
Q 1056 3291 1056 2328 
Q 1056 1369 1301 889 
Q 1547 409 2034 409 
Q 2525 409 2770 889 
Q 3016 1369 3016 2328 
Q 3016 3291 2770 3770 
Q 2525 4250 2034 4250 
z
M 2034 4750 
Q 2819 4750 3233 4129 
Q 3647 3509 3647 2328 
Q 3647 1150 3233 529 
Q 2819 -91 2034 -91 
Q 1250 -91 836 529 
Q 422 1150 422 2328 
Q 422 3509 836 4129 
Q 1250 4750 2034 4750 
z
" transform="scale(0.015625)"/>
       </defs>
       <use xlink:href="#DejaVuSans-2212"/>
       <use xlink:href="#DejaVuSans-31" x="83.789062"/>
       <use xlink:href="#DejaVuSans-30" x="147.412109"/>
       <use xlink:href="#DejaVuSans-30" x="211.035156"/>
      </g>
     </g>
    </g>
    <g id="xtick_2">
     <g id="line2d_3">
      <path d="M 160.484593 390.04 
L 160.484593 25.44 
" clip-path="url(#pd320d7a9d4)" style="fill: none; stroke-dasharray: 2.96,1.28; stroke-dashoffset: 0; stroke: #b0b0b0; stroke-opacity: 0.7; stroke-width: 0.8"/>
     </g>
     <g id="line2d_4">
      <g>
       <use xlink:href="#m0ba4169840" x="160.484593" y="390.04" style="stroke: #000000; stroke-width: 0.8"/>
      </g>
     </g>
     <g id="text_2">
      <!-- −75 -->
      <g transform="translate(149.93225 404.638438) scale(0.1 -0.1)">
       <defs>
        <path id="DejaVuSans-37" d="M 525 4666 
L 3525 4666 
L 3525 4397 
L 1831 0 
L 1172 0 
L 2766 4134 
L 525 4134 
L 525 4666 
z
" transform="scale(0.015625)"/>
        <path id="DejaVuSans-35" d="M 691 4666 
L 3169 4666 
L 3169 4134 
L 1269 4134 
L 1269 2991 
Q 1406 3038 1543 3061 
Q 1681 3084 1819 3084 
Q 2600 3084 3056 2656 
Q 3513 2228 3513 1497 
Q 3513 744 3044 326 
Q 2575 -91 1722 -91 
Q 1428 -91 1123 -41 
Q 819 9 494 109 
L 494 744 
Q 775 591 1075 516 
Q 1375 441 1709 441 
Q 2250 441 2565 725 
Q 2881 1009 2881 1497 
Q 2881 1984 2565 2268 
Q 2250 2553 1709 2553 
Q 1456 2553 1204 2497 
Q 953 2441 691 2322 
L 691 4666 
z
" transform="scale(0.015625)"/>
       </defs>
       <use xlink:href="#DejaVuSans-2212"/>
       <use xlink:href="#DejaVuSans-37" x="83.789062"/>
       <use xlink:href="#DejaVuSans-35" x="147.412109"/>
      </g>
     </g>
    </g>
    <g id="xtick_3">
     <g id="line2d_5">
      <path d="M 256.963062 390.04 
L 256.963062 25.44 
" clip-path="url(#pd320d7a9d4)" style="fill: none; stroke-dasharray: 2.96,1.28; stroke-dashoffset: 0; stroke: #b0b0b0; stroke-opacity: 0.7; stroke-width: 0.8"/>
     </g>
     <g id="line2d_6">
      <g>
       <use xlink:href="#m0ba4169840" x="256.963062" y="390.04" style="stroke: #000000; stroke-width: 0.8"/>
      </g>
     </g>
     <g id="text_3">
      <!-- −50 -->
      <g transform="translate(246.410718 404.638438) scale(0.1 -0.1)">
       <use xlink:href="#DejaVuSans-2212"/>
       <use xlink:href="#DejaVuSans-35" x="83.789062"/>
       <use xlink:href="#DejaVuSans-30" x="147.412109"/>
      </g>
     </g>
    </g>
    <g id="xtick_4">
     <g id="line2d_7">
      <path d="M 353.441531 390.04 
L 353.441531 25.44 
" clip-path="url(#pd320d7a9d4)" style="fill: none; stroke-dasharray: 2.96,1.28; stroke-dashoffset: 0; stroke: #b0b0b0; stroke-opacity: 0.7; stroke-width: 0.8"/>
     </g>
     <g id="line2d_8">
      <g>
       <use xlink:href="#m0ba4169840" x="353.441531" y="390.04" style="stroke: #000000; stroke-width: 0.8"/>
      </g>
     </g>
     <g id="text_4">
      <!-- −25 -->
      <g transform="translate(342.889187 404.638438) scale(0.1 -0.1)">
       <defs>
        <path id="DejaVuSans-32" d="M 1228 531 
L 3431 531 
L 3431 0 
L 469 0 
L 469 531 
Q 828 903 1448 1529 
Q 2069 2156 2228 2338 
Q 2531 2678 2651 2914 
Q 2772 3150 2772 3378 
Q 2772 3750 2511 3984 
Q 2250 4219 1831 4219 
Q 1534 4219 1204 4116 
Q 875 4013 500 3803 
L 500 4441 
Q 881 4594 1212 4672 
Q 1544 4750 1819 4750 
Q 2544 4750 2975 4387 
Q 3406 4025 3406 3419 
Q 3406 3131 3298 2873 
Q 3191 2616 2906 2266 
Q 2828 2175 2409 1742 
Q 1991 1309 1228 531 
z
" transform="scale(0.015625)"/>
       </defs>
       <use xlink:href="#DejaVuSans-2212"/>
       <use xlink:href="#DejaVuSans-32" x="83.789062"/>
       <use xlink:href="#DejaVuSans-35" x="147.412109"/>
      </g>
     </g>
    </g>
    <g id="xtick_5">
     <g id="line2d_9">
      <path d="M 449.92 390.04 
L 449.92 25.44 
" clip-path="url(#pd320d7a9d4)" style="fill: none; stroke-dasharray: 2.96,1.28; stroke-dashoffset: 0; stroke: #b0b0b0; stroke-opacity: 0.7; stroke-width: 0.8"/>
     </g>
     <g id="line2d_10">
      <g>
       <use xlink:href="#m0ba4169840" x="449.92" y="390.04" style="stroke: #000000; stroke-width: 0.8"/>
      </g>
     </g>
     <g id="text_5">
      <!-- 0 -->
      <g transform="translate(446.73875 404.638438) scale(0.1 -0.1)">
       <use xlink:href="#DejaVuSans-30"/>
      </g>
     </g>
    </g>
    <g id="xtick_6">
     <g id="line2d_11">
      <path d="M 546.398469 390.04 
L 546.398469 25.44 
" clip-path="url(#pd320d7a9d4)" style="fill: none; stroke-dasharray: 2.96,1.28; stroke-dashoffset: 0; stroke: #b0b0b0; stroke-opacity: 0.7; stroke-width: 0.8"/>
     </g>
     <g id="line2d_12">
      <g>
       <use xlink:href="#m0ba4169840" x="546.398469" y="390.04" style="stroke: #000000; stroke-width: 0.8"/>
      </g>
     </g>
     <g id="text_6">
      <!-- 25 -->
      <g transform="translate(540.035969 404.638438) scale(0.1 -0.1)">
       <use xlink:href="#DejaVuSans-32"/>
       <use xlink:href="#DejaVuSans-35" x="63.623047"/>
      </g>
     </g>
    </g>
    <g id="xtick_7">
     <g id="line2d_13">
      <path d="M 642.876938 390.04 
L 642.876938 25.44 
" clip-path="url(#pd320d7a9d4)" style="fill: none; stroke-dasharray: 2.96,1.28; stroke-dashoffset: 0; stroke: #b0b0b0; stroke-opacity: 0.7; stroke-width: 0.8"/>
     </g>
     <g id="line2d_14">
      <g>
       <use xlink:href="#m0ba4169840" x="642.876938" y="390.04" style="stroke: #000000; stroke-width: 0.8"/>
      </g>
     </g>
     <g id="text_7">
      <!-- 50 -->
      <g transform="translate(636.514438 404.638438) scale(0.1 -0.1)">
       <use xlink:href="#DejaVuSans-35"/>
       <use xlink:href="#DejaVuSans-30" x="63.623047"/>
      </g>
     </g>
    </g>
    <g id="xtick_8">
     <g id="line2d_15">
      <path d="M 739.355407 390.04 
L 739.355407 25.44 
" clip-path="url(#pd320d7a9d4)" style="fill: none; stroke-dasharray: 2.96,1.28; stroke-dashoffset: 0; stroke: #b0b0b0; stroke-opacity: 0.7; stroke-width: 0.8"/>
     </g>
     <g id="line2d_16">
      <g>
       <use xlink:href="#m0ba4169840" x="739.355407" y="390.04" style="stroke: #000000; stroke-width: 0.8"/>
      </g>
     </g>
     <g id="text_8">
      <!-- 75 -->
      <g transform="translate(732.992907 404.638438) scale(0.1 -0.1)">
       <use xlink:href="#DejaVuSans-37"/>
       <use xlink:href="#DejaVuSans-35" x="63.623047"/>
      </g>
     </g>
    </g>
    <g id="xtick_9">
     <g id="line2d_17">
      <path d="M 835.833876 390.04 
L 835.833876 25.44 
" clip-path="url(#pd320d7a9d4)" style="fill: none; stroke-dasharray: 2.96,1.28; stroke-dashoffset: 0; stroke: #b0b0b0; stroke-opacity: 0.7; stroke-width: 0.8"/>
     </g>
     <g id="line2d_18">
      <g>
       <use xlink:href="#m0ba4169840" x="835.833876" y="390.04" style="stroke: #000000; stroke-width: 0.8"/>
      </g>
     </g>
     <g id="text_9">
      <!-- 100 -->
      <g transform="translate(826.290126 404.638438) scale(0.1 -0.1)">
       <use xlink:href="#DejaVuSans-31"/>
       <use xlink:href="#DejaVuSans-30" x="63.623047"/>
       <use xlink:href="#DejaVuSans-30" x="127.246094"/>
      </g>
     </g>
    </g>
    <g id="text_10">
     <!-- Percent Flexed [%] -->
     <g transform="translate(402.973906 418.316562) scale(0.1 -0.1)">
      <defs>
       <path id="DejaVuSans-50" d="M 1259 4147 
L 1259 2394 
L 2053 2394 
Q 2494 2394 2734 2622 
Q 2975 2850 2975 3272 
Q 2975 3691 2734 3919 
Q 2494 4147 2053 4147 
L 1259 4147 
z
M 628 4666 
L 2053 4666 
Q 2838 4666 3239 4311 
Q 3641 3956 3641 3272 
Q 3641 2581 3239 2228 
Q 2838 1875 2053 1875 
L 1259 1875 
L 1259 0 
L 628 0 
L 628 4666 
z
" transform="scale(0.015625)"/>
       <path id="DejaVuSans-65" d="M 3597 1894 
L 3597 1613 
L 953 1613 
Q 991 1019 1311 708 
Q 1631 397 2203 397 
Q 2534 397 2845 478 
Q 3156 559 3463 722 
L 3463 178 
Q 3153 47 2828 -22 
Q 2503 -91 2169 -91 
Q 1331 -91 842 396 
Q 353 884 353 1716 
Q 353 2575 817 3079 
Q 1281 3584 2069 3584 
Q 2775 3584 3186 3129 
Q 3597 2675 3597 1894 
z
M 3022 2063 
Q 3016 2534 2758 2815 
Q 2500 3097 2075 3097 
Q 1594 3097 1305 2825 
Q 1016 2553 972 2059 
L 3022 2063 
z
" transform="scale(0.015625)"/>
       <path id="DejaVuSans-72" d="M 2631 2963 
Q 2534 3019 2420 3045 
Q 2306 3072 2169 3072 
Q 1681 3072 1420 2755 
Q 1159 2438 1159 1844 
L 1159 0 
L 581 0 
L 581 3500 
L 1159 3500 
L 1159 2956 
Q 1341 3275 1631 3429 
Q 1922 3584 2338 3584 
Q 2397 3584 2469 3576 
Q 2541 3569 2628 3553 
L 2631 2963 
z
" transform="scale(0.015625)"/>
       <path id="DejaVuSans-63" d="M 3122 3366 
L 3122 2828 
Q 2878 2963 2633 3030 
Q 2388 3097 2138 3097 
Q 1578 3097 1268 2742 
Q 959 2388 959 1747 
Q 959 1106 1268 751 
Q 1578 397 2138 397 
Q 2388 397 2633 464 
Q 2878 531 3122 666 
L 3122 134 
Q 2881 22 2623 -34 
Q 2366 -91 2075 -91 
Q 1284 -91 818 406 
Q 353 903 353 1747 
Q 353 2603 823 3093 
Q 1294 3584 2113 3584 
Q 2378 3584 2631 3529 
Q 2884 3475 3122 3366 
z
" transform="scale(0.015625)"/>
       <path id="DejaVuSans-6e" d="M 3513 2113 
L 3513 0 
L 2938 0 
L 2938 2094 
Q 2938 2591 2744 2837 
Q 2550 3084 2163 3084 
Q 1697 3084 1428 2787 
Q 1159 2491 1159 1978 
L 1159 0 
L 581 0 
L 581 3500 
L 1159 3500 
L 1159 2956 
Q 1366 3272 1645 3428 
Q 1925 3584 2291 3584 
Q 2894 3584 3203 3211 
Q 3513 2838 3513 2113 
z
" transform="scale(0.015625)"/>
       <path id="DejaVuSans-74" d="M 1172 4494 
L 1172 3500 
L 2356 3500 
L 2356 3053 
L 1172 3053 
L 1172 1153 
Q 1172 725 1289 603 
Q 1406 481 1766 481 
L 2356 481 
L 2356 0 
L 1766 0 
Q 1100 0 847 248 
Q 594 497 594 1153 
L 594 3053 
L 172 3053 
L 172 3500 
L 594 3500 
L 594 4494 
L 1172 4494 
z
" transform="scale(0.015625)"/>
       <path id="DejaVuSans-20" transform="scale(0.015625)"/>
       <path id="DejaVuSans-46" d="M 628 4666 
L 3309 4666 
L 3309 4134 
L 1259 4134 
L 1259 2759 
L 3109 2759 
L 3109 2228 
L 1259 2228 
L 1259 0 
L 628 0 
L 628 4666 
z
" transform="scale(0.015625)"/>
       <path id="DejaVuSans-6c" d="M 603 4863 
L 1178 4863 
L 1178 0 
L 603 0 
L 603 4863 
z
" transform="scale(0.015625)"/>
       <path id="DejaVuSans-78" d="M 3513 3500 
L 2247 1797 
L 3578 0 
L 2900 0 
L 1881 1375 
L 863 0 
L 184 0 
L 1544 1831 
L 300 3500 
L 978 3500 
L 1906 2253 
L 2834 3500 
L 3513 3500 
z
" transform="scale(0.015625)"/>
       <path id="DejaVuSans-64" d="M 2906 2969 
L 2906 4863 
L 3481 4863 
L 3481 0 
L 2906 0 
L 2906 525 
Q 2725 213 2448 61 
Q 2172 -91 1784 -91 
Q 1150 -91 751 415 
Q 353 922 353 1747 
Q 353 2572 751 3078 
Q 1150 3584 1784 3584 
Q 2172 3584 2448 3432 
Q 2725 3281 2906 2969 
z
M 947 1747 
Q 947 1113 1208 752 
Q 1469 391 1925 391 
Q 2381 391 2643 752 
Q 2906 1113 2906 1747 
Q 2906 2381 2643 2742 
Q 2381 3103 1925 3103 
Q 1469 3103 1208 2742 
Q 947 2381 947 1747 
z
" transform="scale(0.015625)"/>
       <path id="DejaVuSans-5b" d="M 550 4863 
L 1875 4863 
L 1875 4416 
L 1125 4416 
L 1125 -397 
L 1875 -397 
L 1875 -844 
L 550 -844 
L 550 4863 
z
" transform="scale(0.015625)"/>
       <path id="DejaVuSans-25" d="M 4653 2053 
Q 4381 2053 4226 1822 
Q 4072 1591 4072 1178 
Q 4072 772 4226 539 
Q 4381 306 4653 306 
Q 4919 306 5073 539 
Q 5228 772 5228 1178 
Q 5228 1588 5073 1820 
Q 4919 2053 4653 2053 
z
M 4653 2450 
Q 5147 2450 5437 2106 
Q 5728 1763 5728 1178 
Q 5728 594 5436 251 
Q 5144 -91 4653 -91 
Q 4153 -91 3862 251 
Q 3572 594 3572 1178 
Q 3572 1766 3864 2108 
Q 4156 2450 4653 2450 
z
M 1428 4353 
Q 1159 4353 1004 4120 
Q 850 3888 850 3481 
Q 850 3069 1003 2837 
Q 1156 2606 1428 2606 
Q 1700 2606 1854 2837 
Q 2009 3069 2009 3481 
Q 2009 3884 1853 4118 
Q 1697 4353 1428 4353 
z
M 4250 4750 
L 4750 4750 
L 1831 -91 
L 1331 -91 
L 4250 4750 
z
M 1428 4750 
Q 1922 4750 2215 4408 
Q 2509 4066 2509 3481 
Q 2509 2891 2217 2550 
Q 1925 2209 1428 2209 
Q 931 2209 642 2551 
Q 353 2894 353 3481 
Q 353 4063 643 4406 
Q 934 4750 1428 4750 
z
" transform="scale(0.015625)"/>
       <path id="DejaVuSans-5d" d="M 1947 4863 
L 1947 -844 
L 622 -844 
L 622 -397 
L 1369 -397 
L 1369 4416 
L 622 4416 
L 622 4863 
L 1947 4863 
z
" transform="scale(0.015625)"/>
      </defs>
      <use xlink:href="#DejaVuSans-50"/>
      <use xlink:href="#DejaVuSans-65" x="56.677734"/>
      <use xlink:href="#DejaVuSans-72" x="118.201172"/>
      <use xlink:href="#DejaVuSans-63" x="157.064453"/>
      <use xlink:href="#DejaVuSans-65" x="212.044922"/>
      <use xlink:href="#DejaVuSans-6e" x="273.568359"/>
      <use xlink:href="#DejaVuSans-74" x="336.947266"/>
      <use xlink:href="#DejaVuSans-20" x="376.15625"/>
      <use xlink:href="#DejaVuSans-46" x="407.943359"/>
      <use xlink:href="#DejaVuSans-6c" x="465.462891"/>
      <use xlink:href="#DejaVuSans-65" x="493.246094"/>
      <use xlink:href="#DejaVuSans-78" x="553.019531"/>
      <use xlink:href="#DejaVuSans-65" x="609.074219"/>
      <use xlink:href="#DejaVuSans-64" x="670.597656"/>
      <use xlink:href="#DejaVuSans-20" x="734.074219"/>
      <use xlink:href="#DejaVuSans-5b" x="765.861328"/>
      <use xlink:href="#DejaVuSans-25" x="804.875"/>
      <use xlink:href="#DejaVuSans-5d" x="899.894531"/>
     </g>
    </g>
   </g>
   <g id="matplotlib.axis_2">
    <g id="ytick_1">
     <g id="line2d_19">
      <path d="M 46.64 366.624579 
L 853.2 366.624579 
" clip-path="url(#pd320d7a9d4)" style="fill: none; stroke-dasharray: 2.96,1.28; stroke-dashoffset: 0; stroke: #b0b0b0; stroke-opacity: 0.7; stroke-width: 0.8"/>
     </g>
     <g id="line2d_20">
      <defs>
       <path id="mc1cbabd852" d="M 0 0 
L -3.5 0 
" style="stroke: #000000; stroke-width: 0.8"/>
      </defs>
      <g>
       <use xlink:href="#mc1cbabd852" x="46.64" y="366.624579" style="stroke: #000000; stroke-width: 0.8"/>
      </g>
     </g>
     <g id="text_11">
      <!-- −3 -->
      <g transform="translate(24.897813 370.423798) scale(0.1 -0.1)">
       <defs>
        <path id="DejaVuSans-33" d="M 2597 2516 
Q 3050 2419 3304 2112 
Q 3559 1806 3559 1356 
Q 3559 666 3084 287 
Q 2609 -91 1734 -91 
Q 1441 -91 1130 -33 
Q 819 25 488 141 
L 488 750 
Q 750 597 1062 519 
Q 1375 441 1716 441 
Q 2309 441 2620 675 
Q 2931 909 2931 1356 
Q 2931 1769 2642 2001 
Q 2353 2234 1838 2234 
L 1294 2234 
L 1294 2753 
L 1863 2753 
Q 2328 2753 2575 2939 
Q 2822 3125 2822 3475 
Q 2822 3834 2567 4026 
Q 2313 4219 1838 4219 
Q 1578 4219 1281 4162 
Q 984 4106 628 3988 
L 628 4550 
Q 988 4650 1302 4700 
Q 1616 4750 1894 4750 
Q 2613 4750 3031 4423 
Q 3450 4097 3450 3541 
Q 3450 3153 3228 2886 
Q 3006 2619 2597 2516 
z
" transform="scale(0.015625)"/>
       </defs>
       <use xlink:href="#DejaVuSans-2212"/>
       <use xlink:href="#DejaVuSans-33" x="83.789062"/>
      </g>
     </g>
    </g>
    <g id="ytick_2">
     <g id="line2d_21">
      <path d="M 46.64 318.131266 
L 853.2 318.131266 
" clip-path="url(#pd320d7a9d4)" style="fill: none; stroke-dasharray: 2.96,1.28; stroke-dashoffset: 0; stroke: #b0b0b0; stroke-opacity: 0.7; stroke-width: 0.8"/>
     </g>
     <g id="line2d_22">
      <g>
       <use xlink:href="#mc1cbabd852" x="46.64" y="318.131266" style="stroke: #000000; stroke-width: 0.8"/>
      </g>
     </g>
     <g id="text_12">
      <!-- −2 -->
      <g transform="translate(24.897813 321.930485) scale(0.1 -0.1)">
       <use xlink:href="#DejaVuSans-2212"/>
       <use xlink:href="#DejaVuSans-32" x="83.789062"/>
      </g>
     </g>
    </g>
    <g id="ytick_3">
     <g id="line2d_23">
      <path d="M 46.64 269.637953 
L 853.2 269.637953 
" clip-path="url(#pd320d7a9d4)" style="fill: none; stroke-dasharray: 2.96,1.28; stroke-dashoffset: 0; stroke: #b0b0b0; stroke-opacity: 0.7; stroke-width: 0.8"/>
     </g>
     <g id="line2d_24">
      <g>
       <use xlink:href="#mc1cbabd852" x="46.64" y="269.637953" style="stroke: #000000; stroke-width: 0.8"/>
      </g>
     </g>
     <g id="text_13">
      <!-- −1 -->
      <g transform="translate(24.897813 273.437172) scale(0.1 -0.1)">
       <use xlink:href="#DejaVuSans-2212"/>
       <use xlink:href="#DejaVuSans-31" x="83.789062"/>
      </g>
     </g>
    </g>
    <g id="ytick_4">
     <g id="line2d_25">
      <path d="M 46.64 221.14464 
L 853.2 221.14464 
" clip-path="url(#pd320d7a9d4)" style="fill: none; stroke-dasharray: 2.96,1.28; stroke-dashoffset: 0; stroke: #b0b0b0; stroke-opacity: 0.7; stroke-width: 0.8"/>
     </g>
     <g id="line2d_26">
      <g>
       <use xlink:href="#mc1cbabd852" x="46.64" y="221.14464" style="stroke: #000000; stroke-width: 0.8"/>
      </g>
     </g>
     <g id="text_14">
      <!-- 0 -->
      <g transform="translate(33.2775 224.943858) scale(0.1 -0.1)">
       <use xlink:href="#DejaVuSans-30"/>
      </g>
     </g>
    </g>
    <g id="ytick_5">
     <g id="line2d_27">
      <path d="M 46.64 172.651326 
L 853.2 172.651326 
" clip-path="url(#pd320d7a9d4)" style="fill: none; stroke-dasharray: 2.96,1.28; stroke-dashoffset: 0; stroke: #b0b0b0; stroke-opacity: 0.7; stroke-width: 0.8"/>
     </g>
     <g id="line2d_28">
      <g>
       <use xlink:href="#mc1cbabd852" x="46.64" y="172.651326" style="stroke: #000000; stroke-width: 0.8"/>
      </g>
     </g>
     <g id="text_15">
      <!-- 1 -->
      <g transform="translate(33.2775 176.450545) scale(0.1 -0.1)">
       <use xlink:href="#DejaVuSans-31"/>
      </g>
     </g>
    </g>
    <g id="ytick_6">
     <g id="line2d_29">
      <path d="M 46.64 124.158013 
L 853.2 124.158013 
" clip-path="url(#pd320d7a9d4)" style="fill: none; stroke-dasharray: 2.96,1.28; stroke-dashoffset: 0; stroke: #b0b0b0; stroke-opacity: 0.7; stroke-width: 0.8"/>
     </g>
     <g id="line2d_30">
      <g>
       <use xlink:href="#mc1cbabd852" x="46.64" y="124.158013" style="stroke: #000000; stroke-width: 0.8"/>
      </g>
     </g>
     <g id="text_16">
      <!-- 2 -->
      <g transform="translate(33.2775 127.957232) scale(0.1 -0.1)">
       <use xlink:href="#DejaVuSans-32"/>
      </g>
     </g>
    </g>
    <g id="ytick_7">
     <g id="line2d_31">
      <path d="M 46.64 75.6647 
L 853.2 75.6647 
" clip-path="url(#pd320d7a9d4)" style="fill: none; stroke-dasharray: 2.96,1.28; stroke-dashoffset: 0; stroke: #b0b0b0; stroke-opacity: 0.7; stroke-width: 0.8"/>
     </g>
     <g id="line2d_32">
      <g>
       <use xlink:href="#mc1cbabd852" x="46.64" y="75.6647" style="stroke: #000000; stroke-width: 0.8"/>
      </g>
     </g>
     <g id="text_17">
      <!-- 3 -->
      <g transform="translate(33.2775 79.463919) scale(0.1 -0.1)">
       <use xlink:href="#DejaVuSans-33"/>
      </g>
     </g>
    </g>
    <g id="ytick_8">
     <g id="line2d_33">
      <path d="M 46.64 27.171387 
L 853.2 27.171387 
" clip-path="url(#pd320d7a9d4)" style="fill: none; stroke-dasharray: 2.96,1.28; stroke-dashoffset: 0; stroke: #b0b0b0; stroke-opacity: 0.7; stroke-width: 0.8"/>
     </g>
     <g id="line2d_34">
      <g>
       <use xlink:href="#mc1cbabd852" x="46.64" y="27.171387" style="stroke: #000000; stroke-width: 0.8"/>
      </g>
     </g>
     <g id="text_18">
      <!-- 4 -->
      <g transform="translate(33.2775 30.970606) scale(0.1 -0.1)">
       <defs>
        <path id="DejaVuSans-34" d="M 2419 4116 
L 825 1625 
L 2419 1625 
L 2419 4116 
z
M 2253 4666 
L 3047 4666 
L 3047 1625 
L 3713 1625 
L 3713 1100 
L 3047 1100 
L 3047 0 
L 2419 0 
L 2419 1100 
L 313 1100 
L 313 1709 
L 2253 4666 
z
" transform="scale(0.015625)"/>
       </defs>
       <use xlink:href="#DejaVuSans-34"/>
      </g>
     </g>
    </g>
    <g id="text_19">
     <!-- Rate of Change of Angle [°/%] -->
     <g transform="translate(18.818125 282.99625) rotate(-90) scale(0.1 -0.1)">
      <defs>
       <path id="DejaVuSans-52" d="M 2841 2188 
Q 3044 2119 3236 1894 
Q 3428 1669 3622 1275 
L 4263 0 
L 3584 0 
L 2988 1197 
Q 2756 1666 2539 1819 
Q 2322 1972 1947 1972 
L 1259 1972 
L 1259 0 
L 628 0 
L 628 4666 
L 2053 4666 
Q 2853 4666 3247 4331 
Q 3641 3997 3641 3322 
Q 3641 2881 3436 2590 
Q 3231 2300 2841 2188 
z
M 1259 4147 
L 1259 2491 
L 2053 2491 
Q 2509 2491 2742 2702 
Q 2975 2913 2975 3322 
Q 2975 3731 2742 3939 
Q 2509 4147 2053 4147 
L 1259 4147 
z
" transform="scale(0.015625)"/>
       <path id="DejaVuSans-61" d="M 2194 1759 
Q 1497 1759 1228 1600 
Q 959 1441 959 1056 
Q 959 750 1161 570 
Q 1363 391 1709 391 
Q 2188 391 2477 730 
Q 2766 1069 2766 1631 
L 2766 1759 
L 2194 1759 
z
M 3341 1997 
L 3341 0 
L 2766 0 
L 2766 531 
Q 2569 213 2275 61 
Q 1981 -91 1556 -91 
Q 1019 -91 701 211 
Q 384 513 384 1019 
Q 384 1609 779 1909 
Q 1175 2209 1959 2209 
L 2766 2209 
L 2766 2266 
Q 2766 2663 2505 2880 
Q 2244 3097 1772 3097 
Q 1472 3097 1187 3025 
Q 903 2953 641 2809 
L 641 3341 
Q 956 3463 1253 3523 
Q 1550 3584 1831 3584 
Q 2591 3584 2966 3190 
Q 3341 2797 3341 1997 
z
" transform="scale(0.015625)"/>
       <path id="DejaVuSans-6f" d="M 1959 3097 
Q 1497 3097 1228 2736 
Q 959 2375 959 1747 
Q 959 1119 1226 758 
Q 1494 397 1959 397 
Q 2419 397 2687 759 
Q 2956 1122 2956 1747 
Q 2956 2369 2687 2733 
Q 2419 3097 1959 3097 
z
M 1959 3584 
Q 2709 3584 3137 3096 
Q 3566 2609 3566 1747 
Q 3566 888 3137 398 
Q 2709 -91 1959 -91 
Q 1206 -91 779 398 
Q 353 888 353 1747 
Q 353 2609 779 3096 
Q 1206 3584 1959 3584 
z
" transform="scale(0.015625)"/>
       <path id="DejaVuSans-66" d="M 2375 4863 
L 2375 4384 
L 1825 4384 
Q 1516 4384 1395 4259 
Q 1275 4134 1275 3809 
L 1275 3500 
L 2222 3500 
L 2222 3053 
L 1275 3053 
L 1275 0 
L 697 0 
L 697 3053 
L 147 3053 
L 147 3500 
L 697 3500 
L 697 3744 
Q 697 4328 969 4595 
Q 1241 4863 1831 4863 
L 2375 4863 
z
" transform="scale(0.015625)"/>
       <path id="DejaVuSans-43" d="M 4122 4306 
L 4122 3641 
Q 3803 3938 3442 4084 
Q 3081 4231 2675 4231 
Q 1875 4231 1450 3742 
Q 1025 3253 1025 2328 
Q 1025 1406 1450 917 
Q 1875 428 2675 428 
Q 3081 428 3442 575 
Q 3803 722 4122 1019 
L 4122 359 
Q 3791 134 3420 21 
Q 3050 -91 2638 -91 
Q 1578 -91 968 557 
Q 359 1206 359 2328 
Q 359 3453 968 4101 
Q 1578 4750 2638 4750 
Q 3056 4750 3426 4639 
Q 3797 4528 4122 4306 
z
" transform="scale(0.015625)"/>
       <path id="DejaVuSans-68" d="M 3513 2113 
L 3513 0 
L 2938 0 
L 2938 2094 
Q 2938 2591 2744 2837 
Q 2550 3084 2163 3084 
Q 1697 3084 1428 2787 
Q 1159 2491 1159 1978 
L 1159 0 
L 581 0 
L 581 4863 
L 1159 4863 
L 1159 2956 
Q 1366 3272 1645 3428 
Q 1925 3584 2291 3584 
Q 2894 3584 3203 3211 
Q 3513 2838 3513 2113 
z
" transform="scale(0.015625)"/>
       <path id="DejaVuSans-67" d="M 2906 1791 
Q 2906 2416 2648 2759 
Q 2391 3103 1925 3103 
Q 1463 3103 1205 2759 
Q 947 2416 947 1791 
Q 947 1169 1205 825 
Q 1463 481 1925 481 
Q 2391 481 2648 825 
Q 2906 1169 2906 1791 
z
M 3481 434 
Q 3481 -459 3084 -895 
Q 2688 -1331 1869 -1331 
Q 1566 -1331 1297 -1286 
Q 1028 -1241 775 -1147 
L 775 -588 
Q 1028 -725 1275 -790 
Q 1522 -856 1778 -856 
Q 2344 -856 2625 -561 
Q 2906 -266 2906 331 
L 2906 616 
Q 2728 306 2450 153 
Q 2172 0 1784 0 
Q 1141 0 747 490 
Q 353 981 353 1791 
Q 353 2603 747 3093 
Q 1141 3584 1784 3584 
Q 2172 3584 2450 3431 
Q 2728 3278 2906 2969 
L 2906 3500 
L 3481 3500 
L 3481 434 
z
" transform="scale(0.015625)"/>
       <path id="DejaVuSans-41" d="M 2188 4044 
L 1331 1722 
L 3047 1722 
L 2188 4044 
z
M 1831 4666 
L 2547 4666 
L 4325 0 
L 3669 0 
L 3244 1197 
L 1141 1197 
L 716 0 
L 50 0 
L 1831 4666 
z
" transform="scale(0.015625)"/>
       <path id="DejaVuSans-b0" d="M 1600 4347 
Q 1350 4347 1178 4173 
Q 1006 4000 1006 3750 
Q 1006 3503 1178 3333 
Q 1350 3163 1600 3163 
Q 1850 3163 2022 3333 
Q 2194 3503 2194 3750 
Q 2194 3997 2020 4172 
Q 1847 4347 1600 4347 
z
M 1600 4750 
Q 1800 4750 1984 4673 
Q 2169 4597 2303 4453 
Q 2447 4313 2519 4134 
Q 2591 3956 2591 3750 
Q 2591 3338 2302 3052 
Q 2013 2766 1594 2766 
Q 1172 2766 890 3047 
Q 609 3328 609 3750 
Q 609 4169 896 4459 
Q 1184 4750 1600 4750 
z
" transform="scale(0.015625)"/>
       <path id="DejaVuSans-2f" d="M 1625 4666 
L 2156 4666 
L 531 -594 
L 0 -594 
L 1625 4666 
z
" transform="scale(0.015625)"/>
      </defs>
      <use xlink:href="#DejaVuSans-52"/>
      <use xlink:href="#DejaVuSans-61" x="67.232422"/>
      <use xlink:href="#DejaVuSans-74" x="128.511719"/>
      <use xlink:href="#DejaVuSans-65" x="167.720703"/>
      <use xlink:href="#DejaVuSans-20" x="229.244141"/>
      <use xlink:href="#DejaVuSans-6f" x="261.03125"/>
      <use xlink:href="#DejaVuSans-66" x="322.212891"/>
      <use xlink:href="#DejaVuSans-20" x="357.417969"/>
      <use xlink:href="#DejaVuSans-43" x="389.205078"/>
      <use xlink:href="#DejaVuSans-68" x="459.029297"/>
      <use xlink:href="#DejaVuSans-61" x="522.408203"/>
      <use xlink:href="#DejaVuSans-6e" x="583.6875"/>
      <use xlink:href="#DejaVuSans-67" x="647.066406"/>
      <use xlink:href="#DejaVuSans-65" x="710.542969"/>
      <use xlink:href="#DejaVuSans-20" x="772.066406"/>
      <use xlink:href="#DejaVuSans-6f" x="803.853516"/>
      <use xlink:href="#DejaVuSans-66" x="865.035156"/>
      <use xlink:href="#DejaVuSans-20" x="900.240234"/>
      <use xlink:href="#DejaVuSans-41" x="932.027344"/>
      <use xlink:href="#DejaVuSans-6e" x="1000.435547"/>
      <use xlink:href="#DejaVuSans-67" x="1063.814453"/>
      <use xlink:href="#DejaVuSans-6c" x="1127.291016"/>
      <use xlink:href="#DejaVuSans-65" x="1155.074219"/>
      <use xlink:href="#DejaVuSans-20" x="1216.597656"/>
      <use xlink:href="#DejaVuSans-5b" x="1248.384766"/>
      <use xlink:href="#DejaVuSans-b0" x="1287.398438"/>
      <use xlink:href="#DejaVuSans-2f" x="1337.398438"/>
      <use xlink:href="#DejaVuSans-25" x="1371.089844"/>
      <use xlink:href="#DejaVuSans-5d" x="1466.109375"/>
     </g>
    </g>
   </g>
   <g id="line2d_35">
    <path d="M 83.301818 336.890564 
L 91.98488 317.872837 
L 100.667943 311.612582 
L 109.351005 309.75122 
L 118.034067 310.487187 
L 126.717129 306.476204 
L 135.400191 298.634116 
L 144.083254 297.341125 
L 152.766316 300.259069 
L 161.449378 315.172072 
L 170.13244 313.348775 
L 178.815502 295.313451 
L 187.498565 275.09737 
L 196.181627 291.641745 
L 204.864689 305.714984 
L 213.547751 305.378167 
L 222.230813 302.370928 
L 230.913876 304.384349 
L 239.596938 298.652479 
L 248.28 302.304774 
L 256.963062 305.256936 
L 265.646124 295.722733 
L 274.329187 286.815044 
L 283.012249 295.451019 
L 291.695311 297.251243 
L 300.378373 285.527323 
L 309.061435 280.188007 
L 317.744498 265.812149 
L 326.42756 253.310056 
L 335.110622 272.720403 
L 343.793684 284.62423 
L 352.476746 287.551209 
L 361.159809 290.468541 
L 369.842871 292.409589 
L 378.525933 288.695966 
L 387.208995 283.395872 
L 395.892057 275.095994 
L 404.57512 271.820467 
L 413.258182 276.401129 
L 421.941244 289.94955 
L 430.624306 292.841272 
" clip-path="url(#pd320d7a9d4)" style="fill: none; stroke: #1f77b4; stroke-width: 1.5; stroke-linecap: square"/>
   </g>
   <g id="line2d_36">
    <path d="M 83.301818 336.890564 
L 91.98488 329.657149 
L 100.667943 327.617693 
L 109.351005 339.886904 
L 118.034067 350.97023 
L 126.717129 336.41734 
L 135.400191 327.758381 
L 144.083254 325.22709 
L 152.766316 332.363134 
L 161.449378 331.110056 
L 170.13244 336.320066 
L 178.815502 326.538983 
L 187.498565 326.680778 
L 196.181627 321.604741 
L 204.864689 316.155193 
L 213.547751 317.426975 
L 222.230813 322.668518 
L 230.913876 312.437134 
L 239.596938 311.259945 
L 248.28 312.328612 
L 256.963062 315.816404 
L 265.646124 319.002698 
L 274.329187 316.740185 
L 283.012249 310.447105 
L 291.695311 322.592037 
L 300.378373 332.786153 
L 309.061435 312.114977 
L 317.744498 305.038931 
L 326.42756 306.078836 
L 335.110622 300.441557 
L 343.793684 304.313099 
L 352.476746 311.270271 
L 361.159809 320.266114 
L 369.842871 311.645374 
L 378.525933 300.709593 
L 387.208995 298.342691 
L 395.892057 304.054715 
L 404.57512 299.028907 
L 413.258182 292.480985 
L 421.941244 294.750432 
L 430.624306 292.841272 
" clip-path="url(#pd320d7a9d4)" style="fill: none; stroke: #1f77b4; stroke-width: 1.5; stroke-linecap: square"/>
   </g>
   <g id="line2d_37">
    <path d="M 486.581818 172.753229 
L 495.26488 119.384553 
L 503.947943 110.528846 
L 512.631005 116.815271 
L 521.314067 130.80234 
L 529.997129 151.937906 
L 538.680191 141.630152 
L 547.363254 132.286996 
L 556.046316 138.035167 
L 564.729378 136.115062 
L 573.41244 126.129218 
L 582.095502 138.770391 
L 590.778565 134.655066 
L 599.461627 131.522254 
L 608.144689 126.336464 
L 616.827751 117.947946 
L 625.510813 116.014818 
L 634.193876 128.411876 
L 642.876938 124.910784 
L 651.56 124.584423 
L 660.243062 118.775609 
L 668.926124 125.474085 
L 677.609187 133.416823 
L 686.292249 133.439793 
L 694.975311 129.31603 
L 703.658373 121.651431 
L 712.341435 114.094343 
L 721.024498 118.699179 
L 729.70756 120.821446 
L 738.390622 122.638093 
L 747.073684 106.849197 
L 755.756746 111.289516 
L 764.439809 122.740237 
L 773.122871 123.703504 
L 781.805933 119.897281 
L 790.488995 119.897603 
L 799.172057 118.13766 
L 807.85512 112.536129 
L 816.538182 110.590793 
" clip-path="url(#pd320d7a9d4)" style="fill: none; stroke: #1f77b4; stroke-width: 1.5; stroke-linecap: square"/>
   </g>
   <g id="line2d_38">
    <path d="M 486.581818 172.753229 
L 495.26488 149.264658 
L 503.947943 136.789057 
L 512.631005 153.583524 
L 521.314067 159.721128 
L 529.997129 158.083333 
L 538.680191 172.755662 
L 547.363254 164.3879 
L 556.046316 157.373536 
L 564.729378 164.15434 
L 573.41244 177.078478 
L 582.095502 174.532726 
L 590.778565 177.803103 
L 599.461627 157.880012 
L 608.144689 138.552598 
L 616.827751 146.847076 
L 625.510813 158.741639 
L 634.193876 145.75867 
L 642.876938 148.008964 
L 651.56 146.748043 
L 660.243062 153.440699 
L 668.926124 143.978184 
L 677.609187 139.67355 
L 686.292249 147.068081 
L 694.975311 142.684535 
L 703.658373 139.743731 
L 712.341435 139.344947 
L 721.024498 145.020636 
L 729.70756 158.222302 
L 738.390622 140.670942 
L 747.073684 139.597205 
L 755.756746 137.237813 
L 764.439809 137.44386 
L 773.122871 141.851251 
L 781.805933 140.638087 
L 790.488995 136.682658 
L 799.172057 132.137678 
L 807.85512 130.448323 
L 816.538182 132.703778 
" clip-path="url(#pd320d7a9d4)" style="fill: none; stroke: #1f77b4; stroke-width: 1.5; stroke-linecap: square"/>
   </g>
   <g id="line2d_39">
    <path d="M 83.301818 339.181085 
L 91.98488 297.911009 
L 100.667943 292.866246 
L 109.351005 326.782382 
L 118.034067 304.20042 
L 126.717129 278.914372 
L 135.400191 271.040126 
L 144.083254 302.638462 
L 152.766316 303.096214 
L 161.449378 289.112187 
L 170.13244 267.916598 
L 178.815502 294.071022 
L 187.498565 279.00368 
L 196.181627 283.818462 
L 204.864689 270.515782 
L 213.547751 277.710461 
L 222.230813 284.907221 
L 230.913876 271.732622 
L 239.596938 261.732279 
L 248.28 264.115528 
L 256.963062 259.228855 
L 265.646124 300.555603 
L 274.329187 304.6143 
L 283.012249 302.602343 
L 291.695311 297.274444 
L 300.378373 274.02657 
L 309.061435 263.827474 
L 317.744498 277.064669 
L 326.42756 283.929664 
L 335.110622 284.855033 
L 343.793684 272.390448 
L 352.476746 272.85751 
L 361.159809 273.796047 
L 369.842871 276.895423 
L 378.525933 226.027984 
L 387.208995 265.323391 
L 395.892057 286.533313 
L 404.57512 288.577897 
L 413.258182 251.4566 
L 421.941244 270.833886 
L 430.624306 299.298927 
" clip-path="url(#pd320d7a9d4)" style="fill: none; stroke: #ff7f0e; stroke-width: 1.5; stroke-linecap: square"/>
   </g>
   <g id="line2d_40">
    <path d="M 83.301818 339.181085 
L 91.98488 333.020386 
L 100.667943 336.622948 
L 109.351005 331.177545 
L 118.034067 356.745786 
L 126.717129 342.899407 
L 135.400191 332.241149 
L 144.083254 342.983471 
L 152.766316 371.192362 
L 161.449378 373.467273 
L 170.13244 354.011513 
L 178.815502 333.352806 
L 187.498565 350.977398 
L 196.181627 324.394663 
L 204.864689 330.581929 
L 213.547751 335.712177 
L 222.230813 330.853572 
L 230.913876 319.857797 
L 239.596938 308.26101 
L 248.28 296.269811 
L 256.963062 306.999144 
L 265.646124 321.54721 
L 274.329187 362.653063 
L 283.012249 364.982518 
L 291.695311 336.829469 
L 300.378373 310.818439 
L 309.061435 311.951641 
L 317.744498 318.461468 
L 326.42756 326.707413 
L 335.110622 344.929693 
L 343.793684 369.615415 
L 352.476746 368.931065 
L 361.159809 358.091023 
L 369.842871 318.902791 
L 378.525933 321.556262 
L 387.208995 313.228949 
L 395.892057 331.398269 
L 404.57512 311.136763 
L 413.258182 325.961952 
L 421.941244 352.805649 
L 430.624306 299.298927 
" clip-path="url(#pd320d7a9d4)" style="fill: none; stroke: #ff7f0e; stroke-width: 1.5; stroke-linecap: square"/>
   </g>
   <g id="line2d_41">
    <path d="M 486.581818 67.738296 
L 495.26488 120.021873 
L 503.947943 135.727258 
L 512.631005 143.036306 
L 521.314067 120.711007 
L 529.997129 118.347194 
L 538.680191 128.011629 
L 547.363254 120.692671 
L 556.046316 103.611652 
L 564.729378 121.174898 
L 573.41244 114.124867 
L 582.095502 109.951472 
L 590.778565 108.366219 
L 599.461627 99.926872 
L 608.144689 76.205336 
L 616.827751 90.042131 
L 625.510813 94.875659 
L 634.193876 91.716838 
L 642.876938 54.440157 
L 651.56 102.612721 
L 660.243062 119.225267 
L 668.926124 108.450191 
L 677.609187 107.63652 
L 686.292249 86.322983 
L 694.975311 74.77442 
L 703.658373 93.872515 
L 712.341435 95.59097 
L 721.024498 116.99958 
L 729.70756 130.086188 
L 738.390622 121.359025 
L 747.073684 52.958782 
L 755.756746 49.769935 
L 764.439809 74.467482 
L 773.122871 100.868202 
L 781.805933 118.095367 
L 790.488995 102.158989 
L 799.172057 67.777813 
L 807.85512 42.012727 
L 816.538182 62.706683 
" clip-path="url(#pd320d7a9d4)" style="fill: none; stroke: #ff7f0e; stroke-width: 1.5; stroke-linecap: square"/>
   </g>
   <g id="line2d_42">
    <path d="M 486.581818 67.738296 
L 495.26488 130.849441 
L 503.947943 184.425869 
L 512.631005 171.882154 
L 521.314067 185.326422 
L 529.997129 182.906143 
L 538.680191 182.262973 
L 547.363254 174.087957 
L 556.046316 168.27192 
L 564.729378 163.817147 
L 573.41244 190.414514 
L 582.095502 189.570467 
L 590.778565 174.466526 
L 599.461627 157.271857 
L 608.144689 175.423139 
L 616.827751 192.95801 
L 625.510813 191.027109 
L 634.193876 179.611967 
L 642.876938 206.063499 
L 651.56 205.271622 
L 660.243062 221.829344 
L 668.926124 194.510639 
L 677.609187 165.882747 
L 686.292249 172.327644 
L 694.975311 170.648498 
L 703.658373 158.437266 
L 712.341435 180.60443 
L 721.024498 180.612985 
L 729.70756 194.186404 
L 738.390622 167.479266 
L 747.073684 173.076408 
L 755.756746 150.072968 
L 764.439809 146.905943 
L 773.122871 171.623985 
L 781.805933 166.158602 
L 790.488995 162.861066 
L 799.172057 168.071876 
L 807.85512 176.585587 
L 816.538182 164.19326 
" clip-path="url(#pd320d7a9d4)" style="fill: none; stroke: #ff7f0e; stroke-width: 1.5; stroke-linecap: square"/>
   </g>
   <g id="patch_3">
    <path d="M 46.64 390.04 
L 46.64 25.44 
" style="fill: none; stroke: #000000; stroke-width: 0.8; stroke-linejoin: miter; stroke-linecap: square"/>
   </g>
   <g id="patch_4">
    <path d="M 853.2 390.04 
L 853.2 25.44 
" style="fill: none; stroke: #000000; stroke-width: 0.8; stroke-linejoin: miter; stroke-linecap: square"/>
   </g>
   <g id="patch_5">
    <path d="M 46.64 390.04 
L 853.2 390.04 
" style="fill: none; stroke: #000000; stroke-width: 0.8; stroke-linejoin: miter; stroke-linecap: square"/>
   </g>
   <g id="patch_6">
    <path d="M 46.64 25.44 
L 853.2 25.44 
" style="fill: none; stroke: #000000; stroke-width: 0.8; stroke-linejoin: miter; stroke-linecap: square"/>
   </g>
   <g id="text_20">
    <!-- Rate of Change of Angle vs. Percent Flexed -->
    <g transform="translate(320.480313 19.44) scale(0.12 -0.12)">
     <defs>
      <path id="DejaVuSans-76" d="M 191 3500 
L 800 3500 
L 1894 563 
L 2988 3500 
L 3597 3500 
L 2284 0 
L 1503 0 
L 191 3500 
z
" transform="scale(0.015625)"/>
      <path id="DejaVuSans-73" d="M 2834 3397 
L 2834 2853 
Q 2591 2978 2328 3040 
Q 2066 3103 1784 3103 
Q 1356 3103 1142 2972 
Q 928 2841 928 2578 
Q 928 2378 1081 2264 
Q 1234 2150 1697 2047 
L 1894 2003 
Q 2506 1872 2764 1633 
Q 3022 1394 3022 966 
Q 3022 478 2636 193 
Q 2250 -91 1575 -91 
Q 1294 -91 989 -36 
Q 684 19 347 128 
L 347 722 
Q 666 556 975 473 
Q 1284 391 1588 391 
Q 1994 391 2212 530 
Q 2431 669 2431 922 
Q 2431 1156 2273 1281 
Q 2116 1406 1581 1522 
L 1381 1569 
Q 847 1681 609 1914 
Q 372 2147 372 2553 
Q 372 3047 722 3315 
Q 1072 3584 1716 3584 
Q 2034 3584 2315 3537 
Q 2597 3491 2834 3397 
z
" transform="scale(0.015625)"/>
      <path id="DejaVuSans-2e" d="M 684 794 
L 1344 794 
L 1344 0 
L 684 0 
L 684 794 
z
" transform="scale(0.015625)"/>
     </defs>
     <use xlink:href="#DejaVuSans-52"/>
     <use xlink:href="#DejaVuSans-61" x="67.232422"/>
     <use xlink:href="#DejaVuSans-74" x="128.511719"/>
     <use xlink:href="#DejaVuSans-65" x="167.720703"/>
     <use xlink:href="#DejaVuSans-20" x="229.244141"/>
     <use xlink:href="#DejaVuSans-6f" x="261.03125"/>
     <use xlink:href="#DejaVuSans-66" x="322.212891"/>
     <use xlink:href="#DejaVuSans-20" x="357.417969"/>
     <use xlink:href="#DejaVuSans-43" x="389.205078"/>
     <use xlink:href="#DejaVuSans-68" x="459.029297"/>
     <use xlink:href="#DejaVuSans-61" x="522.408203"/>
     <use xlink:href="#DejaVuSans-6e" x="583.6875"/>
     <use xlink:href="#DejaVuSans-67" x="647.066406"/>
     <use xlink:href="#DejaVuSans-65" x="710.542969"/>
     <use xlink:href="#DejaVuSans-20" x="772.066406"/>
     <use xlink:href="#DejaVuSans-6f" x="803.853516"/>
     <use xlink:href="#DejaVuSans-66" x="865.035156"/>
     <use xlink:href="#DejaVuSans-20" x="900.240234"/>
     <use xlink:href="#DejaVuSans-41" x="932.027344"/>
     <use xlink:href="#DejaVuSans-6e" x="1000.435547"/>
     <use xlink:href="#DejaVuSans-67" x="1063.814453"/>
     <use xlink:href="#DejaVuSans-6c" x="1127.291016"/>
     <use xlink:href="#DejaVuSans-65" x="1155.074219"/>
     <use xlink:href="#DejaVuSans-20" x="1216.597656"/>
     <use xlink:href="#DejaVuSans-76" x="1248.384766"/>
     <use xlink:href="#DejaVuSans-73" x="1307.564453"/>
     <use xlink:href="#DejaVuSans-2e" x="1359.664062"/>
     <use xlink:href="#DejaVuSans-20" x="1391.451172"/>
     <use xlink:href="#DejaVuSans-50" x="1423.238281"/>
     <use xlink:href="#DejaVuSans-65" x="1479.916016"/>
     <use xlink:href="#DejaVuSans-72" x="1541.439453"/>
     <use xlink:href="#DejaVuSans-63" x="1580.302734"/>
     <use xlink:href="#DejaVuSans-65" x="1635.283203"/>
     <use xlink:href="#DejaVuSans-6e" x="1696.806641"/>
     <use xlink:href="#DejaVuSans-74" x="1760.185547"/>
     <use xlink:href="#DejaVuSans-20" x="1799.394531"/>
     <use xlink:href="#DejaVuSans-46" x="1831.181641"/>
     <use xlink:href="#DejaVuSans-6c" x="1888.701172"/>
     <use xlink:href="#DejaVuSans-65" x="1916.484375"/>
     <use xlink:href="#DejaVuSans-78" x="1976.257812"/>
     <use xlink:href="#DejaVuSans-65" x="2032.3125"/>
     <use xlink:href="#DejaVuSans-64" x="2093.835938"/>
    </g>
   </g>
   <g id="legend_1">
    <g id="patch_7">
     <path d="M 53.64 62.79625 
L 121.9775 62.79625 
Q 123.9775 62.79625 123.9775 60.79625 
L 123.9775 32.44 
Q 123.9775 30.44 121.9775 30.44 
L 53.64 30.44 
Q 51.64 30.44 51.64 32.44 
L 51.64 60.79625 
Q 51.64 62.79625 53.64 62.79625 
z
" style="fill: #ffffff; opacity: 0.8; stroke: #cccccc; stroke-linejoin: miter"/>
    </g>
    <g id="line2d_43">
     <path d="M 55.64 38.538437 
L 65.64 38.538437 
L 75.64 38.538437 
" style="fill: none; stroke: #1f77b4; stroke-width: 1.5; stroke-linecap: square"/>
    </g>
    <g id="text_21">
     <!-- Auto -->
     <g transform="translate(83.64 42.038437) scale(0.1 -0.1)">
      <defs>
       <path id="DejaVuSans-75" d="M 544 1381 
L 544 3500 
L 1119 3500 
L 1119 1403 
Q 1119 906 1312 657 
Q 1506 409 1894 409 
Q 2359 409 2629 706 
Q 2900 1003 2900 1516 
L 2900 3500 
L 3475 3500 
L 3475 0 
L 2900 0 
L 2900 538 
Q 2691 219 2414 64 
Q 2138 -91 1772 -91 
Q 1169 -91 856 284 
Q 544 659 544 1381 
z
M 1991 3584 
L 1991 3584 
z
" transform="scale(0.015625)"/>
      </defs>
      <use xlink:href="#DejaVuSans-41"/>
      <use xlink:href="#DejaVuSans-75" x="68.408203"/>
      <use xlink:href="#DejaVuSans-74" x="131.787109"/>
      <use xlink:href="#DejaVuSans-6f" x="170.996094"/>
     </g>
    </g>
    <g id="line2d_44">
     <path d="M 55.64 53.216563 
L 65.64 53.216563 
L 75.64 53.216563 
" style="fill: none; stroke: #ff7f0e; stroke-width: 1.5; stroke-linecap: square"/>
    </g>
    <g id="text_22">
     <!-- Manual -->
     <g transform="translate(83.64 56.716563) scale(0.1 -0.1)">
      <defs>
       <path id="DejaVuSans-4d" d="M 628 4666 
L 1569 4666 
L 2759 1491 
L 3956 4666 
L 4897 4666 
L 4897 0 
L 4281 0 
L 4281 4097 
L 3078 897 
L 2444 897 
L 1241 4097 
L 1241 0 
L 628 0 
L 628 4666 
z
" transform="scale(0.015625)"/>
      </defs>
      <use xlink:href="#DejaVuSans-4d"/>
      <use xlink:href="#DejaVuSans-61" x="86.279297"/>
      <use xlink:href="#DejaVuSans-6e" x="147.558594"/>
      <use xlink:href="#DejaVuSans-75" x="210.9375"/>
      <use xlink:href="#DejaVuSans-61" x="274.316406"/>
      <use xlink:href="#DejaVuSans-6c" x="335.595703"/>
     </g>
    </g>
   </g>
  </g>
 </g>
 <defs>
  <clipPath id="pd320d7a9d4">
   <rect x="46.64" y="25.44" width="806.56" height="364.6"/>
  </clipPath>
 </defs>
</svg>
