<?xml version="1.0" encoding="utf-8" standalone="no"?>
<!DOCTYPE svg PUBLIC "-//W3C//DTD SVG 1.1//EN"
  "http://www.w3.org/Graphics/SVG/1.1/DTD/svg11.dtd">
<svg xmlns:xlink="http://www.w3.org/1999/xlink" width="864pt" height="432pt" viewBox="0 0 864 432" xmlns="http://www.w3.org/2000/svg" version="1.1">
 <metadata>
  <rdf:RDF xmlns:dc="http://purl.org/dc/elements/1.1/" xmlns:cc="http://creativecommons.org/ns#" xmlns:rdf="http://www.w3.org/1999/02/22-rdf-syntax-ns#">
   <cc:Work>
    <dc:type rdf:resource="http://purl.org/dc/dcmitype/StillImage"/>
    <dc:date>2024-09-16T15:04:06.991032</dc:date>
    <dc:format>image/svg+xml</dc:format>
    <dc:creator>
     <cc:Agent>
      <dc:title>Matplotlib v3.5.1, https://matplotlib.org/</dc:title>
     </cc:Agent>
    </dc:creator>
   </cc:Work>
  </rdf:RDF>
 </metadata>
 <defs>
  <style type="text/css">*{stroke-linejoin: round; stroke-linecap: butt}</style>
 </defs>
 <g id="figure_1">
  <g id="patch_1">
   <path d="M 0 432 
L 864 432 
L 864 0 
L 0 0 
z
" style="fill: #ffffff"/>
  </g>
  <g id="axes_1">
   <g id="patch_2">
    <path d="M 46.64 345.6 
L 853.2 345.6 
L 853.2 25.44 
L 46.64 25.44 
z
" style="fill: #ffffff"/>
   </g>
   <g id="PolyCollection_1">
    <defs>
     <path id="m4d7bb747d3" d="M 83.301818 -142.670234 
L 83.301818 -142.670234 
L 91.98488 -158.750872 
L 100.667943 -176.3785 
L 109.351005 -165.902359 
L 118.034067 -162.117882 
L 126.717129 -168.387413 
L 135.400191 -175.018374 
L 144.083254 -176.111676 
L 152.766316 -173.644377 
L 161.449378 -161.034532 
L 170.13244 -162.57624 
L 178.815502 -177.826197 
L 187.498565 -194.920115 
L 196.181627 -180.930845 
L 204.864689 -169.031071 
L 213.547751 -169.31587 
L 222.230813 -171.858673 
L 230.913876 -170.156204 
L 239.596938 -175.002847 
L 248.28 -171.91461 
L 256.963062 -169.418379 
L 265.646124 -177.480123 
L 274.329187 -185.012113 
L 283.012249 -177.709874 
L 291.695311 -176.187676 
L 300.378373 -186.10096 
L 309.061435 -190.615674 
L 317.744498 -202.771331 
L 326.42756 -213.342607 
L 335.110622 -196.929984 
L 343.793684 -186.864579 
L 352.476746 -184.389641 
L 361.159809 -181.922861 
L 369.842871 -180.281587 
L 378.525933 -183.42168 
L 387.208995 -187.90323 
L 395.892057 -194.921278 
L 404.57512 -197.690935 
L 413.258182 -193.817708 
L 421.941244 -182.361699 
L 430.624306 -179.916573 
L 430.624306 -179.916573 
L 430.624306 -179.916573 
L 421.941244 -178.302263 
L 413.258182 -180.221218 
L 404.57512 -174.684554 
L 395.892057 -170.434929 
L 387.208995 -175.264791 
L 378.525933 -173.263432 
L 369.842871 -164.016568 
L 361.159809 -156.727211 
L 352.476746 -164.33374 
L 343.793684 -170.21645 
L 335.110622 -173.490073 
L 326.42756 -168.723412 
L 317.744498 -169.602715 
L 309.061435 -163.61949 
L 300.378373 -146.140761 
L 291.695311 -154.760502 
L 283.012249 -165.029777 
L 274.329187 -159.708597 
L 265.646124 -157.795506 
L 256.963062 -160.48971 
L 248.28 -163.438849 
L 239.596938 -164.342472 
L 230.913876 -163.347087 
L 222.230813 -154.695834 
L 213.547751 -159.127875 
L 204.864689 -160.203243 
L 196.181627 -155.595321 
L 187.498565 -151.303225 
L 178.815502 -151.423121 
L 170.13244 -143.152625 
L 161.449378 -147.558003 
L 152.766316 -146.49845 
L 144.083254 -152.532406 
L 135.400191 -150.392047 
L 126.717129 -143.070373 
L 118.034067 -131.072111 
L 109.351005 -119.835635 
L 100.667943 -100.952727 
L 91.98488 -148.786523 
L 83.301818 -142.670234 
z
" style="stroke: #1f77b4; stroke-opacity: 0.2"/>
    </defs>
    <g clip-path="url(#p8b49711abe)">
     <use xlink:href="#m4d7bb747d3" x="0" y="432" style="fill: #1f77b4; fill-opacity: 0.2; stroke: #1f77b4; stroke-opacity: 0.2"/>
    </g>
   </g>
   <g id="PolyCollection_2">
    <defs>
     <path id="m65353254be" d="M 486.581818 -281.458274 
L 486.581818 -281.458274 
L 495.26488 -326.584716 
L 503.947943 -334.072752 
L 512.631005 -328.757199 
L 521.314067 -316.930287 
L 529.997129 -299.058888 
L 538.680191 -307.774717 
L 547.363254 -315.674921 
L 556.046316 -310.814494 
L 564.729378 -312.438059 
L 573.41244 -320.881695 
L 582.095502 -310.192818 
L 590.778565 -313.672574 
L 599.461627 -316.321556 
L 608.144689 -320.706455 
L 616.827751 -327.799454 
L 625.510813 -329.434031 
L 634.193876 -318.951569 
L 642.876938 -321.911953 
L 651.56 -322.187912 
L 660.243062 -327.099616 
L 668.926124 -321.435648 
L 677.609187 -314.719583 
L 686.292249 -314.700161 
L 694.975311 -318.187052 
L 703.658373 -324.667934 
L 712.341435 -331.057908 
L 721.024498 -327.164242 
L 729.70756 -325.369737 
L 738.390622 -323.833651 
L 747.073684 -337.184118 
L 755.756746 -333.429559 
L 764.439809 -323.747282 
L 773.122871 -322.932782 
L 781.805933 -326.151174 
L 790.488995 -326.150902 
L 799.172057 -327.63904 
L 807.85512 -332.375472 
L 816.538182 -334.020372 
L 816.538182 -315.322506 
L 816.538182 -315.322506 
L 807.85512 -317.229629 
L 799.172057 -315.801178 
L 790.488995 -311.958123 
L 781.805933 -308.613568 
L 773.122871 -307.587765 
L 764.439809 -311.31448 
L 755.756746 -311.488705 
L 747.073684 -309.493697 
L 738.390622 -308.585787 
L 729.70756 -293.745051 
L 721.024498 -304.907858 
L 712.341435 -309.706997 
L 703.658373 -309.369801 
L 694.975311 -306.883173 
L 686.292249 -303.176619 
L 677.609187 -309.429142 
L 668.926124 -305.789314 
L 660.243062 -297.788186 
L 651.56 -303.447231 
L 642.876938 -302.381046 
L 634.193876 -304.283806 
L 625.510813 -293.30592 
L 616.827751 -303.363492 
L 608.144689 -310.376975 
L 599.461627 -294.034478 
L 590.778565 -277.1883 
L 582.095502 -279.953602 
L 573.41244 -277.801014 
L 564.729378 -288.729155 
L 556.046316 -294.462734 
L 547.363254 -288.531666 
L 538.680191 -281.456216 
L 529.997129 -293.862558 
L 521.314067 -292.477704 
L 512.631005 -297.667419 
L 503.947943 -311.868156 
L 495.26488 -301.319281 
L 486.581818 -281.458274 
z
" style="stroke: #1f77b4; stroke-opacity: 0.2"/>
    </defs>
    <g clip-path="url(#p8b49711abe)">
     <use xlink:href="#m65353254be" x="0" y="432" style="fill: #1f77b4; fill-opacity: 0.2; stroke: #1f77b4; stroke-opacity: 0.2"/>
    </g>
   </g>
   <g id="PolyCollection_3">
    <defs>
     <path id="m1529493004" d="M 83.301818 -140.73346 
L 83.301818 -140.73346 
L 91.98488 -175.629804 
L 100.667943 -179.895456 
L 109.351005 -151.217313 
L 118.034067 -170.311726 
L 126.717129 -191.692609 
L 135.400191 -198.35076 
L 144.083254 -171.632457 
L 152.766316 -171.2454 
L 161.449378 -183.06974 
L 170.13244 -200.991892 
L 178.815502 -178.876745 
L 187.498565 -191.617094 
L 196.181627 -187.545904 
L 204.864689 -198.794125 
L 213.547751 -192.710589 
L 222.230813 -186.625293 
L 230.913876 -197.765213 
L 239.596938 -206.221108 
L 248.28 -204.205926 
L 256.963062 -208.337904 
L 265.646124 -173.39364 
L 274.329187 -169.961766 
L 283.012249 -171.662998 
L 291.695311 -176.168058 
L 300.378373 -195.825541 
L 309.061435 -204.449493 
L 317.744498 -193.256645 
L 326.42756 -187.451876 
L 335.110622 -186.669421 
L 343.793684 -197.208981 
L 352.476746 -196.814052 
L 361.159809 -196.020462 
L 369.842871 -193.399752 
L 378.525933 -236.411247 
L 387.208995 -203.184605 
L 395.892057 -185.250333 
L 404.57512 -183.521514 
L 413.258182 -214.909815 
L 421.941244 -198.525148 
L 430.624306 -174.456236 
L 430.624306 -174.456236 
L 430.624306 -174.456236 
L 421.941244 -129.213067 
L 413.258182 -151.911036 
L 404.57512 -164.446629 
L 395.892057 -147.314301 
L 387.208995 -162.67756 
L 378.525933 -155.636313 
L 369.842871 -157.879983 
L 361.159809 -124.743964 
L 352.476746 -115.578053 
L 343.793684 -114.999393 
L 335.110622 -135.872664 
L 326.42756 -151.280703 
L 317.744498 -158.253148 
L 309.061435 -163.757601 
L 300.378373 -164.715792 
L 291.695311 -142.721893 
L 283.012249 -118.916788 
L 274.329187 -120.886483 
L 265.646124 -155.643967 
L 256.963062 -167.945236 
L 248.28 -177.017536 
L 239.596938 -166.878253 
L 230.913876 -157.072468 
L 222.230813 -147.774875 
L 213.547751 -143.666631 
L 204.864689 -148.004566 
L 196.181627 -153.236273 
L 187.498565 -130.758964 
L 178.815502 -145.661622 
L 170.13244 -128.193436 
L 161.449378 -111.742415 
L 152.766316 -113.66599 
L 144.083254 -137.518312 
L 135.400191 -146.601595 
L 126.717129 -137.589394 
L 118.034067 -125.881443 
L 109.351005 -147.500937 
L 100.667943 -142.896519 
L 91.98488 -145.942703 
L 83.301818 -140.73346 
z
" style="stroke: #ff7f0e; stroke-opacity: 0.2"/>
    </defs>
    <g clip-path="url(#p8b49711abe)">
     <use xlink:href="#m1529493004" x="0" y="432" style="fill: #ff7f0e; fill-opacity: 0.2; stroke: #ff7f0e; stroke-opacity: 0.2"/>
    </g>
   </g>
   <g id="PolyCollection_4">
    <defs>
     <path id="m4eaaedf4a8" d="M 486.581818 -370.254749 
L 486.581818 -370.254749 
L 495.26488 -326.045824 
L 503.947943 -312.765971 
L 512.631005 -306.585729 
L 521.314067 -325.463119 
L 529.997129 -327.461866 
L 538.680191 -319.290002 
L 547.363254 -325.478624 
L 556.046316 -339.921657 
L 564.729378 -325.070871 
L 573.41244 -331.032099 
L 582.095502 -334.560957 
L 590.778565 -335.901384 
L 599.461627 -343.037362 
L 608.144689 -363.095355 
L 616.827751 -351.395508 
L 625.510813 -347.308468 
L 634.193876 -349.979442 
L 642.876938 -381.49913 
L 651.56 -340.766314 
L 660.243062 -326.719402 
L 668.926124 -335.83038 
L 677.609187 -336.518388 
L 686.292249 -354.540272 
L 694.975311 -364.305281 
L 703.658373 -348.156687 
L 712.341435 -346.703629 
L 721.024498 -328.601355 
L 729.70756 -317.535837 
L 738.390622 -324.915181 
L 747.073684 -382.751721 
L 755.756746 -385.448084 
L 764.439809 -364.564815 
L 773.122871 -342.24141 
L 781.805933 -327.674801 
L 790.488995 -341.149972 
L 799.172057 -370.221335 
L 807.85512 -392.007273 
L 816.538182 -374.509282 
L 816.538182 -288.696245 
L 816.538182 -288.696245 
L 807.85512 -278.217783 
L 799.172057 -285.416641 
L 790.488995 -289.822696 
L 781.805933 -287.03443 
L 773.122871 -282.413118 
L 764.439809 -303.313717 
L 755.756746 -300.635806 
L 747.073684 -281.185006 
L 738.390622 -285.917729 
L 729.70756 -263.335229 
L 721.024498 -274.812375 
L 712.341435 -274.819609 
L 703.658373 -293.563286 
L 694.975311 -283.237951 
L 686.292249 -281.818132 
L 677.609187 -287.267682 
L 668.926124 -263.061068 
L 660.243062 -239.961452 
L 651.56 -253.962007 
L 642.876938 -253.292427 
L 634.193876 -275.658797 
L 625.510813 -266.006604 
L 616.827751 -264.37391 
L 608.144689 -279.200704 
L 599.461627 -294.54871 
L 590.778565 -280.009578 
L 582.095502 -267.238283 
L 573.41244 -266.524589 
L 564.729378 -289.014271 
L 556.046316 -285.247492 
L 547.363254 -280.329681 
L 538.680191 -273.41721 
L 529.997129 -272.873372 
L 521.314067 -270.826879 
L 512.631005 -282.194821 
L 503.947943 -271.588352 
L 495.26488 -316.890461 
L 486.581818 -370.254749 
z
" style="stroke: #ff7f0e; stroke-opacity: 0.2"/>
    </defs>
    <g clip-path="url(#p8b49711abe)">
     <use xlink:href="#m4eaaedf4a8" x="0" y="432" style="fill: #ff7f0e; fill-opacity: 0.2; stroke: #ff7f0e; stroke-opacity: 0.2"/>
    </g>
   </g>
   <g id="matplotlib.axis_1">
    <g id="xtick_1">
     <g id="line2d_1">
      <path d="M 64.006124 345.6 
L 64.006124 25.44 
" clip-path="url(#p8b49711abe)" style="fill: none; stroke-dasharray: 2.96,1.28; stroke-dashoffset: 0; stroke: #b0b0b0; stroke-opacity: 0.7; stroke-width: 0.8"/>
     </g>
     <g id="line2d_2">
      <defs>
       <path id="m22911486cb" d="M 0 0 
L 0 3.5 
" style="stroke: #000000; stroke-width: 0.8"/>
      </defs>
      <g>
       <use xlink:href="#m22911486cb" x="64.006124" y="345.6" style="stroke: #000000; stroke-width: 0.8"/>
      </g>
     </g>
     <g id="text_1">
      <!-- −100 -->
      <g transform="translate(50.272531 360.198437)scale(0.1 -0.1)">
       <defs>
        <path id="DejaVuSans-2212" d="M 678 2272 
L 4684 2272 
L 4684 1741 
L 678 1741 
L 678 2272 
z
" transform="scale(0.015625)"/>
        <path id="DejaVuSans-31" d="M 794 531 
L 1825 531 
L 1825 4091 
L 703 3866 
L 703 4441 
L 1819 4666 
L 2450 4666 
L 2450 531 
L 3481 531 
L 3481 0 
L 794 0 
L 794 531 
z
" transform="scale(0.015625)"/>
        <path id="DejaVuSans-30" d="M 2034 4250 
Q 1547 4250 1301 3770 
Q 1056 3291 1056 2328 
Q 1056 1369 1301 889 
Q 1547 409 2034 409 
Q 2525 409 2770 889 
Q 3016 1369 3016 2328 
Q 3016 3291 2770 3770 
Q 2525 4250 2034 4250 
z
M 2034 4750 
Q 2819 4750 3233 4129 
Q 3647 3509 3647 2328 
Q 3647 1150 3233 529 
Q 2819 -91 2034 -91 
Q 1250 -91 836 529 
Q 422 1150 422 2328 
Q 422 3509 836 4129 
Q 1250 4750 2034 4750 
z
" transform="scale(0.015625)"/>
       </defs>
       <use xlink:href="#DejaVuSans-2212"/>
       <use xlink:href="#DejaVuSans-31" x="83.789062"/>
       <use xlink:href="#DejaVuSans-30" x="147.412109"/>
       <use xlink:href="#DejaVuSans-30" x="211.035156"/>
      </g>
     </g>
    </g>
    <g id="xtick_2">
     <g id="line2d_3">
      <path d="M 160.484593 345.6 
L 160.484593 25.44 
" clip-path="url(#p8b49711abe)" style="fill: none; stroke-dasharray: 2.96,1.28; stroke-dashoffset: 0; stroke: #b0b0b0; stroke-opacity: 0.7; stroke-width: 0.8"/>
     </g>
     <g id="line2d_4">
      <g>
       <use xlink:href="#m22911486cb" x="160.484593" y="345.6" style="stroke: #000000; stroke-width: 0.8"/>
      </g>
     </g>
     <g id="text_2">
      <!-- −75 -->
      <g transform="translate(149.93225 360.198437)scale(0.1 -0.1)">
       <defs>
        <path id="DejaVuSans-37" d="M 525 4666 
L 3525 4666 
L 3525 4397 
L 1831 0 
L 1172 0 
L 2766 4134 
L 525 4134 
L 525 4666 
z
" transform="scale(0.015625)"/>
        <path id="DejaVuSans-35" d="M 691 4666 
L 3169 4666 
L 3169 4134 
L 1269 4134 
L 1269 2991 
Q 1406 3038 1543 3061 
Q 1681 3084 1819 3084 
Q 2600 3084 3056 2656 
Q 3513 2228 3513 1497 
Q 3513 744 3044 326 
Q 2575 -91 1722 -91 
Q 1428 -91 1123 -41 
Q 819 9 494 109 
L 494 744 
Q 775 591 1075 516 
Q 1375 441 1709 441 
Q 2250 441 2565 725 
Q 2881 1009 2881 1497 
Q 2881 1984 2565 2268 
Q 2250 2553 1709 2553 
Q 1456 2553 1204 2497 
Q 953 2441 691 2322 
L 691 4666 
z
" transform="scale(0.015625)"/>
       </defs>
       <use xlink:href="#DejaVuSans-2212"/>
       <use xlink:href="#DejaVuSans-37" x="83.789062"/>
       <use xlink:href="#DejaVuSans-35" x="147.412109"/>
      </g>
     </g>
    </g>
    <g id="xtick_3">
     <g id="line2d_5">
      <path d="M 256.963062 345.6 
L 256.963062 25.44 
" clip-path="url(#p8b49711abe)" style="fill: none; stroke-dasharray: 2.96,1.28; stroke-dashoffset: 0; stroke: #b0b0b0; stroke-opacity: 0.7; stroke-width: 0.8"/>
     </g>
     <g id="line2d_6">
      <g>
       <use xlink:href="#m22911486cb" x="256.963062" y="345.6" style="stroke: #000000; stroke-width: 0.8"/>
      </g>
     </g>
     <g id="text_3">
      <!-- −50 -->
      <g transform="translate(246.410718 360.198437)scale(0.1 -0.1)">
       <use xlink:href="#DejaVuSans-2212"/>
       <use xlink:href="#DejaVuSans-35" x="83.789062"/>
       <use xlink:href="#DejaVuSans-30" x="147.412109"/>
      </g>
     </g>
    </g>
    <g id="xtick_4">
     <g id="line2d_7">
      <path d="M 353.441531 345.6 
L 353.441531 25.44 
" clip-path="url(#p8b49711abe)" style="fill: none; stroke-dasharray: 2.96,1.28; stroke-dashoffset: 0; stroke: #b0b0b0; stroke-opacity: 0.7; stroke-width: 0.8"/>
     </g>
     <g id="line2d_8">
      <g>
       <use xlink:href="#m22911486cb" x="353.441531" y="345.6" style="stroke: #000000; stroke-width: 0.8"/>
      </g>
     </g>
     <g id="text_4">
      <!-- −25 -->
      <g transform="translate(342.889187 360.198437)scale(0.1 -0.1)">
       <defs>
        <path id="DejaVuSans-32" d="M 1228 531 
L 3431 531 
L 3431 0 
L 469 0 
L 469 531 
Q 828 903 1448 1529 
Q 2069 2156 2228 2338 
Q 2531 2678 2651 2914 
Q 2772 3150 2772 3378 
Q 2772 3750 2511 3984 
Q 2250 4219 1831 4219 
Q 1534 4219 1204 4116 
Q 875 4013 500 3803 
L 500 4441 
Q 881 4594 1212 4672 
Q 1544 4750 1819 4750 
Q 2544 4750 2975 4387 
Q 3406 4025 3406 3419 
Q 3406 3131 3298 2873 
Q 3191 2616 2906 2266 
Q 2828 2175 2409 1742 
Q 1991 1309 1228 531 
z
" transform="scale(0.015625)"/>
       </defs>
       <use xlink:href="#DejaVuSans-2212"/>
       <use xlink:href="#DejaVuSans-32" x="83.789062"/>
       <use xlink:href="#DejaVuSans-35" x="147.412109"/>
      </g>
     </g>
    </g>
    <g id="xtick_5">
     <g id="line2d_9">
      <path d="M 449.92 345.6 
L 449.92 25.44 
" clip-path="url(#p8b49711abe)" style="fill: none; stroke-dasharray: 2.96,1.28; stroke-dashoffset: 0; stroke: #b0b0b0; stroke-opacity: 0.7; stroke-width: 0.8"/>
     </g>
     <g id="line2d_10">
      <g>
       <use xlink:href="#m22911486cb" x="449.92" y="345.6" style="stroke: #000000; stroke-width: 0.8"/>
      </g>
     </g>
     <g id="text_5">
      <!-- 0 -->
      <g transform="translate(446.73875 360.198437)scale(0.1 -0.1)">
       <use xlink:href="#DejaVuSans-30"/>
      </g>
     </g>
    </g>
    <g id="xtick_6">
     <g id="line2d_11">
      <path d="M 546.398469 345.6 
L 546.398469 25.44 
" clip-path="url(#p8b49711abe)" style="fill: none; stroke-dasharray: 2.96,1.28; stroke-dashoffset: 0; stroke: #b0b0b0; stroke-opacity: 0.7; stroke-width: 0.8"/>
     </g>
     <g id="line2d_12">
      <g>
       <use xlink:href="#m22911486cb" x="546.398469" y="345.6" style="stroke: #000000; stroke-width: 0.8"/>
      </g>
     </g>
     <g id="text_6">
      <!-- 25 -->
      <g transform="translate(540.035969 360.198437)scale(0.1 -0.1)">
       <use xlink:href="#DejaVuSans-32"/>
       <use xlink:href="#DejaVuSans-35" x="63.623047"/>
      </g>
     </g>
    </g>
    <g id="xtick_7">
     <g id="line2d_13">
      <path d="M 642.876938 345.6 
L 642.876938 25.44 
" clip-path="url(#p8b49711abe)" style="fill: none; stroke-dasharray: 2.96,1.28; stroke-dashoffset: 0; stroke: #b0b0b0; stroke-opacity: 0.7; stroke-width: 0.8"/>
     </g>
     <g id="line2d_14">
      <g>
       <use xlink:href="#m22911486cb" x="642.876938" y="345.6" style="stroke: #000000; stroke-width: 0.8"/>
      </g>
     </g>
     <g id="text_7">
      <!-- 50 -->
      <g transform="translate(636.514438 360.198437)scale(0.1 -0.1)">
       <use xlink:href="#DejaVuSans-35"/>
       <use xlink:href="#DejaVuSans-30" x="63.623047"/>
      </g>
     </g>
    </g>
    <g id="xtick_8">
     <g id="line2d_15">
      <path d="M 739.355407 345.6 
L 739.355407 25.44 
" clip-path="url(#p8b49711abe)" style="fill: none; stroke-dasharray: 2.96,1.28; stroke-dashoffset: 0; stroke: #b0b0b0; stroke-opacity: 0.7; stroke-width: 0.8"/>
     </g>
     <g id="line2d_16">
      <g>
       <use xlink:href="#m22911486cb" x="739.355407" y="345.6" style="stroke: #000000; stroke-width: 0.8"/>
      </g>
     </g>
     <g id="text_8">
      <!-- 75 -->
      <g transform="translate(732.992907 360.198437)scale(0.1 -0.1)">
       <use xlink:href="#DejaVuSans-37"/>
       <use xlink:href="#DejaVuSans-35" x="63.623047"/>
      </g>
     </g>
    </g>
    <g id="xtick_9">
     <g id="line2d_17">
      <path d="M 835.833876 345.6 
L 835.833876 25.44 
" clip-path="url(#p8b49711abe)" style="fill: none; stroke-dasharray: 2.96,1.28; stroke-dashoffset: 0; stroke: #b0b0b0; stroke-opacity: 0.7; stroke-width: 0.8"/>
     </g>
     <g id="line2d_18">
      <g>
       <use xlink:href="#m22911486cb" x="835.833876" y="345.6" style="stroke: #000000; stroke-width: 0.8"/>
      </g>
     </g>
     <g id="text_9">
      <!-- 100 -->
      <g transform="translate(826.290126 360.198437)scale(0.1 -0.1)">
       <use xlink:href="#DejaVuSans-31"/>
       <use xlink:href="#DejaVuSans-30" x="63.623047"/>
       <use xlink:href="#DejaVuSans-30" x="127.246094"/>
      </g>
     </g>
    </g>
    <g id="text_10">
     <!-- Percent Flexed [%] -->
     <g transform="translate(402.973906 373.876562)scale(0.1 -0.1)">
      <defs>
       <path id="DejaVuSans-50" d="M 1259 4147 
L 1259 2394 
L 2053 2394 
Q 2494 2394 2734 2622 
Q 2975 2850 2975 3272 
Q 2975 3691 2734 3919 
Q 2494 4147 2053 4147 
L 1259 4147 
z
M 628 4666 
L 2053 4666 
Q 2838 4666 3239 4311 
Q 3641 3956 3641 3272 
Q 3641 2581 3239 2228 
Q 2838 1875 2053 1875 
L 1259 1875 
L 1259 0 
L 628 0 
L 628 4666 
z
" transform="scale(0.015625)"/>
       <path id="DejaVuSans-65" d="M 3597 1894 
L 3597 1613 
L 953 1613 
Q 991 1019 1311 708 
Q 1631 397 2203 397 
Q 2534 397 2845 478 
Q 3156 559 3463 722 
L 3463 178 
Q 3153 47 2828 -22 
Q 2503 -91 2169 -91 
Q 1331 -91 842 396 
Q 353 884 353 1716 
Q 353 2575 817 3079 
Q 1281 3584 2069 3584 
Q 2775 3584 3186 3129 
Q 3597 2675 3597 1894 
z
M 3022 2063 
Q 3016 2534 2758 2815 
Q 2500 3097 2075 3097 
Q 1594 3097 1305 2825 
Q 1016 2553 972 2059 
L 3022 2063 
z
" transform="scale(0.015625)"/>
       <path id="DejaVuSans-72" d="M 2631 2963 
Q 2534 3019 2420 3045 
Q 2306 3072 2169 3072 
Q 1681 3072 1420 2755 
Q 1159 2438 1159 1844 
L 1159 0 
L 581 0 
L 581 3500 
L 1159 3500 
L 1159 2956 
Q 1341 3275 1631 3429 
Q 1922 3584 2338 3584 
Q 2397 3584 2469 3576 
Q 2541 3569 2628 3553 
L 2631 2963 
z
" transform="scale(0.015625)"/>
       <path id="DejaVuSans-63" d="M 3122 3366 
L 3122 2828 
Q 2878 2963 2633 3030 
Q 2388 3097 2138 3097 
Q 1578 3097 1268 2742 
Q 959 2388 959 1747 
Q 959 1106 1268 751 
Q 1578 397 2138 397 
Q 2388 397 2633 464 
Q 2878 531 3122 666 
L 3122 134 
Q 2881 22 2623 -34 
Q 2366 -91 2075 -91 
Q 1284 -91 818 406 
Q 353 903 353 1747 
Q 353 2603 823 3093 
Q 1294 3584 2113 3584 
Q 2378 3584 2631 3529 
Q 2884 3475 3122 3366 
z
" transform="scale(0.015625)"/>
       <path id="DejaVuSans-6e" d="M 3513 2113 
L 3513 0 
L 2938 0 
L 2938 2094 
Q 2938 2591 2744 2837 
Q 2550 3084 2163 3084 
Q 1697 3084 1428 2787 
Q 1159 2491 1159 1978 
L 1159 0 
L 581 0 
L 581 3500 
L 1159 3500 
L 1159 2956 
Q 1366 3272 1645 3428 
Q 1925 3584 2291 3584 
Q 2894 3584 3203 3211 
Q 3513 2838 3513 2113 
z
" transform="scale(0.015625)"/>
       <path id="DejaVuSans-74" d="M 1172 4494 
L 1172 3500 
L 2356 3500 
L 2356 3053 
L 1172 3053 
L 1172 1153 
Q 1172 725 1289 603 
Q 1406 481 1766 481 
L 2356 481 
L 2356 0 
L 1766 0 
Q 1100 0 847 248 
Q 594 497 594 1153 
L 594 3053 
L 172 3053 
L 172 3500 
L 594 3500 
L 594 4494 
L 1172 4494 
z
" transform="scale(0.015625)"/>
       <path id="DejaVuSans-20" transform="scale(0.015625)"/>
       <path id="DejaVuSans-46" d="M 628 4666 
L 3309 4666 
L 3309 4134 
L 1259 4134 
L 1259 2759 
L 3109 2759 
L 3109 2228 
L 1259 2228 
L 1259 0 
L 628 0 
L 628 4666 
z
" transform="scale(0.015625)"/>
       <path id="DejaVuSans-6c" d="M 603 4863 
L 1178 4863 
L 1178 0 
L 603 0 
L 603 4863 
z
" transform="scale(0.015625)"/>
       <path id="DejaVuSans-78" d="M 3513 3500 
L 2247 1797 
L 3578 0 
L 2900 0 
L 1881 1375 
L 863 0 
L 184 0 
L 1544 1831 
L 300 3500 
L 978 3500 
L 1906 2253 
L 2834 3500 
L 3513 3500 
z
" transform="scale(0.015625)"/>
       <path id="DejaVuSans-64" d="M 2906 2969 
L 2906 4863 
L 3481 4863 
L 3481 0 
L 2906 0 
L 2906 525 
Q 2725 213 2448 61 
Q 2172 -91 1784 -91 
Q 1150 -91 751 415 
Q 353 922 353 1747 
Q 353 2572 751 3078 
Q 1150 3584 1784 3584 
Q 2172 3584 2448 3432 
Q 2725 3281 2906 2969 
z
M 947 1747 
Q 947 1113 1208 752 
Q 1469 391 1925 391 
Q 2381 391 2643 752 
Q 2906 1113 2906 1747 
Q 2906 2381 2643 2742 
Q 2381 3103 1925 3103 
Q 1469 3103 1208 2742 
Q 947 2381 947 1747 
z
" transform="scale(0.015625)"/>
       <path id="DejaVuSans-5b" d="M 550 4863 
L 1875 4863 
L 1875 4416 
L 1125 4416 
L 1125 -397 
L 1875 -397 
L 1875 -844 
L 550 -844 
L 550 4863 
z
" transform="scale(0.015625)"/>
       <path id="DejaVuSans-25" d="M 4653 2053 
Q 4381 2053 4226 1822 
Q 4072 1591 4072 1178 
Q 4072 772 4226 539 
Q 4381 306 4653 306 
Q 4919 306 5073 539 
Q 5228 772 5228 1178 
Q 5228 1588 5073 1820 
Q 4919 2053 4653 2053 
z
M 4653 2450 
Q 5147 2450 5437 2106 
Q 5728 1763 5728 1178 
Q 5728 594 5436 251 
Q 5144 -91 4653 -91 
Q 4153 -91 3862 251 
Q 3572 594 3572 1178 
Q 3572 1766 3864 2108 
Q 4156 2450 4653 2450 
z
M 1428 4353 
Q 1159 4353 1004 4120 
Q 850 3888 850 3481 
Q 850 3069 1003 2837 
Q 1156 2606 1428 2606 
Q 1700 2606 1854 2837 
Q 2009 3069 2009 3481 
Q 2009 3884 1853 4118 
Q 1697 4353 1428 4353 
z
M 4250 4750 
L 4750 4750 
L 1831 -91 
L 1331 -91 
L 4250 4750 
z
M 1428 4750 
Q 1922 4750 2215 4408 
Q 2509 4066 2509 3481 
Q 2509 2891 2217 2550 
Q 1925 2209 1428 2209 
Q 931 2209 642 2551 
Q 353 2894 353 3481 
Q 353 4063 643 4406 
Q 934 4750 1428 4750 
z
" transform="scale(0.015625)"/>
       <path id="DejaVuSans-5d" d="M 1947 4863 
L 1947 -844 
L 622 -844 
L 622 -397 
L 1369 -397 
L 1369 4416 
L 622 4416 
L 622 4863 
L 1947 4863 
z
" transform="scale(0.015625)"/>
      </defs>
      <use xlink:href="#DejaVuSans-50"/>
      <use xlink:href="#DejaVuSans-65" x="56.677734"/>
      <use xlink:href="#DejaVuSans-72" x="118.201172"/>
      <use xlink:href="#DejaVuSans-63" x="157.064453"/>
      <use xlink:href="#DejaVuSans-65" x="212.044922"/>
      <use xlink:href="#DejaVuSans-6e" x="273.568359"/>
      <use xlink:href="#DejaVuSans-74" x="336.947266"/>
      <use xlink:href="#DejaVuSans-20" x="376.15625"/>
      <use xlink:href="#DejaVuSans-46" x="407.943359"/>
      <use xlink:href="#DejaVuSans-6c" x="465.462891"/>
      <use xlink:href="#DejaVuSans-65" x="493.246094"/>
      <use xlink:href="#DejaVuSans-78" x="553.019531"/>
      <use xlink:href="#DejaVuSans-65" x="609.074219"/>
      <use xlink:href="#DejaVuSans-64" x="670.597656"/>
      <use xlink:href="#DejaVuSans-20" x="734.074219"/>
      <use xlink:href="#DejaVuSans-5b" x="765.861328"/>
      <use xlink:href="#DejaVuSans-25" x="804.875"/>
      <use xlink:href="#DejaVuSans-5d" x="899.894531"/>
     </g>
    </g>
   </g>
   <g id="matplotlib.axis_2">
    <g id="ytick_1">
     <g id="line2d_19">
      <path d="M 46.64 314.471674 
L 853.2 314.471674 
" clip-path="url(#p8b49711abe)" style="fill: none; stroke-dasharray: 2.96,1.28; stroke-dashoffset: 0; stroke: #b0b0b0; stroke-opacity: 0.7; stroke-width: 0.8"/>
     </g>
     <g id="line2d_20">
      <defs>
       <path id="m1a76b412a8" d="M 0 0 
L -3.5 0 
" style="stroke: #000000; stroke-width: 0.8"/>
      </defs>
      <g>
       <use xlink:href="#m1a76b412a8" x="46.64" y="314.471674" style="stroke: #000000; stroke-width: 0.8"/>
      </g>
     </g>
     <g id="text_11">
      <!-- −3 -->
      <g transform="translate(24.897813 318.270893)scale(0.1 -0.1)">
       <defs>
        <path id="DejaVuSans-33" d="M 2597 2516 
Q 3050 2419 3304 2112 
Q 3559 1806 3559 1356 
Q 3559 666 3084 287 
Q 2609 -91 1734 -91 
Q 1441 -91 1130 -33 
Q 819 25 488 141 
L 488 750 
Q 750 597 1062 519 
Q 1375 441 1716 441 
Q 2309 441 2620 675 
Q 2931 909 2931 1356 
Q 2931 1769 2642 2001 
Q 2353 2234 1838 2234 
L 1294 2234 
L 1294 2753 
L 1863 2753 
Q 2328 2753 2575 2939 
Q 2822 3125 2822 3475 
Q 2822 3834 2567 4026 
Q 2313 4219 1838 4219 
Q 1578 4219 1281 4162 
Q 984 4106 628 3988 
L 628 4550 
Q 988 4650 1302 4700 
Q 1616 4750 1894 4750 
Q 2613 4750 3031 4423 
Q 3450 4097 3450 3541 
Q 3450 3153 3228 2886 
Q 3006 2619 2597 2516 
z
" transform="scale(0.015625)"/>
       </defs>
       <use xlink:href="#DejaVuSans-2212"/>
       <use xlink:href="#DejaVuSans-33" x="83.789062"/>
      </g>
     </g>
    </g>
    <g id="ytick_2">
     <g id="line2d_21">
      <path d="M 46.64 273.467646 
L 853.2 273.467646 
" clip-path="url(#p8b49711abe)" style="fill: none; stroke-dasharray: 2.96,1.28; stroke-dashoffset: 0; stroke: #b0b0b0; stroke-opacity: 0.7; stroke-width: 0.8"/>
     </g>
     <g id="line2d_22">
      <g>
       <use xlink:href="#m1a76b412a8" x="46.64" y="273.467646" style="stroke: #000000; stroke-width: 0.8"/>
      </g>
     </g>
     <g id="text_12">
      <!-- −2 -->
      <g transform="translate(24.897813 277.266865)scale(0.1 -0.1)">
       <use xlink:href="#DejaVuSans-2212"/>
       <use xlink:href="#DejaVuSans-32" x="83.789062"/>
      </g>
     </g>
    </g>
    <g id="ytick_3">
     <g id="line2d_23">
      <path d="M 46.64 232.463618 
L 853.2 232.463618 
" clip-path="url(#p8b49711abe)" style="fill: none; stroke-dasharray: 2.96,1.28; stroke-dashoffset: 0; stroke: #b0b0b0; stroke-opacity: 0.7; stroke-width: 0.8"/>
     </g>
     <g id="line2d_24">
      <g>
       <use xlink:href="#m1a76b412a8" x="46.64" y="232.463618" style="stroke: #000000; stroke-width: 0.8"/>
      </g>
     </g>
     <g id="text_13">
      <!-- −1 -->
      <g transform="translate(24.897813 236.262836)scale(0.1 -0.1)">
       <use xlink:href="#DejaVuSans-2212"/>
       <use xlink:href="#DejaVuSans-31" x="83.789062"/>
      </g>
     </g>
    </g>
    <g id="ytick_4">
     <g id="line2d_25">
      <path d="M 46.64 191.459589 
L 853.2 191.459589 
" clip-path="url(#p8b49711abe)" style="fill: none; stroke-dasharray: 2.96,1.28; stroke-dashoffset: 0; stroke: #b0b0b0; stroke-opacity: 0.7; stroke-width: 0.8"/>
     </g>
     <g id="line2d_26">
      <g>
       <use xlink:href="#m1a76b412a8" x="46.64" y="191.459589" style="stroke: #000000; stroke-width: 0.8"/>
      </g>
     </g>
     <g id="text_14">
      <!-- 0 -->
      <g transform="translate(33.2775 195.258808)scale(0.1 -0.1)">
       <use xlink:href="#DejaVuSans-30"/>
      </g>
     </g>
    </g>
    <g id="ytick_5">
     <g id="line2d_27">
      <path d="M 46.64 150.455561 
L 853.2 150.455561 
" clip-path="url(#p8b49711abe)" style="fill: none; stroke-dasharray: 2.96,1.28; stroke-dashoffset: 0; stroke: #b0b0b0; stroke-opacity: 0.7; stroke-width: 0.8"/>
     </g>
     <g id="line2d_28">
      <g>
       <use xlink:href="#m1a76b412a8" x="46.64" y="150.455561" style="stroke: #000000; stroke-width: 0.8"/>
      </g>
     </g>
     <g id="text_15">
      <!-- 1 -->
      <g transform="translate(33.2775 154.25478)scale(0.1 -0.1)">
       <use xlink:href="#DejaVuSans-31"/>
      </g>
     </g>
    </g>
    <g id="ytick_6">
     <g id="line2d_29">
      <path d="M 46.64 109.451533 
L 853.2 109.451533 
" clip-path="url(#p8b49711abe)" style="fill: none; stroke-dasharray: 2.96,1.28; stroke-dashoffset: 0; stroke: #b0b0b0; stroke-opacity: 0.7; stroke-width: 0.8"/>
     </g>
     <g id="line2d_30">
      <g>
       <use xlink:href="#m1a76b412a8" x="46.64" y="109.451533" style="stroke: #000000; stroke-width: 0.8"/>
      </g>
     </g>
     <g id="text_16">
      <!-- 2 -->
      <g transform="translate(33.2775 113.250752)scale(0.1 -0.1)">
       <use xlink:href="#DejaVuSans-32"/>
      </g>
     </g>
    </g>
    <g id="ytick_7">
     <g id="line2d_31">
      <path d="M 46.64 68.447505 
L 853.2 68.447505 
" clip-path="url(#p8b49711abe)" style="fill: none; stroke-dasharray: 2.96,1.28; stroke-dashoffset: 0; stroke: #b0b0b0; stroke-opacity: 0.7; stroke-width: 0.8"/>
     </g>
     <g id="line2d_32">
      <g>
       <use xlink:href="#m1a76b412a8" x="46.64" y="68.447505" style="stroke: #000000; stroke-width: 0.8"/>
      </g>
     </g>
     <g id="text_17">
      <!-- 3 -->
      <g transform="translate(33.2775 72.246724)scale(0.1 -0.1)">
       <use xlink:href="#DejaVuSans-33"/>
      </g>
     </g>
    </g>
    <g id="ytick_8">
     <g id="line2d_33">
      <path d="M 46.64 27.443477 
L 853.2 27.443477 
" clip-path="url(#p8b49711abe)" style="fill: none; stroke-dasharray: 2.96,1.28; stroke-dashoffset: 0; stroke: #b0b0b0; stroke-opacity: 0.7; stroke-width: 0.8"/>
     </g>
     <g id="line2d_34">
      <g>
       <use xlink:href="#m1a76b412a8" x="46.64" y="27.443477" style="stroke: #000000; stroke-width: 0.8"/>
      </g>
     </g>
     <g id="text_18">
      <!-- 4 -->
      <g transform="translate(33.2775 31.242695)scale(0.1 -0.1)">
       <defs>
        <path id="DejaVuSans-34" d="M 2419 4116 
L 825 1625 
L 2419 1625 
L 2419 4116 
z
M 2253 4666 
L 3047 4666 
L 3047 1625 
L 3713 1625 
L 3713 1100 
L 3047 1100 
L 3047 0 
L 2419 0 
L 2419 1100 
L 313 1100 
L 313 1709 
L 2253 4666 
z
" transform="scale(0.015625)"/>
       </defs>
       <use xlink:href="#DejaVuSans-34"/>
      </g>
     </g>
    </g>
    <g id="text_19">
     <!-- Rate of Change of Angle [°/%] -->
     <g transform="translate(18.818125 260.77625)rotate(-90)scale(0.1 -0.1)">
      <defs>
       <path id="DejaVuSans-52" d="M 2841 2188 
Q 3044 2119 3236 1894 
Q 3428 1669 3622 1275 
L 4263 0 
L 3584 0 
L 2988 1197 
Q 2756 1666 2539 1819 
Q 2322 1972 1947 1972 
L 1259 1972 
L 1259 0 
L 628 0 
L 628 4666 
L 2053 4666 
Q 2853 4666 3247 4331 
Q 3641 3997 3641 3322 
Q 3641 2881 3436 2590 
Q 3231 2300 2841 2188 
z
M 1259 4147 
L 1259 2491 
L 2053 2491 
Q 2509 2491 2742 2702 
Q 2975 2913 2975 3322 
Q 2975 3731 2742 3939 
Q 2509 4147 2053 4147 
L 1259 4147 
z
" transform="scale(0.015625)"/>
       <path id="DejaVuSans-61" d="M 2194 1759 
Q 1497 1759 1228 1600 
Q 959 1441 959 1056 
Q 959 750 1161 570 
Q 1363 391 1709 391 
Q 2188 391 2477 730 
Q 2766 1069 2766 1631 
L 2766 1759 
L 2194 1759 
z
M 3341 1997 
L 3341 0 
L 2766 0 
L 2766 531 
Q 2569 213 2275 61 
Q 1981 -91 1556 -91 
Q 1019 -91 701 211 
Q 384 513 384 1019 
Q 384 1609 779 1909 
Q 1175 2209 1959 2209 
L 2766 2209 
L 2766 2266 
Q 2766 2663 2505 2880 
Q 2244 3097 1772 3097 
Q 1472 3097 1187 3025 
Q 903 2953 641 2809 
L 641 3341 
Q 956 3463 1253 3523 
Q 1550 3584 1831 3584 
Q 2591 3584 2966 3190 
Q 3341 2797 3341 1997 
z
" transform="scale(0.015625)"/>
       <path id="DejaVuSans-6f" d="M 1959 3097 
Q 1497 3097 1228 2736 
Q 959 2375 959 1747 
Q 959 1119 1226 758 
Q 1494 397 1959 397 
Q 2419 397 2687 759 
Q 2956 1122 2956 1747 
Q 2956 2369 2687 2733 
Q 2419 3097 1959 3097 
z
M 1959 3584 
Q 2709 3584 3137 3096 
Q 3566 2609 3566 1747 
Q 3566 888 3137 398 
Q 2709 -91 1959 -91 
Q 1206 -91 779 398 
Q 353 888 353 1747 
Q 353 2609 779 3096 
Q 1206 3584 1959 3584 
z
" transform="scale(0.015625)"/>
       <path id="DejaVuSans-66" d="M 2375 4863 
L 2375 4384 
L 1825 4384 
Q 1516 4384 1395 4259 
Q 1275 4134 1275 3809 
L 1275 3500 
L 2222 3500 
L 2222 3053 
L 1275 3053 
L 1275 0 
L 697 0 
L 697 3053 
L 147 3053 
L 147 3500 
L 697 3500 
L 697 3744 
Q 697 4328 969 4595 
Q 1241 4863 1831 4863 
L 2375 4863 
z
" transform="scale(0.015625)"/>
       <path id="DejaVuSans-43" d="M 4122 4306 
L 4122 3641 
Q 3803 3938 3442 4084 
Q 3081 4231 2675 4231 
Q 1875 4231 1450 3742 
Q 1025 3253 1025 2328 
Q 1025 1406 1450 917 
Q 1875 428 2675 428 
Q 3081 428 3442 575 
Q 3803 722 4122 1019 
L 4122 359 
Q 3791 134 3420 21 
Q 3050 -91 2638 -91 
Q 1578 -91 968 557 
Q 359 1206 359 2328 
Q 359 3453 968 4101 
Q 1578 4750 2638 4750 
Q 3056 4750 3426 4639 
Q 3797 4528 4122 4306 
z
" transform="scale(0.015625)"/>
       <path id="DejaVuSans-68" d="M 3513 2113 
L 3513 0 
L 2938 0 
L 2938 2094 
Q 2938 2591 2744 2837 
Q 2550 3084 2163 3084 
Q 1697 3084 1428 2787 
Q 1159 2491 1159 1978 
L 1159 0 
L 581 0 
L 581 4863 
L 1159 4863 
L 1159 2956 
Q 1366 3272 1645 3428 
Q 1925 3584 2291 3584 
Q 2894 3584 3203 3211 
Q 3513 2838 3513 2113 
z
" transform="scale(0.015625)"/>
       <path id="DejaVuSans-67" d="M 2906 1791 
Q 2906 2416 2648 2759 
Q 2391 3103 1925 3103 
Q 1463 3103 1205 2759 
Q 947 2416 947 1791 
Q 947 1169 1205 825 
Q 1463 481 1925 481 
Q 2391 481 2648 825 
Q 2906 1169 2906 1791 
z
M 3481 434 
Q 3481 -459 3084 -895 
Q 2688 -1331 1869 -1331 
Q 1566 -1331 1297 -1286 
Q 1028 -1241 775 -1147 
L 775 -588 
Q 1028 -725 1275 -790 
Q 1522 -856 1778 -856 
Q 2344 -856 2625 -561 
Q 2906 -266 2906 331 
L 2906 616 
Q 2728 306 2450 153 
Q 2172 0 1784 0 
Q 1141 0 747 490 
Q 353 981 353 1791 
Q 353 2603 747 3093 
Q 1141 3584 1784 3584 
Q 2172 3584 2450 3431 
Q 2728 3278 2906 2969 
L 2906 3500 
L 3481 3500 
L 3481 434 
z
" transform="scale(0.015625)"/>
       <path id="DejaVuSans-41" d="M 2188 4044 
L 1331 1722 
L 3047 1722 
L 2188 4044 
z
M 1831 4666 
L 2547 4666 
L 4325 0 
L 3669 0 
L 3244 1197 
L 1141 1197 
L 716 0 
L 50 0 
L 1831 4666 
z
" transform="scale(0.015625)"/>
       <path id="DejaVuSans-b0" d="M 1600 4347 
Q 1350 4347 1178 4173 
Q 1006 4000 1006 3750 
Q 1006 3503 1178 3333 
Q 1350 3163 1600 3163 
Q 1850 3163 2022 3333 
Q 2194 3503 2194 3750 
Q 2194 3997 2020 4172 
Q 1847 4347 1600 4347 
z
M 1600 4750 
Q 1800 4750 1984 4673 
Q 2169 4597 2303 4453 
Q 2447 4313 2519 4134 
Q 2591 3956 2591 3750 
Q 2591 3338 2302 3052 
Q 2013 2766 1594 2766 
Q 1172 2766 890 3047 
Q 609 3328 609 3750 
Q 609 4169 896 4459 
Q 1184 4750 1600 4750 
z
" transform="scale(0.015625)"/>
       <path id="DejaVuSans-2f" d="M 1625 4666 
L 2156 4666 
L 531 -594 
L 0 -594 
L 1625 4666 
z
" transform="scale(0.015625)"/>
      </defs>
      <use xlink:href="#DejaVuSans-52"/>
      <use xlink:href="#DejaVuSans-61" x="67.232422"/>
      <use xlink:href="#DejaVuSans-74" x="128.511719"/>
      <use xlink:href="#DejaVuSans-65" x="167.720703"/>
      <use xlink:href="#DejaVuSans-20" x="229.244141"/>
      <use xlink:href="#DejaVuSans-6f" x="261.03125"/>
      <use xlink:href="#DejaVuSans-66" x="322.212891"/>
      <use xlink:href="#DejaVuSans-20" x="357.417969"/>
      <use xlink:href="#DejaVuSans-43" x="389.205078"/>
      <use xlink:href="#DejaVuSans-68" x="459.029297"/>
      <use xlink:href="#DejaVuSans-61" x="522.408203"/>
      <use xlink:href="#DejaVuSans-6e" x="583.6875"/>
      <use xlink:href="#DejaVuSans-67" x="647.066406"/>
      <use xlink:href="#DejaVuSans-65" x="710.542969"/>
      <use xlink:href="#DejaVuSans-20" x="772.066406"/>
      <use xlink:href="#DejaVuSans-6f" x="803.853516"/>
      <use xlink:href="#DejaVuSans-66" x="865.035156"/>
      <use xlink:href="#DejaVuSans-20" x="900.240234"/>
      <use xlink:href="#DejaVuSans-41" x="932.027344"/>
      <use xlink:href="#DejaVuSans-6e" x="1000.435547"/>
      <use xlink:href="#DejaVuSans-67" x="1063.814453"/>
      <use xlink:href="#DejaVuSans-6c" x="1127.291016"/>
      <use xlink:href="#DejaVuSans-65" x="1155.074219"/>
      <use xlink:href="#DejaVuSans-20" x="1216.597656"/>
      <use xlink:href="#DejaVuSans-5b" x="1248.384766"/>
      <use xlink:href="#DejaVuSans-b0" x="1287.398438"/>
      <use xlink:href="#DejaVuSans-2f" x="1337.398438"/>
      <use xlink:href="#DejaVuSans-25" x="1371.089844"/>
      <use xlink:href="#DejaVuSans-5d" x="1466.109375"/>
     </g>
    </g>
   </g>
   <g id="line2d_35">
    <path d="M 83.301818 289.329766 
L 91.98488 273.249128 
L 100.667943 255.6215 
L 109.351005 266.097641 
L 118.034067 269.882118 
L 126.717129 263.612587 
L 135.400191 256.981626 
L 144.083254 255.888324 
L 152.766316 258.355623 
L 161.449378 270.965468 
L 170.13244 269.42376 
L 178.815502 254.173803 
L 187.498565 237.079885 
L 196.181627 251.069155 
L 204.864689 262.968929 
L 213.547751 262.68413 
L 222.230813 260.141327 
L 230.913876 261.843796 
L 239.596938 256.997153 
L 248.28 260.08539 
L 256.963062 262.581621 
L 265.646124 254.519877 
L 274.329187 246.987887 
L 283.012249 254.290126 
L 291.695311 255.812324 
L 300.378373 245.89904 
L 309.061435 241.384326 
L 317.744498 229.228669 
L 326.42756 218.657393 
L 335.110622 235.070016 
L 343.793684 245.135421 
L 352.476746 247.610359 
L 361.159809 250.077139 
L 369.842871 251.718413 
L 378.525933 248.57832 
L 387.208995 244.09677 
L 395.892057 237.078722 
L 404.57512 234.309065 
L 413.258182 238.182292 
L 421.941244 249.638301 
L 430.624306 252.083427 
" clip-path="url(#p8b49711abe)" style="fill: none; stroke: #1f77b4; stroke-width: 1.5; stroke-linecap: square"/>
   </g>
   <g id="line2d_36">
    <path d="M 83.301818 289.329766 
L 91.98488 283.213477 
L 100.667943 331.047273 
L 109.351005 312.164365 
L 118.034067 300.927889 
L 126.717129 288.929627 
L 135.400191 281.607953 
L 144.083254 279.467594 
L 152.766316 285.50155 
L 161.449378 284.441997 
L 170.13244 288.847375 
L 178.815502 280.576879 
L 187.498565 280.696775 
L 196.181627 276.404679 
L 204.864689 271.796757 
L 213.547751 272.872125 
L 222.230813 277.304166 
L 230.913876 268.652913 
L 239.596938 267.657528 
L 248.28 268.561151 
L 256.963062 271.51029 
L 265.646124 274.204494 
L 274.329187 272.291403 
L 283.012249 266.970223 
L 291.695311 277.239498 
L 300.378373 285.859239 
L 309.061435 268.38051 
L 317.744498 262.397285 
L 326.42756 263.276588 
L 335.110622 258.509927 
L 343.793684 261.78355 
L 352.476746 267.66626 
L 361.159809 275.272789 
L 369.842871 267.983432 
L 378.525933 258.736568 
L 387.208995 256.735209 
L 395.892057 261.565071 
L 404.57512 257.315446 
L 413.258182 251.778782 
L 421.941244 253.697737 
L 430.624306 252.083427 
" clip-path="url(#p8b49711abe)" style="fill: none; stroke: #1f77b4; stroke-width: 1.5; stroke-linecap: square"/>
   </g>
   <g id="line2d_37">
    <path d="M 486.581818 150.541726 
L 495.26488 105.415284 
L 503.947943 97.927248 
L 512.631005 103.242801 
L 521.314067 115.069713 
L 529.997129 132.941112 
L 538.680191 124.225283 
L 547.363254 116.325079 
L 556.046316 121.185506 
L 564.729378 119.561941 
L 573.41244 111.118305 
L 582.095502 121.807182 
L 590.778565 118.327426 
L 599.461627 115.678444 
L 608.144689 111.293545 
L 616.827751 104.200546 
L 625.510813 102.565969 
L 634.193876 113.048431 
L 642.876938 110.088047 
L 651.56 109.812088 
L 660.243062 104.900384 
L 668.926124 110.564352 
L 677.609187 117.280417 
L 686.292249 117.299839 
L 694.975311 113.812948 
L 703.658373 107.332066 
L 712.341435 100.942092 
L 721.024498 104.835758 
L 729.70756 106.630263 
L 738.390622 108.166349 
L 747.073684 94.815882 
L 755.756746 98.570441 
L 764.439809 108.252718 
L 773.122871 109.067218 
L 781.805933 105.848826 
L 790.488995 105.849098 
L 799.172057 104.36096 
L 807.85512 99.624528 
L 816.538182 97.979628 
" clip-path="url(#p8b49711abe)" style="fill: none; stroke: #1f77b4; stroke-width: 1.5; stroke-linecap: square"/>
   </g>
   <g id="line2d_38">
    <path d="M 486.581818 150.541726 
L 495.26488 130.680719 
L 503.947943 120.131844 
L 512.631005 134.332581 
L 521.314067 139.522296 
L 529.997129 138.137442 
L 538.680191 150.543784 
L 547.363254 143.468334 
L 556.046316 137.537266 
L 564.729378 143.270845 
L 573.41244 154.198986 
L 582.095502 152.046398 
L 590.778565 154.8117 
L 599.461627 137.965522 
L 608.144689 121.623025 
L 616.827751 128.636508 
L 625.510813 138.69408 
L 634.193876 127.716194 
L 642.876938 129.618954 
L 651.56 128.552769 
L 660.243062 134.211814 
L 668.926124 126.210686 
L 677.609187 122.570858 
L 686.292249 128.823381 
L 694.975311 125.116827 
L 703.658373 122.630199 
L 712.341435 122.293003 
L 721.024498 127.092142 
L 729.70756 138.254949 
L 738.390622 123.414213 
L 747.073684 122.506303 
L 755.756746 120.511295 
L 764.439809 120.68552 
L 773.122871 124.412235 
L 781.805933 123.386432 
L 790.488995 120.041877 
L 799.172057 116.198822 
L 807.85512 114.770371 
L 816.538182 116.677494 
" clip-path="url(#p8b49711abe)" style="fill: none; stroke: #1f77b4; stroke-width: 1.5; stroke-linecap: square"/>
   </g>
   <g id="line2d_39">
    <path d="M 83.301818 291.26654 
L 91.98488 256.370196 
L 100.667943 252.104544 
L 109.351005 280.782687 
L 118.034067 261.688274 
L 126.717129 240.307391 
L 135.400191 233.64924 
L 144.083254 260.367543 
L 152.766316 260.7546 
L 161.449378 248.93026 
L 170.13244 231.008108 
L 178.815502 253.123255 
L 187.498565 240.382906 
L 196.181627 244.454096 
L 204.864689 233.205875 
L 213.547751 239.289411 
L 222.230813 245.374707 
L 230.913876 234.234787 
L 239.596938 225.778892 
L 248.28 227.794074 
L 256.963062 223.662096 
L 265.646124 258.60636 
L 274.329187 262.038234 
L 283.012249 260.337002 
L 291.695311 255.831942 
L 300.378373 236.174459 
L 309.061435 227.550507 
L 317.744498 238.743355 
L 326.42756 244.548124 
L 335.110622 245.330579 
L 343.793684 234.791019 
L 352.476746 235.185948 
L 361.159809 235.979538 
L 369.842871 238.600248 
L 378.525933 195.588753 
L 387.208995 228.815395 
L 395.892057 246.749667 
L 404.57512 248.478486 
L 413.258182 217.090185 
L 421.941244 233.474852 
L 430.624306 257.543764 
" clip-path="url(#p8b49711abe)" style="fill: none; stroke: #ff7f0e; stroke-width: 1.5; stroke-linecap: square"/>
   </g>
   <g id="line2d_40">
    <path d="M 83.301818 291.26654 
L 91.98488 286.057297 
L 100.667943 289.103481 
L 109.351005 284.499063 
L 118.034067 306.118557 
L 126.717129 294.410606 
L 135.400191 285.398405 
L 144.083254 294.481688 
L 152.766316 318.33401 
L 161.449378 320.257585 
L 170.13244 303.806564 
L 178.815502 286.338378 
L 187.498565 301.241036 
L 196.181627 278.763727 
L 204.864689 283.995434 
L 213.547751 288.333369 
L 222.230813 284.225125 
L 230.913876 274.927532 
L 239.596938 265.121747 
L 248.28 254.982464 
L 256.963062 264.054764 
L 265.646124 276.356033 
L 274.329187 311.113517 
L 283.012249 313.083212 
L 291.695311 289.278107 
L 300.378373 267.284208 
L 309.061435 268.242399 
L 317.744498 273.746852 
L 326.42756 280.719297 
L 335.110622 296.127336 
L 343.793684 317.000607 
L 352.476746 316.421947 
L 361.159809 307.256036 
L 369.842871 274.120017 
L 378.525933 276.363687 
L 387.208995 269.32244 
L 395.892057 284.685699 
L 404.57512 267.553371 
L 413.258182 280.088964 
L 421.941244 302.786933 
L 430.624306 257.543764 
" clip-path="url(#p8b49711abe)" style="fill: none; stroke: #ff7f0e; stroke-width: 1.5; stroke-linecap: square"/>
   </g>
   <g id="line2d_41">
    <path d="M 486.581818 61.745251 
L 495.26488 105.954176 
L 503.947943 119.234029 
L 512.631005 125.414271 
L 521.314067 106.536881 
L 529.997129 104.538134 
L 538.680191 112.709998 
L 547.363254 106.521376 
L 556.046316 92.078343 
L 564.729378 106.929129 
L 573.41244 100.967901 
L 582.095502 97.439043 
L 590.778565 96.098616 
L 599.461627 88.962638 
L 608.144689 68.904645 
L 616.827751 80.604492 
L 625.510813 84.691532 
L 634.193876 82.020558 
L 642.876938 50.50087 
L 651.56 91.233686 
L 660.243062 105.280598 
L 668.926124 96.16962 
L 677.609187 95.481612 
L 686.292249 77.459728 
L 694.975311 67.694719 
L 703.658373 83.843313 
L 712.341435 85.296371 
L 721.024498 103.398645 
L 729.70756 114.464163 
L 738.390622 107.084819 
L 747.073684 49.248279 
L 755.756746 46.551916 
L 764.439809 67.435185 
L 773.122871 89.75859 
L 781.805933 104.325199 
L 790.488995 90.850028 
L 799.172057 61.778665 
L 807.85512 39.992727 
L 816.538182 57.490718 
" clip-path="url(#p8b49711abe)" style="fill: none; stroke: #ff7f0e; stroke-width: 1.5; stroke-linecap: square"/>
   </g>
   <g id="line2d_42">
    <path d="M 486.581818 61.745251 
L 495.26488 115.109539 
L 503.947943 160.411648 
L 512.631005 149.805179 
L 521.314067 161.173121 
L 529.997129 159.126628 
L 538.680191 158.58279 
L 547.363254 151.670319 
L 556.046316 146.752508 
L 564.729378 142.985729 
L 573.41244 165.475411 
L 582.095502 164.761717 
L 590.778565 151.990422 
L 599.461627 137.45129 
L 608.144689 152.799296 
L 616.827751 167.62609 
L 625.510813 165.993396 
L 634.193876 156.341203 
L 642.876938 178.707573 
L 651.56 178.037993 
L 660.243062 192.038548 
L 668.926124 168.938932 
L 677.609187 144.732318 
L 686.292249 150.181868 
L 694.975311 148.762049 
L 703.658373 138.436714 
L 712.341435 157.180391 
L 721.024498 157.187625 
L 729.70756 168.664771 
L 738.390622 146.082271 
L 747.073684 150.814994 
L 755.756746 131.364194 
L 764.439809 128.686283 
L 773.122871 149.586882 
L 781.805933 144.96557 
L 790.488995 142.177304 
L 799.172057 146.583359 
L 807.85512 153.782217 
L 816.538182 143.303755 
" clip-path="url(#p8b49711abe)" style="fill: none; stroke: #ff7f0e; stroke-width: 1.5; stroke-linecap: square"/>
   </g>
   <g id="patch_3">
    <path d="M 46.64 345.6 
L 46.64 25.44 
" style="fill: none; stroke: #000000; stroke-width: 0.8; stroke-linejoin: miter; stroke-linecap: square"/>
   </g>
   <g id="patch_4">
    <path d="M 853.2 345.6 
L 853.2 25.44 
" style="fill: none; stroke: #000000; stroke-width: 0.8; stroke-linejoin: miter; stroke-linecap: square"/>
   </g>
   <g id="patch_5">
    <path d="M 46.64 345.6 
L 853.2 345.6 
" style="fill: none; stroke: #000000; stroke-width: 0.8; stroke-linejoin: miter; stroke-linecap: square"/>
   </g>
   <g id="patch_6">
    <path d="M 46.64 25.44 
L 853.2 25.44 
" style="fill: none; stroke: #000000; stroke-width: 0.8; stroke-linejoin: miter; stroke-linecap: square"/>
   </g>
   <g id="text_20">
    <!-- Rate of Change of Angle vs. Percent Flexed -->
    <g transform="translate(320.480313 19.44)scale(0.12 -0.12)">
     <defs>
      <path id="DejaVuSans-76" d="M 191 3500 
L 800 3500 
L 1894 563 
L 2988 3500 
L 3597 3500 
L 2284 0 
L 1503 0 
L 191 3500 
z
" transform="scale(0.015625)"/>
      <path id="DejaVuSans-73" d="M 2834 3397 
L 2834 2853 
Q 2591 2978 2328 3040 
Q 2066 3103 1784 3103 
Q 1356 3103 1142 2972 
Q 928 2841 928 2578 
Q 928 2378 1081 2264 
Q 1234 2150 1697 2047 
L 1894 2003 
Q 2506 1872 2764 1633 
Q 3022 1394 3022 966 
Q 3022 478 2636 193 
Q 2250 -91 1575 -91 
Q 1294 -91 989 -36 
Q 684 19 347 128 
L 347 722 
Q 666 556 975 473 
Q 1284 391 1588 391 
Q 1994 391 2212 530 
Q 2431 669 2431 922 
Q 2431 1156 2273 1281 
Q 2116 1406 1581 1522 
L 1381 1569 
Q 847 1681 609 1914 
Q 372 2147 372 2553 
Q 372 3047 722 3315 
Q 1072 3584 1716 3584 
Q 2034 3584 2315 3537 
Q 2597 3491 2834 3397 
z
" transform="scale(0.015625)"/>
      <path id="DejaVuSans-2e" d="M 684 794 
L 1344 794 
L 1344 0 
L 684 0 
L 684 794 
z
" transform="scale(0.015625)"/>
     </defs>
     <use xlink:href="#DejaVuSans-52"/>
     <use xlink:href="#DejaVuSans-61" x="67.232422"/>
     <use xlink:href="#DejaVuSans-74" x="128.511719"/>
     <use xlink:href="#DejaVuSans-65" x="167.720703"/>
     <use xlink:href="#DejaVuSans-20" x="229.244141"/>
     <use xlink:href="#DejaVuSans-6f" x="261.03125"/>
     <use xlink:href="#DejaVuSans-66" x="322.212891"/>
     <use xlink:href="#DejaVuSans-20" x="357.417969"/>
     <use xlink:href="#DejaVuSans-43" x="389.205078"/>
     <use xlink:href="#DejaVuSans-68" x="459.029297"/>
     <use xlink:href="#DejaVuSans-61" x="522.408203"/>
     <use xlink:href="#DejaVuSans-6e" x="583.6875"/>
     <use xlink:href="#DejaVuSans-67" x="647.066406"/>
     <use xlink:href="#DejaVuSans-65" x="710.542969"/>
     <use xlink:href="#DejaVuSans-20" x="772.066406"/>
     <use xlink:href="#DejaVuSans-6f" x="803.853516"/>
     <use xlink:href="#DejaVuSans-66" x="865.035156"/>
     <use xlink:href="#DejaVuSans-20" x="900.240234"/>
     <use xlink:href="#DejaVuSans-41" x="932.027344"/>
     <use xlink:href="#DejaVuSans-6e" x="1000.435547"/>
     <use xlink:href="#DejaVuSans-67" x="1063.814453"/>
     <use xlink:href="#DejaVuSans-6c" x="1127.291016"/>
     <use xlink:href="#DejaVuSans-65" x="1155.074219"/>
     <use xlink:href="#DejaVuSans-20" x="1216.597656"/>
     <use xlink:href="#DejaVuSans-76" x="1248.384766"/>
     <use xlink:href="#DejaVuSans-73" x="1307.564453"/>
     <use xlink:href="#DejaVuSans-2e" x="1359.664062"/>
     <use xlink:href="#DejaVuSans-20" x="1391.451172"/>
     <use xlink:href="#DejaVuSans-50" x="1423.238281"/>
     <use xlink:href="#DejaVuSans-65" x="1479.916016"/>
     <use xlink:href="#DejaVuSans-72" x="1541.439453"/>
     <use xlink:href="#DejaVuSans-63" x="1580.302734"/>
     <use xlink:href="#DejaVuSans-65" x="1635.283203"/>
     <use xlink:href="#DejaVuSans-6e" x="1696.806641"/>
     <use xlink:href="#DejaVuSans-74" x="1760.185547"/>
     <use xlink:href="#DejaVuSans-20" x="1799.394531"/>
     <use xlink:href="#DejaVuSans-46" x="1831.181641"/>
     <use xlink:href="#DejaVuSans-6c" x="1888.701172"/>
     <use xlink:href="#DejaVuSans-65" x="1916.484375"/>
     <use xlink:href="#DejaVuSans-78" x="1976.257812"/>
     <use xlink:href="#DejaVuSans-65" x="2032.3125"/>
     <use xlink:href="#DejaVuSans-64" x="2093.835938"/>
    </g>
   </g>
   <g id="legend_1">
    <g id="patch_7">
     <path d="M 53.64 62.79625 
L 121.9775 62.79625 
Q 123.9775 62.79625 123.9775 60.79625 
L 123.9775 32.44 
Q 123.9775 30.44 121.9775 30.44 
L 53.64 30.44 
Q 51.64 30.44 51.64 32.44 
L 51.64 60.79625 
Q 51.64 62.79625 53.64 62.79625 
z
" style="fill: #ffffff; opacity: 0.8; stroke: #cccccc; stroke-linejoin: miter"/>
    </g>
    <g id="line2d_43">
     <path d="M 55.64 38.538437 
L 65.64 38.538437 
L 75.64 38.538437 
" style="fill: none; stroke: #1f77b4; stroke-width: 1.5; stroke-linecap: square"/>
    </g>
    <g id="text_21">
     <!-- Auto -->
     <g transform="translate(83.64 42.038437)scale(0.1 -0.1)">
      <defs>
       <path id="DejaVuSans-75" d="M 544 1381 
L 544 3500 
L 1119 3500 
L 1119 1403 
Q 1119 906 1312 657 
Q 1506 409 1894 409 
Q 2359 409 2629 706 
Q 2900 1003 2900 1516 
L 2900 3500 
L 3475 3500 
L 3475 0 
L 2900 0 
L 2900 538 
Q 2691 219 2414 64 
Q 2138 -91 1772 -91 
Q 1169 -91 856 284 
Q 544 659 544 1381 
z
M 1991 3584 
L 1991 3584 
z
" transform="scale(0.015625)"/>
      </defs>
      <use xlink:href="#DejaVuSans-41"/>
      <use xlink:href="#DejaVuSans-75" x="68.408203"/>
      <use xlink:href="#DejaVuSans-74" x="131.787109"/>
      <use xlink:href="#DejaVuSans-6f" x="170.996094"/>
     </g>
    </g>
    <g id="line2d_44">
     <path d="M 55.64 53.216563 
L 65.64 53.216563 
L 75.64 53.216563 
" style="fill: none; stroke: #ff7f0e; stroke-width: 1.5; stroke-linecap: square"/>
    </g>
    <g id="text_22">
     <!-- Manual -->
     <g transform="translate(83.64 56.716563)scale(0.1 -0.1)">
      <defs>
       <path id="DejaVuSans-4d" d="M 628 4666 
L 1569 4666 
L 2759 1491 
L 3956 4666 
L 4897 4666 
L 4897 0 
L 4281 0 
L 4281 4097 
L 3078 897 
L 2444 897 
L 1241 4097 
L 1241 0 
L 628 0 
L 628 4666 
z
" transform="scale(0.015625)"/>
      </defs>
      <use xlink:href="#DejaVuSans-4d"/>
      <use xlink:href="#DejaVuSans-61" x="86.279297"/>
      <use xlink:href="#DejaVuSans-6e" x="147.558594"/>
      <use xlink:href="#DejaVuSans-75" x="210.9375"/>
      <use xlink:href="#DejaVuSans-61" x="274.316406"/>
      <use xlink:href="#DejaVuSans-6c" x="335.595703"/>
     </g>
    </g>
   </g>
  </g>
 </g>
 <defs>
  <clipPath id="p8b49711abe">
   <rect x="46.64" y="25.44" width="806.56" height="320.16"/>
  </clipPath>
 </defs>
</svg>
