<?xml version="1.0" encoding="utf-8" standalone="no"?>
<!DOCTYPE svg PUBLIC "-//W3C//DTD SVG 1.1//EN"
  "http://www.w3.org/Graphics/SVG/1.1/DTD/svg11.dtd">
<svg xmlns:xlink="http://www.w3.org/1999/xlink" width="864pt" height="432pt" viewBox="0 0 864 432" xmlns="http://www.w3.org/2000/svg" version="1.1">
 <metadata>
  <rdf:RDF xmlns:dc="http://purl.org/dc/elements/1.1/" xmlns:cc="http://creativecommons.org/ns#" xmlns:rdf="http://www.w3.org/1999/02/22-rdf-syntax-ns#">
   <cc:Work>
    <dc:type rdf:resource="http://purl.org/dc/dcmitype/StillImage"/>
    <dc:date>2024-02-23T14:05:18.323719</dc:date>
    <dc:format>image/svg+xml</dc:format>
    <dc:creator>
     <cc:Agent>
      <dc:title>Matplotlib v3.7.1, https://matplotlib.org/</dc:title>
     </cc:Agent>
    </dc:creator>
   </cc:Work>
  </rdf:RDF>
 </metadata>
 <defs>
  <style type="text/css">*{stroke-linejoin: round; stroke-linecap: butt}</style>
 </defs>
 <g id="figure_1">
  <g id="patch_1">
   <path d="M 0 432 
L 864 432 
L 864 0 
L 0 0 
z
" style="fill: #ffffff"/>
  </g>
  <g id="axes_1">
   <g id="patch_2">
    <path d="M 108 378 
L 777.6 378 
L 777.6 51.84 
L 108 51.84 
z
" style="fill: #ffffff"/>
   </g>
   <g id="PolyCollection_1">
    <defs>
     <path id="mc42bcacfde" d="M 138.436364 -112.828178 
L 138.436364 -68.825455 
L 156.882645 -69.436603 
L 175.328926 -70.455185 
L 193.775207 -70.658901 
L 212.221488 -83.696745 
L 230.667769 -117.615511 
L 249.11405 -124.949298 
L 267.560331 -142.163327 
L 286.006612 -155.506745 
L 304.452893 -184.943752 
L 322.899174 -225.687014 
L 341.345455 -251.457128 
L 359.791736 -251.457128 
L 378.238017 -235.057964 
L 396.684298 -228.437184 
L 415.130579 -233.224518 
L 433.57686 -234.650532 
L 452.02314 -232.817085 
L 470.469421 -231.391071 
L 488.915702 -227.418603 
L 507.361983 -214.686333 
L 525.808264 -196.453723 
L 544.254545 -196.555582 
L 562.700826 -215.908631 
L 581.147107 -230.678064 
L 599.593388 -228.640901 
L 618.039669 -217.232787 
L 636.48595 -183.619596 
L 654.932231 -145.932078 
L 673.378512 -129.736632 
L 691.824793 -126.782745 
L 710.271074 -133.403525 
L 728.717355 -118.22666 
L 747.163636 -102.540504 
L 747.163636 -186.879057 
L 747.163636 -186.879057 
L 728.717355 -208.26927 
L 710.271074 -211.834305 
L 691.824793 -208.880418 
L 673.378512 -227.724177 
L 654.932231 -267.550716 
L 636.48595 -304.830801 
L 618.039669 -321.535539 
L 599.593388 -324.591283 
L 581.147107 -317.868645 
L 562.700826 -306.154957 
L 544.254545 -303.302929 
L 525.808264 -315.016617 
L 507.361983 -335.897538 
L 488.915702 -353.315283 
L 470.469421 -357.8989 
L 452.02314 -356.676602 
L 433.57686 -354.232006 
L 415.130579 -353.213425 
L 396.684298 -356.982177 
L 378.238017 -362.380659 
L 359.791736 -365.334545 
L 341.345455 -360.445354 
L 322.899174 -348.324233 
L 304.452893 -325.30429 
L 286.006612 -297.293298 
L 267.560331 -282.320149 
L 249.11405 -276.514234 
L 230.667769 -265.309837 
L 212.221488 -220.186674 
L 193.775207 -171.091043 
L 175.328926 -144.20049 
L 156.882645 -126.680887 
L 138.436364 -112.828178 
z
" style="stroke: #0000ff; stroke-opacity: 0.2"/>
    </defs>
    <g clip-path="url(#pa0f60fac80)">
     <use xlink:href="#mc42bcacfde" x="0" y="432" style="fill: #0000ff; fill-opacity: 0.2; stroke: #0000ff; stroke-opacity: 0.2"/>
    </g>
   </g>
   <g id="PolyCollection_2">
    <defs>
     <path id="ma661d0a31c" d="M 138.436364 -158.766206 
L 138.436364 -79.316845 
L 156.882645 -82.780022 
L 175.328926 -106.207398 
L 193.775207 -95.614149 
L 212.221488 -96.225298 
L 230.667769 -128.310617 
L 249.11405 -153.673298 
L 267.560331 -182.702872 
L 286.006612 -199.40761 
L 304.452893 -208.574844 
L 322.899174 -212.139879 
L 341.345455 -213.464035 
L 359.791736 -214.89005 
L 378.238017 -226.807454 
L 396.684298 -240.049014 
L 415.130579 -241.882461 
L 433.57686 -235.057964 
L 452.02314 -225.89073 
L 470.469421 -222.020121 
L 488.915702 -217.742078 
L 507.361983 -210.612007 
L 525.808264 -210.408291 
L 544.254545 -210.306433 
L 562.700826 -205.620957 
L 581.147107 -203.685653 
L 599.593388 -202.667071 
L 618.039669 -203.380078 
L 636.48595 -190.851525 
L 654.932231 -178.730404 
L 673.378512 -170.378036 
L 691.824793 -153.775156 
L 710.271074 -143.894915 
L 728.717355 -124.134433 
L 747.163636 -104.373951 
L 747.163636 -183.41588 
L 747.163636 -183.41588 
L 728.717355 -204.39866 
L 710.271074 -225.38144 
L 691.824793 -245.651213 
L 673.378512 -263.680106 
L 654.932231 -278.143964 
L 636.48595 -291.07995 
L 618.039669 -297.70073 
L 599.593388 -300.858333 
L 581.147107 -303.302929 
L 562.700826 -305.238234 
L 544.254545 -310.534858 
L 525.808264 -317.56307 
L 507.361983 -320.618815 
L 488.915702 -323.063411 
L 470.469421 -326.934021 
L 452.02314 -332.841794 
L 433.57686 -342.009028 
L 415.130579 -350.666971 
L 396.684298 -357.185893 
L 378.238017 -360.852787 
L 359.791736 -359.121198 
L 341.345455 -356.880319 
L 322.899174 -354.333865 
L 304.452893 -344.453624 
L 286.006612 -329.378617 
L 267.560331 -312.470163 
L 249.11405 -285.477751 
L 230.667769 -260.522503 
L 212.221488 -240.456447 
L 193.775207 -232.104078 
L 175.328926 -219.066234 
L 156.882645 -185.249326 
L 138.436364 -158.766206 
z
" style="stroke: #ffa500; stroke-opacity: 0.2"/>
    </defs>
    <g clip-path="url(#pa0f60fac80)">
     <use xlink:href="#ma661d0a31c" x="0" y="432" style="fill: #ffa500; fill-opacity: 0.2; stroke: #ffa500; stroke-opacity: 0.2"/>
    </g>
   </g>
   <g id="matplotlib.axis_1">
    <g id="xtick_1">
     <g id="line2d_1">
      <path d="M 175.328926 378 
L 175.328926 51.84 
" clip-path="url(#pa0f60fac80)" style="fill: none; stroke: #b0b0b0; stroke-width: 0.8; stroke-linecap: square"/>
     </g>
     <g id="line2d_2">
      <defs>
       <path id="m653a30235d" d="M 0 0 
L 0 3.5 
" style="stroke: #000000; stroke-width: 0.8"/>
      </defs>
      <g>
       <use xlink:href="#m653a30235d" x="175.328926" y="378" style="stroke: #000000; stroke-width: 0.8"/>
      </g>
     </g>
     <g id="text_1">
      <!-- 140 -->
      <g transform="translate(165.785176 392.598437) scale(0.1 -0.1)">
       <defs>
        <path id="DejaVuSans-31" d="M 794 531 
L 1825 531 
L 1825 4091 
L 703 3866 
L 703 4441 
L 1819 4666 
L 2450 4666 
L 2450 531 
L 3481 531 
L 3481 0 
L 794 0 
L 794 531 
z
" transform="scale(0.015625)"/>
        <path id="DejaVuSans-34" d="M 2419 4116 
L 825 1625 
L 2419 1625 
L 2419 4116 
z
M 2253 4666 
L 3047 4666 
L 3047 1625 
L 3713 1625 
L 3713 1100 
L 3047 1100 
L 3047 0 
L 2419 0 
L 2419 1100 
L 313 1100 
L 313 1709 
L 2253 4666 
z
" transform="scale(0.015625)"/>
        <path id="DejaVuSans-30" d="M 2034 4250 
Q 1547 4250 1301 3770 
Q 1056 3291 1056 2328 
Q 1056 1369 1301 889 
Q 1547 409 2034 409 
Q 2525 409 2770 889 
Q 3016 1369 3016 2328 
Q 3016 3291 2770 3770 
Q 2525 4250 2034 4250 
z
M 2034 4750 
Q 2819 4750 3233 4129 
Q 3647 3509 3647 2328 
Q 3647 1150 3233 529 
Q 2819 -91 2034 -91 
Q 1250 -91 836 529 
Q 422 1150 422 2328 
Q 422 3509 836 4129 
Q 1250 4750 2034 4750 
z
" transform="scale(0.015625)"/>
       </defs>
       <use xlink:href="#DejaVuSans-31"/>
       <use xlink:href="#DejaVuSans-34" x="63.623047"/>
       <use xlink:href="#DejaVuSans-30" x="127.246094"/>
      </g>
     </g>
    </g>
    <g id="xtick_2">
     <g id="line2d_3">
      <path d="M 267.560331 378 
L 267.560331 51.84 
" clip-path="url(#pa0f60fac80)" style="fill: none; stroke: #b0b0b0; stroke-width: 0.8; stroke-linecap: square"/>
     </g>
     <g id="line2d_4">
      <g>
       <use xlink:href="#m653a30235d" x="267.560331" y="378" style="stroke: #000000; stroke-width: 0.8"/>
      </g>
     </g>
     <g id="text_2">
      <!-- 145 -->
      <g transform="translate(258.016581 392.598437) scale(0.1 -0.1)">
       <defs>
        <path id="DejaVuSans-35" d="M 691 4666 
L 3169 4666 
L 3169 4134 
L 1269 4134 
L 1269 2991 
Q 1406 3038 1543 3061 
Q 1681 3084 1819 3084 
Q 2600 3084 3056 2656 
Q 3513 2228 3513 1497 
Q 3513 744 3044 326 
Q 2575 -91 1722 -91 
Q 1428 -91 1123 -41 
Q 819 9 494 109 
L 494 744 
Q 775 591 1075 516 
Q 1375 441 1709 441 
Q 2250 441 2565 725 
Q 2881 1009 2881 1497 
Q 2881 1984 2565 2268 
Q 2250 2553 1709 2553 
Q 1456 2553 1204 2497 
Q 953 2441 691 2322 
L 691 4666 
z
" transform="scale(0.015625)"/>
       </defs>
       <use xlink:href="#DejaVuSans-31"/>
       <use xlink:href="#DejaVuSans-34" x="63.623047"/>
       <use xlink:href="#DejaVuSans-35" x="127.246094"/>
      </g>
     </g>
    </g>
    <g id="xtick_3">
     <g id="line2d_5">
      <path d="M 359.791736 378 
L 359.791736 51.84 
" clip-path="url(#pa0f60fac80)" style="fill: none; stroke: #b0b0b0; stroke-width: 0.8; stroke-linecap: square"/>
     </g>
     <g id="line2d_6">
      <g>
       <use xlink:href="#m653a30235d" x="359.791736" y="378" style="stroke: #000000; stroke-width: 0.8"/>
      </g>
     </g>
     <g id="text_3">
      <!-- 150 -->
      <g transform="translate(350.247986 392.598437) scale(0.1 -0.1)">
       <use xlink:href="#DejaVuSans-31"/>
       <use xlink:href="#DejaVuSans-35" x="63.623047"/>
       <use xlink:href="#DejaVuSans-30" x="127.246094"/>
      </g>
     </g>
    </g>
    <g id="xtick_4">
     <g id="line2d_7">
      <path d="M 452.02314 378 
L 452.02314 51.84 
" clip-path="url(#pa0f60fac80)" style="fill: none; stroke: #b0b0b0; stroke-width: 0.8; stroke-linecap: square"/>
     </g>
     <g id="line2d_8">
      <g>
       <use xlink:href="#m653a30235d" x="452.02314" y="378" style="stroke: #000000; stroke-width: 0.8"/>
      </g>
     </g>
     <g id="text_4">
      <!-- 155 -->
      <g transform="translate(442.47939 392.598437) scale(0.1 -0.1)">
       <use xlink:href="#DejaVuSans-31"/>
       <use xlink:href="#DejaVuSans-35" x="63.623047"/>
       <use xlink:href="#DejaVuSans-35" x="127.246094"/>
      </g>
     </g>
    </g>
    <g id="xtick_5">
     <g id="line2d_9">
      <path d="M 544.254545 378 
L 544.254545 51.84 
" clip-path="url(#pa0f60fac80)" style="fill: none; stroke: #b0b0b0; stroke-width: 0.8; stroke-linecap: square"/>
     </g>
     <g id="line2d_10">
      <g>
       <use xlink:href="#m653a30235d" x="544.254545" y="378" style="stroke: #000000; stroke-width: 0.8"/>
      </g>
     </g>
     <g id="text_5">
      <!-- 160 -->
      <g transform="translate(534.710795 392.598437) scale(0.1 -0.1)">
       <defs>
        <path id="DejaVuSans-36" d="M 2113 2584 
Q 1688 2584 1439 2293 
Q 1191 2003 1191 1497 
Q 1191 994 1439 701 
Q 1688 409 2113 409 
Q 2538 409 2786 701 
Q 3034 994 3034 1497 
Q 3034 2003 2786 2293 
Q 2538 2584 2113 2584 
z
M 3366 4563 
L 3366 3988 
Q 3128 4100 2886 4159 
Q 2644 4219 2406 4219 
Q 1781 4219 1451 3797 
Q 1122 3375 1075 2522 
Q 1259 2794 1537 2939 
Q 1816 3084 2150 3084 
Q 2853 3084 3261 2657 
Q 3669 2231 3669 1497 
Q 3669 778 3244 343 
Q 2819 -91 2113 -91 
Q 1303 -91 875 529 
Q 447 1150 447 2328 
Q 447 3434 972 4092 
Q 1497 4750 2381 4750 
Q 2619 4750 2861 4703 
Q 3103 4656 3366 4563 
z
" transform="scale(0.015625)"/>
       </defs>
       <use xlink:href="#DejaVuSans-31"/>
       <use xlink:href="#DejaVuSans-36" x="63.623047"/>
       <use xlink:href="#DejaVuSans-30" x="127.246094"/>
      </g>
     </g>
    </g>
    <g id="xtick_6">
     <g id="line2d_11">
      <path d="M 636.48595 378 
L 636.48595 51.84 
" clip-path="url(#pa0f60fac80)" style="fill: none; stroke: #b0b0b0; stroke-width: 0.8; stroke-linecap: square"/>
     </g>
     <g id="line2d_12">
      <g>
       <use xlink:href="#m653a30235d" x="636.48595" y="378" style="stroke: #000000; stroke-width: 0.8"/>
      </g>
     </g>
     <g id="text_6">
      <!-- 165 -->
      <g transform="translate(626.9422 392.598437) scale(0.1 -0.1)">
       <use xlink:href="#DejaVuSans-31"/>
       <use xlink:href="#DejaVuSans-36" x="63.623047"/>
       <use xlink:href="#DejaVuSans-35" x="127.246094"/>
      </g>
     </g>
    </g>
    <g id="xtick_7">
     <g id="line2d_13">
      <path d="M 728.717355 378 
L 728.717355 51.84 
" clip-path="url(#pa0f60fac80)" style="fill: none; stroke: #b0b0b0; stroke-width: 0.8; stroke-linecap: square"/>
     </g>
     <g id="line2d_14">
      <g>
       <use xlink:href="#m653a30235d" x="728.717355" y="378" style="stroke: #000000; stroke-width: 0.8"/>
      </g>
     </g>
     <g id="text_7">
      <!-- 170 -->
      <g transform="translate(719.173605 392.598437) scale(0.1 -0.1)">
       <defs>
        <path id="DejaVuSans-37" d="M 525 4666 
L 3525 4666 
L 3525 4397 
L 1831 0 
L 1172 0 
L 2766 4134 
L 525 4134 
L 525 4666 
z
" transform="scale(0.015625)"/>
       </defs>
       <use xlink:href="#DejaVuSans-31"/>
       <use xlink:href="#DejaVuSans-37" x="63.623047"/>
       <use xlink:href="#DejaVuSans-30" x="127.246094"/>
      </g>
     </g>
    </g>
    <g id="text_8">
     <!-- Angle at which a particular frame was reconstructed [degrees] -->
     <g transform="translate(285.778125 406.276563) scale(0.1 -0.1)">
      <defs>
       <path id="DejaVuSans-41" d="M 2188 4044 
L 1331 1722 
L 3047 1722 
L 2188 4044 
z
M 1831 4666 
L 2547 4666 
L 4325 0 
L 3669 0 
L 3244 1197 
L 1141 1197 
L 716 0 
L 50 0 
L 1831 4666 
z
" transform="scale(0.015625)"/>
       <path id="DejaVuSans-6e" d="M 3513 2113 
L 3513 0 
L 2938 0 
L 2938 2094 
Q 2938 2591 2744 2837 
Q 2550 3084 2163 3084 
Q 1697 3084 1428 2787 
Q 1159 2491 1159 1978 
L 1159 0 
L 581 0 
L 581 3500 
L 1159 3500 
L 1159 2956 
Q 1366 3272 1645 3428 
Q 1925 3584 2291 3584 
Q 2894 3584 3203 3211 
Q 3513 2838 3513 2113 
z
" transform="scale(0.015625)"/>
       <path id="DejaVuSans-67" d="M 2906 1791 
Q 2906 2416 2648 2759 
Q 2391 3103 1925 3103 
Q 1463 3103 1205 2759 
Q 947 2416 947 1791 
Q 947 1169 1205 825 
Q 1463 481 1925 481 
Q 2391 481 2648 825 
Q 2906 1169 2906 1791 
z
M 3481 434 
Q 3481 -459 3084 -895 
Q 2688 -1331 1869 -1331 
Q 1566 -1331 1297 -1286 
Q 1028 -1241 775 -1147 
L 775 -588 
Q 1028 -725 1275 -790 
Q 1522 -856 1778 -856 
Q 2344 -856 2625 -561 
Q 2906 -266 2906 331 
L 2906 616 
Q 2728 306 2450 153 
Q 2172 0 1784 0 
Q 1141 0 747 490 
Q 353 981 353 1791 
Q 353 2603 747 3093 
Q 1141 3584 1784 3584 
Q 2172 3584 2450 3431 
Q 2728 3278 2906 2969 
L 2906 3500 
L 3481 3500 
L 3481 434 
z
" transform="scale(0.015625)"/>
       <path id="DejaVuSans-6c" d="M 603 4863 
L 1178 4863 
L 1178 0 
L 603 0 
L 603 4863 
z
" transform="scale(0.015625)"/>
       <path id="DejaVuSans-65" d="M 3597 1894 
L 3597 1613 
L 953 1613 
Q 991 1019 1311 708 
Q 1631 397 2203 397 
Q 2534 397 2845 478 
Q 3156 559 3463 722 
L 3463 178 
Q 3153 47 2828 -22 
Q 2503 -91 2169 -91 
Q 1331 -91 842 396 
Q 353 884 353 1716 
Q 353 2575 817 3079 
Q 1281 3584 2069 3584 
Q 2775 3584 3186 3129 
Q 3597 2675 3597 1894 
z
M 3022 2063 
Q 3016 2534 2758 2815 
Q 2500 3097 2075 3097 
Q 1594 3097 1305 2825 
Q 1016 2553 972 2059 
L 3022 2063 
z
" transform="scale(0.015625)"/>
       <path id="DejaVuSans-20" transform="scale(0.015625)"/>
       <path id="DejaVuSans-61" d="M 2194 1759 
Q 1497 1759 1228 1600 
Q 959 1441 959 1056 
Q 959 750 1161 570 
Q 1363 391 1709 391 
Q 2188 391 2477 730 
Q 2766 1069 2766 1631 
L 2766 1759 
L 2194 1759 
z
M 3341 1997 
L 3341 0 
L 2766 0 
L 2766 531 
Q 2569 213 2275 61 
Q 1981 -91 1556 -91 
Q 1019 -91 701 211 
Q 384 513 384 1019 
Q 384 1609 779 1909 
Q 1175 2209 1959 2209 
L 2766 2209 
L 2766 2266 
Q 2766 2663 2505 2880 
Q 2244 3097 1772 3097 
Q 1472 3097 1187 3025 
Q 903 2953 641 2809 
L 641 3341 
Q 956 3463 1253 3523 
Q 1550 3584 1831 3584 
Q 2591 3584 2966 3190 
Q 3341 2797 3341 1997 
z
" transform="scale(0.015625)"/>
       <path id="DejaVuSans-74" d="M 1172 4494 
L 1172 3500 
L 2356 3500 
L 2356 3053 
L 1172 3053 
L 1172 1153 
Q 1172 725 1289 603 
Q 1406 481 1766 481 
L 2356 481 
L 2356 0 
L 1766 0 
Q 1100 0 847 248 
Q 594 497 594 1153 
L 594 3053 
L 172 3053 
L 172 3500 
L 594 3500 
L 594 4494 
L 1172 4494 
z
" transform="scale(0.015625)"/>
       <path id="DejaVuSans-77" d="M 269 3500 
L 844 3500 
L 1563 769 
L 2278 3500 
L 2956 3500 
L 3675 769 
L 4391 3500 
L 4966 3500 
L 4050 0 
L 3372 0 
L 2619 2869 
L 1863 0 
L 1184 0 
L 269 3500 
z
" transform="scale(0.015625)"/>
       <path id="DejaVuSans-68" d="M 3513 2113 
L 3513 0 
L 2938 0 
L 2938 2094 
Q 2938 2591 2744 2837 
Q 2550 3084 2163 3084 
Q 1697 3084 1428 2787 
Q 1159 2491 1159 1978 
L 1159 0 
L 581 0 
L 581 4863 
L 1159 4863 
L 1159 2956 
Q 1366 3272 1645 3428 
Q 1925 3584 2291 3584 
Q 2894 3584 3203 3211 
Q 3513 2838 3513 2113 
z
" transform="scale(0.015625)"/>
       <path id="DejaVuSans-69" d="M 603 3500 
L 1178 3500 
L 1178 0 
L 603 0 
L 603 3500 
z
M 603 4863 
L 1178 4863 
L 1178 4134 
L 603 4134 
L 603 4863 
z
" transform="scale(0.015625)"/>
       <path id="DejaVuSans-63" d="M 3122 3366 
L 3122 2828 
Q 2878 2963 2633 3030 
Q 2388 3097 2138 3097 
Q 1578 3097 1268 2742 
Q 959 2388 959 1747 
Q 959 1106 1268 751 
Q 1578 397 2138 397 
Q 2388 397 2633 464 
Q 2878 531 3122 666 
L 3122 134 
Q 2881 22 2623 -34 
Q 2366 -91 2075 -91 
Q 1284 -91 818 406 
Q 353 903 353 1747 
Q 353 2603 823 3093 
Q 1294 3584 2113 3584 
Q 2378 3584 2631 3529 
Q 2884 3475 3122 3366 
z
" transform="scale(0.015625)"/>
       <path id="DejaVuSans-70" d="M 1159 525 
L 1159 -1331 
L 581 -1331 
L 581 3500 
L 1159 3500 
L 1159 2969 
Q 1341 3281 1617 3432 
Q 1894 3584 2278 3584 
Q 2916 3584 3314 3078 
Q 3713 2572 3713 1747 
Q 3713 922 3314 415 
Q 2916 -91 2278 -91 
Q 1894 -91 1617 61 
Q 1341 213 1159 525 
z
M 3116 1747 
Q 3116 2381 2855 2742 
Q 2594 3103 2138 3103 
Q 1681 3103 1420 2742 
Q 1159 2381 1159 1747 
Q 1159 1113 1420 752 
Q 1681 391 2138 391 
Q 2594 391 2855 752 
Q 3116 1113 3116 1747 
z
" transform="scale(0.015625)"/>
       <path id="DejaVuSans-72" d="M 2631 2963 
Q 2534 3019 2420 3045 
Q 2306 3072 2169 3072 
Q 1681 3072 1420 2755 
Q 1159 2438 1159 1844 
L 1159 0 
L 581 0 
L 581 3500 
L 1159 3500 
L 1159 2956 
Q 1341 3275 1631 3429 
Q 1922 3584 2338 3584 
Q 2397 3584 2469 3576 
Q 2541 3569 2628 3553 
L 2631 2963 
z
" transform="scale(0.015625)"/>
       <path id="DejaVuSans-75" d="M 544 1381 
L 544 3500 
L 1119 3500 
L 1119 1403 
Q 1119 906 1312 657 
Q 1506 409 1894 409 
Q 2359 409 2629 706 
Q 2900 1003 2900 1516 
L 2900 3500 
L 3475 3500 
L 3475 0 
L 2900 0 
L 2900 538 
Q 2691 219 2414 64 
Q 2138 -91 1772 -91 
Q 1169 -91 856 284 
Q 544 659 544 1381 
z
M 1991 3584 
L 1991 3584 
z
" transform="scale(0.015625)"/>
       <path id="DejaVuSans-66" d="M 2375 4863 
L 2375 4384 
L 1825 4384 
Q 1516 4384 1395 4259 
Q 1275 4134 1275 3809 
L 1275 3500 
L 2222 3500 
L 2222 3053 
L 1275 3053 
L 1275 0 
L 697 0 
L 697 3053 
L 147 3053 
L 147 3500 
L 697 3500 
L 697 3744 
Q 697 4328 969 4595 
Q 1241 4863 1831 4863 
L 2375 4863 
z
" transform="scale(0.015625)"/>
       <path id="DejaVuSans-6d" d="M 3328 2828 
Q 3544 3216 3844 3400 
Q 4144 3584 4550 3584 
Q 5097 3584 5394 3201 
Q 5691 2819 5691 2113 
L 5691 0 
L 5113 0 
L 5113 2094 
Q 5113 2597 4934 2840 
Q 4756 3084 4391 3084 
Q 3944 3084 3684 2787 
Q 3425 2491 3425 1978 
L 3425 0 
L 2847 0 
L 2847 2094 
Q 2847 2600 2669 2842 
Q 2491 3084 2119 3084 
Q 1678 3084 1418 2786 
Q 1159 2488 1159 1978 
L 1159 0 
L 581 0 
L 581 3500 
L 1159 3500 
L 1159 2956 
Q 1356 3278 1631 3431 
Q 1906 3584 2284 3584 
Q 2666 3584 2933 3390 
Q 3200 3197 3328 2828 
z
" transform="scale(0.015625)"/>
       <path id="DejaVuSans-73" d="M 2834 3397 
L 2834 2853 
Q 2591 2978 2328 3040 
Q 2066 3103 1784 3103 
Q 1356 3103 1142 2972 
Q 928 2841 928 2578 
Q 928 2378 1081 2264 
Q 1234 2150 1697 2047 
L 1894 2003 
Q 2506 1872 2764 1633 
Q 3022 1394 3022 966 
Q 3022 478 2636 193 
Q 2250 -91 1575 -91 
Q 1294 -91 989 -36 
Q 684 19 347 128 
L 347 722 
Q 666 556 975 473 
Q 1284 391 1588 391 
Q 1994 391 2212 530 
Q 2431 669 2431 922 
Q 2431 1156 2273 1281 
Q 2116 1406 1581 1522 
L 1381 1569 
Q 847 1681 609 1914 
Q 372 2147 372 2553 
Q 372 3047 722 3315 
Q 1072 3584 1716 3584 
Q 2034 3584 2315 3537 
Q 2597 3491 2834 3397 
z
" transform="scale(0.015625)"/>
       <path id="DejaVuSans-6f" d="M 1959 3097 
Q 1497 3097 1228 2736 
Q 959 2375 959 1747 
Q 959 1119 1226 758 
Q 1494 397 1959 397 
Q 2419 397 2687 759 
Q 2956 1122 2956 1747 
Q 2956 2369 2687 2733 
Q 2419 3097 1959 3097 
z
M 1959 3584 
Q 2709 3584 3137 3096 
Q 3566 2609 3566 1747 
Q 3566 888 3137 398 
Q 2709 -91 1959 -91 
Q 1206 -91 779 398 
Q 353 888 353 1747 
Q 353 2609 779 3096 
Q 1206 3584 1959 3584 
z
" transform="scale(0.015625)"/>
       <path id="DejaVuSans-64" d="M 2906 2969 
L 2906 4863 
L 3481 4863 
L 3481 0 
L 2906 0 
L 2906 525 
Q 2725 213 2448 61 
Q 2172 -91 1784 -91 
Q 1150 -91 751 415 
Q 353 922 353 1747 
Q 353 2572 751 3078 
Q 1150 3584 1784 3584 
Q 2172 3584 2448 3432 
Q 2725 3281 2906 2969 
z
M 947 1747 
Q 947 1113 1208 752 
Q 1469 391 1925 391 
Q 2381 391 2643 752 
Q 2906 1113 2906 1747 
Q 2906 2381 2643 2742 
Q 2381 3103 1925 3103 
Q 1469 3103 1208 2742 
Q 947 2381 947 1747 
z
" transform="scale(0.015625)"/>
       <path id="DejaVuSans-5b" d="M 550 4863 
L 1875 4863 
L 1875 4416 
L 1125 4416 
L 1125 -397 
L 1875 -397 
L 1875 -844 
L 550 -844 
L 550 4863 
z
" transform="scale(0.015625)"/>
       <path id="DejaVuSans-5d" d="M 1947 4863 
L 1947 -844 
L 622 -844 
L 622 -397 
L 1369 -397 
L 1369 4416 
L 622 4416 
L 622 4863 
L 1947 4863 
z
" transform="scale(0.015625)"/>
      </defs>
      <use xlink:href="#DejaVuSans-41"/>
      <use xlink:href="#DejaVuSans-6e" x="68.408203"/>
      <use xlink:href="#DejaVuSans-67" x="131.787109"/>
      <use xlink:href="#DejaVuSans-6c" x="195.263672"/>
      <use xlink:href="#DejaVuSans-65" x="223.046875"/>
      <use xlink:href="#DejaVuSans-20" x="284.570312"/>
      <use xlink:href="#DejaVuSans-61" x="316.357422"/>
      <use xlink:href="#DejaVuSans-74" x="377.636719"/>
      <use xlink:href="#DejaVuSans-20" x="416.845703"/>
      <use xlink:href="#DejaVuSans-77" x="448.632812"/>
      <use xlink:href="#DejaVuSans-68" x="530.419922"/>
      <use xlink:href="#DejaVuSans-69" x="593.798828"/>
      <use xlink:href="#DejaVuSans-63" x="621.582031"/>
      <use xlink:href="#DejaVuSans-68" x="676.5625"/>
      <use xlink:href="#DejaVuSans-20" x="739.941406"/>
      <use xlink:href="#DejaVuSans-61" x="771.728516"/>
      <use xlink:href="#DejaVuSans-20" x="833.007812"/>
      <use xlink:href="#DejaVuSans-70" x="864.794922"/>
      <use xlink:href="#DejaVuSans-61" x="928.271484"/>
      <use xlink:href="#DejaVuSans-72" x="989.550781"/>
      <use xlink:href="#DejaVuSans-74" x="1030.664062"/>
      <use xlink:href="#DejaVuSans-69" x="1069.873047"/>
      <use xlink:href="#DejaVuSans-63" x="1097.65625"/>
      <use xlink:href="#DejaVuSans-75" x="1152.636719"/>
      <use xlink:href="#DejaVuSans-6c" x="1216.015625"/>
      <use xlink:href="#DejaVuSans-61" x="1243.798828"/>
      <use xlink:href="#DejaVuSans-72" x="1305.078125"/>
      <use xlink:href="#DejaVuSans-20" x="1346.191406"/>
      <use xlink:href="#DejaVuSans-66" x="1377.978516"/>
      <use xlink:href="#DejaVuSans-72" x="1413.183594"/>
      <use xlink:href="#DejaVuSans-61" x="1454.296875"/>
      <use xlink:href="#DejaVuSans-6d" x="1515.576172"/>
      <use xlink:href="#DejaVuSans-65" x="1612.988281"/>
      <use xlink:href="#DejaVuSans-20" x="1674.511719"/>
      <use xlink:href="#DejaVuSans-77" x="1706.298828"/>
      <use xlink:href="#DejaVuSans-61" x="1788.085938"/>
      <use xlink:href="#DejaVuSans-73" x="1849.365234"/>
      <use xlink:href="#DejaVuSans-20" x="1901.464844"/>
      <use xlink:href="#DejaVuSans-72" x="1933.251953"/>
      <use xlink:href="#DejaVuSans-65" x="1972.115234"/>
      <use xlink:href="#DejaVuSans-63" x="2033.638672"/>
      <use xlink:href="#DejaVuSans-6f" x="2088.619141"/>
      <use xlink:href="#DejaVuSans-6e" x="2149.800781"/>
      <use xlink:href="#DejaVuSans-73" x="2213.179688"/>
      <use xlink:href="#DejaVuSans-74" x="2265.279297"/>
      <use xlink:href="#DejaVuSans-72" x="2304.488281"/>
      <use xlink:href="#DejaVuSans-75" x="2345.601562"/>
      <use xlink:href="#DejaVuSans-63" x="2408.980469"/>
      <use xlink:href="#DejaVuSans-74" x="2463.960938"/>
      <use xlink:href="#DejaVuSans-65" x="2503.169922"/>
      <use xlink:href="#DejaVuSans-64" x="2564.693359"/>
      <use xlink:href="#DejaVuSans-20" x="2628.169922"/>
      <use xlink:href="#DejaVuSans-5b" x="2659.957031"/>
      <use xlink:href="#DejaVuSans-64" x="2698.970703"/>
      <use xlink:href="#DejaVuSans-65" x="2762.447266"/>
      <use xlink:href="#DejaVuSans-67" x="2823.970703"/>
      <use xlink:href="#DejaVuSans-72" x="2887.447266"/>
      <use xlink:href="#DejaVuSans-65" x="2926.310547"/>
      <use xlink:href="#DejaVuSans-65" x="2987.833984"/>
      <use xlink:href="#DejaVuSans-73" x="3049.357422"/>
      <use xlink:href="#DejaVuSans-5d" x="3101.457031"/>
     </g>
    </g>
   </g>
   <g id="matplotlib.axis_2">
    <g id="ytick_1">
     <g id="line2d_15">
      <path d="M 108 372.138063 
L 777.6 372.138063 
" clip-path="url(#pa0f60fac80)" style="fill: none; stroke: #b0b0b0; stroke-width: 0.8; stroke-linecap: square"/>
     </g>
     <g id="line2d_16">
      <defs>
       <path id="md492574d72" d="M 0 0 
L -3.5 0 
" style="stroke: #000000; stroke-width: 0.8"/>
      </defs>
      <g>
       <use xlink:href="#md492574d72" x="108" y="372.138063" style="stroke: #000000; stroke-width: 0.8"/>
      </g>
     </g>
     <g id="text_9">
      <!-- 0 -->
      <g transform="translate(94.6375 375.937282) scale(0.1 -0.1)">
       <use xlink:href="#DejaVuSans-30"/>
      </g>
     </g>
    </g>
    <g id="ytick_2">
     <g id="line2d_17">
      <path d="M 108 321.208985 
L 777.6 321.208985 
" clip-path="url(#pa0f60fac80)" style="fill: none; stroke: #b0b0b0; stroke-width: 0.8; stroke-linecap: square"/>
     </g>
     <g id="line2d_18">
      <g>
       <use xlink:href="#md492574d72" x="108" y="321.208985" style="stroke: #000000; stroke-width: 0.8"/>
      </g>
     </g>
     <g id="text_10">
      <!-- 5 -->
      <g transform="translate(94.6375 325.008204) scale(0.1 -0.1)">
       <use xlink:href="#DejaVuSans-35"/>
      </g>
     </g>
    </g>
    <g id="ytick_3">
     <g id="line2d_19">
      <path d="M 108 270.279908 
L 777.6 270.279908 
" clip-path="url(#pa0f60fac80)" style="fill: none; stroke: #b0b0b0; stroke-width: 0.8; stroke-linecap: square"/>
     </g>
     <g id="line2d_20">
      <g>
       <use xlink:href="#md492574d72" x="108" y="270.279908" style="stroke: #000000; stroke-width: 0.8"/>
      </g>
     </g>
     <g id="text_11">
      <!-- 10 -->
      <g transform="translate(88.275 274.079126) scale(0.1 -0.1)">
       <use xlink:href="#DejaVuSans-31"/>
       <use xlink:href="#DejaVuSans-30" x="63.623047"/>
      </g>
     </g>
    </g>
    <g id="ytick_4">
     <g id="line2d_21">
      <path d="M 108 219.35083 
L 777.6 219.35083 
" clip-path="url(#pa0f60fac80)" style="fill: none; stroke: #b0b0b0; stroke-width: 0.8; stroke-linecap: square"/>
     </g>
     <g id="line2d_22">
      <g>
       <use xlink:href="#md492574d72" x="108" y="219.35083" style="stroke: #000000; stroke-width: 0.8"/>
      </g>
     </g>
     <g id="text_12">
      <!-- 15 -->
      <g transform="translate(88.275 223.150049) scale(0.1 -0.1)">
       <use xlink:href="#DejaVuSans-31"/>
       <use xlink:href="#DejaVuSans-35" x="63.623047"/>
      </g>
     </g>
    </g>
    <g id="ytick_5">
     <g id="line2d_23">
      <path d="M 108 168.421752 
L 777.6 168.421752 
" clip-path="url(#pa0f60fac80)" style="fill: none; stroke: #b0b0b0; stroke-width: 0.8; stroke-linecap: square"/>
     </g>
     <g id="line2d_24">
      <g>
       <use xlink:href="#md492574d72" x="108" y="168.421752" style="stroke: #000000; stroke-width: 0.8"/>
      </g>
     </g>
     <g id="text_13">
      <!-- 20 -->
      <g transform="translate(88.275 172.220971) scale(0.1 -0.1)">
       <defs>
        <path id="DejaVuSans-32" d="M 1228 531 
L 3431 531 
L 3431 0 
L 469 0 
L 469 531 
Q 828 903 1448 1529 
Q 2069 2156 2228 2338 
Q 2531 2678 2651 2914 
Q 2772 3150 2772 3378 
Q 2772 3750 2511 3984 
Q 2250 4219 1831 4219 
Q 1534 4219 1204 4116 
Q 875 4013 500 3803 
L 500 4441 
Q 881 4594 1212 4672 
Q 1544 4750 1819 4750 
Q 2544 4750 2975 4387 
Q 3406 4025 3406 3419 
Q 3406 3131 3298 2873 
Q 3191 2616 2906 2266 
Q 2828 2175 2409 1742 
Q 1991 1309 1228 531 
z
" transform="scale(0.015625)"/>
       </defs>
       <use xlink:href="#DejaVuSans-32"/>
       <use xlink:href="#DejaVuSans-30" x="63.623047"/>
      </g>
     </g>
    </g>
    <g id="ytick_6">
     <g id="line2d_25">
      <path d="M 108 117.492674 
L 777.6 117.492674 
" clip-path="url(#pa0f60fac80)" style="fill: none; stroke: #b0b0b0; stroke-width: 0.8; stroke-linecap: square"/>
     </g>
     <g id="line2d_26">
      <g>
       <use xlink:href="#md492574d72" x="108" y="117.492674" style="stroke: #000000; stroke-width: 0.8"/>
      </g>
     </g>
     <g id="text_14">
      <!-- 25 -->
      <g transform="translate(88.275 121.291893) scale(0.1 -0.1)">
       <use xlink:href="#DejaVuSans-32"/>
       <use xlink:href="#DejaVuSans-35" x="63.623047"/>
      </g>
     </g>
    </g>
    <g id="ytick_7">
     <g id="line2d_27">
      <path d="M 108 66.563596 
L 777.6 66.563596 
" clip-path="url(#pa0f60fac80)" style="fill: none; stroke: #b0b0b0; stroke-width: 0.8; stroke-linecap: square"/>
     </g>
     <g id="line2d_28">
      <g>
       <use xlink:href="#md492574d72" x="108" y="66.563596" style="stroke: #000000; stroke-width: 0.8"/>
      </g>
     </g>
     <g id="text_15">
      <!-- 30 -->
      <g transform="translate(88.275 70.362815) scale(0.1 -0.1)">
       <defs>
        <path id="DejaVuSans-33" d="M 2597 2516 
Q 3050 2419 3304 2112 
Q 3559 1806 3559 1356 
Q 3559 666 3084 287 
Q 2609 -91 1734 -91 
Q 1441 -91 1130 -33 
Q 819 25 488 141 
L 488 750 
Q 750 597 1062 519 
Q 1375 441 1716 441 
Q 2309 441 2620 675 
Q 2931 909 2931 1356 
Q 2931 1769 2642 2001 
Q 2353 2234 1838 2234 
L 1294 2234 
L 1294 2753 
L 1863 2753 
Q 2328 2753 2575 2939 
Q 2822 3125 2822 3475 
Q 2822 3834 2567 4026 
Q 2313 4219 1838 4219 
Q 1578 4219 1281 4162 
Q 984 4106 628 3988 
L 628 4550 
Q 988 4650 1302 4700 
Q 1616 4750 1894 4750 
Q 2613 4750 3031 4423 
Q 3450 4097 3450 3541 
Q 3450 3153 3228 2886 
Q 3006 2619 2597 2516 
z
" transform="scale(0.015625)"/>
       </defs>
       <use xlink:href="#DejaVuSans-33"/>
       <use xlink:href="#DejaVuSans-30" x="63.623047"/>
      </g>
     </g>
    </g>
    <g id="text_16">
     <!-- angular velocity of the tibia at a given angle [degree/sec] -->
     <g transform="translate(82.195312 359.116094) rotate(-90) scale(0.1 -0.1)">
      <defs>
       <path id="DejaVuSans-76" d="M 191 3500 
L 800 3500 
L 1894 563 
L 2988 3500 
L 3597 3500 
L 2284 0 
L 1503 0 
L 191 3500 
z
" transform="scale(0.015625)"/>
       <path id="DejaVuSans-79" d="M 2059 -325 
Q 1816 -950 1584 -1140 
Q 1353 -1331 966 -1331 
L 506 -1331 
L 506 -850 
L 844 -850 
Q 1081 -850 1212 -737 
Q 1344 -625 1503 -206 
L 1606 56 
L 191 3500 
L 800 3500 
L 1894 763 
L 2988 3500 
L 3597 3500 
L 2059 -325 
z
" transform="scale(0.015625)"/>
       <path id="DejaVuSans-62" d="M 3116 1747 
Q 3116 2381 2855 2742 
Q 2594 3103 2138 3103 
Q 1681 3103 1420 2742 
Q 1159 2381 1159 1747 
Q 1159 1113 1420 752 
Q 1681 391 2138 391 
Q 2594 391 2855 752 
Q 3116 1113 3116 1747 
z
M 1159 2969 
Q 1341 3281 1617 3432 
Q 1894 3584 2278 3584 
Q 2916 3584 3314 3078 
Q 3713 2572 3713 1747 
Q 3713 922 3314 415 
Q 2916 -91 2278 -91 
Q 1894 -91 1617 61 
Q 1341 213 1159 525 
L 1159 0 
L 581 0 
L 581 4863 
L 1159 4863 
L 1159 2969 
z
" transform="scale(0.015625)"/>
       <path id="DejaVuSans-2f" d="M 1625 4666 
L 2156 4666 
L 531 -594 
L 0 -594 
L 1625 4666 
z
" transform="scale(0.015625)"/>
      </defs>
      <use xlink:href="#DejaVuSans-61"/>
      <use xlink:href="#DejaVuSans-6e" x="61.279297"/>
      <use xlink:href="#DejaVuSans-67" x="124.658203"/>
      <use xlink:href="#DejaVuSans-75" x="188.134766"/>
      <use xlink:href="#DejaVuSans-6c" x="251.513672"/>
      <use xlink:href="#DejaVuSans-61" x="279.296875"/>
      <use xlink:href="#DejaVuSans-72" x="340.576172"/>
      <use xlink:href="#DejaVuSans-20" x="381.689453"/>
      <use xlink:href="#DejaVuSans-76" x="413.476562"/>
      <use xlink:href="#DejaVuSans-65" x="472.65625"/>
      <use xlink:href="#DejaVuSans-6c" x="534.179688"/>
      <use xlink:href="#DejaVuSans-6f" x="561.962891"/>
      <use xlink:href="#DejaVuSans-63" x="623.144531"/>
      <use xlink:href="#DejaVuSans-69" x="678.125"/>
      <use xlink:href="#DejaVuSans-74" x="705.908203"/>
      <use xlink:href="#DejaVuSans-79" x="745.117188"/>
      <use xlink:href="#DejaVuSans-20" x="804.296875"/>
      <use xlink:href="#DejaVuSans-6f" x="836.083984"/>
      <use xlink:href="#DejaVuSans-66" x="897.265625"/>
      <use xlink:href="#DejaVuSans-20" x="932.470703"/>
      <use xlink:href="#DejaVuSans-74" x="964.257812"/>
      <use xlink:href="#DejaVuSans-68" x="1003.466797"/>
      <use xlink:href="#DejaVuSans-65" x="1066.845703"/>
      <use xlink:href="#DejaVuSans-20" x="1128.369141"/>
      <use xlink:href="#DejaVuSans-74" x="1160.15625"/>
      <use xlink:href="#DejaVuSans-69" x="1199.365234"/>
      <use xlink:href="#DejaVuSans-62" x="1227.148438"/>
      <use xlink:href="#DejaVuSans-69" x="1290.625"/>
      <use xlink:href="#DejaVuSans-61" x="1318.408203"/>
      <use xlink:href="#DejaVuSans-20" x="1379.6875"/>
      <use xlink:href="#DejaVuSans-61" x="1411.474609"/>
      <use xlink:href="#DejaVuSans-74" x="1472.753906"/>
      <use xlink:href="#DejaVuSans-20" x="1511.962891"/>
      <use xlink:href="#DejaVuSans-61" x="1543.75"/>
      <use xlink:href="#DejaVuSans-20" x="1605.029297"/>
      <use xlink:href="#DejaVuSans-67" x="1636.816406"/>
      <use xlink:href="#DejaVuSans-69" x="1700.292969"/>
      <use xlink:href="#DejaVuSans-76" x="1728.076172"/>
      <use xlink:href="#DejaVuSans-65" x="1787.255859"/>
      <use xlink:href="#DejaVuSans-6e" x="1848.779297"/>
      <use xlink:href="#DejaVuSans-20" x="1912.158203"/>
      <use xlink:href="#DejaVuSans-61" x="1943.945312"/>
      <use xlink:href="#DejaVuSans-6e" x="2005.224609"/>
      <use xlink:href="#DejaVuSans-67" x="2068.603516"/>
      <use xlink:href="#DejaVuSans-6c" x="2132.080078"/>
      <use xlink:href="#DejaVuSans-65" x="2159.863281"/>
      <use xlink:href="#DejaVuSans-20" x="2221.386719"/>
      <use xlink:href="#DejaVuSans-5b" x="2253.173828"/>
      <use xlink:href="#DejaVuSans-64" x="2292.1875"/>
      <use xlink:href="#DejaVuSans-65" x="2355.664062"/>
      <use xlink:href="#DejaVuSans-67" x="2417.1875"/>
      <use xlink:href="#DejaVuSans-72" x="2480.664062"/>
      <use xlink:href="#DejaVuSans-65" x="2519.527344"/>
      <use xlink:href="#DejaVuSans-65" x="2581.050781"/>
      <use xlink:href="#DejaVuSans-2f" x="2642.574219"/>
      <use xlink:href="#DejaVuSans-73" x="2676.265625"/>
      <use xlink:href="#DejaVuSans-65" x="2728.365234"/>
      <use xlink:href="#DejaVuSans-63" x="2789.888672"/>
      <use xlink:href="#DejaVuSans-5d" x="2844.869141"/>
     </g>
    </g>
   </g>
   <g id="line2d_29">
    <path d="M 138.436364 341.173184 
L 156.882645 333.941255 
L 175.328926 324.672163 
L 193.775207 311.125028 
L 212.221488 280.05829 
L 230.667769 240.537326 
L 249.11405 231.268234 
L 267.560331 219.758262 
L 286.006612 205.599979 
L 304.452893 176.875979 
L 322.899174 144.994376 
L 341.345455 126.048759 
L 359.791736 123.604164 
L 378.238017 133.280688 
L 396.684298 139.290319 
L 415.130579 138.781029 
L 433.57686 137.558731 
L 452.02314 137.253156 
L 470.469421 137.355015 
L 488.915702 141.633057 
L 507.361983 156.708064 
L 525.808264 176.26483 
L 544.254545 182.070745 
L 562.700826 170.968206 
L 581.147107 157.726646 
L 599.593388 155.383908 
L 618.039669 162.615837 
L 636.48595 187.774802 
L 654.932231 225.258603 
L 673.378512 253.269596 
L 691.824793 264.168418 
L 710.271074 259.381085 
L 728.717355 268.752035 
L 747.163636 287.29022 
" clip-path="url(#pa0f60fac80)" style="fill: none; stroke: #0000ff; stroke-width: 1.5; stroke-linecap: square"/>
   </g>
   <g id="line2d_30">
    <path d="M 138.436364 312.958475 
L 156.882645 297.985326 
L 175.328926 269.363184 
L 193.775207 268.140886 
L 212.221488 263.659127 
L 230.667769 237.58344 
L 249.11405 212.424475 
L 267.560331 184.413482 
L 286.006612 167.606887 
L 304.452893 155.485766 
L 322.899174 148.763128 
L 341.345455 146.827823 
L 359.791736 144.994376 
L 378.238017 138.16988 
L 396.684298 133.382546 
L 415.130579 135.725284 
L 433.57686 143.466504 
L 452.02314 152.633738 
L 470.469421 157.522929 
L 488.915702 161.597256 
L 507.361983 166.384589 
L 525.808264 168.014319 
L 544.254545 171.579355 
L 562.700826 176.570404 
L 581.147107 178.505709 
L 599.593388 180.237298 
L 618.039669 181.459596 
L 636.48595 191.034263 
L 654.932231 203.562816 
L 673.378512 214.970929 
L 691.824793 232.286816 
L 710.271074 247.361823 
L 728.717355 267.733454 
L 747.163636 288.105085 
" clip-path="url(#pa0f60fac80)" style="fill: none; stroke: #ffa500; stroke-width: 1.5; stroke-linecap: square"/>
   </g>
   <g id="patch_3">
    <path d="M 108 378 
L 108 51.84 
" style="fill: none; stroke: #000000; stroke-width: 0.8; stroke-linejoin: miter; stroke-linecap: square"/>
   </g>
   <g id="patch_4">
    <path d="M 777.6 378 
L 777.6 51.84 
" style="fill: none; stroke: #000000; stroke-width: 0.8; stroke-linejoin: miter; stroke-linecap: square"/>
   </g>
   <g id="patch_5">
    <path d="M 108 378 
L 777.6 378 
" style="fill: none; stroke: #000000; stroke-width: 0.8; stroke-linejoin: miter; stroke-linecap: square"/>
   </g>
   <g id="patch_6">
    <path d="M 108 51.84 
L 777.6 51.84 
" style="fill: none; stroke: #000000; stroke-width: 0.8; stroke-linejoin: miter; stroke-linecap: square"/>
   </g>
   <g id="text_17">
    <!-- Plotting the rate of change of angle vs angle.  -->
    <g transform="translate(305.138438 45.84) scale(0.12 -0.12)">
     <defs>
      <path id="DejaVuSans-50" d="M 1259 4147 
L 1259 2394 
L 2053 2394 
Q 2494 2394 2734 2622 
Q 2975 2850 2975 3272 
Q 2975 3691 2734 3919 
Q 2494 4147 2053 4147 
L 1259 4147 
z
M 628 4666 
L 2053 4666 
Q 2838 4666 3239 4311 
Q 3641 3956 3641 3272 
Q 3641 2581 3239 2228 
Q 2838 1875 2053 1875 
L 1259 1875 
L 1259 0 
L 628 0 
L 628 4666 
z
" transform="scale(0.015625)"/>
      <path id="DejaVuSans-2e" d="M 684 794 
L 1344 794 
L 1344 0 
L 684 0 
L 684 794 
z
" transform="scale(0.015625)"/>
     </defs>
     <use xlink:href="#DejaVuSans-50"/>
     <use xlink:href="#DejaVuSans-6c" x="60.302734"/>
     <use xlink:href="#DejaVuSans-6f" x="88.085938"/>
     <use xlink:href="#DejaVuSans-74" x="149.267578"/>
     <use xlink:href="#DejaVuSans-74" x="188.476562"/>
     <use xlink:href="#DejaVuSans-69" x="227.685547"/>
     <use xlink:href="#DejaVuSans-6e" x="255.46875"/>
     <use xlink:href="#DejaVuSans-67" x="318.847656"/>
     <use xlink:href="#DejaVuSans-20" x="382.324219"/>
     <use xlink:href="#DejaVuSans-74" x="414.111328"/>
     <use xlink:href="#DejaVuSans-68" x="453.320312"/>
     <use xlink:href="#DejaVuSans-65" x="516.699219"/>
     <use xlink:href="#DejaVuSans-20" x="578.222656"/>
     <use xlink:href="#DejaVuSans-72" x="610.009766"/>
     <use xlink:href="#DejaVuSans-61" x="651.123047"/>
     <use xlink:href="#DejaVuSans-74" x="712.402344"/>
     <use xlink:href="#DejaVuSans-65" x="751.611328"/>
     <use xlink:href="#DejaVuSans-20" x="813.134766"/>
     <use xlink:href="#DejaVuSans-6f" x="844.921875"/>
     <use xlink:href="#DejaVuSans-66" x="906.103516"/>
     <use xlink:href="#DejaVuSans-20" x="941.308594"/>
     <use xlink:href="#DejaVuSans-63" x="973.095703"/>
     <use xlink:href="#DejaVuSans-68" x="1028.076172"/>
     <use xlink:href="#DejaVuSans-61" x="1091.455078"/>
     <use xlink:href="#DejaVuSans-6e" x="1152.734375"/>
     <use xlink:href="#DejaVuSans-67" x="1216.113281"/>
     <use xlink:href="#DejaVuSans-65" x="1279.589844"/>
     <use xlink:href="#DejaVuSans-20" x="1341.113281"/>
     <use xlink:href="#DejaVuSans-6f" x="1372.900391"/>
     <use xlink:href="#DejaVuSans-66" x="1434.082031"/>
     <use xlink:href="#DejaVuSans-20" x="1469.287109"/>
     <use xlink:href="#DejaVuSans-61" x="1501.074219"/>
     <use xlink:href="#DejaVuSans-6e" x="1562.353516"/>
     <use xlink:href="#DejaVuSans-67" x="1625.732422"/>
     <use xlink:href="#DejaVuSans-6c" x="1689.208984"/>
     <use xlink:href="#DejaVuSans-65" x="1716.992188"/>
     <use xlink:href="#DejaVuSans-20" x="1778.515625"/>
     <use xlink:href="#DejaVuSans-76" x="1810.302734"/>
     <use xlink:href="#DejaVuSans-73" x="1869.482422"/>
     <use xlink:href="#DejaVuSans-20" x="1921.582031"/>
     <use xlink:href="#DejaVuSans-61" x="1953.369141"/>
     <use xlink:href="#DejaVuSans-6e" x="2014.648438"/>
     <use xlink:href="#DejaVuSans-67" x="2078.027344"/>
     <use xlink:href="#DejaVuSans-6c" x="2141.503906"/>
     <use xlink:href="#DejaVuSans-65" x="2169.287109"/>
     <use xlink:href="#DejaVuSans-2e" x="2230.810547"/>
     <use xlink:href="#DejaVuSans-20" x="2262.597656"/>
    </g>
   </g>
   <g id="legend_1">
    <g id="patch_7">
     <path d="M 692.05 89.19625 
L 770.6 89.19625 
Q 772.6 89.19625 772.6 87.19625 
L 772.6 58.84 
Q 772.6 56.84 770.6 56.84 
L 692.05 56.84 
Q 690.05 56.84 690.05 58.84 
L 690.05 87.19625 
Q 690.05 89.19625 692.05 89.19625 
z
" style="fill: #ffffff; opacity: 0.8; stroke: #cccccc; stroke-linejoin: miter"/>
    </g>
    <g id="line2d_31">
     <path d="M 694.05 64.938437 
L 704.05 64.938437 
L 714.05 64.938437 
" style="fill: none; stroke: #0000ff; stroke-width: 1.5; stroke-linecap: square"/>
    </g>
    <g id="text_18">
     <!-- loaded -->
     <g transform="translate(722.05 68.438437) scale(0.1 -0.1)">
      <use xlink:href="#DejaVuSans-6c"/>
      <use xlink:href="#DejaVuSans-6f" x="27.783203"/>
      <use xlink:href="#DejaVuSans-61" x="88.964844"/>
      <use xlink:href="#DejaVuSans-64" x="150.244141"/>
      <use xlink:href="#DejaVuSans-65" x="213.720703"/>
      <use xlink:href="#DejaVuSans-64" x="275.244141"/>
     </g>
    </g>
    <g id="line2d_32">
     <path d="M 694.05 79.616562 
L 704.05 79.616562 
L 714.05 79.616562 
" style="fill: none; stroke: #ffa500; stroke-width: 1.5; stroke-linecap: square"/>
    </g>
    <g id="text_19">
     <!-- unloaded -->
     <g transform="translate(722.05 83.116562) scale(0.1 -0.1)">
      <use xlink:href="#DejaVuSans-75"/>
      <use xlink:href="#DejaVuSans-6e" x="63.378906"/>
      <use xlink:href="#DejaVuSans-6c" x="126.757812"/>
      <use xlink:href="#DejaVuSans-6f" x="154.541016"/>
      <use xlink:href="#DejaVuSans-61" x="215.722656"/>
      <use xlink:href="#DejaVuSans-64" x="277.001953"/>
      <use xlink:href="#DejaVuSans-65" x="340.478516"/>
      <use xlink:href="#DejaVuSans-64" x="402.001953"/>
     </g>
    </g>
   </g>
  </g>
 </g>
 <defs>
  <clipPath id="pa0f60fac80">
   <rect x="108" y="51.84" width="669.6" height="326.16"/>
  </clipPath>
 </defs>
</svg>
