<?xml version="1.0" encoding="utf-8" standalone="no"?>
<!DOCTYPE svg PUBLIC "-//W3C//DTD SVG 1.1//EN"
  "http://www.w3.org/Graphics/SVG/1.1/DTD/svg11.dtd">
<svg xmlns:xlink="http://www.w3.org/1999/xlink" width="864pt" height="432pt" viewBox="0 0 864 432" xmlns="http://www.w3.org/2000/svg" version="1.1">
 <metadata>
  <rdf:RDF xmlns:dc="http://purl.org/dc/elements/1.1/" xmlns:cc="http://creativecommons.org/ns#" xmlns:rdf="http://www.w3.org/1999/02/22-rdf-syntax-ns#">
   <cc:Work>
    <dc:type rdf:resource="http://purl.org/dc/dcmitype/StillImage"/>
    <dc:date>2024-02-23T14:57:58.432423</dc:date>
    <dc:format>image/svg+xml</dc:format>
    <dc:creator>
     <cc:Agent>
      <dc:title>Matplotlib v3.7.1, https://matplotlib.org/</dc:title>
     </cc:Agent>
    </dc:creator>
   </cc:Work>
  </rdf:RDF>
 </metadata>
 <defs>
  <style type="text/css">*{stroke-linejoin: round; stroke-linecap: butt}</style>
 </defs>
 <g id="figure_1">
  <g id="patch_1">
   <path d="M 0 432 
L 864 432 
L 864 0 
L 0 0 
z
" style="fill: #ffffff"/>
  </g>
  <g id="axes_1">
   <g id="patch_2">
    <path d="M 108 378 
L 777.6 378 
L 777.6 51.84 
L 108 51.84 
z
" style="fill: #ffffff"/>
   </g>
   <g id="PolyCollection_1">
    <defs>
     <path id="m3b9a53e64c" d="M 156.340107 -361.405854 
L 156.340107 -292.832323 
L 174.24385 -275.760371 
L 192.147594 -246.402328 
L 210.051337 -210.04407 
L 227.95508 -166.328444 
L 245.858824 -142.970585 
L 263.762567 -140.541939 
L 281.66631 -150.542246 
L 299.570053 -163.042629 
L 317.473797 -167.899921 
L 335.37754 -158.685352 
L 353.281283 -139.256185 
L 371.185027 -124.041433 
L 389.08877 -115.32688 
L 406.992513 -115.041157 
L 424.896257 -120.469895 
L 442.8 -125.470048 
L 460.703743 -125.255756 
L 478.607487 -120.684187 
L 496.51123 -116.755495 
L 514.414973 -110.898173 
L 532.318717 -101.112159 
L 550.22246 -91.897591 
L 568.126203 -81.182976 
L 586.029947 -72.396993 
L 603.93369 -68.825455 
L 621.837433 -72.039839 
L 639.741176 -82.611592 
L 657.64492 -98.683513 
L 675.548663 -119.612726 
L 693.452406 -142.684862 
L 711.35615 -171.114305 
L 729.259893 -210.258362 
L 747.163636 -259.045572 
L 747.163636 -322.904673 
L 747.163636 -322.904673 
L 729.259893 -282.403431 
L 711.35615 -237.687775 
L 693.452406 -208.258301 
L 675.548663 -186.61478 
L 657.64492 -172.685782 
L 639.741176 -160.32826 
L 621.837433 -152.613738 
L 603.93369 -154.399507 
L 586.029947 -166.685598 
L 568.126203 -189.329149 
L 550.22246 -210.472655 
L 532.318717 -220.258669 
L 514.414973 -221.044407 
L 496.51123 -223.473053 
L 478.607487 -232.259037 
L 460.703743 -240.116421 
L 442.8 -241.473605 
L 424.896257 -243.187943 
L 406.992513 -240.616436 
L 389.08877 -234.616252 
L 371.185027 -237.473482 
L 353.281283 -259.117003 
L 335.37754 -282.26057 
L 317.473797 -280.189078 
L 299.570053 -263.902864 
L 281.66631 -256.831219 
L 263.762567 -272.117402 
L 245.858824 -280.40337 
L 227.95508 -321.047473 
L 210.051337 -354.905654 
L 192.147594 -364.977392 
L 174.24385 -365.334545 
L 156.340107 -361.405854 
z
" style="stroke: #0000ff; stroke-opacity: 0.1"/>
    </defs>
    <g clip-path="url(#pde885e14f7)">
     <use xlink:href="#m3b9a53e64c" x="0" y="432" style="fill: #0000ff; fill-opacity: 0.1; stroke: #0000ff; stroke-opacity: 0.1"/>
    </g>
   </g>
   <g id="PolyCollection_2">
    <defs>
     <path id="ma7eb8f4248" d="M 138.436364 -359.405792 
L 138.436364 -310.975736 
L 156.340107 -310.761444 
L 174.24385 -294.260938 
L 192.147594 -269.974479 
L 210.051337 -264.402879 
L 227.95508 -258.616988 
L 245.858824 -245.188005 
L 263.762567 -236.544883 
L 281.66631 -230.901852 
L 299.570053 -232.759052 
L 317.473797 -237.330621 
L 335.37754 -241.90219 
L 353.281283 -239.687836 
L 371.185027 -232.759052 
L 389.08877 -223.901638 
L 406.992513 -215.6871 
L 424.896257 -212.115562 
L 442.8 -210.686947 
L 460.703743 -210.472655 
L 478.607487 -208.686886 
L 496.51123 -203.829594 
L 514.414973 -195.400764 
L 532.318717 -185.400457 
L 550.22246 -177.114489 
L 568.126203 -170.328567 
L 586.029947 -163.756937 
L 603.93369 -156.971014 
L 621.837433 -150.97083 
L 639.741176 -147.470723 
L 657.64492 -144.827785 
L 675.548663 -143.899185 
L 693.452406 -147.113569 
L 711.35615 -156.61386 
L 729.259893 -177.25735 
L 747.163636 -213.8299 
L 747.163636 -299.261091 
L 747.163636 -299.261091 
L 729.259893 -265.831495 
L 711.35615 -250.616743 
L 693.452406 -242.259343 
L 675.548663 -241.04502 
L 657.64492 -246.402328 
L 639.741176 -248.188097 
L 621.837433 -246.116605 
L 603.93369 -242.973651 
L 586.029947 -242.045051 
L 568.126203 -246.61662 
L 550.22246 -249.688143 
L 532.318717 -251.116758 
L 514.414973 -251.402481 
L 496.51123 -250.40245 
L 478.607487 -255.402604 
L 460.703743 -261.759941 
L 442.8 -265.117187 
L 424.896257 -269.403033 
L 406.992513 -278.974755 
L 389.08877 -288.046462 
L 371.185027 -294.903815 
L 353.281283 -296.832445 
L 335.37754 -298.18963 
L 317.473797 -304.332675 
L 299.570053 -305.475567 
L 281.66631 -305.618429 
L 263.762567 -315.690166 
L 245.858824 -328.619134 
L 227.95508 -350.334086 
L 210.051337 -349.262624 
L 192.147594 -335.119333 
L 174.24385 -355.977116 
L 156.340107 -363.334484 
L 138.436364 -359.405792 
z
" style="stroke: #ffa500; stroke-opacity: 0.1"/>
    </defs>
    <g clip-path="url(#pde885e14f7)">
     <use xlink:href="#ma7eb8f4248" x="0" y="432" style="fill: #ffa500; fill-opacity: 0.1; stroke: #ffa500; stroke-opacity: 0.1"/>
    </g>
   </g>
   <g id="matplotlib.axis_1">
    <g id="xtick_1">
     <g id="line2d_1">
      <path d="M 192.147594 378 
L 192.147594 51.84 
" clip-path="url(#pde885e14f7)" style="fill: none; stroke: #b0b0b0; stroke-width: 0.8; stroke-linecap: square"/>
     </g>
     <g id="line2d_2">
      <defs>
       <path id="m68c743a0bd" d="M 0 0 
L 0 3.5 
" style="stroke: #000000; stroke-width: 0.8"/>
      </defs>
      <g>
       <use xlink:href="#m68c743a0bd" x="192.147594" y="378" style="stroke: #000000; stroke-width: 0.8"/>
      </g>
     </g>
     <g id="text_1">
      <!-- 140 -->
      <g transform="translate(182.603844 392.598437) scale(0.1 -0.1)">
       <defs>
        <path id="DejaVuSans-31" d="M 794 531 
L 1825 531 
L 1825 4091 
L 703 3866 
L 703 4441 
L 1819 4666 
L 2450 4666 
L 2450 531 
L 3481 531 
L 3481 0 
L 794 0 
L 794 531 
z
" transform="scale(0.015625)"/>
        <path id="DejaVuSans-34" d="M 2419 4116 
L 825 1625 
L 2419 1625 
L 2419 4116 
z
M 2253 4666 
L 3047 4666 
L 3047 1625 
L 3713 1625 
L 3713 1100 
L 3047 1100 
L 3047 0 
L 2419 0 
L 2419 1100 
L 313 1100 
L 313 1709 
L 2253 4666 
z
" transform="scale(0.015625)"/>
        <path id="DejaVuSans-30" d="M 2034 4250 
Q 1547 4250 1301 3770 
Q 1056 3291 1056 2328 
Q 1056 1369 1301 889 
Q 1547 409 2034 409 
Q 2525 409 2770 889 
Q 3016 1369 3016 2328 
Q 3016 3291 2770 3770 
Q 2525 4250 2034 4250 
z
M 2034 4750 
Q 2819 4750 3233 4129 
Q 3647 3509 3647 2328 
Q 3647 1150 3233 529 
Q 2819 -91 2034 -91 
Q 1250 -91 836 529 
Q 422 1150 422 2328 
Q 422 3509 836 4129 
Q 1250 4750 2034 4750 
z
" transform="scale(0.015625)"/>
       </defs>
       <use xlink:href="#DejaVuSans-31"/>
       <use xlink:href="#DejaVuSans-34" x="63.623047"/>
       <use xlink:href="#DejaVuSans-30" x="127.246094"/>
      </g>
     </g>
    </g>
    <g id="xtick_2">
     <g id="line2d_3">
      <path d="M 281.66631 378 
L 281.66631 51.84 
" clip-path="url(#pde885e14f7)" style="fill: none; stroke: #b0b0b0; stroke-width: 0.8; stroke-linecap: square"/>
     </g>
     <g id="line2d_4">
      <g>
       <use xlink:href="#m68c743a0bd" x="281.66631" y="378" style="stroke: #000000; stroke-width: 0.8"/>
      </g>
     </g>
     <g id="text_2">
      <!-- 145 -->
      <g transform="translate(272.12256 392.598437) scale(0.1 -0.1)">
       <defs>
        <path id="DejaVuSans-35" d="M 691 4666 
L 3169 4666 
L 3169 4134 
L 1269 4134 
L 1269 2991 
Q 1406 3038 1543 3061 
Q 1681 3084 1819 3084 
Q 2600 3084 3056 2656 
Q 3513 2228 3513 1497 
Q 3513 744 3044 326 
Q 2575 -91 1722 -91 
Q 1428 -91 1123 -41 
Q 819 9 494 109 
L 494 744 
Q 775 591 1075 516 
Q 1375 441 1709 441 
Q 2250 441 2565 725 
Q 2881 1009 2881 1497 
Q 2881 1984 2565 2268 
Q 2250 2553 1709 2553 
Q 1456 2553 1204 2497 
Q 953 2441 691 2322 
L 691 4666 
z
" transform="scale(0.015625)"/>
       </defs>
       <use xlink:href="#DejaVuSans-31"/>
       <use xlink:href="#DejaVuSans-34" x="63.623047"/>
       <use xlink:href="#DejaVuSans-35" x="127.246094"/>
      </g>
     </g>
    </g>
    <g id="xtick_3">
     <g id="line2d_5">
      <path d="M 371.185027 378 
L 371.185027 51.84 
" clip-path="url(#pde885e14f7)" style="fill: none; stroke: #b0b0b0; stroke-width: 0.8; stroke-linecap: square"/>
     </g>
     <g id="line2d_6">
      <g>
       <use xlink:href="#m68c743a0bd" x="371.185027" y="378" style="stroke: #000000; stroke-width: 0.8"/>
      </g>
     </g>
     <g id="text_3">
      <!-- 150 -->
      <g transform="translate(361.641277 392.598437) scale(0.1 -0.1)">
       <use xlink:href="#DejaVuSans-31"/>
       <use xlink:href="#DejaVuSans-35" x="63.623047"/>
       <use xlink:href="#DejaVuSans-30" x="127.246094"/>
      </g>
     </g>
    </g>
    <g id="xtick_4">
     <g id="line2d_7">
      <path d="M 460.703743 378 
L 460.703743 51.84 
" clip-path="url(#pde885e14f7)" style="fill: none; stroke: #b0b0b0; stroke-width: 0.8; stroke-linecap: square"/>
     </g>
     <g id="line2d_8">
      <g>
       <use xlink:href="#m68c743a0bd" x="460.703743" y="378" style="stroke: #000000; stroke-width: 0.8"/>
      </g>
     </g>
     <g id="text_4">
      <!-- 155 -->
      <g transform="translate(451.159993 392.598437) scale(0.1 -0.1)">
       <use xlink:href="#DejaVuSans-31"/>
       <use xlink:href="#DejaVuSans-35" x="63.623047"/>
       <use xlink:href="#DejaVuSans-35" x="127.246094"/>
      </g>
     </g>
    </g>
    <g id="xtick_5">
     <g id="line2d_9">
      <path d="M 550.22246 378 
L 550.22246 51.84 
" clip-path="url(#pde885e14f7)" style="fill: none; stroke: #b0b0b0; stroke-width: 0.8; stroke-linecap: square"/>
     </g>
     <g id="line2d_10">
      <g>
       <use xlink:href="#m68c743a0bd" x="550.22246" y="378" style="stroke: #000000; stroke-width: 0.8"/>
      </g>
     </g>
     <g id="text_5">
      <!-- 160 -->
      <g transform="translate(540.67871 392.598437) scale(0.1 -0.1)">
       <defs>
        <path id="DejaVuSans-36" d="M 2113 2584 
Q 1688 2584 1439 2293 
Q 1191 2003 1191 1497 
Q 1191 994 1439 701 
Q 1688 409 2113 409 
Q 2538 409 2786 701 
Q 3034 994 3034 1497 
Q 3034 2003 2786 2293 
Q 2538 2584 2113 2584 
z
M 3366 4563 
L 3366 3988 
Q 3128 4100 2886 4159 
Q 2644 4219 2406 4219 
Q 1781 4219 1451 3797 
Q 1122 3375 1075 2522 
Q 1259 2794 1537 2939 
Q 1816 3084 2150 3084 
Q 2853 3084 3261 2657 
Q 3669 2231 3669 1497 
Q 3669 778 3244 343 
Q 2819 -91 2113 -91 
Q 1303 -91 875 529 
Q 447 1150 447 2328 
Q 447 3434 972 4092 
Q 1497 4750 2381 4750 
Q 2619 4750 2861 4703 
Q 3103 4656 3366 4563 
z
" transform="scale(0.015625)"/>
       </defs>
       <use xlink:href="#DejaVuSans-31"/>
       <use xlink:href="#DejaVuSans-36" x="63.623047"/>
       <use xlink:href="#DejaVuSans-30" x="127.246094"/>
      </g>
     </g>
    </g>
    <g id="xtick_6">
     <g id="line2d_11">
      <path d="M 639.741176 378 
L 639.741176 51.84 
" clip-path="url(#pde885e14f7)" style="fill: none; stroke: #b0b0b0; stroke-width: 0.8; stroke-linecap: square"/>
     </g>
     <g id="line2d_12">
      <g>
       <use xlink:href="#m68c743a0bd" x="639.741176" y="378" style="stroke: #000000; stroke-width: 0.8"/>
      </g>
     </g>
     <g id="text_6">
      <!-- 165 -->
      <g transform="translate(630.197426 392.598437) scale(0.1 -0.1)">
       <use xlink:href="#DejaVuSans-31"/>
       <use xlink:href="#DejaVuSans-36" x="63.623047"/>
       <use xlink:href="#DejaVuSans-35" x="127.246094"/>
      </g>
     </g>
    </g>
    <g id="xtick_7">
     <g id="line2d_13">
      <path d="M 729.259893 378 
L 729.259893 51.84 
" clip-path="url(#pde885e14f7)" style="fill: none; stroke: #b0b0b0; stroke-width: 0.8; stroke-linecap: square"/>
     </g>
     <g id="line2d_14">
      <g>
       <use xlink:href="#m68c743a0bd" x="729.259893" y="378" style="stroke: #000000; stroke-width: 0.8"/>
      </g>
     </g>
     <g id="text_7">
      <!-- 170 -->
      <g transform="translate(719.716143 392.598437) scale(0.1 -0.1)">
       <defs>
        <path id="DejaVuSans-37" d="M 525 4666 
L 3525 4666 
L 3525 4397 
L 1831 0 
L 1172 0 
L 2766 4134 
L 525 4134 
L 525 4666 
z
" transform="scale(0.015625)"/>
       </defs>
       <use xlink:href="#DejaVuSans-31"/>
       <use xlink:href="#DejaVuSans-37" x="63.623047"/>
       <use xlink:href="#DejaVuSans-30" x="127.246094"/>
      </g>
     </g>
    </g>
    <g id="text_8">
     <!-- Angle at which a particular frame was reconstructed [degrees] -->
     <g transform="translate(285.778125 406.276563) scale(0.1 -0.1)">
      <defs>
       <path id="DejaVuSans-41" d="M 2188 4044 
L 1331 1722 
L 3047 1722 
L 2188 4044 
z
M 1831 4666 
L 2547 4666 
L 4325 0 
L 3669 0 
L 3244 1197 
L 1141 1197 
L 716 0 
L 50 0 
L 1831 4666 
z
" transform="scale(0.015625)"/>
       <path id="DejaVuSans-6e" d="M 3513 2113 
L 3513 0 
L 2938 0 
L 2938 2094 
Q 2938 2591 2744 2837 
Q 2550 3084 2163 3084 
Q 1697 3084 1428 2787 
Q 1159 2491 1159 1978 
L 1159 0 
L 581 0 
L 581 3500 
L 1159 3500 
L 1159 2956 
Q 1366 3272 1645 3428 
Q 1925 3584 2291 3584 
Q 2894 3584 3203 3211 
Q 3513 2838 3513 2113 
z
" transform="scale(0.015625)"/>
       <path id="DejaVuSans-67" d="M 2906 1791 
Q 2906 2416 2648 2759 
Q 2391 3103 1925 3103 
Q 1463 3103 1205 2759 
Q 947 2416 947 1791 
Q 947 1169 1205 825 
Q 1463 481 1925 481 
Q 2391 481 2648 825 
Q 2906 1169 2906 1791 
z
M 3481 434 
Q 3481 -459 3084 -895 
Q 2688 -1331 1869 -1331 
Q 1566 -1331 1297 -1286 
Q 1028 -1241 775 -1147 
L 775 -588 
Q 1028 -725 1275 -790 
Q 1522 -856 1778 -856 
Q 2344 -856 2625 -561 
Q 2906 -266 2906 331 
L 2906 616 
Q 2728 306 2450 153 
Q 2172 0 1784 0 
Q 1141 0 747 490 
Q 353 981 353 1791 
Q 353 2603 747 3093 
Q 1141 3584 1784 3584 
Q 2172 3584 2450 3431 
Q 2728 3278 2906 2969 
L 2906 3500 
L 3481 3500 
L 3481 434 
z
" transform="scale(0.015625)"/>
       <path id="DejaVuSans-6c" d="M 603 4863 
L 1178 4863 
L 1178 0 
L 603 0 
L 603 4863 
z
" transform="scale(0.015625)"/>
       <path id="DejaVuSans-65" d="M 3597 1894 
L 3597 1613 
L 953 1613 
Q 991 1019 1311 708 
Q 1631 397 2203 397 
Q 2534 397 2845 478 
Q 3156 559 3463 722 
L 3463 178 
Q 3153 47 2828 -22 
Q 2503 -91 2169 -91 
Q 1331 -91 842 396 
Q 353 884 353 1716 
Q 353 2575 817 3079 
Q 1281 3584 2069 3584 
Q 2775 3584 3186 3129 
Q 3597 2675 3597 1894 
z
M 3022 2063 
Q 3016 2534 2758 2815 
Q 2500 3097 2075 3097 
Q 1594 3097 1305 2825 
Q 1016 2553 972 2059 
L 3022 2063 
z
" transform="scale(0.015625)"/>
       <path id="DejaVuSans-20" transform="scale(0.015625)"/>
       <path id="DejaVuSans-61" d="M 2194 1759 
Q 1497 1759 1228 1600 
Q 959 1441 959 1056 
Q 959 750 1161 570 
Q 1363 391 1709 391 
Q 2188 391 2477 730 
Q 2766 1069 2766 1631 
L 2766 1759 
L 2194 1759 
z
M 3341 1997 
L 3341 0 
L 2766 0 
L 2766 531 
Q 2569 213 2275 61 
Q 1981 -91 1556 -91 
Q 1019 -91 701 211 
Q 384 513 384 1019 
Q 384 1609 779 1909 
Q 1175 2209 1959 2209 
L 2766 2209 
L 2766 2266 
Q 2766 2663 2505 2880 
Q 2244 3097 1772 3097 
Q 1472 3097 1187 3025 
Q 903 2953 641 2809 
L 641 3341 
Q 956 3463 1253 3523 
Q 1550 3584 1831 3584 
Q 2591 3584 2966 3190 
Q 3341 2797 3341 1997 
z
" transform="scale(0.015625)"/>
       <path id="DejaVuSans-74" d="M 1172 4494 
L 1172 3500 
L 2356 3500 
L 2356 3053 
L 1172 3053 
L 1172 1153 
Q 1172 725 1289 603 
Q 1406 481 1766 481 
L 2356 481 
L 2356 0 
L 1766 0 
Q 1100 0 847 248 
Q 594 497 594 1153 
L 594 3053 
L 172 3053 
L 172 3500 
L 594 3500 
L 594 4494 
L 1172 4494 
z
" transform="scale(0.015625)"/>
       <path id="DejaVuSans-77" d="M 269 3500 
L 844 3500 
L 1563 769 
L 2278 3500 
L 2956 3500 
L 3675 769 
L 4391 3500 
L 4966 3500 
L 4050 0 
L 3372 0 
L 2619 2869 
L 1863 0 
L 1184 0 
L 269 3500 
z
" transform="scale(0.015625)"/>
       <path id="DejaVuSans-68" d="M 3513 2113 
L 3513 0 
L 2938 0 
L 2938 2094 
Q 2938 2591 2744 2837 
Q 2550 3084 2163 3084 
Q 1697 3084 1428 2787 
Q 1159 2491 1159 1978 
L 1159 0 
L 581 0 
L 581 4863 
L 1159 4863 
L 1159 2956 
Q 1366 3272 1645 3428 
Q 1925 3584 2291 3584 
Q 2894 3584 3203 3211 
Q 3513 2838 3513 2113 
z
" transform="scale(0.015625)"/>
       <path id="DejaVuSans-69" d="M 603 3500 
L 1178 3500 
L 1178 0 
L 603 0 
L 603 3500 
z
M 603 4863 
L 1178 4863 
L 1178 4134 
L 603 4134 
L 603 4863 
z
" transform="scale(0.015625)"/>
       <path id="DejaVuSans-63" d="M 3122 3366 
L 3122 2828 
Q 2878 2963 2633 3030 
Q 2388 3097 2138 3097 
Q 1578 3097 1268 2742 
Q 959 2388 959 1747 
Q 959 1106 1268 751 
Q 1578 397 2138 397 
Q 2388 397 2633 464 
Q 2878 531 3122 666 
L 3122 134 
Q 2881 22 2623 -34 
Q 2366 -91 2075 -91 
Q 1284 -91 818 406 
Q 353 903 353 1747 
Q 353 2603 823 3093 
Q 1294 3584 2113 3584 
Q 2378 3584 2631 3529 
Q 2884 3475 3122 3366 
z
" transform="scale(0.015625)"/>
       <path id="DejaVuSans-70" d="M 1159 525 
L 1159 -1331 
L 581 -1331 
L 581 3500 
L 1159 3500 
L 1159 2969 
Q 1341 3281 1617 3432 
Q 1894 3584 2278 3584 
Q 2916 3584 3314 3078 
Q 3713 2572 3713 1747 
Q 3713 922 3314 415 
Q 2916 -91 2278 -91 
Q 1894 -91 1617 61 
Q 1341 213 1159 525 
z
M 3116 1747 
Q 3116 2381 2855 2742 
Q 2594 3103 2138 3103 
Q 1681 3103 1420 2742 
Q 1159 2381 1159 1747 
Q 1159 1113 1420 752 
Q 1681 391 2138 391 
Q 2594 391 2855 752 
Q 3116 1113 3116 1747 
z
" transform="scale(0.015625)"/>
       <path id="DejaVuSans-72" d="M 2631 2963 
Q 2534 3019 2420 3045 
Q 2306 3072 2169 3072 
Q 1681 3072 1420 2755 
Q 1159 2438 1159 1844 
L 1159 0 
L 581 0 
L 581 3500 
L 1159 3500 
L 1159 2956 
Q 1341 3275 1631 3429 
Q 1922 3584 2338 3584 
Q 2397 3584 2469 3576 
Q 2541 3569 2628 3553 
L 2631 2963 
z
" transform="scale(0.015625)"/>
       <path id="DejaVuSans-75" d="M 544 1381 
L 544 3500 
L 1119 3500 
L 1119 1403 
Q 1119 906 1312 657 
Q 1506 409 1894 409 
Q 2359 409 2629 706 
Q 2900 1003 2900 1516 
L 2900 3500 
L 3475 3500 
L 3475 0 
L 2900 0 
L 2900 538 
Q 2691 219 2414 64 
Q 2138 -91 1772 -91 
Q 1169 -91 856 284 
Q 544 659 544 1381 
z
M 1991 3584 
L 1991 3584 
z
" transform="scale(0.015625)"/>
       <path id="DejaVuSans-66" d="M 2375 4863 
L 2375 4384 
L 1825 4384 
Q 1516 4384 1395 4259 
Q 1275 4134 1275 3809 
L 1275 3500 
L 2222 3500 
L 2222 3053 
L 1275 3053 
L 1275 0 
L 697 0 
L 697 3053 
L 147 3053 
L 147 3500 
L 697 3500 
L 697 3744 
Q 697 4328 969 4595 
Q 1241 4863 1831 4863 
L 2375 4863 
z
" transform="scale(0.015625)"/>
       <path id="DejaVuSans-6d" d="M 3328 2828 
Q 3544 3216 3844 3400 
Q 4144 3584 4550 3584 
Q 5097 3584 5394 3201 
Q 5691 2819 5691 2113 
L 5691 0 
L 5113 0 
L 5113 2094 
Q 5113 2597 4934 2840 
Q 4756 3084 4391 3084 
Q 3944 3084 3684 2787 
Q 3425 2491 3425 1978 
L 3425 0 
L 2847 0 
L 2847 2094 
Q 2847 2600 2669 2842 
Q 2491 3084 2119 3084 
Q 1678 3084 1418 2786 
Q 1159 2488 1159 1978 
L 1159 0 
L 581 0 
L 581 3500 
L 1159 3500 
L 1159 2956 
Q 1356 3278 1631 3431 
Q 1906 3584 2284 3584 
Q 2666 3584 2933 3390 
Q 3200 3197 3328 2828 
z
" transform="scale(0.015625)"/>
       <path id="DejaVuSans-73" d="M 2834 3397 
L 2834 2853 
Q 2591 2978 2328 3040 
Q 2066 3103 1784 3103 
Q 1356 3103 1142 2972 
Q 928 2841 928 2578 
Q 928 2378 1081 2264 
Q 1234 2150 1697 2047 
L 1894 2003 
Q 2506 1872 2764 1633 
Q 3022 1394 3022 966 
Q 3022 478 2636 193 
Q 2250 -91 1575 -91 
Q 1294 -91 989 -36 
Q 684 19 347 128 
L 347 722 
Q 666 556 975 473 
Q 1284 391 1588 391 
Q 1994 391 2212 530 
Q 2431 669 2431 922 
Q 2431 1156 2273 1281 
Q 2116 1406 1581 1522 
L 1381 1569 
Q 847 1681 609 1914 
Q 372 2147 372 2553 
Q 372 3047 722 3315 
Q 1072 3584 1716 3584 
Q 2034 3584 2315 3537 
Q 2597 3491 2834 3397 
z
" transform="scale(0.015625)"/>
       <path id="DejaVuSans-6f" d="M 1959 3097 
Q 1497 3097 1228 2736 
Q 959 2375 959 1747 
Q 959 1119 1226 758 
Q 1494 397 1959 397 
Q 2419 397 2687 759 
Q 2956 1122 2956 1747 
Q 2956 2369 2687 2733 
Q 2419 3097 1959 3097 
z
M 1959 3584 
Q 2709 3584 3137 3096 
Q 3566 2609 3566 1747 
Q 3566 888 3137 398 
Q 2709 -91 1959 -91 
Q 1206 -91 779 398 
Q 353 888 353 1747 
Q 353 2609 779 3096 
Q 1206 3584 1959 3584 
z
" transform="scale(0.015625)"/>
       <path id="DejaVuSans-64" d="M 2906 2969 
L 2906 4863 
L 3481 4863 
L 3481 0 
L 2906 0 
L 2906 525 
Q 2725 213 2448 61 
Q 2172 -91 1784 -91 
Q 1150 -91 751 415 
Q 353 922 353 1747 
Q 353 2572 751 3078 
Q 1150 3584 1784 3584 
Q 2172 3584 2448 3432 
Q 2725 3281 2906 2969 
z
M 947 1747 
Q 947 1113 1208 752 
Q 1469 391 1925 391 
Q 2381 391 2643 752 
Q 2906 1113 2906 1747 
Q 2906 2381 2643 2742 
Q 2381 3103 1925 3103 
Q 1469 3103 1208 2742 
Q 947 2381 947 1747 
z
" transform="scale(0.015625)"/>
       <path id="DejaVuSans-5b" d="M 550 4863 
L 1875 4863 
L 1875 4416 
L 1125 4416 
L 1125 -397 
L 1875 -397 
L 1875 -844 
L 550 -844 
L 550 4863 
z
" transform="scale(0.015625)"/>
       <path id="DejaVuSans-5d" d="M 1947 4863 
L 1947 -844 
L 622 -844 
L 622 -397 
L 1369 -397 
L 1369 4416 
L 622 4416 
L 622 4863 
L 1947 4863 
z
" transform="scale(0.015625)"/>
      </defs>
      <use xlink:href="#DejaVuSans-41"/>
      <use xlink:href="#DejaVuSans-6e" x="68.408203"/>
      <use xlink:href="#DejaVuSans-67" x="131.787109"/>
      <use xlink:href="#DejaVuSans-6c" x="195.263672"/>
      <use xlink:href="#DejaVuSans-65" x="223.046875"/>
      <use xlink:href="#DejaVuSans-20" x="284.570312"/>
      <use xlink:href="#DejaVuSans-61" x="316.357422"/>
      <use xlink:href="#DejaVuSans-74" x="377.636719"/>
      <use xlink:href="#DejaVuSans-20" x="416.845703"/>
      <use xlink:href="#DejaVuSans-77" x="448.632812"/>
      <use xlink:href="#DejaVuSans-68" x="530.419922"/>
      <use xlink:href="#DejaVuSans-69" x="593.798828"/>
      <use xlink:href="#DejaVuSans-63" x="621.582031"/>
      <use xlink:href="#DejaVuSans-68" x="676.5625"/>
      <use xlink:href="#DejaVuSans-20" x="739.941406"/>
      <use xlink:href="#DejaVuSans-61" x="771.728516"/>
      <use xlink:href="#DejaVuSans-20" x="833.007812"/>
      <use xlink:href="#DejaVuSans-70" x="864.794922"/>
      <use xlink:href="#DejaVuSans-61" x="928.271484"/>
      <use xlink:href="#DejaVuSans-72" x="989.550781"/>
      <use xlink:href="#DejaVuSans-74" x="1030.664062"/>
      <use xlink:href="#DejaVuSans-69" x="1069.873047"/>
      <use xlink:href="#DejaVuSans-63" x="1097.65625"/>
      <use xlink:href="#DejaVuSans-75" x="1152.636719"/>
      <use xlink:href="#DejaVuSans-6c" x="1216.015625"/>
      <use xlink:href="#DejaVuSans-61" x="1243.798828"/>
      <use xlink:href="#DejaVuSans-72" x="1305.078125"/>
      <use xlink:href="#DejaVuSans-20" x="1346.191406"/>
      <use xlink:href="#DejaVuSans-66" x="1377.978516"/>
      <use xlink:href="#DejaVuSans-72" x="1413.183594"/>
      <use xlink:href="#DejaVuSans-61" x="1454.296875"/>
      <use xlink:href="#DejaVuSans-6d" x="1515.576172"/>
      <use xlink:href="#DejaVuSans-65" x="1612.988281"/>
      <use xlink:href="#DejaVuSans-20" x="1674.511719"/>
      <use xlink:href="#DejaVuSans-77" x="1706.298828"/>
      <use xlink:href="#DejaVuSans-61" x="1788.085938"/>
      <use xlink:href="#DejaVuSans-73" x="1849.365234"/>
      <use xlink:href="#DejaVuSans-20" x="1901.464844"/>
      <use xlink:href="#DejaVuSans-72" x="1933.251953"/>
      <use xlink:href="#DejaVuSans-65" x="1972.115234"/>
      <use xlink:href="#DejaVuSans-63" x="2033.638672"/>
      <use xlink:href="#DejaVuSans-6f" x="2088.619141"/>
      <use xlink:href="#DejaVuSans-6e" x="2149.800781"/>
      <use xlink:href="#DejaVuSans-73" x="2213.179688"/>
      <use xlink:href="#DejaVuSans-74" x="2265.279297"/>
      <use xlink:href="#DejaVuSans-72" x="2304.488281"/>
      <use xlink:href="#DejaVuSans-75" x="2345.601562"/>
      <use xlink:href="#DejaVuSans-63" x="2408.980469"/>
      <use xlink:href="#DejaVuSans-74" x="2463.960938"/>
      <use xlink:href="#DejaVuSans-65" x="2503.169922"/>
      <use xlink:href="#DejaVuSans-64" x="2564.693359"/>
      <use xlink:href="#DejaVuSans-20" x="2628.169922"/>
      <use xlink:href="#DejaVuSans-5b" x="2659.957031"/>
      <use xlink:href="#DejaVuSans-64" x="2698.970703"/>
      <use xlink:href="#DejaVuSans-65" x="2762.447266"/>
      <use xlink:href="#DejaVuSans-67" x="2823.970703"/>
      <use xlink:href="#DejaVuSans-72" x="2887.447266"/>
      <use xlink:href="#DejaVuSans-65" x="2926.310547"/>
      <use xlink:href="#DejaVuSans-65" x="2987.833984"/>
      <use xlink:href="#DejaVuSans-73" x="3049.357422"/>
      <use xlink:href="#DejaVuSans-5d" x="3101.457031"/>
     </g>
    </g>
   </g>
   <g id="matplotlib.axis_2">
    <g id="ytick_1">
     <g id="line2d_15">
      <path d="M 108 343.816809 
L 777.6 343.816809 
" clip-path="url(#pde885e14f7)" style="fill: none; stroke: #b0b0b0; stroke-width: 0.8; stroke-linecap: square"/>
     </g>
     <g id="line2d_16">
      <defs>
       <path id="m31ba0364cd" d="M 0 0 
L -3.5 0 
" style="stroke: #000000; stroke-width: 0.8"/>
      </defs>
      <g>
       <use xlink:href="#m31ba0364cd" x="108" y="343.816809" style="stroke: #000000; stroke-width: 0.8"/>
      </g>
     </g>
     <g id="text_9">
      <!-- −40 -->
      <g transform="translate(79.895313 347.616028) scale(0.1 -0.1)">
       <defs>
        <path id="DejaVuSans-2212" d="M 678 2272 
L 4684 2272 
L 4684 1741 
L 678 1741 
L 678 2272 
z
" transform="scale(0.015625)"/>
       </defs>
       <use xlink:href="#DejaVuSans-2212"/>
       <use xlink:href="#DejaVuSans-34" x="83.789062"/>
       <use xlink:href="#DejaVuSans-30" x="147.412109"/>
      </g>
     </g>
    </g>
    <g id="ytick_2">
     <g id="line2d_17">
      <path d="M 108 272.386048 
L 777.6 272.386048 
" clip-path="url(#pde885e14f7)" style="fill: none; stroke: #b0b0b0; stroke-width: 0.8; stroke-linecap: square"/>
     </g>
     <g id="line2d_18">
      <g>
       <use xlink:href="#m31ba0364cd" x="108" y="272.386048" style="stroke: #000000; stroke-width: 0.8"/>
      </g>
     </g>
     <g id="text_10">
      <!-- −30 -->
      <g transform="translate(79.895313 276.185266) scale(0.1 -0.1)">
       <defs>
        <path id="DejaVuSans-33" d="M 2597 2516 
Q 3050 2419 3304 2112 
Q 3559 1806 3559 1356 
Q 3559 666 3084 287 
Q 2609 -91 1734 -91 
Q 1441 -91 1130 -33 
Q 819 25 488 141 
L 488 750 
Q 750 597 1062 519 
Q 1375 441 1716 441 
Q 2309 441 2620 675 
Q 2931 909 2931 1356 
Q 2931 1769 2642 2001 
Q 2353 2234 1838 2234 
L 1294 2234 
L 1294 2753 
L 1863 2753 
Q 2328 2753 2575 2939 
Q 2822 3125 2822 3475 
Q 2822 3834 2567 4026 
Q 2313 4219 1838 4219 
Q 1578 4219 1281 4162 
Q 984 4106 628 3988 
L 628 4550 
Q 988 4650 1302 4700 
Q 1616 4750 1894 4750 
Q 2613 4750 3031 4423 
Q 3450 4097 3450 3541 
Q 3450 3153 3228 2886 
Q 3006 2619 2597 2516 
z
" transform="scale(0.015625)"/>
       </defs>
       <use xlink:href="#DejaVuSans-2212"/>
       <use xlink:href="#DejaVuSans-33" x="83.789062"/>
       <use xlink:href="#DejaVuSans-30" x="147.412109"/>
      </g>
     </g>
    </g>
    <g id="ytick_3">
     <g id="line2d_19">
      <path d="M 108 200.955286 
L 777.6 200.955286 
" clip-path="url(#pde885e14f7)" style="fill: none; stroke: #b0b0b0; stroke-width: 0.8; stroke-linecap: square"/>
     </g>
     <g id="line2d_20">
      <g>
       <use xlink:href="#m31ba0364cd" x="108" y="200.955286" style="stroke: #000000; stroke-width: 0.8"/>
      </g>
     </g>
     <g id="text_11">
      <!-- −20 -->
      <g transform="translate(79.895313 204.754505) scale(0.1 -0.1)">
       <defs>
        <path id="DejaVuSans-32" d="M 1228 531 
L 3431 531 
L 3431 0 
L 469 0 
L 469 531 
Q 828 903 1448 1529 
Q 2069 2156 2228 2338 
Q 2531 2678 2651 2914 
Q 2772 3150 2772 3378 
Q 2772 3750 2511 3984 
Q 2250 4219 1831 4219 
Q 1534 4219 1204 4116 
Q 875 4013 500 3803 
L 500 4441 
Q 881 4594 1212 4672 
Q 1544 4750 1819 4750 
Q 2544 4750 2975 4387 
Q 3406 4025 3406 3419 
Q 3406 3131 3298 2873 
Q 3191 2616 2906 2266 
Q 2828 2175 2409 1742 
Q 1991 1309 1228 531 
z
" transform="scale(0.015625)"/>
       </defs>
       <use xlink:href="#DejaVuSans-2212"/>
       <use xlink:href="#DejaVuSans-32" x="83.789062"/>
       <use xlink:href="#DejaVuSans-30" x="147.412109"/>
      </g>
     </g>
    </g>
    <g id="ytick_4">
     <g id="line2d_21">
      <path d="M 108 129.524525 
L 777.6 129.524525 
" clip-path="url(#pde885e14f7)" style="fill: none; stroke: #b0b0b0; stroke-width: 0.8; stroke-linecap: square"/>
     </g>
     <g id="line2d_22">
      <g>
       <use xlink:href="#m31ba0364cd" x="108" y="129.524525" style="stroke: #000000; stroke-width: 0.8"/>
      </g>
     </g>
     <g id="text_12">
      <!-- −10 -->
      <g transform="translate(79.895313 133.323743) scale(0.1 -0.1)">
       <use xlink:href="#DejaVuSans-2212"/>
       <use xlink:href="#DejaVuSans-31" x="83.789062"/>
       <use xlink:href="#DejaVuSans-30" x="147.412109"/>
      </g>
     </g>
    </g>
    <g id="ytick_5">
     <g id="line2d_23">
      <path d="M 108 58.093763 
L 777.6 58.093763 
" clip-path="url(#pde885e14f7)" style="fill: none; stroke: #b0b0b0; stroke-width: 0.8; stroke-linecap: square"/>
     </g>
     <g id="line2d_24">
      <g>
       <use xlink:href="#m31ba0364cd" x="108" y="58.093763" style="stroke: #000000; stroke-width: 0.8"/>
      </g>
     </g>
     <g id="text_13">
      <!-- 0 -->
      <g transform="translate(94.6375 61.892982) scale(0.1 -0.1)">
       <use xlink:href="#DejaVuSans-30"/>
      </g>
     </g>
    </g>
    <g id="text_14">
     <!-- angular velocity of the tibia at a given angle [degree/sec] -->
     <g transform="translate(73.815625 359.116094) rotate(-90) scale(0.1 -0.1)">
      <defs>
       <path id="DejaVuSans-76" d="M 191 3500 
L 800 3500 
L 1894 563 
L 2988 3500 
L 3597 3500 
L 2284 0 
L 1503 0 
L 191 3500 
z
" transform="scale(0.015625)"/>
       <path id="DejaVuSans-79" d="M 2059 -325 
Q 1816 -950 1584 -1140 
Q 1353 -1331 966 -1331 
L 506 -1331 
L 506 -850 
L 844 -850 
Q 1081 -850 1212 -737 
Q 1344 -625 1503 -206 
L 1606 56 
L 191 3500 
L 800 3500 
L 1894 763 
L 2988 3500 
L 3597 3500 
L 2059 -325 
z
" transform="scale(0.015625)"/>
       <path id="DejaVuSans-62" d="M 3116 1747 
Q 3116 2381 2855 2742 
Q 2594 3103 2138 3103 
Q 1681 3103 1420 2742 
Q 1159 2381 1159 1747 
Q 1159 1113 1420 752 
Q 1681 391 2138 391 
Q 2594 391 2855 752 
Q 3116 1113 3116 1747 
z
M 1159 2969 
Q 1341 3281 1617 3432 
Q 1894 3584 2278 3584 
Q 2916 3584 3314 3078 
Q 3713 2572 3713 1747 
Q 3713 922 3314 415 
Q 2916 -91 2278 -91 
Q 1894 -91 1617 61 
Q 1341 213 1159 525 
L 1159 0 
L 581 0 
L 581 4863 
L 1159 4863 
L 1159 2969 
z
" transform="scale(0.015625)"/>
       <path id="DejaVuSans-2f" d="M 1625 4666 
L 2156 4666 
L 531 -594 
L 0 -594 
L 1625 4666 
z
" transform="scale(0.015625)"/>
      </defs>
      <use xlink:href="#DejaVuSans-61"/>
      <use xlink:href="#DejaVuSans-6e" x="61.279297"/>
      <use xlink:href="#DejaVuSans-67" x="124.658203"/>
      <use xlink:href="#DejaVuSans-75" x="188.134766"/>
      <use xlink:href="#DejaVuSans-6c" x="251.513672"/>
      <use xlink:href="#DejaVuSans-61" x="279.296875"/>
      <use xlink:href="#DejaVuSans-72" x="340.576172"/>
      <use xlink:href="#DejaVuSans-20" x="381.689453"/>
      <use xlink:href="#DejaVuSans-76" x="413.476562"/>
      <use xlink:href="#DejaVuSans-65" x="472.65625"/>
      <use xlink:href="#DejaVuSans-6c" x="534.179688"/>
      <use xlink:href="#DejaVuSans-6f" x="561.962891"/>
      <use xlink:href="#DejaVuSans-63" x="623.144531"/>
      <use xlink:href="#DejaVuSans-69" x="678.125"/>
      <use xlink:href="#DejaVuSans-74" x="705.908203"/>
      <use xlink:href="#DejaVuSans-79" x="745.117188"/>
      <use xlink:href="#DejaVuSans-20" x="804.296875"/>
      <use xlink:href="#DejaVuSans-6f" x="836.083984"/>
      <use xlink:href="#DejaVuSans-66" x="897.265625"/>
      <use xlink:href="#DejaVuSans-20" x="932.470703"/>
      <use xlink:href="#DejaVuSans-74" x="964.257812"/>
      <use xlink:href="#DejaVuSans-68" x="1003.466797"/>
      <use xlink:href="#DejaVuSans-65" x="1066.845703"/>
      <use xlink:href="#DejaVuSans-20" x="1128.369141"/>
      <use xlink:href="#DejaVuSans-74" x="1160.15625"/>
      <use xlink:href="#DejaVuSans-69" x="1199.365234"/>
      <use xlink:href="#DejaVuSans-62" x="1227.148438"/>
      <use xlink:href="#DejaVuSans-69" x="1290.625"/>
      <use xlink:href="#DejaVuSans-61" x="1318.408203"/>
      <use xlink:href="#DejaVuSans-20" x="1379.6875"/>
      <use xlink:href="#DejaVuSans-61" x="1411.474609"/>
      <use xlink:href="#DejaVuSans-74" x="1472.753906"/>
      <use xlink:href="#DejaVuSans-20" x="1511.962891"/>
      <use xlink:href="#DejaVuSans-61" x="1543.75"/>
      <use xlink:href="#DejaVuSans-20" x="1605.029297"/>
      <use xlink:href="#DejaVuSans-67" x="1636.816406"/>
      <use xlink:href="#DejaVuSans-69" x="1700.292969"/>
      <use xlink:href="#DejaVuSans-76" x="1728.076172"/>
      <use xlink:href="#DejaVuSans-65" x="1787.255859"/>
      <use xlink:href="#DejaVuSans-6e" x="1848.779297"/>
      <use xlink:href="#DejaVuSans-20" x="1912.158203"/>
      <use xlink:href="#DejaVuSans-61" x="1943.945312"/>
      <use xlink:href="#DejaVuSans-6e" x="2005.224609"/>
      <use xlink:href="#DejaVuSans-67" x="2068.603516"/>
      <use xlink:href="#DejaVuSans-6c" x="2132.080078"/>
      <use xlink:href="#DejaVuSans-65" x="2159.863281"/>
      <use xlink:href="#DejaVuSans-20" x="2221.386719"/>
      <use xlink:href="#DejaVuSans-5b" x="2253.173828"/>
      <use xlink:href="#DejaVuSans-64" x="2292.1875"/>
      <use xlink:href="#DejaVuSans-65" x="2355.664062"/>
      <use xlink:href="#DejaVuSans-67" x="2417.1875"/>
      <use xlink:href="#DejaVuSans-72" x="2480.664062"/>
      <use xlink:href="#DejaVuSans-65" x="2519.527344"/>
      <use xlink:href="#DejaVuSans-65" x="2581.050781"/>
      <use xlink:href="#DejaVuSans-2f" x="2642.574219"/>
      <use xlink:href="#DejaVuSans-73" x="2676.265625"/>
      <use xlink:href="#DejaVuSans-65" x="2728.365234"/>
      <use xlink:href="#DejaVuSans-63" x="2789.888672"/>
      <use xlink:href="#DejaVuSans-5d" x="2844.869141"/>
     </g>
    </g>
   </g>
   <g id="line2d_25">
    <path d="M 156.340107 104.880912 
L 174.24385 111.452542 
L 192.147594 126.31014 
L 210.051337 149.525138 
L 227.95508 188.312041 
L 245.858824 220.313022 
L 263.762567 225.67033 
L 281.66631 228.313268 
L 299.570053 218.527253 
L 317.473797 207.955501 
L 335.37754 211.527039 
L 353.281283 232.813406 
L 371.185027 251.242542 
L 389.08877 257.028434 
L 406.992513 254.171203 
L 424.896257 250.171081 
L 442.8 248.528173 
L 460.703743 249.313912 
L 478.607487 255.528388 
L 496.51123 261.885726 
L 514.414973 266.02871 
L 532.318717 271.314586 
L 550.22246 280.814877 
L 568.126203 296.743937 
L 586.029947 312.458705 
L 603.93369 320.387519 
L 621.837433 319.673212 
L 639.741176 310.530074 
L 657.64492 296.315353 
L 675.548663 278.886247 
L 693.452406 256.528419 
L 711.35615 227.59896 
L 729.259893 185.669103 
L 747.163636 141.024877 
" clip-path="url(#pde885e14f7)" style="fill: none; stroke: #0000ff; stroke-width: 1.5; stroke-linecap: square"/>
   </g>
   <g id="line2d_26">
    <path d="M 138.436364 96.809236 
L 156.340107 94.952036 
L 174.24385 106.880973 
L 192.147594 129.453094 
L 210.051337 125.167248 
L 227.95508 127.524463 
L 245.858824 145.096431 
L 263.762567 155.882476 
L 281.66631 163.739859 
L 299.570053 162.88269 
L 317.473797 161.168352 
L 335.37754 161.95409 
L 353.281283 163.739859 
L 371.185027 168.168567 
L 389.08877 176.02595 
L 406.992513 184.669073 
L 424.896257 191.240703 
L 442.8 194.097933 
L 460.703743 195.883702 
L 478.607487 199.955255 
L 496.51123 204.883978 
L 514.414973 208.598378 
L 532.318717 213.741392 
L 550.22246 218.598684 
L 568.126203 223.527407 
L 586.029947 229.099006 
L 603.93369 232.027667 
L 621.837433 233.456283 
L 639.741176 234.17059 
L 657.64492 236.384944 
L 675.548663 239.527897 
L 693.452406 237.313544 
L 711.35615 228.384699 
L 729.259893 210.455577 
L 747.163636 175.454504 
" clip-path="url(#pde885e14f7)" style="fill: none; stroke: #ffa500; stroke-width: 1.5; stroke-linecap: square"/>
   </g>
   <g id="patch_3">
    <path d="M 108 378 
L 108 51.84 
" style="fill: none; stroke: #000000; stroke-width: 0.8; stroke-linejoin: miter; stroke-linecap: square"/>
   </g>
   <g id="patch_4">
    <path d="M 777.6 378 
L 777.6 51.84 
" style="fill: none; stroke: #000000; stroke-width: 0.8; stroke-linejoin: miter; stroke-linecap: square"/>
   </g>
   <g id="patch_5">
    <path d="M 108 378 
L 777.6 378 
" style="fill: none; stroke: #000000; stroke-width: 0.8; stroke-linejoin: miter; stroke-linecap: square"/>
   </g>
   <g id="patch_6">
    <path d="M 108 51.84 
L 777.6 51.84 
" style="fill: none; stroke: #000000; stroke-width: 0.8; stroke-linejoin: miter; stroke-linecap: square"/>
   </g>
   <g id="text_15">
    <!-- Average Rate of change of slope vs angle  -->
    <g transform="translate(316.213125 45.84) scale(0.12 -0.12)">
     <defs>
      <path id="DejaVuSans-52" d="M 2841 2188 
Q 3044 2119 3236 1894 
Q 3428 1669 3622 1275 
L 4263 0 
L 3584 0 
L 2988 1197 
Q 2756 1666 2539 1819 
Q 2322 1972 1947 1972 
L 1259 1972 
L 1259 0 
L 628 0 
L 628 4666 
L 2053 4666 
Q 2853 4666 3247 4331 
Q 3641 3997 3641 3322 
Q 3641 2881 3436 2590 
Q 3231 2300 2841 2188 
z
M 1259 4147 
L 1259 2491 
L 2053 2491 
Q 2509 2491 2742 2702 
Q 2975 2913 2975 3322 
Q 2975 3731 2742 3939 
Q 2509 4147 2053 4147 
L 1259 4147 
z
" transform="scale(0.015625)"/>
     </defs>
     <use xlink:href="#DejaVuSans-41"/>
     <use xlink:href="#DejaVuSans-76" x="62.533203"/>
     <use xlink:href="#DejaVuSans-65" x="121.712891"/>
     <use xlink:href="#DejaVuSans-72" x="183.236328"/>
     <use xlink:href="#DejaVuSans-61" x="224.349609"/>
     <use xlink:href="#DejaVuSans-67" x="285.628906"/>
     <use xlink:href="#DejaVuSans-65" x="349.105469"/>
     <use xlink:href="#DejaVuSans-20" x="410.628906"/>
     <use xlink:href="#DejaVuSans-52" x="442.416016"/>
     <use xlink:href="#DejaVuSans-61" x="509.648438"/>
     <use xlink:href="#DejaVuSans-74" x="570.927734"/>
     <use xlink:href="#DejaVuSans-65" x="610.136719"/>
     <use xlink:href="#DejaVuSans-20" x="671.660156"/>
     <use xlink:href="#DejaVuSans-6f" x="703.447266"/>
     <use xlink:href="#DejaVuSans-66" x="764.628906"/>
     <use xlink:href="#DejaVuSans-20" x="799.833984"/>
     <use xlink:href="#DejaVuSans-63" x="831.621094"/>
     <use xlink:href="#DejaVuSans-68" x="886.601562"/>
     <use xlink:href="#DejaVuSans-61" x="949.980469"/>
     <use xlink:href="#DejaVuSans-6e" x="1011.259766"/>
     <use xlink:href="#DejaVuSans-67" x="1074.638672"/>
     <use xlink:href="#DejaVuSans-65" x="1138.115234"/>
     <use xlink:href="#DejaVuSans-20" x="1199.638672"/>
     <use xlink:href="#DejaVuSans-6f" x="1231.425781"/>
     <use xlink:href="#DejaVuSans-66" x="1292.607422"/>
     <use xlink:href="#DejaVuSans-20" x="1327.8125"/>
     <use xlink:href="#DejaVuSans-73" x="1359.599609"/>
     <use xlink:href="#DejaVuSans-6c" x="1411.699219"/>
     <use xlink:href="#DejaVuSans-6f" x="1439.482422"/>
     <use xlink:href="#DejaVuSans-70" x="1500.664062"/>
     <use xlink:href="#DejaVuSans-65" x="1564.140625"/>
     <use xlink:href="#DejaVuSans-20" x="1625.664062"/>
     <use xlink:href="#DejaVuSans-76" x="1657.451172"/>
     <use xlink:href="#DejaVuSans-73" x="1716.630859"/>
     <use xlink:href="#DejaVuSans-20" x="1768.730469"/>
     <use xlink:href="#DejaVuSans-61" x="1800.517578"/>
     <use xlink:href="#DejaVuSans-6e" x="1861.796875"/>
     <use xlink:href="#DejaVuSans-67" x="1925.175781"/>
     <use xlink:href="#DejaVuSans-6c" x="1988.652344"/>
     <use xlink:href="#DejaVuSans-65" x="2016.435547"/>
     <use xlink:href="#DejaVuSans-20" x="2077.958984"/>
    </g>
   </g>
   <g id="legend_1">
    <g id="patch_7">
     <path d="M 692.05 89.19625 
L 770.6 89.19625 
Q 772.6 89.19625 772.6 87.19625 
L 772.6 58.84 
Q 772.6 56.84 770.6 56.84 
L 692.05 56.84 
Q 690.05 56.84 690.05 58.84 
L 690.05 87.19625 
Q 690.05 89.19625 692.05 89.19625 
z
" style="fill: #ffffff; opacity: 0.8; stroke: #cccccc; stroke-linejoin: miter"/>
    </g>
    <g id="line2d_27">
     <path d="M 694.05 64.938437 
L 704.05 64.938437 
L 714.05 64.938437 
" style="fill: none; stroke: #0000ff; stroke-width: 1.5; stroke-linecap: square"/>
    </g>
    <g id="text_16">
     <!-- loaded -->
     <g transform="translate(722.05 68.438437) scale(0.1 -0.1)">
      <use xlink:href="#DejaVuSans-6c"/>
      <use xlink:href="#DejaVuSans-6f" x="27.783203"/>
      <use xlink:href="#DejaVuSans-61" x="88.964844"/>
      <use xlink:href="#DejaVuSans-64" x="150.244141"/>
      <use xlink:href="#DejaVuSans-65" x="213.720703"/>
      <use xlink:href="#DejaVuSans-64" x="275.244141"/>
     </g>
    </g>
    <g id="line2d_28">
     <path d="M 694.05 79.616562 
L 704.05 79.616562 
L 714.05 79.616562 
" style="fill: none; stroke: #ffa500; stroke-width: 1.5; stroke-linecap: square"/>
    </g>
    <g id="text_17">
     <!-- unloaded -->
     <g transform="translate(722.05 83.116562) scale(0.1 -0.1)">
      <use xlink:href="#DejaVuSans-75"/>
      <use xlink:href="#DejaVuSans-6e" x="63.378906"/>
      <use xlink:href="#DejaVuSans-6c" x="126.757812"/>
      <use xlink:href="#DejaVuSans-6f" x="154.541016"/>
      <use xlink:href="#DejaVuSans-61" x="215.722656"/>
      <use xlink:href="#DejaVuSans-64" x="277.001953"/>
      <use xlink:href="#DejaVuSans-65" x="340.478516"/>
      <use xlink:href="#DejaVuSans-64" x="402.001953"/>
     </g>
    </g>
   </g>
  </g>
 </g>
 <defs>
  <clipPath id="pde885e14f7">
   <rect x="108" y="51.84" width="669.6" height="326.16"/>
  </clipPath>
 </defs>
</svg>
