<?xml version="1.0" encoding="utf-8" standalone="no"?>
<!DOCTYPE svg PUBLIC "-//W3C//DTD SVG 1.1//EN"
  "http://www.w3.org/Graphics/SVG/1.1/DTD/svg11.dtd">
<svg xmlns:xlink="http://www.w3.org/1999/xlink" width="432pt" height="288pt" viewBox="0 0 432 288" xmlns="http://www.w3.org/2000/svg" version="1.1">
 <metadata>
  <rdf:RDF xmlns:dc="http://purl.org/dc/elements/1.1/" xmlns:cc="http://creativecommons.org/ns#" xmlns:rdf="http://www.w3.org/1999/02/22-rdf-syntax-ns#">
   <cc:Work>
    <dc:type rdf:resource="http://purl.org/dc/dcmitype/StillImage"/>
    <dc:date>2024-03-07T15:36:37.495041</dc:date>
    <dc:format>image/svg+xml</dc:format>
    <dc:creator>
     <cc:Agent>
      <dc:title>Matplotlib v3.8.0, https://matplotlib.org/</dc:title>
     </cc:Agent>
    </dc:creator>
   </cc:Work>
  </rdf:RDF>
 </metadata>
 <defs>
  <style type="text/css">*{stroke-linejoin: round; stroke-linecap: butt}</style>
 </defs>
 <g id="figure_1">
  <g id="patch_1">
   <path d="M 0 288 
L 432 288 
L 432 0 
L 0 0 
z
" style="fill: #ffffff"/>
  </g>
  <g id="axes_1">
   <g id="patch_2">
    <path d="M 54 252 
L 388.8 252 
L 388.8 34.56 
L 54 34.56 
z
" style="fill: #ffffff"/>
   </g>
   <g id="PathCollection_1">
    <defs>
     <path id="m836505f02b" d="M -3 3 
L 3 -3 
M -3 -3 
L 3 3 
" style="stroke: #000000; stroke-width: 1.5"/>
    </defs>
    <g clip-path="url(#pd257f86f7b)">
     <use xlink:href="#m836505f02b" x="69.218182" y="84.244573" style="stroke: #000000; stroke-width: 1.5"/>
     <use xlink:href="#m836505f02b" x="103.036364" y="89.799062" style="stroke: #000000; stroke-width: 1.5"/>
     <use xlink:href="#m836505f02b" x="136.854545" y="117.168544" style="stroke: #000000; stroke-width: 1.5"/>
     <use xlink:href="#m836505f02b" x="170.672727" y="99.670567" style="stroke: #000000; stroke-width: 1.5"/>
     <use xlink:href="#m836505f02b" x="204.490909" y="84.732764" style="stroke: #000000; stroke-width: 1.5"/>
     <use xlink:href="#m836505f02b" x="238.309091" y="72.530876" style="stroke: #000000; stroke-width: 1.5"/>
     <use xlink:href="#m836505f02b" x="272.127273" y="47.764955" style="stroke: #000000; stroke-width: 1.5"/>
     <use xlink:href="#m836505f02b" x="305.945455" y="47.537256" style="stroke: #000000; stroke-width: 1.5"/>
     <use xlink:href="#m836505f02b" x="339.763636" y="53.611682" style="stroke: #000000; stroke-width: 1.5"/>
     <use xlink:href="#m836505f02b" x="373.581818" y="44.443636" style="stroke: #000000; stroke-width: 1.5"/>
    </g>
   </g>
   <g id="PathCollection_2">
    <g clip-path="url(#pd257f86f7b)">
     <use xlink:href="#m836505f02b" x="69.218182" y="237.883005" style="stroke: #000000; stroke-width: 1.5"/>
     <use xlink:href="#m836505f02b" x="103.036364" y="242.116364" style="stroke: #000000; stroke-width: 1.5"/>
     <use xlink:href="#m836505f02b" x="136.854545" y="239.198058" style="stroke: #000000; stroke-width: 1.5"/>
     <use xlink:href="#m836505f02b" x="170.672727" y="235.377959" style="stroke: #000000; stroke-width: 1.5"/>
     <use xlink:href="#m836505f02b" x="204.490909" y="221.41635" style="stroke: #000000; stroke-width: 1.5"/>
     <use xlink:href="#m836505f02b" x="238.309091" y="211.740923" style="stroke: #000000; stroke-width: 1.5"/>
     <use xlink:href="#m836505f02b" x="272.127273" y="205.269431" style="stroke: #000000; stroke-width: 1.5"/>
     <use xlink:href="#m836505f02b" x="305.945455" y="199.257173" style="stroke: #000000; stroke-width: 1.5"/>
     <use xlink:href="#m836505f02b" x="339.763636" y="190.189844" style="stroke: #000000; stroke-width: 1.5"/>
     <use xlink:href="#m836505f02b" x="373.581818" y="185.643447" style="stroke: #000000; stroke-width: 1.5"/>
    </g>
   </g>
   <g id="matplotlib.axis_1">
    <g id="xtick_1">
     <g id="line2d_1">
      <path d="M 69.218182 252 
L 69.218182 34.56 
" clip-path="url(#pd257f86f7b)" style="fill: none; stroke: #b0b0b0; stroke-width: 0.8; stroke-linecap: square"/>
     </g>
     <g id="line2d_2">
      <defs>
       <path id="me0efa967cb" d="M 0 0 
L 0 3.5 
" style="stroke: #000000; stroke-width: 0.8"/>
      </defs>
      <g>
       <use xlink:href="#me0efa967cb" x="69.218182" y="252" style="stroke: #000000; stroke-width: 0.8"/>
      </g>
     </g>
     <g id="text_1">
      <!-- 0 -->
      <g transform="translate(66.036932 266.598437) scale(0.1 -0.1)">
       <defs>
        <path id="DejaVuSans-30" d="M 2034 4250 
Q 1547 4250 1301 3770 
Q 1056 3291 1056 2328 
Q 1056 1369 1301 889 
Q 1547 409 2034 409 
Q 2525 409 2770 889 
Q 3016 1369 3016 2328 
Q 3016 3291 2770 3770 
Q 2525 4250 2034 4250 
z
M 2034 4750 
Q 2819 4750 3233 4129 
Q 3647 3509 3647 2328 
Q 3647 1150 3233 529 
Q 2819 -91 2034 -91 
Q 1250 -91 836 529 
Q 422 1150 422 2328 
Q 422 3509 836 4129 
Q 1250 4750 2034 4750 
z
" transform="scale(0.015625)"/>
       </defs>
       <use xlink:href="#DejaVuSans-30"/>
      </g>
     </g>
    </g>
    <g id="xtick_2">
     <g id="line2d_3">
      <path d="M 136.854545 252 
L 136.854545 34.56 
" clip-path="url(#pd257f86f7b)" style="fill: none; stroke: #b0b0b0; stroke-width: 0.8; stroke-linecap: square"/>
     </g>
     <g id="line2d_4">
      <g>
       <use xlink:href="#me0efa967cb" x="136.854545" y="252" style="stroke: #000000; stroke-width: 0.8"/>
      </g>
     </g>
     <g id="text_2">
      <!-- 2 -->
      <g transform="translate(133.673295 266.598437) scale(0.1 -0.1)">
       <defs>
        <path id="DejaVuSans-32" d="M 1228 531 
L 3431 531 
L 3431 0 
L 469 0 
L 469 531 
Q 828 903 1448 1529 
Q 2069 2156 2228 2338 
Q 2531 2678 2651 2914 
Q 2772 3150 2772 3378 
Q 2772 3750 2511 3984 
Q 2250 4219 1831 4219 
Q 1534 4219 1204 4116 
Q 875 4013 500 3803 
L 500 4441 
Q 881 4594 1212 4672 
Q 1544 4750 1819 4750 
Q 2544 4750 2975 4387 
Q 3406 4025 3406 3419 
Q 3406 3131 3298 2873 
Q 3191 2616 2906 2266 
Q 2828 2175 2409 1742 
Q 1991 1309 1228 531 
z
" transform="scale(0.015625)"/>
       </defs>
       <use xlink:href="#DejaVuSans-32"/>
      </g>
     </g>
    </g>
    <g id="xtick_3">
     <g id="line2d_5">
      <path d="M 204.490909 252 
L 204.490909 34.56 
" clip-path="url(#pd257f86f7b)" style="fill: none; stroke: #b0b0b0; stroke-width: 0.8; stroke-linecap: square"/>
     </g>
     <g id="line2d_6">
      <g>
       <use xlink:href="#me0efa967cb" x="204.490909" y="252" style="stroke: #000000; stroke-width: 0.8"/>
      </g>
     </g>
     <g id="text_3">
      <!-- 4 -->
      <g transform="translate(201.309659 266.598437) scale(0.1 -0.1)">
       <defs>
        <path id="DejaVuSans-34" d="M 2419 4116 
L 825 1625 
L 2419 1625 
L 2419 4116 
z
M 2253 4666 
L 3047 4666 
L 3047 1625 
L 3713 1625 
L 3713 1100 
L 3047 1100 
L 3047 0 
L 2419 0 
L 2419 1100 
L 313 1100 
L 313 1709 
L 2253 4666 
z
" transform="scale(0.015625)"/>
       </defs>
       <use xlink:href="#DejaVuSans-34"/>
      </g>
     </g>
    </g>
    <g id="xtick_4">
     <g id="line2d_7">
      <path d="M 272.127273 252 
L 272.127273 34.56 
" clip-path="url(#pd257f86f7b)" style="fill: none; stroke: #b0b0b0; stroke-width: 0.8; stroke-linecap: square"/>
     </g>
     <g id="line2d_8">
      <g>
       <use xlink:href="#me0efa967cb" x="272.127273" y="252" style="stroke: #000000; stroke-width: 0.8"/>
      </g>
     </g>
     <g id="text_4">
      <!-- 6 -->
      <g transform="translate(268.946023 266.598437) scale(0.1 -0.1)">
       <defs>
        <path id="DejaVuSans-36" d="M 2113 2584 
Q 1688 2584 1439 2293 
Q 1191 2003 1191 1497 
Q 1191 994 1439 701 
Q 1688 409 2113 409 
Q 2538 409 2786 701 
Q 3034 994 3034 1497 
Q 3034 2003 2786 2293 
Q 2538 2584 2113 2584 
z
M 3366 4563 
L 3366 3988 
Q 3128 4100 2886 4159 
Q 2644 4219 2406 4219 
Q 1781 4219 1451 3797 
Q 1122 3375 1075 2522 
Q 1259 2794 1537 2939 
Q 1816 3084 2150 3084 
Q 2853 3084 3261 2657 
Q 3669 2231 3669 1497 
Q 3669 778 3244 343 
Q 2819 -91 2113 -91 
Q 1303 -91 875 529 
Q 447 1150 447 2328 
Q 447 3434 972 4092 
Q 1497 4750 2381 4750 
Q 2619 4750 2861 4703 
Q 3103 4656 3366 4563 
z
" transform="scale(0.015625)"/>
       </defs>
       <use xlink:href="#DejaVuSans-36"/>
      </g>
     </g>
    </g>
    <g id="xtick_5">
     <g id="line2d_9">
      <path d="M 339.763636 252 
L 339.763636 34.56 
" clip-path="url(#pd257f86f7b)" style="fill: none; stroke: #b0b0b0; stroke-width: 0.8; stroke-linecap: square"/>
     </g>
     <g id="line2d_10">
      <g>
       <use xlink:href="#me0efa967cb" x="339.763636" y="252" style="stroke: #000000; stroke-width: 0.8"/>
      </g>
     </g>
     <g id="text_5">
      <!-- 8 -->
      <g transform="translate(336.582386 266.598437) scale(0.1 -0.1)">
       <defs>
        <path id="DejaVuSans-38" d="M 2034 2216 
Q 1584 2216 1326 1975 
Q 1069 1734 1069 1313 
Q 1069 891 1326 650 
Q 1584 409 2034 409 
Q 2484 409 2743 651 
Q 3003 894 3003 1313 
Q 3003 1734 2745 1975 
Q 2488 2216 2034 2216 
z
M 1403 2484 
Q 997 2584 770 2862 
Q 544 3141 544 3541 
Q 544 4100 942 4425 
Q 1341 4750 2034 4750 
Q 2731 4750 3128 4425 
Q 3525 4100 3525 3541 
Q 3525 3141 3298 2862 
Q 3072 2584 2669 2484 
Q 3125 2378 3379 2068 
Q 3634 1759 3634 1313 
Q 3634 634 3220 271 
Q 2806 -91 2034 -91 
Q 1263 -91 848 271 
Q 434 634 434 1313 
Q 434 1759 690 2068 
Q 947 2378 1403 2484 
z
M 1172 3481 
Q 1172 3119 1398 2916 
Q 1625 2713 2034 2713 
Q 2441 2713 2670 2916 
Q 2900 3119 2900 3481 
Q 2900 3844 2670 4047 
Q 2441 4250 2034 4250 
Q 1625 4250 1398 4047 
Q 1172 3844 1172 3481 
z
" transform="scale(0.015625)"/>
       </defs>
       <use xlink:href="#DejaVuSans-38"/>
      </g>
     </g>
    </g>
    <g id="text_6">
     <!-- Frame number -->
     <g transform="translate(184.717187 280.276563) scale(0.1 -0.1)">
      <defs>
       <path id="DejaVuSans-46" d="M 628 4666 
L 3309 4666 
L 3309 4134 
L 1259 4134 
L 1259 2759 
L 3109 2759 
L 3109 2228 
L 1259 2228 
L 1259 0 
L 628 0 
L 628 4666 
z
" transform="scale(0.015625)"/>
       <path id="DejaVuSans-72" d="M 2631 2963 
Q 2534 3019 2420 3045 
Q 2306 3072 2169 3072 
Q 1681 3072 1420 2755 
Q 1159 2438 1159 1844 
L 1159 0 
L 581 0 
L 581 3500 
L 1159 3500 
L 1159 2956 
Q 1341 3275 1631 3429 
Q 1922 3584 2338 3584 
Q 2397 3584 2469 3576 
Q 2541 3569 2628 3553 
L 2631 2963 
z
" transform="scale(0.015625)"/>
       <path id="DejaVuSans-61" d="M 2194 1759 
Q 1497 1759 1228 1600 
Q 959 1441 959 1056 
Q 959 750 1161 570 
Q 1363 391 1709 391 
Q 2188 391 2477 730 
Q 2766 1069 2766 1631 
L 2766 1759 
L 2194 1759 
z
M 3341 1997 
L 3341 0 
L 2766 0 
L 2766 531 
Q 2569 213 2275 61 
Q 1981 -91 1556 -91 
Q 1019 -91 701 211 
Q 384 513 384 1019 
Q 384 1609 779 1909 
Q 1175 2209 1959 2209 
L 2766 2209 
L 2766 2266 
Q 2766 2663 2505 2880 
Q 2244 3097 1772 3097 
Q 1472 3097 1187 3025 
Q 903 2953 641 2809 
L 641 3341 
Q 956 3463 1253 3523 
Q 1550 3584 1831 3584 
Q 2591 3584 2966 3190 
Q 3341 2797 3341 1997 
z
" transform="scale(0.015625)"/>
       <path id="DejaVuSans-6d" d="M 3328 2828 
Q 3544 3216 3844 3400 
Q 4144 3584 4550 3584 
Q 5097 3584 5394 3201 
Q 5691 2819 5691 2113 
L 5691 0 
L 5113 0 
L 5113 2094 
Q 5113 2597 4934 2840 
Q 4756 3084 4391 3084 
Q 3944 3084 3684 2787 
Q 3425 2491 3425 1978 
L 3425 0 
L 2847 0 
L 2847 2094 
Q 2847 2600 2669 2842 
Q 2491 3084 2119 3084 
Q 1678 3084 1418 2786 
Q 1159 2488 1159 1978 
L 1159 0 
L 581 0 
L 581 3500 
L 1159 3500 
L 1159 2956 
Q 1356 3278 1631 3431 
Q 1906 3584 2284 3584 
Q 2666 3584 2933 3390 
Q 3200 3197 3328 2828 
z
" transform="scale(0.015625)"/>
       <path id="DejaVuSans-65" d="M 3597 1894 
L 3597 1613 
L 953 1613 
Q 991 1019 1311 708 
Q 1631 397 2203 397 
Q 2534 397 2845 478 
Q 3156 559 3463 722 
L 3463 178 
Q 3153 47 2828 -22 
Q 2503 -91 2169 -91 
Q 1331 -91 842 396 
Q 353 884 353 1716 
Q 353 2575 817 3079 
Q 1281 3584 2069 3584 
Q 2775 3584 3186 3129 
Q 3597 2675 3597 1894 
z
M 3022 2063 
Q 3016 2534 2758 2815 
Q 2500 3097 2075 3097 
Q 1594 3097 1305 2825 
Q 1016 2553 972 2059 
L 3022 2063 
z
" transform="scale(0.015625)"/>
       <path id="DejaVuSans-20" transform="scale(0.015625)"/>
       <path id="DejaVuSans-6e" d="M 3513 2113 
L 3513 0 
L 2938 0 
L 2938 2094 
Q 2938 2591 2744 2837 
Q 2550 3084 2163 3084 
Q 1697 3084 1428 2787 
Q 1159 2491 1159 1978 
L 1159 0 
L 581 0 
L 581 3500 
L 1159 3500 
L 1159 2956 
Q 1366 3272 1645 3428 
Q 1925 3584 2291 3584 
Q 2894 3584 3203 3211 
Q 3513 2838 3513 2113 
z
" transform="scale(0.015625)"/>
       <path id="DejaVuSans-75" d="M 544 1381 
L 544 3500 
L 1119 3500 
L 1119 1403 
Q 1119 906 1312 657 
Q 1506 409 1894 409 
Q 2359 409 2629 706 
Q 2900 1003 2900 1516 
L 2900 3500 
L 3475 3500 
L 3475 0 
L 2900 0 
L 2900 538 
Q 2691 219 2414 64 
Q 2138 -91 1772 -91 
Q 1169 -91 856 284 
Q 544 659 544 1381 
z
M 1991 3584 
L 1991 3584 
z
" transform="scale(0.015625)"/>
       <path id="DejaVuSans-62" d="M 3116 1747 
Q 3116 2381 2855 2742 
Q 2594 3103 2138 3103 
Q 1681 3103 1420 2742 
Q 1159 2381 1159 1747 
Q 1159 1113 1420 752 
Q 1681 391 2138 391 
Q 2594 391 2855 752 
Q 3116 1113 3116 1747 
z
M 1159 2969 
Q 1341 3281 1617 3432 
Q 1894 3584 2278 3584 
Q 2916 3584 3314 3078 
Q 3713 2572 3713 1747 
Q 3713 922 3314 415 
Q 2916 -91 2278 -91 
Q 1894 -91 1617 61 
Q 1341 213 1159 525 
L 1159 0 
L 581 0 
L 581 4863 
L 1159 4863 
L 1159 2969 
z
" transform="scale(0.015625)"/>
      </defs>
      <use xlink:href="#DejaVuSans-46"/>
      <use xlink:href="#DejaVuSans-72" x="50.269531"/>
      <use xlink:href="#DejaVuSans-61" x="91.382812"/>
      <use xlink:href="#DejaVuSans-6d" x="152.662109"/>
      <use xlink:href="#DejaVuSans-65" x="250.074219"/>
      <use xlink:href="#DejaVuSans-20" x="311.597656"/>
      <use xlink:href="#DejaVuSans-6e" x="343.384766"/>
      <use xlink:href="#DejaVuSans-75" x="406.763672"/>
      <use xlink:href="#DejaVuSans-6d" x="470.142578"/>
      <use xlink:href="#DejaVuSans-62" x="567.554688"/>
      <use xlink:href="#DejaVuSans-65" x="631.03125"/>
      <use xlink:href="#DejaVuSans-72" x="692.554688"/>
     </g>
    </g>
   </g>
   <g id="matplotlib.axis_2">
    <g id="ytick_1">
     <g id="line2d_11">
      <path d="M 54 245.339056 
L 388.8 245.339056 
" clip-path="url(#pd257f86f7b)" style="fill: none; stroke: #b0b0b0; stroke-width: 0.8; stroke-linecap: square"/>
     </g>
     <g id="line2d_12">
      <defs>
       <path id="mcec85e3a1a" d="M 0 0 
L -3.5 0 
" style="stroke: #000000; stroke-width: 0.8"/>
      </defs>
      <g>
       <use xlink:href="#mcec85e3a1a" x="54" y="245.339056" style="stroke: #000000; stroke-width: 0.8"/>
      </g>
     </g>
     <g id="text_7">
      <!-- 206 -->
      <g transform="translate(27.9125 249.138275) scale(0.1 -0.1)">
       <use xlink:href="#DejaVuSans-32"/>
       <use xlink:href="#DejaVuSans-30" x="63.623047"/>
       <use xlink:href="#DejaVuSans-36" x="127.246094"/>
      </g>
     </g>
    </g>
    <g id="ytick_2">
     <g id="line2d_13">
      <path d="M 54 216.534475 
L 388.8 216.534475 
" clip-path="url(#pd257f86f7b)" style="fill: none; stroke: #b0b0b0; stroke-width: 0.8; stroke-linecap: square"/>
     </g>
     <g id="line2d_14">
      <g>
       <use xlink:href="#mcec85e3a1a" x="54" y="216.534475" style="stroke: #000000; stroke-width: 0.8"/>
      </g>
     </g>
     <g id="text_8">
      <!-- 208 -->
      <g transform="translate(27.9125 220.333693) scale(0.1 -0.1)">
       <use xlink:href="#DejaVuSans-32"/>
       <use xlink:href="#DejaVuSans-30" x="63.623047"/>
       <use xlink:href="#DejaVuSans-38" x="127.246094"/>
      </g>
     </g>
    </g>
    <g id="ytick_3">
     <g id="line2d_15">
      <path d="M 54 187.729894 
L 388.8 187.729894 
" clip-path="url(#pd257f86f7b)" style="fill: none; stroke: #b0b0b0; stroke-width: 0.8; stroke-linecap: square"/>
     </g>
     <g id="line2d_16">
      <g>
       <use xlink:href="#mcec85e3a1a" x="54" y="187.729894" style="stroke: #000000; stroke-width: 0.8"/>
      </g>
     </g>
     <g id="text_9">
      <!-- 210 -->
      <g transform="translate(27.9125 191.529112) scale(0.1 -0.1)">
       <defs>
        <path id="DejaVuSans-31" d="M 794 531 
L 1825 531 
L 1825 4091 
L 703 3866 
L 703 4441 
L 1819 4666 
L 2450 4666 
L 2450 531 
L 3481 531 
L 3481 0 
L 794 0 
L 794 531 
z
" transform="scale(0.015625)"/>
       </defs>
       <use xlink:href="#DejaVuSans-32"/>
       <use xlink:href="#DejaVuSans-31" x="63.623047"/>
       <use xlink:href="#DejaVuSans-30" x="127.246094"/>
      </g>
     </g>
    </g>
    <g id="ytick_4">
     <g id="line2d_17">
      <path d="M 54 158.925312 
L 388.8 158.925312 
" clip-path="url(#pd257f86f7b)" style="fill: none; stroke: #b0b0b0; stroke-width: 0.8; stroke-linecap: square"/>
     </g>
     <g id="line2d_18">
      <g>
       <use xlink:href="#mcec85e3a1a" x="54" y="158.925312" style="stroke: #000000; stroke-width: 0.8"/>
      </g>
     </g>
     <g id="text_10">
      <!-- 212 -->
      <g transform="translate(27.9125 162.724531) scale(0.1 -0.1)">
       <use xlink:href="#DejaVuSans-32"/>
       <use xlink:href="#DejaVuSans-31" x="63.623047"/>
       <use xlink:href="#DejaVuSans-32" x="127.246094"/>
      </g>
     </g>
    </g>
    <g id="ytick_5">
     <g id="line2d_19">
      <path d="M 54 130.120731 
L 388.8 130.120731 
" clip-path="url(#pd257f86f7b)" style="fill: none; stroke: #b0b0b0; stroke-width: 0.8; stroke-linecap: square"/>
     </g>
     <g id="line2d_20">
      <g>
       <use xlink:href="#mcec85e3a1a" x="54" y="130.120731" style="stroke: #000000; stroke-width: 0.8"/>
      </g>
     </g>
     <g id="text_11">
      <!-- 214 -->
      <g transform="translate(27.9125 133.91995) scale(0.1 -0.1)">
       <use xlink:href="#DejaVuSans-32"/>
       <use xlink:href="#DejaVuSans-31" x="63.623047"/>
       <use xlink:href="#DejaVuSans-34" x="127.246094"/>
      </g>
     </g>
    </g>
    <g id="ytick_6">
     <g id="line2d_21">
      <path d="M 54 101.31615 
L 388.8 101.31615 
" clip-path="url(#pd257f86f7b)" style="fill: none; stroke: #b0b0b0; stroke-width: 0.8; stroke-linecap: square"/>
     </g>
     <g id="line2d_22">
      <g>
       <use xlink:href="#mcec85e3a1a" x="54" y="101.31615" style="stroke: #000000; stroke-width: 0.8"/>
      </g>
     </g>
     <g id="text_12">
      <!-- 216 -->
      <g transform="translate(27.9125 105.115369) scale(0.1 -0.1)">
       <use xlink:href="#DejaVuSans-32"/>
       <use xlink:href="#DejaVuSans-31" x="63.623047"/>
       <use xlink:href="#DejaVuSans-36" x="127.246094"/>
      </g>
     </g>
    </g>
    <g id="ytick_7">
     <g id="line2d_23">
      <path d="M 54 72.511569 
L 388.8 72.511569 
" clip-path="url(#pd257f86f7b)" style="fill: none; stroke: #b0b0b0; stroke-width: 0.8; stroke-linecap: square"/>
     </g>
     <g id="line2d_24">
      <g>
       <use xlink:href="#mcec85e3a1a" x="54" y="72.511569" style="stroke: #000000; stroke-width: 0.8"/>
      </g>
     </g>
     <g id="text_13">
      <!-- 218 -->
      <g transform="translate(27.9125 76.310788) scale(0.1 -0.1)">
       <use xlink:href="#DejaVuSans-32"/>
       <use xlink:href="#DejaVuSans-31" x="63.623047"/>
       <use xlink:href="#DejaVuSans-38" x="127.246094"/>
      </g>
     </g>
    </g>
    <g id="ytick_8">
     <g id="line2d_25">
      <path d="M 54 43.706988 
L 388.8 43.706988 
" clip-path="url(#pd257f86f7b)" style="fill: none; stroke: #b0b0b0; stroke-width: 0.8; stroke-linecap: square"/>
     </g>
     <g id="line2d_26">
      <g>
       <use xlink:href="#mcec85e3a1a" x="54" y="43.706988" style="stroke: #000000; stroke-width: 0.8"/>
      </g>
     </g>
     <g id="text_14">
      <!-- 220 -->
      <g transform="translate(27.9125 47.506207) scale(0.1 -0.1)">
       <use xlink:href="#DejaVuSans-32"/>
       <use xlink:href="#DejaVuSans-32" x="63.623047"/>
       <use xlink:href="#DejaVuSans-30" x="127.246094"/>
      </g>
     </g>
    </g>
    <g id="text_15">
     <!-- Distances -->
     <g transform="translate(21.832812 167.747187) rotate(-90) scale(0.1 -0.1)">
      <defs>
       <path id="DejaVuSans-44" d="M 1259 4147 
L 1259 519 
L 2022 519 
Q 2988 519 3436 956 
Q 3884 1394 3884 2338 
Q 3884 3275 3436 3711 
Q 2988 4147 2022 4147 
L 1259 4147 
z
M 628 4666 
L 1925 4666 
Q 3281 4666 3915 4102 
Q 4550 3538 4550 2338 
Q 4550 1131 3912 565 
Q 3275 0 1925 0 
L 628 0 
L 628 4666 
z
" transform="scale(0.015625)"/>
       <path id="DejaVuSans-69" d="M 603 3500 
L 1178 3500 
L 1178 0 
L 603 0 
L 603 3500 
z
M 603 4863 
L 1178 4863 
L 1178 4134 
L 603 4134 
L 603 4863 
z
" transform="scale(0.015625)"/>
       <path id="DejaVuSans-73" d="M 2834 3397 
L 2834 2853 
Q 2591 2978 2328 3040 
Q 2066 3103 1784 3103 
Q 1356 3103 1142 2972 
Q 928 2841 928 2578 
Q 928 2378 1081 2264 
Q 1234 2150 1697 2047 
L 1894 2003 
Q 2506 1872 2764 1633 
Q 3022 1394 3022 966 
Q 3022 478 2636 193 
Q 2250 -91 1575 -91 
Q 1294 -91 989 -36 
Q 684 19 347 128 
L 347 722 
Q 666 556 975 473 
Q 1284 391 1588 391 
Q 1994 391 2212 530 
Q 2431 669 2431 922 
Q 2431 1156 2273 1281 
Q 2116 1406 1581 1522 
L 1381 1569 
Q 847 1681 609 1914 
Q 372 2147 372 2553 
Q 372 3047 722 3315 
Q 1072 3584 1716 3584 
Q 2034 3584 2315 3537 
Q 2597 3491 2834 3397 
z
" transform="scale(0.015625)"/>
       <path id="DejaVuSans-74" d="M 1172 4494 
L 1172 3500 
L 2356 3500 
L 2356 3053 
L 1172 3053 
L 1172 1153 
Q 1172 725 1289 603 
Q 1406 481 1766 481 
L 2356 481 
L 2356 0 
L 1766 0 
Q 1100 0 847 248 
Q 594 497 594 1153 
L 594 3053 
L 172 3053 
L 172 3500 
L 594 3500 
L 594 4494 
L 1172 4494 
z
" transform="scale(0.015625)"/>
       <path id="DejaVuSans-63" d="M 3122 3366 
L 3122 2828 
Q 2878 2963 2633 3030 
Q 2388 3097 2138 3097 
Q 1578 3097 1268 2742 
Q 959 2388 959 1747 
Q 959 1106 1268 751 
Q 1578 397 2138 397 
Q 2388 397 2633 464 
Q 2878 531 3122 666 
L 3122 134 
Q 2881 22 2623 -34 
Q 2366 -91 2075 -91 
Q 1284 -91 818 406 
Q 353 903 353 1747 
Q 353 2603 823 3093 
Q 1294 3584 2113 3584 
Q 2378 3584 2631 3529 
Q 2884 3475 3122 3366 
z
" transform="scale(0.015625)"/>
      </defs>
      <use xlink:href="#DejaVuSans-44"/>
      <use xlink:href="#DejaVuSans-69" x="77.001953"/>
      <use xlink:href="#DejaVuSans-73" x="104.785156"/>
      <use xlink:href="#DejaVuSans-74" x="156.884766"/>
      <use xlink:href="#DejaVuSans-61" x="196.09375"/>
      <use xlink:href="#DejaVuSans-6e" x="257.373047"/>
      <use xlink:href="#DejaVuSans-63" x="320.751953"/>
      <use xlink:href="#DejaVuSans-65" x="375.732422"/>
      <use xlink:href="#DejaVuSans-73" x="437.255859"/>
     </g>
    </g>
   </g>
   <g id="line2d_27">
    <path d="M 69.218182 84.244573 
L 103.036364 89.799062 
L 136.854545 117.168544 
L 170.672727 99.670567 
L 204.490909 84.732764 
L 238.309091 72.530876 
L 272.127273 47.764955 
L 305.945455 47.537256 
L 339.763636 53.611682 
L 373.581818 44.443636 
" clip-path="url(#pd257f86f7b)" style="fill: none; stroke: #1f77b4; stroke-width: 1.5; stroke-linecap: square"/>
   </g>
   <g id="line2d_28">
    <path d="M 69.218182 237.883005 
L 103.036364 242.116364 
L 136.854545 239.198058 
L 170.672727 235.377959 
L 204.490909 221.41635 
L 238.309091 211.740923 
L 272.127273 205.269431 
L 305.945455 199.257173 
L 339.763636 190.189844 
L 373.581818 185.643447 
" clip-path="url(#pd257f86f7b)" style="fill: none; stroke: #ff7f0e; stroke-width: 1.5; stroke-linecap: square"/>
   </g>
   <g id="patch_3">
    <path d="M 54 252 
L 54 34.56 
" style="fill: none; stroke: #000000; stroke-width: 0.8; stroke-linejoin: miter; stroke-linecap: square"/>
   </g>
   <g id="patch_4">
    <path d="M 388.8 252 
L 388.8 34.56 
" style="fill: none; stroke: #000000; stroke-width: 0.8; stroke-linejoin: miter; stroke-linecap: square"/>
   </g>
   <g id="patch_5">
    <path d="M 54 252 
L 388.8 252 
" style="fill: none; stroke: #000000; stroke-width: 0.8; stroke-linejoin: miter; stroke-linecap: square"/>
   </g>
   <g id="patch_6">
    <path d="M 54 34.56 
L 388.8 34.56 
" style="fill: none; stroke: #000000; stroke-width: 0.8; stroke-linejoin: miter; stroke-linecap: square"/>
   </g>
   <g id="text_16">
    <!-- Distance between femur and tibia centroid across the frames -->
    <g transform="translate(36.9675 28.56) scale(0.12 -0.12)">
     <defs>
      <path id="DejaVuSans-77" d="M 269 3500 
L 844 3500 
L 1563 769 
L 2278 3500 
L 2956 3500 
L 3675 769 
L 4391 3500 
L 4966 3500 
L 4050 0 
L 3372 0 
L 2619 2869 
L 1863 0 
L 1184 0 
L 269 3500 
z
" transform="scale(0.015625)"/>
      <path id="DejaVuSans-66" d="M 2375 4863 
L 2375 4384 
L 1825 4384 
Q 1516 4384 1395 4259 
Q 1275 4134 1275 3809 
L 1275 3500 
L 2222 3500 
L 2222 3053 
L 1275 3053 
L 1275 0 
L 697 0 
L 697 3053 
L 147 3053 
L 147 3500 
L 697 3500 
L 697 3744 
Q 697 4328 969 4595 
Q 1241 4863 1831 4863 
L 2375 4863 
z
" transform="scale(0.015625)"/>
      <path id="DejaVuSans-64" d="M 2906 2969 
L 2906 4863 
L 3481 4863 
L 3481 0 
L 2906 0 
L 2906 525 
Q 2725 213 2448 61 
Q 2172 -91 1784 -91 
Q 1150 -91 751 415 
Q 353 922 353 1747 
Q 353 2572 751 3078 
Q 1150 3584 1784 3584 
Q 2172 3584 2448 3432 
Q 2725 3281 2906 2969 
z
M 947 1747 
Q 947 1113 1208 752 
Q 1469 391 1925 391 
Q 2381 391 2643 752 
Q 2906 1113 2906 1747 
Q 2906 2381 2643 2742 
Q 2381 3103 1925 3103 
Q 1469 3103 1208 2742 
Q 947 2381 947 1747 
z
" transform="scale(0.015625)"/>
      <path id="DejaVuSans-6f" d="M 1959 3097 
Q 1497 3097 1228 2736 
Q 959 2375 959 1747 
Q 959 1119 1226 758 
Q 1494 397 1959 397 
Q 2419 397 2687 759 
Q 2956 1122 2956 1747 
Q 2956 2369 2687 2733 
Q 2419 3097 1959 3097 
z
M 1959 3584 
Q 2709 3584 3137 3096 
Q 3566 2609 3566 1747 
Q 3566 888 3137 398 
Q 2709 -91 1959 -91 
Q 1206 -91 779 398 
Q 353 888 353 1747 
Q 353 2609 779 3096 
Q 1206 3584 1959 3584 
z
" transform="scale(0.015625)"/>
      <path id="DejaVuSans-68" d="M 3513 2113 
L 3513 0 
L 2938 0 
L 2938 2094 
Q 2938 2591 2744 2837 
Q 2550 3084 2163 3084 
Q 1697 3084 1428 2787 
Q 1159 2491 1159 1978 
L 1159 0 
L 581 0 
L 581 4863 
L 1159 4863 
L 1159 2956 
Q 1366 3272 1645 3428 
Q 1925 3584 2291 3584 
Q 2894 3584 3203 3211 
Q 3513 2838 3513 2113 
z
" transform="scale(0.015625)"/>
     </defs>
     <use xlink:href="#DejaVuSans-44"/>
     <use xlink:href="#DejaVuSans-69" x="77.001953"/>
     <use xlink:href="#DejaVuSans-73" x="104.785156"/>
     <use xlink:href="#DejaVuSans-74" x="156.884766"/>
     <use xlink:href="#DejaVuSans-61" x="196.09375"/>
     <use xlink:href="#DejaVuSans-6e" x="257.373047"/>
     <use xlink:href="#DejaVuSans-63" x="320.751953"/>
     <use xlink:href="#DejaVuSans-65" x="375.732422"/>
     <use xlink:href="#DejaVuSans-20" x="437.255859"/>
     <use xlink:href="#DejaVuSans-62" x="469.042969"/>
     <use xlink:href="#DejaVuSans-65" x="532.519531"/>
     <use xlink:href="#DejaVuSans-74" x="594.042969"/>
     <use xlink:href="#DejaVuSans-77" x="633.251953"/>
     <use xlink:href="#DejaVuSans-65" x="715.039062"/>
     <use xlink:href="#DejaVuSans-65" x="776.5625"/>
     <use xlink:href="#DejaVuSans-6e" x="838.085938"/>
     <use xlink:href="#DejaVuSans-20" x="901.464844"/>
     <use xlink:href="#DejaVuSans-66" x="933.251953"/>
     <use xlink:href="#DejaVuSans-65" x="968.457031"/>
     <use xlink:href="#DejaVuSans-6d" x="1029.980469"/>
     <use xlink:href="#DejaVuSans-75" x="1127.392578"/>
     <use xlink:href="#DejaVuSans-72" x="1190.771484"/>
     <use xlink:href="#DejaVuSans-20" x="1231.884766"/>
     <use xlink:href="#DejaVuSans-61" x="1263.671875"/>
     <use xlink:href="#DejaVuSans-6e" x="1324.951172"/>
     <use xlink:href="#DejaVuSans-64" x="1388.330078"/>
     <use xlink:href="#DejaVuSans-20" x="1451.806641"/>
     <use xlink:href="#DejaVuSans-74" x="1483.59375"/>
     <use xlink:href="#DejaVuSans-69" x="1522.802734"/>
     <use xlink:href="#DejaVuSans-62" x="1550.585938"/>
     <use xlink:href="#DejaVuSans-69" x="1614.0625"/>
     <use xlink:href="#DejaVuSans-61" x="1641.845703"/>
     <use xlink:href="#DejaVuSans-20" x="1703.125"/>
     <use xlink:href="#DejaVuSans-63" x="1734.912109"/>
     <use xlink:href="#DejaVuSans-65" x="1789.892578"/>
     <use xlink:href="#DejaVuSans-6e" x="1851.416016"/>
     <use xlink:href="#DejaVuSans-74" x="1914.794922"/>
     <use xlink:href="#DejaVuSans-72" x="1954.003906"/>
     <use xlink:href="#DejaVuSans-6f" x="1992.867188"/>
     <use xlink:href="#DejaVuSans-69" x="2054.048828"/>
     <use xlink:href="#DejaVuSans-64" x="2081.832031"/>
     <use xlink:href="#DejaVuSans-20" x="2145.308594"/>
     <use xlink:href="#DejaVuSans-61" x="2177.095703"/>
     <use xlink:href="#DejaVuSans-63" x="2238.375"/>
     <use xlink:href="#DejaVuSans-72" x="2293.355469"/>
     <use xlink:href="#DejaVuSans-6f" x="2332.21875"/>
     <use xlink:href="#DejaVuSans-73" x="2393.400391"/>
     <use xlink:href="#DejaVuSans-73" x="2445.5"/>
     <use xlink:href="#DejaVuSans-20" x="2497.599609"/>
     <use xlink:href="#DejaVuSans-74" x="2529.386719"/>
     <use xlink:href="#DejaVuSans-68" x="2568.595703"/>
     <use xlink:href="#DejaVuSans-65" x="2631.974609"/>
     <use xlink:href="#DejaVuSans-20" x="2693.498047"/>
     <use xlink:href="#DejaVuSans-66" x="2725.285156"/>
     <use xlink:href="#DejaVuSans-72" x="2760.490234"/>
     <use xlink:href="#DejaVuSans-61" x="2801.603516"/>
     <use xlink:href="#DejaVuSans-6d" x="2862.882812"/>
     <use xlink:href="#DejaVuSans-65" x="2960.294922"/>
     <use xlink:href="#DejaVuSans-73" x="3021.818359"/>
    </g>
   </g>
   <g id="legend_1">
    <g id="patch_7">
     <path d="M 183.267188 159.458125 
L 381.8 159.458125 
Q 383.8 159.458125 383.8 157.458125 
L 383.8 129.101875 
Q 383.8 127.101875 381.8 127.101875 
L 183.267188 127.101875 
Q 181.267188 127.101875 181.267188 129.101875 
L 181.267188 157.458125 
Q 181.267188 159.458125 183.267188 159.458125 
z
" style="fill: #ffffff; opacity: 0.8; stroke: #cccccc; stroke-linejoin: miter"/>
    </g>
    <g id="line2d_29">
     <path d="M 185.267188 135.200312 
L 195.267188 135.200312 
L 205.267188 135.200312 
" style="fill: none; stroke: #1f77b4; stroke-width: 1.5; stroke-linecap: square"/>
    </g>
    <g id="text_17">
     <!-- loaded: Total distance 2178.86 -->
     <g transform="translate(213.267188 138.700312) scale(0.1 -0.1)">
      <defs>
       <path id="DejaVuSans-6c" d="M 603 4863 
L 1178 4863 
L 1178 0 
L 603 0 
L 603 4863 
z
" transform="scale(0.015625)"/>
       <path id="DejaVuSans-3a" d="M 750 794 
L 1409 794 
L 1409 0 
L 750 0 
L 750 794 
z
M 750 3309 
L 1409 3309 
L 1409 2516 
L 750 2516 
L 750 3309 
z
" transform="scale(0.015625)"/>
       <path id="DejaVuSans-54" d="M -19 4666 
L 3928 4666 
L 3928 4134 
L 2272 4134 
L 2272 0 
L 1638 0 
L 1638 4134 
L -19 4134 
L -19 4666 
z
" transform="scale(0.015625)"/>
       <path id="DejaVuSans-37" d="M 525 4666 
L 3525 4666 
L 3525 4397 
L 1831 0 
L 1172 0 
L 2766 4134 
L 525 4134 
L 525 4666 
z
" transform="scale(0.015625)"/>
       <path id="DejaVuSans-2e" d="M 684 794 
L 1344 794 
L 1344 0 
L 684 0 
L 684 794 
z
" transform="scale(0.015625)"/>
      </defs>
      <use xlink:href="#DejaVuSans-6c"/>
      <use xlink:href="#DejaVuSans-6f" x="27.783203"/>
      <use xlink:href="#DejaVuSans-61" x="88.964844"/>
      <use xlink:href="#DejaVuSans-64" x="150.244141"/>
      <use xlink:href="#DejaVuSans-65" x="213.720703"/>
      <use xlink:href="#DejaVuSans-64" x="275.244141"/>
      <use xlink:href="#DejaVuSans-3a" x="338.720703"/>
      <use xlink:href="#DejaVuSans-20" x="372.412109"/>
      <use xlink:href="#DejaVuSans-54" x="404.199219"/>
      <use xlink:href="#DejaVuSans-6f" x="448.283203"/>
      <use xlink:href="#DejaVuSans-74" x="509.464844"/>
      <use xlink:href="#DejaVuSans-61" x="548.673828"/>
      <use xlink:href="#DejaVuSans-6c" x="609.953125"/>
      <use xlink:href="#DejaVuSans-20" x="637.736328"/>
      <use xlink:href="#DejaVuSans-64" x="669.523438"/>
      <use xlink:href="#DejaVuSans-69" x="733"/>
      <use xlink:href="#DejaVuSans-73" x="760.783203"/>
      <use xlink:href="#DejaVuSans-74" x="812.882812"/>
      <use xlink:href="#DejaVuSans-61" x="852.091797"/>
      <use xlink:href="#DejaVuSans-6e" x="913.371094"/>
      <use xlink:href="#DejaVuSans-63" x="976.75"/>
      <use xlink:href="#DejaVuSans-65" x="1031.730469"/>
      <use xlink:href="#DejaVuSans-20" x="1093.253906"/>
      <use xlink:href="#DejaVuSans-32" x="1125.041016"/>
      <use xlink:href="#DejaVuSans-31" x="1188.664062"/>
      <use xlink:href="#DejaVuSans-37" x="1252.287109"/>
      <use xlink:href="#DejaVuSans-38" x="1315.910156"/>
      <use xlink:href="#DejaVuSans-2e" x="1379.533203"/>
      <use xlink:href="#DejaVuSans-38" x="1411.320312"/>
      <use xlink:href="#DejaVuSans-36" x="1474.943359"/>
     </g>
    </g>
    <g id="line2d_30">
     <path d="M 185.267188 149.878437 
L 195.267188 149.878437 
L 205.267188 149.878437 
" style="fill: none; stroke: #ff7f0e; stroke-width: 1.5; stroke-linecap: square"/>
    </g>
    <g id="text_18">
     <!-- unloaded: Total distance 2079.81 -->
     <g transform="translate(213.267188 153.378437) scale(0.1 -0.1)">
      <defs>
       <path id="DejaVuSans-39" d="M 703 97 
L 703 672 
Q 941 559 1184 500 
Q 1428 441 1663 441 
Q 2288 441 2617 861 
Q 2947 1281 2994 2138 
Q 2813 1869 2534 1725 
Q 2256 1581 1919 1581 
Q 1219 1581 811 2004 
Q 403 2428 403 3163 
Q 403 3881 828 4315 
Q 1253 4750 1959 4750 
Q 2769 4750 3195 4129 
Q 3622 3509 3622 2328 
Q 3622 1225 3098 567 
Q 2575 -91 1691 -91 
Q 1453 -91 1209 -44 
Q 966 3 703 97 
z
M 1959 2075 
Q 2384 2075 2632 2365 
Q 2881 2656 2881 3163 
Q 2881 3666 2632 3958 
Q 2384 4250 1959 4250 
Q 1534 4250 1286 3958 
Q 1038 3666 1038 3163 
Q 1038 2656 1286 2365 
Q 1534 2075 1959 2075 
z
" transform="scale(0.015625)"/>
      </defs>
      <use xlink:href="#DejaVuSans-75"/>
      <use xlink:href="#DejaVuSans-6e" x="63.378906"/>
      <use xlink:href="#DejaVuSans-6c" x="126.757812"/>
      <use xlink:href="#DejaVuSans-6f" x="154.541016"/>
      <use xlink:href="#DejaVuSans-61" x="215.722656"/>
      <use xlink:href="#DejaVuSans-64" x="277.001953"/>
      <use xlink:href="#DejaVuSans-65" x="340.478516"/>
      <use xlink:href="#DejaVuSans-64" x="402.001953"/>
      <use xlink:href="#DejaVuSans-3a" x="465.478516"/>
      <use xlink:href="#DejaVuSans-20" x="499.169922"/>
      <use xlink:href="#DejaVuSans-54" x="530.957031"/>
      <use xlink:href="#DejaVuSans-6f" x="575.041016"/>
      <use xlink:href="#DejaVuSans-74" x="636.222656"/>
      <use xlink:href="#DejaVuSans-61" x="675.431641"/>
      <use xlink:href="#DejaVuSans-6c" x="736.710938"/>
      <use xlink:href="#DejaVuSans-20" x="764.494141"/>
      <use xlink:href="#DejaVuSans-64" x="796.28125"/>
      <use xlink:href="#DejaVuSans-69" x="859.757812"/>
      <use xlink:href="#DejaVuSans-73" x="887.541016"/>
      <use xlink:href="#DejaVuSans-74" x="939.640625"/>
      <use xlink:href="#DejaVuSans-61" x="978.849609"/>
      <use xlink:href="#DejaVuSans-6e" x="1040.128906"/>
      <use xlink:href="#DejaVuSans-63" x="1103.507812"/>
      <use xlink:href="#DejaVuSans-65" x="1158.488281"/>
      <use xlink:href="#DejaVuSans-20" x="1220.011719"/>
      <use xlink:href="#DejaVuSans-32" x="1251.798828"/>
      <use xlink:href="#DejaVuSans-30" x="1315.421875"/>
      <use xlink:href="#DejaVuSans-37" x="1379.044922"/>
      <use xlink:href="#DejaVuSans-39" x="1442.667969"/>
      <use xlink:href="#DejaVuSans-2e" x="1506.291016"/>
      <use xlink:href="#DejaVuSans-38" x="1538.078125"/>
      <use xlink:href="#DejaVuSans-31" x="1601.701172"/>
     </g>
    </g>
   </g>
  </g>
 </g>
 <defs>
  <clipPath id="pd257f86f7b">
   <rect x="54" y="34.56" width="334.8" height="217.44"/>
  </clipPath>
 </defs>
</svg>
