<?xml version="1.0" encoding="utf-8" standalone="no"?>
<!DOCTYPE svg PUBLIC "-//W3C//DTD SVG 1.1//EN"
  "http://www.w3.org/Graphics/SVG/1.1/DTD/svg11.dtd">
<svg xmlns:xlink="http://www.w3.org/1999/xlink" width="1287.7325pt" height="560.17pt" viewBox="0 0 1287.7325 560.17" xmlns="http://www.w3.org/2000/svg" version="1.1">
 <metadata>
  <rdf:RDF xmlns:dc="http://purl.org/dc/elements/1.1/" xmlns:cc="http://creativecommons.org/ns#" xmlns:rdf="http://www.w3.org/1999/02/22-rdf-syntax-ns#">
   <cc:Work>
    <dc:type rdf:resource="http://purl.org/dc/dcmitype/StillImage"/>
    <dc:date>2024-09-29T22:53:27.249756</dc:date>
    <dc:format>image/svg+xml</dc:format>
    <dc:creator>
     <cc:Agent>
      <dc:title>Matplotlib v3.8.4, https://matplotlib.org/</dc:title>
     </cc:Agent>
    </dc:creator>
   </cc:Work>
  </rdf:RDF>
 </metadata>
 <defs>
  <style type="text/css">*{stroke-linejoin: round; stroke-linecap: butt}</style>
 </defs>
 <g id="figure_1">
  <g id="patch_1">
   <path d="M 0 560.17 
L 1287.7325 560.17 
L 1287.7325 0 
L 0 0 
z
" style="fill: #ffffff"/>
  </g>
  <g id="axes_1">
   <g id="patch_2">
    <path d="M 57.2725 511 
L 636.626269 511 
L 636.626269 33.173843 
L 57.2725 33.173843 
z
" style="fill: #ffffff"/>
   </g>
   <g id="PolyCollection_1">
    <defs>
     <path id="mfd032a0928" d="M 83.606762 -118.824939 
L 83.606762 -118.824939 
L 89.843824 -128.304683 
L 96.080886 -130.977491 
L 102.317949 -114.898088 
L 108.555011 -100.372847 
L 114.792073 -119.445122 
L 121.029135 -130.793112 
L 127.266197 -134.110493 
L 133.503259 -124.758358 
L 139.740321 -126.400578 
L 145.977383 -119.572605 
L 152.214445 -132.391193 
L 158.451508 -132.205364 
L 164.68857 -138.857758 
L 170.925632 -145.999658 
L 177.162694 -144.332926 
L 183.399756 -137.463627 
L 189.636818 -150.872357 
L 195.87388 -152.41512 
L 202.110942 -151.014579 
L 208.348004 -146.443658 
L 214.585066 -142.267863 
L 220.822129 -145.232997 
L 227.059191 -153.480387 
L 233.296253 -137.563858 
L 239.533315 -124.203971 
L 245.770377 -151.294558 
L 252.007439 -160.568064 
L 258.244501 -159.205217 
L 264.481563 -166.593148 
L 270.718625 -161.519302 
L 276.955688 -152.401587 
L 283.19275 -140.612094 
L 289.429812 -151.909997 
L 295.666874 -166.241874 
L 301.903936 -169.343815 
L 308.140998 -161.857928 
L 314.37806 -168.444495 
L 320.615122 -177.025868 
L 326.852184 -174.051645 
L 333.089246 -176.553694 
L 333.089246 -176.553694 
L 333.089246 -176.553694 
L 326.852184 -180.343437 
L 320.615122 -198.099306 
L 314.37806 -204.102488 
L 308.140998 -199.809749 
L 301.903936 -188.932353 
L 295.666874 -181.986319 
L 289.429812 -177.119435 
L 283.19275 -179.663273 
L 276.955688 -183.48658 
L 270.718625 -187.32253 
L 264.481563 -202.923077 
L 258.244501 -228.361289 
L 252.007439 -211.976683 
L 245.770377 -193.136417 
L 239.533315 -186.138982 
L 233.296253 -170.77421 
L 227.059191 -173.133492 
L 220.822129 -184.45136 
L 214.585066 -172.777397 
L 208.348004 -160.282358 
L 202.110942 -164.15131 
L 195.87388 -168.937823 
L 189.636818 -161.425926 
L 183.399756 -164.064612 
L 177.162694 -160.123478 
L 170.925632 -159.682064 
L 164.68857 -178.125732 
L 158.451508 -199.807946 
L 152.214445 -173.313782 
L 145.977383 -149.677607 
L 139.740321 -147.288087 
L 133.503259 -166.832307 
L 127.266197 -170.656416 
L 121.029135 -168.961888 
L 114.792073 -158.684447 
L 108.555011 -153.427857 
L 102.317949 -154.392378 
L 96.080886 -151.952973 
L 89.843824 -143.748602 
L 83.606762 -118.824939 
z
" style="stroke: #1f77b4; stroke-opacity: 0.2"/>
    </defs>
    <g clip-path="url(#p49feb38938)">
     <use xlink:href="#mfd032a0928" x="0" y="560.17" style="fill: #1f77b4; fill-opacity: 0.2; stroke: #1f77b4; stroke-opacity: 0.2"/>
    </g>
   </g>
   <g id="PolyCollection_2">
    <defs>
     <path id="m57af48c9be" d="M 373.283647 -333.934956 
L 373.283647 -333.934956 
L 379.520709 -364.717877 
L 385.757771 -381.067765 
L 391.994833 -359.057793 
L 398.231895 -351.014162 
L 404.468957 -353.160572 
L 410.706019 -333.931766 
L 416.943081 -344.898129 
L 423.180144 -354.090796 
L 429.417206 -345.204221 
L 435.654268 -328.266504 
L 441.89133 -331.602837 
L 448.128392 -327.316848 
L 454.365454 -353.427034 
L 460.602516 -378.756557 
L 466.839578 -367.886237 
L 473.07664 -352.29783 
L 479.313703 -369.312647 
L 485.550765 -366.363526 
L 491.787827 -368.016025 
L 498.024889 -359.244972 
L 504.261951 -371.646061 
L 510.499013 -377.287494 
L 516.736075 -367.596599 
L 522.973137 -373.341451 
L 529.210199 -377.195519 
L 535.447261 -377.718146 
L 541.684324 -370.279877 
L 547.921386 -352.978447 
L 554.158448 -375.980364 
L 560.39551 -377.387549 
L 566.632572 -380.479647 
L 572.869634 -380.209612 
L 579.106696 -374.433511 
L 585.343758 -376.023422 
L 591.58082 -381.207205 
L 597.817883 -387.163624 
L 604.054945 -389.377606 
L 610.292007 -386.421722 
L 610.292007 -415.401872 
L 610.292007 -415.401872 
L 604.054945 -412.852413 
L 597.817883 -405.511334 
L 591.58082 -403.204842 
L 585.343758 -403.205264 
L 579.106696 -398.217022 
L 572.869634 -399.47943 
L 566.632572 -414.486161 
L 560.39551 -420.305417 
L 554.158448 -399.613295 
L 547.921386 -401.994101 
L 541.684324 -404.775435 
L 535.447261 -410.810298 
L 529.210199 -400.906365 
L 522.973137 -390.861532 
L 516.736075 -385.457139 
L 510.499013 -385.487242 
L 504.261951 -395.896588 
L 498.024889 -404.67527 
L 491.787827 -397.062535 
L 485.550765 -396.634822 
L 479.313703 -392.04647 
L 473.07664 -408.293422 
L 466.839578 -405.759962 
L 460.602516 -394.766398 
L 454.365454 -387.970167 
L 448.128392 -383.864463 
L 441.89133 -378.471128 
L 435.654268 -395.038006 
L 429.417206 -381.951067 
L 423.180144 -379.434676 
L 416.943081 -386.967936 
L 410.706019 -374.723272 
L 404.468957 -361.214456 
L 398.231895 -388.913649 
L 391.994833 -407.244388 
L 385.757771 -415.483057 
L 379.520709 -403.877219 
L 373.283647 -333.934956 
z
" style="stroke: #1f77b4; stroke-opacity: 0.2"/>
    </defs>
    <g clip-path="url(#p49feb38938)">
     <use xlink:href="#m57af48c9be" x="0" y="560.17" style="fill: #1f77b4; fill-opacity: 0.2; stroke: #1f77b4; stroke-opacity: 0.2"/>
    </g>
   </g>
   <g id="PolyCollection_3">
    <defs>
     <path id="mb2cbc4a285" d="M 83.606762 -115.8231 
L 83.606762 -115.8231 
L 89.843824 -123.896997 
L 96.080886 -119.175662 
L 102.317949 -126.312131 
L 108.555011 -92.803698 
L 114.792073 -110.950056 
L 121.029135 -124.918225 
L 127.266197 -110.839885 
L 133.503259 -73.870753 
L 139.740321 -70.889371 
L 145.977383 -96.387097 
L 152.214445 -123.461344 
L 158.451508 -100.363453 
L 164.68857 -135.201429 
L 170.925632 -127.092714 
L 177.162694 -120.369273 
L 183.399756 -126.736713 
L 189.636818 -141.147215 
L 195.87388 -156.345372 
L 202.110942 -172.060426 
L 208.348004 -157.999109 
L 214.585066 -138.933156 
L 220.822129 -85.061922 
L 227.059191 -82.009057 
L 233.296253 -118.905007 
L 239.533315 -152.993736 
L 245.770377 -151.508619 
L 252.007439 -142.977171 
L 258.244501 -132.170456 
L 264.481563 -108.289267 
L 270.718625 -75.937418 
L 276.955688 -76.834293 
L 283.19275 -91.040699 
L 289.429812 -142.398796 
L 295.666874 -138.921292 
L 301.903936 -149.834644 
L 308.140998 -126.02286 
L 314.37806 -152.576556 
L 320.615122 -133.147421 
L 326.852184 -97.967441 
L 333.089246 -168.090621 
L 333.089246 -168.090621 
L 333.089246 -168.090621 
L 326.852184 -205.39545 
L 320.615122 -230.790333 
L 314.37806 -182.141055 
L 308.140998 -184.820582 
L 301.903936 -212.617224 
L 295.666874 -264.115779 
L 289.429812 -197.451509 
L 283.19275 -201.513393 
L 276.955688 -202.743392 
L 270.718625 -203.3555 
L 264.481563 -187.02005 
L 258.244501 -188.232792 
L 252.007439 -197.229705 
L 245.770377 -214.577696 
L 239.533315 -201.211281 
L 233.296253 -170.743805 
L 227.059191 -163.761332 
L 220.822129 -161.124563 
L 214.585066 -166.443685 
L 208.348004 -220.604412 
L 202.110942 -214.200188 
L 195.87388 -217.323552 
L 189.636818 -204.217613 
L 183.399756 -186.951656 
L 177.162694 -196.383363 
L 170.925632 -205.812342 
L 164.68857 -188.378528 
L 158.451508 -194.688536 
L 152.214445 -174.942046 
L 145.977383 -209.2187 
L 139.740321 -181.440841 
L 133.503259 -163.11409 
L 127.266197 -163.713996 
L 121.029135 -205.125163 
L 114.792073 -194.805578 
L 108.555011 -161.666973 
L 102.317949 -132.072207 
L 96.080886 -176.520964 
L 89.843824 -169.909554 
L 83.606762 -115.8231 
z
" style="stroke: #ff7f0e; stroke-opacity: 0.2"/>
    </defs>
    <g clip-path="url(#p49feb38938)">
     <use xlink:href="#mb2cbc4a285" x="0" y="560.17" style="fill: #ff7f0e; fill-opacity: 0.2; stroke: #ff7f0e; stroke-opacity: 0.2"/>
    </g>
   </g>
   <g id="PolyCollection_4">
    <defs>
     <path id="m2100f18ae3" d="M 373.283647 -471.562169 
L 373.283647 -471.562169 
L 379.520709 -388.851922 
L 385.757771 -318.637389 
L 391.994833 -335.076542 
L 398.231895 -317.45717 
L 404.468957 -320.629065 
L 410.706019 -321.471969 
L 416.943081 -332.185729 
L 423.180144 -339.807931 
L 429.417206 -345.646128 
L 435.654268 -310.788976 
L 441.89133 -311.895142 
L 448.128392 -331.689596 
L 454.365454 -354.224052 
L 460.602516 -330.435908 
L 466.839578 -307.4556 
L 473.07664 -309.986141 
L 479.313703 -324.946244 
L 485.550765 -290.280215 
L 491.787827 -291.318009 
L 498.024889 -269.618303 
L 504.261951 -305.420803 
L 510.499013 -342.939058 
L 516.736075 -334.492705 
L 522.973137 -336.693308 
L 529.210199 -352.696726 
L 535.447261 -323.645572 
L 541.684324 -323.63436 
L 547.921386 -305.84573 
L 554.158448 -340.846742 
L 560.39551 -333.511413 
L 566.632572 -363.658548 
L 572.869634 -367.809089 
L 579.106696 -335.414885 
L 585.343758 -342.577537 
L 591.58082 -346.899119 
L 597.817883 -340.070097 
L 604.054945 -328.912462 
L 610.292007 -345.153214 
L 610.292007 -478.156343 
L 610.292007 -478.156343 
L 604.054945 -505.276786 
L 597.817883 -471.510379 
L 591.58082 -426.452164 
L 585.343758 -405.56676 
L 579.106696 -428.143803 
L 572.869634 -462.74324 
L 566.632572 -495.110585 
L 560.39551 -490.931445 
L 554.158448 -401.289577 
L 547.921386 -389.852202 
L 541.684324 -407.002842 
L 535.447261 -435.059875 
L 529.210199 -437.311994 
L 522.973137 -462.340983 
L 516.736075 -447.206025 
L 510.499013 -419.273591 
L 504.261951 -418.207235 
L 498.024889 -404.085971 
L 491.787827 -425.857527 
L 485.550765 -488.990031 
L 479.313703 -440.137114 
L 473.07664 -435.997325 
L 466.839578 -442.331899 
L 460.602516 -460.465697 
L 454.365454 -429.377463 
L 448.128392 -418.317285 
L 441.89133 -416.239734 
L 435.654268 -410.770295 
L 429.417206 -401.530884 
L 423.180144 -424.548378 
L 416.943081 -402.162867 
L 410.706019 -392.571013 
L 404.468957 -405.236728 
L 398.231895 -402.138836 
L 391.994833 -372.880438 
L 385.757771 -382.459303 
L 379.520709 -403.04198 
L 373.283647 -471.562169 
z
" style="stroke: #ff7f0e; stroke-opacity: 0.2"/>
    </defs>
    <g clip-path="url(#p49feb38938)">
     <use xlink:href="#m2100f18ae3" x="0" y="560.17" style="fill: #ff7f0e; fill-opacity: 0.2; stroke: #ff7f0e; stroke-opacity: 0.2"/>
    </g>
   </g>
   <g id="matplotlib.axis_1">
    <g id="xtick_1">
     <g id="line2d_1">
      <path d="M 69.746624 511 
L 69.746624 33.173843 
" clip-path="url(#p49feb38938)" style="fill: none; stroke-dasharray: 2.96,1.28; stroke-dashoffset: 0; stroke: #b0b0b0; stroke-opacity: 0.7; stroke-width: 0.8"/>
     </g>
     <g id="line2d_2">
      <defs>
       <path id="m52d6740373" d="M 0 0 
L 0 3.5 
" style="stroke: #000000; stroke-width: 0.8"/>
      </defs>
      <g>
       <use xlink:href="#m52d6740373" x="69.746624" y="511" style="stroke: #000000; stroke-width: 0.8"/>
      </g>
     </g>
     <g id="text_1">
      <!-- −100 -->
      <g transform="translate(47.772874 530.1575) scale(0.16 -0.16)">
       <defs>
        <path id="DejaVuSans-2212" d="M 678 2272 
L 4684 2272 
L 4684 1741 
L 678 1741 
L 678 2272 
z
" transform="scale(0.015625)"/>
        <path id="DejaVuSans-31" d="M 794 531 
L 1825 531 
L 1825 4091 
L 703 3866 
L 703 4441 
L 1819 4666 
L 2450 4666 
L 2450 531 
L 3481 531 
L 3481 0 
L 794 0 
L 794 531 
z
" transform="scale(0.015625)"/>
        <path id="DejaVuSans-30" d="M 2034 4250 
Q 1547 4250 1301 3770 
Q 1056 3291 1056 2328 
Q 1056 1369 1301 889 
Q 1547 409 2034 409 
Q 2525 409 2770 889 
Q 3016 1369 3016 2328 
Q 3016 3291 2770 3770 
Q 2525 4250 2034 4250 
z
M 2034 4750 
Q 2819 4750 3233 4129 
Q 3647 3509 3647 2328 
Q 3647 1150 3233 529 
Q 2819 -91 2034 -91 
Q 1250 -91 836 529 
Q 422 1150 422 2328 
Q 422 3509 836 4129 
Q 1250 4750 2034 4750 
z
" transform="scale(0.015625)"/>
       </defs>
       <use xlink:href="#DejaVuSans-2212"/>
       <use xlink:href="#DejaVuSans-31" x="83.789062"/>
       <use xlink:href="#DejaVuSans-30" x="147.412109"/>
       <use xlink:href="#DejaVuSans-30" x="211.035156"/>
      </g>
     </g>
    </g>
    <g id="xtick_2">
     <g id="line2d_3">
      <path d="M 139.047314 511 
L 139.047314 33.173843 
" clip-path="url(#p49feb38938)" style="fill: none; stroke-dasharray: 2.96,1.28; stroke-dashoffset: 0; stroke: #b0b0b0; stroke-opacity: 0.7; stroke-width: 0.8"/>
     </g>
     <g id="line2d_4">
      <g>
       <use xlink:href="#m52d6740373" x="139.047314" y="511" style="stroke: #000000; stroke-width: 0.8"/>
      </g>
     </g>
     <g id="text_2">
      <!-- −75 -->
      <g transform="translate(122.163564 530.1575) scale(0.16 -0.16)">
       <defs>
        <path id="DejaVuSans-37" d="M 525 4666 
L 3525 4666 
L 3525 4397 
L 1831 0 
L 1172 0 
L 2766 4134 
L 525 4134 
L 525 4666 
z
" transform="scale(0.015625)"/>
        <path id="DejaVuSans-35" d="M 691 4666 
L 3169 4666 
L 3169 4134 
L 1269 4134 
L 1269 2991 
Q 1406 3038 1543 3061 
Q 1681 3084 1819 3084 
Q 2600 3084 3056 2656 
Q 3513 2228 3513 1497 
Q 3513 744 3044 326 
Q 2575 -91 1722 -91 
Q 1428 -91 1123 -41 
Q 819 9 494 109 
L 494 744 
Q 775 591 1075 516 
Q 1375 441 1709 441 
Q 2250 441 2565 725 
Q 2881 1009 2881 1497 
Q 2881 1984 2565 2268 
Q 2250 2553 1709 2553 
Q 1456 2553 1204 2497 
Q 953 2441 691 2322 
L 691 4666 
z
" transform="scale(0.015625)"/>
       </defs>
       <use xlink:href="#DejaVuSans-2212"/>
       <use xlink:href="#DejaVuSans-37" x="83.789062"/>
       <use xlink:href="#DejaVuSans-35" x="147.412109"/>
      </g>
     </g>
    </g>
    <g id="xtick_3">
     <g id="line2d_5">
      <path d="M 208.348004 511 
L 208.348004 33.173843 
" clip-path="url(#p49feb38938)" style="fill: none; stroke-dasharray: 2.96,1.28; stroke-dashoffset: 0; stroke: #b0b0b0; stroke-opacity: 0.7; stroke-width: 0.8"/>
     </g>
     <g id="line2d_6">
      <g>
       <use xlink:href="#m52d6740373" x="208.348004" y="511" style="stroke: #000000; stroke-width: 0.8"/>
      </g>
     </g>
     <g id="text_3">
      <!-- −50 -->
      <g transform="translate(191.464254 530.1575) scale(0.16 -0.16)">
       <use xlink:href="#DejaVuSans-2212"/>
       <use xlink:href="#DejaVuSans-35" x="83.789062"/>
       <use xlink:href="#DejaVuSans-30" x="147.412109"/>
      </g>
     </g>
    </g>
    <g id="xtick_4">
     <g id="line2d_7">
      <path d="M 277.648694 511 
L 277.648694 33.173843 
" clip-path="url(#p49feb38938)" style="fill: none; stroke-dasharray: 2.96,1.28; stroke-dashoffset: 0; stroke: #b0b0b0; stroke-opacity: 0.7; stroke-width: 0.8"/>
     </g>
     <g id="line2d_8">
      <g>
       <use xlink:href="#m52d6740373" x="277.648694" y="511" style="stroke: #000000; stroke-width: 0.8"/>
      </g>
     </g>
     <g id="text_4">
      <!-- −25 -->
      <g transform="translate(260.764944 530.1575) scale(0.16 -0.16)">
       <defs>
        <path id="DejaVuSans-32" d="M 1228 531 
L 3431 531 
L 3431 0 
L 469 0 
L 469 531 
Q 828 903 1448 1529 
Q 2069 2156 2228 2338 
Q 2531 2678 2651 2914 
Q 2772 3150 2772 3378 
Q 2772 3750 2511 3984 
Q 2250 4219 1831 4219 
Q 1534 4219 1204 4116 
Q 875 4013 500 3803 
L 500 4441 
Q 881 4594 1212 4672 
Q 1544 4750 1819 4750 
Q 2544 4750 2975 4387 
Q 3406 4025 3406 3419 
Q 3406 3131 3298 2873 
Q 3191 2616 2906 2266 
Q 2828 2175 2409 1742 
Q 1991 1309 1228 531 
z
" transform="scale(0.015625)"/>
       </defs>
       <use xlink:href="#DejaVuSans-2212"/>
       <use xlink:href="#DejaVuSans-32" x="83.789062"/>
       <use xlink:href="#DejaVuSans-35" x="147.412109"/>
      </g>
     </g>
    </g>
    <g id="xtick_5">
     <g id="line2d_9">
      <path d="M 346.949384 511 
L 346.949384 33.173843 
" clip-path="url(#p49feb38938)" style="fill: none; stroke-dasharray: 2.96,1.28; stroke-dashoffset: 0; stroke: #b0b0b0; stroke-opacity: 0.7; stroke-width: 0.8"/>
     </g>
     <g id="line2d_10">
      <g>
       <use xlink:href="#m52d6740373" x="346.949384" y="511" style="stroke: #000000; stroke-width: 0.8"/>
      </g>
     </g>
     <g id="text_5">
      <!-- 0 -->
      <g transform="translate(341.859384 530.1575) scale(0.16 -0.16)">
       <use xlink:href="#DejaVuSans-30"/>
      </g>
     </g>
    </g>
    <g id="xtick_6">
     <g id="line2d_11">
      <path d="M 416.250075 511 
L 416.250075 33.173843 
" clip-path="url(#p49feb38938)" style="fill: none; stroke-dasharray: 2.96,1.28; stroke-dashoffset: 0; stroke: #b0b0b0; stroke-opacity: 0.7; stroke-width: 0.8"/>
     </g>
     <g id="line2d_12">
      <g>
       <use xlink:href="#m52d6740373" x="416.250075" y="511" style="stroke: #000000; stroke-width: 0.8"/>
      </g>
     </g>
     <g id="text_6">
      <!-- 25 -->
      <g transform="translate(406.070075 530.1575) scale(0.16 -0.16)">
       <use xlink:href="#DejaVuSans-32"/>
       <use xlink:href="#DejaVuSans-35" x="63.623047"/>
      </g>
     </g>
    </g>
    <g id="xtick_7">
     <g id="line2d_13">
      <path d="M 485.550765 511 
L 485.550765 33.173843 
" clip-path="url(#p49feb38938)" style="fill: none; stroke-dasharray: 2.96,1.28; stroke-dashoffset: 0; stroke: #b0b0b0; stroke-opacity: 0.7; stroke-width: 0.8"/>
     </g>
     <g id="line2d_14">
      <g>
       <use xlink:href="#m52d6740373" x="485.550765" y="511" style="stroke: #000000; stroke-width: 0.8"/>
      </g>
     </g>
     <g id="text_7">
      <!-- 50 -->
      <g transform="translate(475.370765 530.1575) scale(0.16 -0.16)">
       <use xlink:href="#DejaVuSans-35"/>
       <use xlink:href="#DejaVuSans-30" x="63.623047"/>
      </g>
     </g>
    </g>
    <g id="xtick_8">
     <g id="line2d_15">
      <path d="M 554.851455 511 
L 554.851455 33.173843 
" clip-path="url(#p49feb38938)" style="fill: none; stroke-dasharray: 2.96,1.28; stroke-dashoffset: 0; stroke: #b0b0b0; stroke-opacity: 0.7; stroke-width: 0.8"/>
     </g>
     <g id="line2d_16">
      <g>
       <use xlink:href="#m52d6740373" x="554.851455" y="511" style="stroke: #000000; stroke-width: 0.8"/>
      </g>
     </g>
     <g id="text_8">
      <!-- 75 -->
      <g transform="translate(544.671455 530.1575) scale(0.16 -0.16)">
       <use xlink:href="#DejaVuSans-37"/>
       <use xlink:href="#DejaVuSans-35" x="63.623047"/>
      </g>
     </g>
    </g>
    <g id="xtick_9">
     <g id="line2d_17">
      <path d="M 624.152145 511 
L 624.152145 33.173843 
" clip-path="url(#p49feb38938)" style="fill: none; stroke-dasharray: 2.96,1.28; stroke-dashoffset: 0; stroke: #b0b0b0; stroke-opacity: 0.7; stroke-width: 0.8"/>
     </g>
     <g id="line2d_18">
      <g>
       <use xlink:href="#m52d6740373" x="624.152145" y="511" style="stroke: #000000; stroke-width: 0.8"/>
      </g>
     </g>
     <g id="text_9">
      <!-- 100 -->
      <g transform="translate(608.882145 530.1575) scale(0.16 -0.16)">
       <use xlink:href="#DejaVuSans-31"/>
       <use xlink:href="#DejaVuSans-30" x="63.623047"/>
       <use xlink:href="#DejaVuSans-30" x="127.246094"/>
      </g>
     </g>
    </g>
    <g id="text_10">
     <!-- Percent flexed [%] -->
     <g transform="translate(273.620634 549.6425) scale(0.16 -0.16)">
      <defs>
       <path id="DejaVuSans-50" d="M 1259 4147 
L 1259 2394 
L 2053 2394 
Q 2494 2394 2734 2622 
Q 2975 2850 2975 3272 
Q 2975 3691 2734 3919 
Q 2494 4147 2053 4147 
L 1259 4147 
z
M 628 4666 
L 2053 4666 
Q 2838 4666 3239 4311 
Q 3641 3956 3641 3272 
Q 3641 2581 3239 2228 
Q 2838 1875 2053 1875 
L 1259 1875 
L 1259 0 
L 628 0 
L 628 4666 
z
" transform="scale(0.015625)"/>
       <path id="DejaVuSans-65" d="M 3597 1894 
L 3597 1613 
L 953 1613 
Q 991 1019 1311 708 
Q 1631 397 2203 397 
Q 2534 397 2845 478 
Q 3156 559 3463 722 
L 3463 178 
Q 3153 47 2828 -22 
Q 2503 -91 2169 -91 
Q 1331 -91 842 396 
Q 353 884 353 1716 
Q 353 2575 817 3079 
Q 1281 3584 2069 3584 
Q 2775 3584 3186 3129 
Q 3597 2675 3597 1894 
z
M 3022 2063 
Q 3016 2534 2758 2815 
Q 2500 3097 2075 3097 
Q 1594 3097 1305 2825 
Q 1016 2553 972 2059 
L 3022 2063 
z
" transform="scale(0.015625)"/>
       <path id="DejaVuSans-72" d="M 2631 2963 
Q 2534 3019 2420 3045 
Q 2306 3072 2169 3072 
Q 1681 3072 1420 2755 
Q 1159 2438 1159 1844 
L 1159 0 
L 581 0 
L 581 3500 
L 1159 3500 
L 1159 2956 
Q 1341 3275 1631 3429 
Q 1922 3584 2338 3584 
Q 2397 3584 2469 3576 
Q 2541 3569 2628 3553 
L 2631 2963 
z
" transform="scale(0.015625)"/>
       <path id="DejaVuSans-63" d="M 3122 3366 
L 3122 2828 
Q 2878 2963 2633 3030 
Q 2388 3097 2138 3097 
Q 1578 3097 1268 2742 
Q 959 2388 959 1747 
Q 959 1106 1268 751 
Q 1578 397 2138 397 
Q 2388 397 2633 464 
Q 2878 531 3122 666 
L 3122 134 
Q 2881 22 2623 -34 
Q 2366 -91 2075 -91 
Q 1284 -91 818 406 
Q 353 903 353 1747 
Q 353 2603 823 3093 
Q 1294 3584 2113 3584 
Q 2378 3584 2631 3529 
Q 2884 3475 3122 3366 
z
" transform="scale(0.015625)"/>
       <path id="DejaVuSans-6e" d="M 3513 2113 
L 3513 0 
L 2938 0 
L 2938 2094 
Q 2938 2591 2744 2837 
Q 2550 3084 2163 3084 
Q 1697 3084 1428 2787 
Q 1159 2491 1159 1978 
L 1159 0 
L 581 0 
L 581 3500 
L 1159 3500 
L 1159 2956 
Q 1366 3272 1645 3428 
Q 1925 3584 2291 3584 
Q 2894 3584 3203 3211 
Q 3513 2838 3513 2113 
z
" transform="scale(0.015625)"/>
       <path id="DejaVuSans-74" d="M 1172 4494 
L 1172 3500 
L 2356 3500 
L 2356 3053 
L 1172 3053 
L 1172 1153 
Q 1172 725 1289 603 
Q 1406 481 1766 481 
L 2356 481 
L 2356 0 
L 1766 0 
Q 1100 0 847 248 
Q 594 497 594 1153 
L 594 3053 
L 172 3053 
L 172 3500 
L 594 3500 
L 594 4494 
L 1172 4494 
z
" transform="scale(0.015625)"/>
       <path id="DejaVuSans-20" transform="scale(0.015625)"/>
       <path id="DejaVuSans-66" d="M 2375 4863 
L 2375 4384 
L 1825 4384 
Q 1516 4384 1395 4259 
Q 1275 4134 1275 3809 
L 1275 3500 
L 2222 3500 
L 2222 3053 
L 1275 3053 
L 1275 0 
L 697 0 
L 697 3053 
L 147 3053 
L 147 3500 
L 697 3500 
L 697 3744 
Q 697 4328 969 4595 
Q 1241 4863 1831 4863 
L 2375 4863 
z
" transform="scale(0.015625)"/>
       <path id="DejaVuSans-6c" d="M 603 4863 
L 1178 4863 
L 1178 0 
L 603 0 
L 603 4863 
z
" transform="scale(0.015625)"/>
       <path id="DejaVuSans-78" d="M 3513 3500 
L 2247 1797 
L 3578 0 
L 2900 0 
L 1881 1375 
L 863 0 
L 184 0 
L 1544 1831 
L 300 3500 
L 978 3500 
L 1906 2253 
L 2834 3500 
L 3513 3500 
z
" transform="scale(0.015625)"/>
       <path id="DejaVuSans-64" d="M 2906 2969 
L 2906 4863 
L 3481 4863 
L 3481 0 
L 2906 0 
L 2906 525 
Q 2725 213 2448 61 
Q 2172 -91 1784 -91 
Q 1150 -91 751 415 
Q 353 922 353 1747 
Q 353 2572 751 3078 
Q 1150 3584 1784 3584 
Q 2172 3584 2448 3432 
Q 2725 3281 2906 2969 
z
M 947 1747 
Q 947 1113 1208 752 
Q 1469 391 1925 391 
Q 2381 391 2643 752 
Q 2906 1113 2906 1747 
Q 2906 2381 2643 2742 
Q 2381 3103 1925 3103 
Q 1469 3103 1208 2742 
Q 947 2381 947 1747 
z
" transform="scale(0.015625)"/>
       <path id="DejaVuSans-5b" d="M 550 4863 
L 1875 4863 
L 1875 4416 
L 1125 4416 
L 1125 -397 
L 1875 -397 
L 1875 -844 
L 550 -844 
L 550 4863 
z
" transform="scale(0.015625)"/>
       <path id="DejaVuSans-25" d="M 4653 2053 
Q 4381 2053 4226 1822 
Q 4072 1591 4072 1178 
Q 4072 772 4226 539 
Q 4381 306 4653 306 
Q 4919 306 5073 539 
Q 5228 772 5228 1178 
Q 5228 1588 5073 1820 
Q 4919 2053 4653 2053 
z
M 4653 2450 
Q 5147 2450 5437 2106 
Q 5728 1763 5728 1178 
Q 5728 594 5436 251 
Q 5144 -91 4653 -91 
Q 4153 -91 3862 251 
Q 3572 594 3572 1178 
Q 3572 1766 3864 2108 
Q 4156 2450 4653 2450 
z
M 1428 4353 
Q 1159 4353 1004 4120 
Q 850 3888 850 3481 
Q 850 3069 1003 2837 
Q 1156 2606 1428 2606 
Q 1700 2606 1854 2837 
Q 2009 3069 2009 3481 
Q 2009 3884 1853 4118 
Q 1697 4353 1428 4353 
z
M 4250 4750 
L 4750 4750 
L 1831 -91 
L 1331 -91 
L 4250 4750 
z
M 1428 4750 
Q 1922 4750 2215 4408 
Q 2509 4066 2509 3481 
Q 2509 2891 2217 2550 
Q 1925 2209 1428 2209 
Q 931 2209 642 2551 
Q 353 2894 353 3481 
Q 353 4063 643 4406 
Q 934 4750 1428 4750 
z
" transform="scale(0.015625)"/>
       <path id="DejaVuSans-5d" d="M 1947 4863 
L 1947 -844 
L 622 -844 
L 622 -397 
L 1369 -397 
L 1369 4416 
L 622 4416 
L 622 4863 
L 1947 4863 
z
" transform="scale(0.015625)"/>
      </defs>
      <use xlink:href="#DejaVuSans-50"/>
      <use xlink:href="#DejaVuSans-65" x="56.677734"/>
      <use xlink:href="#DejaVuSans-72" x="118.201172"/>
      <use xlink:href="#DejaVuSans-63" x="157.064453"/>
      <use xlink:href="#DejaVuSans-65" x="212.044922"/>
      <use xlink:href="#DejaVuSans-6e" x="273.568359"/>
      <use xlink:href="#DejaVuSans-74" x="336.947266"/>
      <use xlink:href="#DejaVuSans-20" x="376.15625"/>
      <use xlink:href="#DejaVuSans-66" x="407.943359"/>
      <use xlink:href="#DejaVuSans-6c" x="443.148438"/>
      <use xlink:href="#DejaVuSans-65" x="470.931641"/>
      <use xlink:href="#DejaVuSans-78" x="530.705078"/>
      <use xlink:href="#DejaVuSans-65" x="586.759766"/>
      <use xlink:href="#DejaVuSans-64" x="648.283203"/>
      <use xlink:href="#DejaVuSans-20" x="711.759766"/>
      <use xlink:href="#DejaVuSans-5b" x="743.546875"/>
      <use xlink:href="#DejaVuSans-25" x="782.560547"/>
      <use xlink:href="#DejaVuSans-5d" x="877.580078"/>
     </g>
    </g>
   </g>
   <g id="matplotlib.axis_2">
    <g id="ytick_1">
     <g id="line2d_19">
      <path d="M 57.2725 480.312944 
L 636.626269 480.312944 
" clip-path="url(#p49feb38938)" style="fill: none; stroke-dasharray: 2.96,1.28; stroke-dashoffset: 0; stroke: #b0b0b0; stroke-opacity: 0.7; stroke-width: 0.8"/>
     </g>
     <g id="line2d_20">
      <defs>
       <path id="m5a1091ff8b" d="M 0 0 
L -3.5 0 
" style="stroke: #000000; stroke-width: 0.8"/>
      </defs>
      <g>
       <use xlink:href="#m5a1091ff8b" x="57.2725" y="480.312944" style="stroke: #000000; stroke-width: 0.8"/>
      </g>
     </g>
     <g id="text_11">
      <!-- −3 -->
      <g transform="translate(26.685 486.391694) scale(0.16 -0.16)">
       <defs>
        <path id="DejaVuSans-33" d="M 2597 2516 
Q 3050 2419 3304 2112 
Q 3559 1806 3559 1356 
Q 3559 666 3084 287 
Q 2609 -91 1734 -91 
Q 1441 -91 1130 -33 
Q 819 25 488 141 
L 488 750 
Q 750 597 1062 519 
Q 1375 441 1716 441 
Q 2309 441 2620 675 
Q 2931 909 2931 1356 
Q 2931 1769 2642 2001 
Q 2353 2234 1838 2234 
L 1294 2234 
L 1294 2753 
L 1863 2753 
Q 2328 2753 2575 2939 
Q 2822 3125 2822 3475 
Q 2822 3834 2567 4026 
Q 2313 4219 1838 4219 
Q 1578 4219 1281 4162 
Q 984 4106 628 3988 
L 628 4550 
Q 988 4650 1302 4700 
Q 1616 4750 1894 4750 
Q 2613 4750 3031 4423 
Q 3450 4097 3450 3541 
Q 3450 3153 3228 2886 
Q 3006 2619 2597 2516 
z
" transform="scale(0.015625)"/>
       </defs>
       <use xlink:href="#DejaVuSans-2212"/>
       <use xlink:href="#DejaVuSans-33" x="83.789062"/>
      </g>
     </g>
    </g>
    <g id="ytick_2">
     <g id="line2d_21">
      <path d="M 57.2725 416.760082 
L 636.626269 416.760082 
" clip-path="url(#p49feb38938)" style="fill: none; stroke-dasharray: 2.96,1.28; stroke-dashoffset: 0; stroke: #b0b0b0; stroke-opacity: 0.7; stroke-width: 0.8"/>
     </g>
     <g id="line2d_22">
      <g>
       <use xlink:href="#m5a1091ff8b" x="57.2725" y="416.760082" style="stroke: #000000; stroke-width: 0.8"/>
      </g>
     </g>
     <g id="text_12">
      <!-- −2 -->
      <g transform="translate(26.685 422.838832) scale(0.16 -0.16)">
       <use xlink:href="#DejaVuSans-2212"/>
       <use xlink:href="#DejaVuSans-32" x="83.789062"/>
      </g>
     </g>
    </g>
    <g id="ytick_3">
     <g id="line2d_23">
      <path d="M 57.2725 353.20722 
L 636.626269 353.20722 
" clip-path="url(#p49feb38938)" style="fill: none; stroke-dasharray: 2.96,1.28; stroke-dashoffset: 0; stroke: #b0b0b0; stroke-opacity: 0.7; stroke-width: 0.8"/>
     </g>
     <g id="line2d_24">
      <g>
       <use xlink:href="#m5a1091ff8b" x="57.2725" y="353.20722" style="stroke: #000000; stroke-width: 0.8"/>
      </g>
     </g>
     <g id="text_13">
      <!-- −1 -->
      <g transform="translate(26.685 359.28597) scale(0.16 -0.16)">
       <use xlink:href="#DejaVuSans-2212"/>
       <use xlink:href="#DejaVuSans-31" x="83.789062"/>
      </g>
     </g>
    </g>
    <g id="ytick_4">
     <g id="line2d_25">
      <path d="M 57.2725 289.654358 
L 636.626269 289.654358 
" clip-path="url(#p49feb38938)" style="fill: none; stroke-dasharray: 2.96,1.28; stroke-dashoffset: 0; stroke: #b0b0b0; stroke-opacity: 0.7; stroke-width: 0.8"/>
     </g>
     <g id="line2d_26">
      <g>
       <use xlink:href="#m5a1091ff8b" x="57.2725" y="289.654358" style="stroke: #000000; stroke-width: 0.8"/>
      </g>
     </g>
     <g id="text_14">
      <!-- 0 -->
      <g transform="translate(40.0925 295.733108) scale(0.16 -0.16)">
       <use xlink:href="#DejaVuSans-30"/>
      </g>
     </g>
    </g>
    <g id="ytick_5">
     <g id="line2d_27">
      <path d="M 57.2725 226.101497 
L 636.626269 226.101497 
" clip-path="url(#p49feb38938)" style="fill: none; stroke-dasharray: 2.96,1.28; stroke-dashoffset: 0; stroke: #b0b0b0; stroke-opacity: 0.7; stroke-width: 0.8"/>
     </g>
     <g id="line2d_28">
      <g>
       <use xlink:href="#m5a1091ff8b" x="57.2725" y="226.101497" style="stroke: #000000; stroke-width: 0.8"/>
      </g>
     </g>
     <g id="text_15">
      <!-- 1 -->
      <g transform="translate(40.0925 232.180247) scale(0.16 -0.16)">
       <use xlink:href="#DejaVuSans-31"/>
      </g>
     </g>
    </g>
    <g id="ytick_6">
     <g id="line2d_29">
      <path d="M 57.2725 162.548635 
L 636.626269 162.548635 
" clip-path="url(#p49feb38938)" style="fill: none; stroke-dasharray: 2.96,1.28; stroke-dashoffset: 0; stroke: #b0b0b0; stroke-opacity: 0.7; stroke-width: 0.8"/>
     </g>
     <g id="line2d_30">
      <g>
       <use xlink:href="#m5a1091ff8b" x="57.2725" y="162.548635" style="stroke: #000000; stroke-width: 0.8"/>
      </g>
     </g>
     <g id="text_16">
      <!-- 2 -->
      <g transform="translate(40.0925 168.627385) scale(0.16 -0.16)">
       <use xlink:href="#DejaVuSans-32"/>
      </g>
     </g>
    </g>
    <g id="ytick_7">
     <g id="line2d_31">
      <path d="M 57.2725 98.995773 
L 636.626269 98.995773 
" clip-path="url(#p49feb38938)" style="fill: none; stroke-dasharray: 2.96,1.28; stroke-dashoffset: 0; stroke: #b0b0b0; stroke-opacity: 0.7; stroke-width: 0.8"/>
     </g>
     <g id="line2d_32">
      <g>
       <use xlink:href="#m5a1091ff8b" x="57.2725" y="98.995773" style="stroke: #000000; stroke-width: 0.8"/>
      </g>
     </g>
     <g id="text_17">
      <!-- 3 -->
      <g transform="translate(40.0925 105.074523) scale(0.16 -0.16)">
       <use xlink:href="#DejaVuSans-33"/>
      </g>
     </g>
    </g>
    <g id="ytick_8">
     <g id="line2d_33">
      <path d="M 57.2725 35.442911 
L 636.626269 35.442911 
" clip-path="url(#p49feb38938)" style="fill: none; stroke-dasharray: 2.96,1.28; stroke-dashoffset: 0; stroke: #b0b0b0; stroke-opacity: 0.7; stroke-width: 0.8"/>
     </g>
     <g id="line2d_34">
      <g>
       <use xlink:href="#m5a1091ff8b" x="57.2725" y="35.442911" style="stroke: #000000; stroke-width: 0.8"/>
      </g>
     </g>
     <g id="text_18">
      <!-- 4 -->
      <g transform="translate(40.0925 41.521661) scale(0.16 -0.16)">
       <defs>
        <path id="DejaVuSans-34" d="M 2419 4116 
L 825 1625 
L 2419 1625 
L 2419 4116 
z
M 2253 4666 
L 3047 4666 
L 3047 1625 
L 3713 1625 
L 3713 1100 
L 3047 1100 
L 3047 0 
L 2419 0 
L 2419 1100 
L 313 1100 
L 313 1709 
L 2253 4666 
z
" transform="scale(0.015625)"/>
       </defs>
       <use xlink:href="#DejaVuSans-34"/>
      </g>
     </g>
    </g>
    <g id="text_19">
     <!-- Rate of Change of Angle [°/%] -->
     <g transform="translate(19.3575 392.496922) rotate(-90) scale(0.16 -0.16)">
      <defs>
       <path id="DejaVuSans-52" d="M 2841 2188 
Q 3044 2119 3236 1894 
Q 3428 1669 3622 1275 
L 4263 0 
L 3584 0 
L 2988 1197 
Q 2756 1666 2539 1819 
Q 2322 1972 1947 1972 
L 1259 1972 
L 1259 0 
L 628 0 
L 628 4666 
L 2053 4666 
Q 2853 4666 3247 4331 
Q 3641 3997 3641 3322 
Q 3641 2881 3436 2590 
Q 3231 2300 2841 2188 
z
M 1259 4147 
L 1259 2491 
L 2053 2491 
Q 2509 2491 2742 2702 
Q 2975 2913 2975 3322 
Q 2975 3731 2742 3939 
Q 2509 4147 2053 4147 
L 1259 4147 
z
" transform="scale(0.015625)"/>
       <path id="DejaVuSans-61" d="M 2194 1759 
Q 1497 1759 1228 1600 
Q 959 1441 959 1056 
Q 959 750 1161 570 
Q 1363 391 1709 391 
Q 2188 391 2477 730 
Q 2766 1069 2766 1631 
L 2766 1759 
L 2194 1759 
z
M 3341 1997 
L 3341 0 
L 2766 0 
L 2766 531 
Q 2569 213 2275 61 
Q 1981 -91 1556 -91 
Q 1019 -91 701 211 
Q 384 513 384 1019 
Q 384 1609 779 1909 
Q 1175 2209 1959 2209 
L 2766 2209 
L 2766 2266 
Q 2766 2663 2505 2880 
Q 2244 3097 1772 3097 
Q 1472 3097 1187 3025 
Q 903 2953 641 2809 
L 641 3341 
Q 956 3463 1253 3523 
Q 1550 3584 1831 3584 
Q 2591 3584 2966 3190 
Q 3341 2797 3341 1997 
z
" transform="scale(0.015625)"/>
       <path id="DejaVuSans-6f" d="M 1959 3097 
Q 1497 3097 1228 2736 
Q 959 2375 959 1747 
Q 959 1119 1226 758 
Q 1494 397 1959 397 
Q 2419 397 2687 759 
Q 2956 1122 2956 1747 
Q 2956 2369 2687 2733 
Q 2419 3097 1959 3097 
z
M 1959 3584 
Q 2709 3584 3137 3096 
Q 3566 2609 3566 1747 
Q 3566 888 3137 398 
Q 2709 -91 1959 -91 
Q 1206 -91 779 398 
Q 353 888 353 1747 
Q 353 2609 779 3096 
Q 1206 3584 1959 3584 
z
" transform="scale(0.015625)"/>
       <path id="DejaVuSans-43" d="M 4122 4306 
L 4122 3641 
Q 3803 3938 3442 4084 
Q 3081 4231 2675 4231 
Q 1875 4231 1450 3742 
Q 1025 3253 1025 2328 
Q 1025 1406 1450 917 
Q 1875 428 2675 428 
Q 3081 428 3442 575 
Q 3803 722 4122 1019 
L 4122 359 
Q 3791 134 3420 21 
Q 3050 -91 2638 -91 
Q 1578 -91 968 557 
Q 359 1206 359 2328 
Q 359 3453 968 4101 
Q 1578 4750 2638 4750 
Q 3056 4750 3426 4639 
Q 3797 4528 4122 4306 
z
" transform="scale(0.015625)"/>
       <path id="DejaVuSans-68" d="M 3513 2113 
L 3513 0 
L 2938 0 
L 2938 2094 
Q 2938 2591 2744 2837 
Q 2550 3084 2163 3084 
Q 1697 3084 1428 2787 
Q 1159 2491 1159 1978 
L 1159 0 
L 581 0 
L 581 4863 
L 1159 4863 
L 1159 2956 
Q 1366 3272 1645 3428 
Q 1925 3584 2291 3584 
Q 2894 3584 3203 3211 
Q 3513 2838 3513 2113 
z
" transform="scale(0.015625)"/>
       <path id="DejaVuSans-67" d="M 2906 1791 
Q 2906 2416 2648 2759 
Q 2391 3103 1925 3103 
Q 1463 3103 1205 2759 
Q 947 2416 947 1791 
Q 947 1169 1205 825 
Q 1463 481 1925 481 
Q 2391 481 2648 825 
Q 2906 1169 2906 1791 
z
M 3481 434 
Q 3481 -459 3084 -895 
Q 2688 -1331 1869 -1331 
Q 1566 -1331 1297 -1286 
Q 1028 -1241 775 -1147 
L 775 -588 
Q 1028 -725 1275 -790 
Q 1522 -856 1778 -856 
Q 2344 -856 2625 -561 
Q 2906 -266 2906 331 
L 2906 616 
Q 2728 306 2450 153 
Q 2172 0 1784 0 
Q 1141 0 747 490 
Q 353 981 353 1791 
Q 353 2603 747 3093 
Q 1141 3584 1784 3584 
Q 2172 3584 2450 3431 
Q 2728 3278 2906 2969 
L 2906 3500 
L 3481 3500 
L 3481 434 
z
" transform="scale(0.015625)"/>
       <path id="DejaVuSans-41" d="M 2188 4044 
L 1331 1722 
L 3047 1722 
L 2188 4044 
z
M 1831 4666 
L 2547 4666 
L 4325 0 
L 3669 0 
L 3244 1197 
L 1141 1197 
L 716 0 
L 50 0 
L 1831 4666 
z
" transform="scale(0.015625)"/>
       <path id="DejaVuSans-b0" d="M 1600 4347 
Q 1350 4347 1178 4173 
Q 1006 4000 1006 3750 
Q 1006 3503 1178 3333 
Q 1350 3163 1600 3163 
Q 1850 3163 2022 3333 
Q 2194 3503 2194 3750 
Q 2194 3997 2020 4172 
Q 1847 4347 1600 4347 
z
M 1600 4750 
Q 1800 4750 1984 4673 
Q 2169 4597 2303 4453 
Q 2447 4313 2519 4134 
Q 2591 3956 2591 3750 
Q 2591 3338 2302 3052 
Q 2013 2766 1594 2766 
Q 1172 2766 890 3047 
Q 609 3328 609 3750 
Q 609 4169 896 4459 
Q 1184 4750 1600 4750 
z
" transform="scale(0.015625)"/>
       <path id="DejaVuSans-2f" d="M 1625 4666 
L 2156 4666 
L 531 -594 
L 0 -594 
L 1625 4666 
z
" transform="scale(0.015625)"/>
      </defs>
      <use xlink:href="#DejaVuSans-52"/>
      <use xlink:href="#DejaVuSans-61" x="67.232422"/>
      <use xlink:href="#DejaVuSans-74" x="128.511719"/>
      <use xlink:href="#DejaVuSans-65" x="167.720703"/>
      <use xlink:href="#DejaVuSans-20" x="229.244141"/>
      <use xlink:href="#DejaVuSans-6f" x="261.03125"/>
      <use xlink:href="#DejaVuSans-66" x="322.212891"/>
      <use xlink:href="#DejaVuSans-20" x="357.417969"/>
      <use xlink:href="#DejaVuSans-43" x="389.205078"/>
      <use xlink:href="#DejaVuSans-68" x="459.029297"/>
      <use xlink:href="#DejaVuSans-61" x="522.408203"/>
      <use xlink:href="#DejaVuSans-6e" x="583.6875"/>
      <use xlink:href="#DejaVuSans-67" x="647.066406"/>
      <use xlink:href="#DejaVuSans-65" x="710.542969"/>
      <use xlink:href="#DejaVuSans-20" x="772.066406"/>
      <use xlink:href="#DejaVuSans-6f" x="803.853516"/>
      <use xlink:href="#DejaVuSans-66" x="865.035156"/>
      <use xlink:href="#DejaVuSans-20" x="900.240234"/>
      <use xlink:href="#DejaVuSans-41" x="932.027344"/>
      <use xlink:href="#DejaVuSans-6e" x="1000.435547"/>
      <use xlink:href="#DejaVuSans-67" x="1063.814453"/>
      <use xlink:href="#DejaVuSans-6c" x="1127.291016"/>
      <use xlink:href="#DejaVuSans-65" x="1155.074219"/>
      <use xlink:href="#DejaVuSans-20" x="1216.597656"/>
      <use xlink:href="#DejaVuSans-5b" x="1248.384766"/>
      <use xlink:href="#DejaVuSans-b0" x="1287.398438"/>
      <use xlink:href="#DejaVuSans-2f" x="1337.398438"/>
      <use xlink:href="#DejaVuSans-25" x="1371.089844"/>
      <use xlink:href="#DejaVuSans-5d" x="1466.109375"/>
     </g>
    </g>
   </g>
   <g id="line2d_35">
    <path d="M 83.606762 441.345061 
L 89.843824 416.421398 
L 96.080886 408.217027 
L 102.317949 405.777622 
L 108.555011 406.742143 
L 114.792073 401.485553 
L 121.029135 391.208112 
L 127.266197 389.513584 
L 133.503259 393.337693 
L 139.740321 412.881913 
L 145.977383 410.492393 
L 152.214445 386.856218 
L 158.451508 360.362054 
L 164.68857 382.044268 
L 170.925632 400.487936 
L 177.162694 400.046522 
L 183.399756 396.105388 
L 189.636818 398.744074 
L 195.87388 391.232177 
L 202.110942 396.01869 
L 208.348004 399.887642 
L 214.585066 387.392603 
L 220.822129 375.71864 
L 227.059191 387.036508 
L 233.296253 389.39579 
L 239.533315 374.031018 
L 245.770377 367.033583 
L 252.007439 348.193317 
L 258.244501 331.808711 
L 264.481563 357.246923 
L 270.718625 372.84747 
L 276.955688 376.68342 
L 283.19275 380.506727 
L 289.429812 383.050565 
L 295.666874 378.183681 
L 301.903936 371.237647 
L 308.140998 360.360251 
L 314.37806 356.067512 
L 320.615122 362.070694 
L 326.852184 379.826563 
L 333.089246 383.616306 
" clip-path="url(#p49feb38938)" style="fill: none; stroke: #1f77b4; stroke-width: 1.5; stroke-linecap: square"/>
   </g>
   <g id="line2d_36">
    <path d="M 83.606762 441.345061 
L 89.843824 431.865317 
L 96.080886 429.192509 
L 102.317949 445.271912 
L 108.555011 459.797153 
L 114.792073 440.724878 
L 121.029135 429.376888 
L 127.266197 426.059507 
L 133.503259 435.411642 
L 139.740321 433.769422 
L 145.977383 440.597395 
L 152.214445 427.778807 
L 158.451508 427.964636 
L 164.68857 421.312242 
L 170.925632 414.170342 
L 177.162694 415.837074 
L 183.399756 422.706373 
L 189.636818 409.297643 
L 195.87388 407.75488 
L 202.110942 409.155421 
L 208.348004 413.726342 
L 214.585066 417.902137 
L 220.822129 414.937003 
L 227.059191 406.689613 
L 233.296253 422.606142 
L 239.533315 435.966029 
L 245.770377 408.875442 
L 252.007439 399.601936 
L 258.244501 400.964783 
L 264.481563 393.576852 
L 270.718625 398.650698 
L 276.955688 407.768413 
L 283.19275 419.557906 
L 289.429812 408.260003 
L 295.666874 393.928126 
L 301.903936 390.826185 
L 308.140998 398.312072 
L 314.37806 391.725505 
L 320.615122 383.144132 
L 326.852184 386.118355 
L 333.089246 383.616306 
" clip-path="url(#p49feb38938)" style="fill: none; stroke: #1f77b4; stroke-width: 1.5; stroke-linecap: square"/>
   </g>
   <g id="line2d_37">
    <path d="M 373.283647 226.235044 
L 379.520709 156.292781 
L 385.757771 144.686943 
L 391.994833 152.925612 
L 398.231895 171.256351 
L 404.468957 198.955544 
L 410.706019 185.446728 
L 416.943081 173.202064 
L 423.180144 180.735324 
L 429.417206 178.218933 
L 435.654268 165.131994 
L 441.89133 181.698872 
L 448.128392 176.305537 
L 454.365454 172.199833 
L 460.602516 165.403602 
L 466.839578 154.410038 
L 473.07664 151.876578 
L 479.313703 168.12353 
L 485.550765 163.535178 
L 491.787827 163.107465 
L 498.024889 155.49473 
L 504.261951 164.273412 
L 510.499013 174.682758 
L 516.736075 174.712861 
L 522.973137 169.308468 
L 529.210199 159.263635 
L 535.447261 149.359702 
L 541.684324 155.394565 
L 547.921386 158.175899 
L 554.158448 160.556705 
L 560.39551 139.864583 
L 566.632572 145.683839 
L 572.869634 160.69057 
L 579.106696 161.952978 
L 585.343758 156.964736 
L 591.58082 156.965158 
L 597.817883 154.658666 
L 604.054945 147.317587 
L 610.292007 144.768128 
" clip-path="url(#p49feb38938)" style="fill: none; stroke: #1f77b4; stroke-width: 1.5; stroke-linecap: square"/>
   </g>
   <g id="line2d_38">
    <path d="M 373.283647 226.235044 
L 379.520709 195.452123 
L 385.757771 179.102235 
L 391.994833 201.112207 
L 398.231895 209.155838 
L 404.468957 207.009428 
L 410.706019 226.238234 
L 416.943081 215.271871 
L 423.180144 206.079204 
L 429.417206 214.965779 
L 435.654268 231.903496 
L 441.89133 228.567163 
L 448.128392 232.853152 
L 454.365454 206.742966 
L 460.602516 181.413443 
L 466.839578 192.283763 
L 473.07664 207.87217 
L 479.313703 190.857353 
L 485.550765 193.806474 
L 491.787827 192.153975 
L 498.024889 200.925028 
L 504.261951 188.523939 
L 510.499013 182.882506 
L 516.736075 192.573401 
L 522.973137 186.828549 
L 529.210199 182.974481 
L 535.447261 182.451854 
L 541.684324 189.890123 
L 547.921386 207.191553 
L 554.158448 184.189636 
L 560.39551 182.782451 
L 566.632572 179.690353 
L 572.869634 179.960388 
L 579.106696 185.736489 
L 585.343758 184.146578 
L 591.58082 178.962795 
L 597.817883 173.006376 
L 604.054945 170.792394 
L 610.292007 173.748278 
" clip-path="url(#p49feb38938)" style="fill: none; stroke: #1f77b4; stroke-width: 1.5; stroke-linecap: square"/>
   </g>
   <g id="line2d_39">
    <path d="M 83.606762 444.3469 
L 89.843824 390.260446 
L 96.080886 383.649036 
L 102.317949 428.097793 
L 108.555011 398.503027 
L 114.792073 365.364422 
L 121.029135 355.044837 
L 127.266197 396.456004 
L 133.503259 397.05591 
L 139.740321 378.729159 
L 145.977383 350.9513 
L 152.214445 385.227954 
L 158.451508 365.481464 
L 164.68857 371.791472 
L 170.925632 354.357658 
L 177.162694 363.786637 
L 183.399756 373.218344 
L 189.636818 355.952387 
L 195.87388 342.846448 
L 202.110942 345.969812 
L 208.348004 339.565588 
L 214.585066 393.726315 
L 220.822129 399.045437 
L 227.059191 396.408668 
L 233.296253 389.426195 
L 239.533315 358.958719 
L 245.770377 345.592304 
L 252.007439 362.940295 
L 258.244501 371.937208 
L 264.481563 373.14995 
L 270.718625 356.8145 
L 276.955688 357.426608 
L 283.19275 358.656607 
L 289.429812 362.718491 
L 295.666874 296.054221 
L 301.903936 347.552776 
L 308.140998 375.349418 
L 314.37806 378.028945 
L 320.615122 329.379667 
L 326.852184 354.77455 
L 333.089246 392.079379 
" clip-path="url(#p49feb38938)" style="fill: none; stroke: #ff7f0e; stroke-width: 1.5; stroke-linecap: square"/>
   </g>
   <g id="line2d_40">
    <path d="M 83.606762 444.3469 
L 89.843824 436.273003 
L 96.080886 440.994338 
L 102.317949 433.857869 
L 108.555011 467.366302 
L 114.792073 449.219944 
L 121.029135 435.251775 
L 127.266197 449.330115 
L 133.503259 486.299247 
L 139.740321 489.280629 
L 145.977383 463.782903 
L 152.214445 436.708656 
L 158.451508 459.806547 
L 164.68857 424.968571 
L 170.925632 433.077286 
L 177.162694 439.800727 
L 183.399756 433.433287 
L 189.636818 419.022785 
L 195.87388 403.824628 
L 202.110942 388.109574 
L 208.348004 402.170891 
L 214.585066 421.236844 
L 220.822129 475.108078 
L 227.059191 478.160943 
L 233.296253 441.264993 
L 239.533315 407.176264 
L 245.770377 408.661381 
L 252.007439 417.192829 
L 258.244501 427.999544 
L 264.481563 451.880733 
L 270.718625 484.232582 
L 276.955688 483.335707 
L 283.19275 469.129301 
L 289.429812 417.771204 
L 295.666874 421.248708 
L 301.903936 410.335356 
L 308.140998 434.14714 
L 314.37806 407.593444 
L 320.615122 427.022579 
L 326.852184 462.202559 
L 333.089246 392.079379 
" clip-path="url(#p49feb38938)" style="fill: none; stroke: #ff7f0e; stroke-width: 1.5; stroke-linecap: square"/>
   </g>
   <g id="line2d_41">
    <path d="M 373.283647 88.607831 
L 379.520709 157.12802 
L 385.757771 177.710697 
L 391.994833 187.289562 
L 398.231895 158.031164 
L 404.468957 154.933272 
L 410.706019 167.598987 
L 416.943081 158.007133 
L 423.180144 135.621622 
L 429.417206 158.639116 
L 435.654268 149.399705 
L 441.89133 143.930266 
L 448.128392 141.852715 
L 454.365454 130.792537 
L 460.602516 99.704303 
L 466.839578 117.838101 
L 473.07664 124.172675 
L 479.313703 120.032886 
L 485.550765 71.179969 
L 491.787827 134.312473 
L 498.024889 156.084029 
L 504.261951 141.962765 
L 510.499013 140.896409 
L 516.736075 112.963975 
L 522.973137 97.829017 
L 529.210199 122.858006 
L 535.447261 125.110125 
L 541.684324 153.167158 
L 547.921386 170.317798 
L 554.158448 158.880423 
L 560.39551 69.238555 
L 566.632572 65.059415 
L 572.869634 97.42676 
L 579.106696 132.026197 
L 585.343758 154.60324 
L 591.58082 133.717836 
L 597.817883 88.659621 
L 604.054945 54.893214 
L 610.292007 82.013657 
" clip-path="url(#p49feb38938)" style="fill: none; stroke: #ff7f0e; stroke-width: 1.5; stroke-linecap: square"/>
   </g>
   <g id="line2d_42">
    <path d="M 373.283647 88.607831 
L 379.520709 171.318078 
L 385.757771 241.532611 
L 391.994833 225.093458 
L 398.231895 242.71283 
L 404.468957 239.540935 
L 410.706019 238.698031 
L 416.943081 227.984271 
L 423.180144 220.362069 
L 429.417206 214.523872 
L 435.654268 249.381024 
L 441.89133 248.274858 
L 448.128392 228.480404 
L 454.365454 205.945948 
L 460.602516 229.734092 
L 466.839578 252.7144 
L 473.07664 250.183859 
L 479.313703 235.223756 
L 485.550765 269.889785 
L 491.787827 268.851991 
L 498.024889 290.551697 
L 504.261951 254.749197 
L 510.499013 217.230942 
L 516.736075 225.677295 
L 522.973137 223.476692 
L 529.210199 207.473274 
L 535.447261 236.524428 
L 541.684324 236.53564 
L 547.921386 254.32427 
L 554.158448 219.323258 
L 560.39551 226.658587 
L 566.632572 196.511452 
L 572.869634 192.360911 
L 579.106696 224.755115 
L 585.343758 217.592463 
L 591.58082 213.270881 
L 597.817883 220.099903 
L 604.054945 231.257538 
L 610.292007 215.016786 
" clip-path="url(#p49feb38938)" style="fill: none; stroke: #ff7f0e; stroke-width: 1.5; stroke-linecap: square"/>
   </g>
   <g id="patch_3">
    <path d="M 57.2725 511 
L 57.2725 33.173843 
" style="fill: none; stroke: #000000; stroke-width: 0.8; stroke-linejoin: miter; stroke-linecap: square"/>
   </g>
   <g id="patch_4">
    <path d="M 636.626269 511 
L 636.626269 33.173843 
" style="fill: none; stroke: #000000; stroke-width: 0.8; stroke-linejoin: miter; stroke-linecap: square"/>
   </g>
   <g id="patch_5">
    <path d="M 57.2725 511 
L 636.626269 511 
" style="fill: none; stroke: #000000; stroke-width: 0.8; stroke-linejoin: miter; stroke-linecap: square"/>
   </g>
   <g id="patch_6">
    <path d="M 57.2725 33.173843 
L 636.626269 33.173843 
" style="fill: none; stroke: #000000; stroke-width: 0.8; stroke-linejoin: miter; stroke-linecap: square"/>
   </g>
   <g id="legend_1">
    <g id="patch_7">
     <path d="M 64.2725 70.530093 
L 132.61 70.530093 
Q 134.61 70.530093 134.61 68.530093 
L 134.61 40.173843 
Q 134.61 38.173843 132.61 38.173843 
L 64.2725 38.173843 
Q 62.2725 38.173843 62.2725 40.173843 
L 62.2725 68.530093 
Q 62.2725 70.530093 64.2725 70.530093 
z
" style="fill: #ffffff; opacity: 0.8; stroke: #cccccc; stroke-linejoin: miter"/>
    </g>
    <g id="line2d_43">
     <path d="M 66.2725 46.272281 
L 76.2725 46.272281 
L 86.2725 46.272281 
" style="fill: none; stroke: #1f77b4; stroke-width: 1.5; stroke-linecap: square"/>
    </g>
    <g id="text_20">
     <!-- Auto -->
     <g transform="translate(94.2725 49.772281) scale(0.1 -0.1)">
      <defs>
       <path id="DejaVuSans-75" d="M 544 1381 
L 544 3500 
L 1119 3500 
L 1119 1403 
Q 1119 906 1312 657 
Q 1506 409 1894 409 
Q 2359 409 2629 706 
Q 2900 1003 2900 1516 
L 2900 3500 
L 3475 3500 
L 3475 0 
L 2900 0 
L 2900 538 
Q 2691 219 2414 64 
Q 2138 -91 1772 -91 
Q 1169 -91 856 284 
Q 544 659 544 1381 
z
M 1991 3584 
L 1991 3584 
z
" transform="scale(0.015625)"/>
      </defs>
      <use xlink:href="#DejaVuSans-41"/>
      <use xlink:href="#DejaVuSans-75" x="68.408203"/>
      <use xlink:href="#DejaVuSans-74" x="131.787109"/>
      <use xlink:href="#DejaVuSans-6f" x="170.996094"/>
     </g>
    </g>
    <g id="line2d_44">
     <path d="M 66.2725 60.950406 
L 76.2725 60.950406 
L 86.2725 60.950406 
" style="fill: none; stroke: #ff7f0e; stroke-width: 1.5; stroke-linecap: square"/>
    </g>
    <g id="text_21">
     <!-- Manual -->
     <g transform="translate(94.2725 64.450406) scale(0.1 -0.1)">
      <defs>
       <path id="DejaVuSans-4d" d="M 628 4666 
L 1569 4666 
L 2759 1491 
L 3956 4666 
L 4897 4666 
L 4897 0 
L 4281 0 
L 4281 4097 
L 3078 897 
L 2444 897 
L 1241 4097 
L 1241 0 
L 628 0 
L 628 4666 
z
" transform="scale(0.015625)"/>
      </defs>
      <use xlink:href="#DejaVuSans-4d"/>
      <use xlink:href="#DejaVuSans-61" x="86.279297"/>
      <use xlink:href="#DejaVuSans-6e" x="147.558594"/>
      <use xlink:href="#DejaVuSans-75" x="210.9375"/>
      <use xlink:href="#DejaVuSans-61" x="274.316406"/>
      <use xlink:href="#DejaVuSans-6c" x="335.595703"/>
     </g>
    </g>
   </g>
  </g>
  <g id="axes_2">
   <g id="patch_8">
    <path d="M 701.178731 511 
L 1280.5325 511 
L 1280.5325 33.173843 
L 701.178731 33.173843 
z
" style="fill: #ffffff"/>
   </g>
   <g id="PathCollection_1">
    <defs>
     <path id="m4ee50149ab" d="M 0 3.535534 
C 0.937635 3.535534 1.836992 3.163008 2.5 2.5 
C 3.163008 1.836992 3.535534 0.937635 3.535534 0 
C 3.535534 -0.937635 3.163008 -1.836992 2.5 -2.5 
C 1.836992 -3.163008 0.937635 -3.535534 0 -3.535534 
C -0.937635 -3.535534 -1.836992 -3.163008 -2.5 -2.5 
C -3.163008 -1.836992 -3.535534 -0.937635 -3.535534 0 
C -3.535534 0.937635 -3.163008 1.836992 -2.5 2.5 
C -1.836992 3.163008 -0.937635 3.535534 0 3.535534 
z
" style="stroke: #000000; stroke-opacity: 0.7"/>
    </defs>
    <g clip-path="url(#peee741252a)">
     <use xlink:href="#m4ee50149ab" x="862.377298" y="364.914286" style="fill: #1f77b4; fill-opacity: 0.7; stroke: #000000; stroke-opacity: 0.7"/>
     <use xlink:href="#m4ee50149ab" x="860.879254" y="213.396219" style="fill: #1f77b4; fill-opacity: 0.7; stroke: #000000; stroke-opacity: 0.7"/>
     <use xlink:href="#m4ee50149ab" x="868.033981" y="299.688874" style="fill: #1f77b4; fill-opacity: 0.7; stroke: #000000; stroke-opacity: 0.7"/>
     <use xlink:href="#m4ee50149ab" x="878.498954" y="301.550542" style="fill: #1f77b4; fill-opacity: 0.7; stroke: #000000; stroke-opacity: 0.7"/>
     <use xlink:href="#m4ee50149ab" x="876.557876" y="275.663281" style="fill: #1f77b4; fill-opacity: 0.7; stroke: #000000; stroke-opacity: 0.7"/>
    </g>
   </g>
   <g id="PathCollection_2">
    <defs>
     <path id="m24211066e4" d="M 0 3.535534 
C 0.937635 3.535534 1.836992 3.163008 2.5 2.5 
C 3.163008 1.836992 3.535534 0.937635 3.535534 0 
C 3.535534 -0.937635 3.163008 -1.836992 2.5 -2.5 
C 1.836992 -3.163008 0.937635 -3.535534 0 -3.535534 
C -0.937635 -3.535534 -1.836992 -3.163008 -2.5 -2.5 
C -3.163008 -1.836992 -3.535534 -0.937635 -3.535534 0 
C -3.535534 0.937635 -3.163008 1.836992 -2.5 2.5 
C -1.836992 3.163008 -0.937635 3.535534 0 3.535534 
z
" style="stroke: #000000; stroke-opacity: 0.7"/>
    </defs>
    <g clip-path="url(#peee741252a)">
     <use xlink:href="#m24211066e4" x="1112.005837" y="148.903542" style="fill: #ff7f0e; fill-opacity: 0.7; stroke: #000000; stroke-opacity: 0.7"/>
     <use xlink:href="#m24211066e4" x="1140.395849" y="132.128953" style="fill: #ff7f0e; fill-opacity: 0.7; stroke: #000000; stroke-opacity: 0.7"/>
     <use xlink:href="#m24211066e4" x="1107.850326" y="174.592726" style="fill: #ff7f0e; fill-opacity: 0.7; stroke: #000000; stroke-opacity: 0.7"/>
     <use xlink:href="#m24211066e4" x="1114.637613" y="52.559551" style="fill: #ff7f0e; fill-opacity: 0.7; stroke: #000000; stroke-opacity: 0.7"/>
     <use xlink:href="#m24211066e4" x="1107.862825" y="124.304765" style="fill: #ff7f0e; fill-opacity: 0.7; stroke: #000000; stroke-opacity: 0.7"/>
    </g>
   </g>
   <g id="matplotlib.axis_3">
    <g id="xtick_10">
     <g id="line2d_45">
      <g>
       <use xlink:href="#m52d6740373" x="871.576898" y="511" style="stroke: #000000; stroke-width: 0.8"/>
      </g>
     </g>
     <g id="text_22">
      <!-- Automatic -->
      <g transform="translate(830.550648 530.1575) scale(0.16 -0.16)">
       <defs>
        <path id="DejaVuSans-6d" d="M 3328 2828 
Q 3544 3216 3844 3400 
Q 4144 3584 4550 3584 
Q 5097 3584 5394 3201 
Q 5691 2819 5691 2113 
L 5691 0 
L 5113 0 
L 5113 2094 
Q 5113 2597 4934 2840 
Q 4756 3084 4391 3084 
Q 3944 3084 3684 2787 
Q 3425 2491 3425 1978 
L 3425 0 
L 2847 0 
L 2847 2094 
Q 2847 2600 2669 2842 
Q 2491 3084 2119 3084 
Q 1678 3084 1418 2786 
Q 1159 2488 1159 1978 
L 1159 0 
L 581 0 
L 581 3500 
L 1159 3500 
L 1159 2956 
Q 1356 3278 1631 3431 
Q 1906 3584 2284 3584 
Q 2666 3584 2933 3390 
Q 3200 3197 3328 2828 
z
" transform="scale(0.015625)"/>
        <path id="DejaVuSans-69" d="M 603 3500 
L 1178 3500 
L 1178 0 
L 603 0 
L 603 3500 
z
M 603 4863 
L 1178 4863 
L 1178 4134 
L 603 4134 
L 603 4863 
z
" transform="scale(0.015625)"/>
       </defs>
       <use xlink:href="#DejaVuSans-41"/>
       <use xlink:href="#DejaVuSans-75" x="68.408203"/>
       <use xlink:href="#DejaVuSans-74" x="131.787109"/>
       <use xlink:href="#DejaVuSans-6f" x="170.996094"/>
       <use xlink:href="#DejaVuSans-6d" x="232.177734"/>
       <use xlink:href="#DejaVuSans-61" x="329.589844"/>
       <use xlink:href="#DejaVuSans-74" x="390.869141"/>
       <use xlink:href="#DejaVuSans-69" x="430.078125"/>
       <use xlink:href="#DejaVuSans-63" x="457.861328"/>
      </g>
     </g>
    </g>
    <g id="xtick_11">
     <g id="line2d_46">
      <g>
       <use xlink:href="#m52d6740373" x="1110.134333" y="511" style="stroke: #000000; stroke-width: 0.8"/>
      </g>
     </g>
     <g id="text_23">
      <!-- Manual -->
      <g transform="translate(1081.064333 530.1575) scale(0.16 -0.16)">
       <use xlink:href="#DejaVuSans-4d"/>
       <use xlink:href="#DejaVuSans-61" x="86.279297"/>
       <use xlink:href="#DejaVuSans-6e" x="147.558594"/>
       <use xlink:href="#DejaVuSans-75" x="210.9375"/>
       <use xlink:href="#DejaVuSans-61" x="274.316406"/>
       <use xlink:href="#DejaVuSans-6c" x="335.595703"/>
      </g>
     </g>
    </g>
   </g>
   <g id="matplotlib.axis_4">
    <g id="ytick_9">
     <g id="line2d_47">
      <path d="M 701.178731 511 
L 1280.5325 511 
" clip-path="url(#peee741252a)" style="fill: none; stroke: #b0b0b0; stroke-width: 0.8; stroke-linecap: square"/>
     </g>
     <g id="line2d_48">
      <g>
       <use xlink:href="#m5a1091ff8b" x="701.178731" y="511" style="stroke: #000000; stroke-width: 0.8"/>
      </g>
     </g>
     <g id="text_24">
      <!-- 0 -->
      <g transform="translate(683.998731 517.07875) scale(0.16 -0.16)">
       <use xlink:href="#DejaVuSans-30"/>
      </g>
     </g>
    </g>
    <g id="ytick_10">
     <g id="line2d_49">
      <path d="M 701.178731 446.380973 
L 1280.5325 446.380973 
" clip-path="url(#peee741252a)" style="fill: none; stroke: #b0b0b0; stroke-width: 0.8; stroke-linecap: square"/>
     </g>
     <g id="line2d_50">
      <g>
       <use xlink:href="#m5a1091ff8b" x="701.178731" y="446.380973" style="stroke: #000000; stroke-width: 0.8"/>
      </g>
     </g>
     <g id="text_25">
      <!-- 10 -->
      <g transform="translate(673.818731 452.459723) scale(0.16 -0.16)">
       <use xlink:href="#DejaVuSans-31"/>
       <use xlink:href="#DejaVuSans-30" x="63.623047"/>
      </g>
     </g>
    </g>
    <g id="ytick_11">
     <g id="line2d_51">
      <path d="M 701.178731 381.761946 
L 1280.5325 381.761946 
" clip-path="url(#peee741252a)" style="fill: none; stroke: #b0b0b0; stroke-width: 0.8; stroke-linecap: square"/>
     </g>
     <g id="line2d_52">
      <g>
       <use xlink:href="#m5a1091ff8b" x="701.178731" y="381.761946" style="stroke: #000000; stroke-width: 0.8"/>
      </g>
     </g>
     <g id="text_26">
      <!-- 20 -->
      <g transform="translate(673.818731 387.840696) scale(0.16 -0.16)">
       <use xlink:href="#DejaVuSans-32"/>
       <use xlink:href="#DejaVuSans-30" x="63.623047"/>
      </g>
     </g>
    </g>
    <g id="ytick_12">
     <g id="line2d_53">
      <path d="M 701.178731 317.142919 
L 1280.5325 317.142919 
" clip-path="url(#peee741252a)" style="fill: none; stroke: #b0b0b0; stroke-width: 0.8; stroke-linecap: square"/>
     </g>
     <g id="line2d_54">
      <g>
       <use xlink:href="#m5a1091ff8b" x="701.178731" y="317.142919" style="stroke: #000000; stroke-width: 0.8"/>
      </g>
     </g>
     <g id="text_27">
      <!-- 30 -->
      <g transform="translate(673.818731 323.221669) scale(0.16 -0.16)">
       <use xlink:href="#DejaVuSans-33"/>
       <use xlink:href="#DejaVuSans-30" x="63.623047"/>
      </g>
     </g>
    </g>
    <g id="ytick_13">
     <g id="line2d_55">
      <path d="M 701.178731 252.523893 
L 1280.5325 252.523893 
" clip-path="url(#peee741252a)" style="fill: none; stroke: #b0b0b0; stroke-width: 0.8; stroke-linecap: square"/>
     </g>
     <g id="line2d_56">
      <g>
       <use xlink:href="#m5a1091ff8b" x="701.178731" y="252.523893" style="stroke: #000000; stroke-width: 0.8"/>
      </g>
     </g>
     <g id="text_28">
      <!-- 40 -->
      <g transform="translate(673.818731 258.602643) scale(0.16 -0.16)">
       <use xlink:href="#DejaVuSans-34"/>
       <use xlink:href="#DejaVuSans-30" x="63.623047"/>
      </g>
     </g>
    </g>
    <g id="ytick_14">
     <g id="line2d_57">
      <path d="M 701.178731 187.904866 
L 1280.5325 187.904866 
" clip-path="url(#peee741252a)" style="fill: none; stroke: #b0b0b0; stroke-width: 0.8; stroke-linecap: square"/>
     </g>
     <g id="line2d_58">
      <g>
       <use xlink:href="#m5a1091ff8b" x="701.178731" y="187.904866" style="stroke: #000000; stroke-width: 0.8"/>
      </g>
     </g>
     <g id="text_29">
      <!-- 50 -->
      <g transform="translate(673.818731 193.983616) scale(0.16 -0.16)">
       <use xlink:href="#DejaVuSans-35"/>
       <use xlink:href="#DejaVuSans-30" x="63.623047"/>
      </g>
     </g>
    </g>
    <g id="ytick_15">
     <g id="line2d_59">
      <path d="M 701.178731 123.285839 
L 1280.5325 123.285839 
" clip-path="url(#peee741252a)" style="fill: none; stroke: #b0b0b0; stroke-width: 0.8; stroke-linecap: square"/>
     </g>
     <g id="line2d_60">
      <g>
       <use xlink:href="#m5a1091ff8b" x="701.178731" y="123.285839" style="stroke: #000000; stroke-width: 0.8"/>
      </g>
     </g>
     <g id="text_30">
      <!-- 60 -->
      <g transform="translate(673.818731 129.364589) scale(0.16 -0.16)">
       <defs>
        <path id="DejaVuSans-36" d="M 2113 2584 
Q 1688 2584 1439 2293 
Q 1191 2003 1191 1497 
Q 1191 994 1439 701 
Q 1688 409 2113 409 
Q 2538 409 2786 701 
Q 3034 994 3034 1497 
Q 3034 2003 2786 2293 
Q 2538 2584 2113 2584 
z
M 3366 4563 
L 3366 3988 
Q 3128 4100 2886 4159 
Q 2644 4219 2406 4219 
Q 1781 4219 1451 3797 
Q 1122 3375 1075 2522 
Q 1259 2794 1537 2939 
Q 1816 3084 2150 3084 
Q 2853 3084 3261 2657 
Q 3669 2231 3669 1497 
Q 3669 778 3244 343 
Q 2819 -91 2113 -91 
Q 1303 -91 875 529 
Q 447 1150 447 2328 
Q 447 3434 972 4092 
Q 1497 4750 2381 4750 
Q 2619 4750 2861 4703 
Q 3103 4656 3366 4563 
z
" transform="scale(0.015625)"/>
       </defs>
       <use xlink:href="#DejaVuSans-36"/>
       <use xlink:href="#DejaVuSans-30" x="63.623047"/>
      </g>
     </g>
    </g>
    <g id="ytick_16">
     <g id="line2d_61">
      <path d="M 701.178731 58.666812 
L 1280.5325 58.666812 
" clip-path="url(#peee741252a)" style="fill: none; stroke: #b0b0b0; stroke-width: 0.8; stroke-linecap: square"/>
     </g>
     <g id="line2d_62">
      <g>
       <use xlink:href="#m5a1091ff8b" x="701.178731" y="58.666812" style="stroke: #000000; stroke-width: 0.8"/>
      </g>
     </g>
     <g id="text_31">
      <!-- 70 -->
      <g transform="translate(673.818731 64.745562) scale(0.16 -0.16)">
       <use xlink:href="#DejaVuSans-37"/>
       <use xlink:href="#DejaVuSans-30" x="63.623047"/>
      </g>
     </g>
    </g>
    <g id="text_32">
     <!-- Coefficient of Variation (%) -->
     <g transform="translate(666.491231 379.770672) rotate(-90) scale(0.16 -0.16)">
      <defs>
       <path id="DejaVuSans-56" d="M 1831 0 
L 50 4666 
L 709 4666 
L 2188 738 
L 3669 4666 
L 4325 4666 
L 2547 0 
L 1831 0 
z
" transform="scale(0.015625)"/>
       <path id="DejaVuSans-28" d="M 1984 4856 
Q 1566 4138 1362 3434 
Q 1159 2731 1159 2009 
Q 1159 1288 1364 580 
Q 1569 -128 1984 -844 
L 1484 -844 
Q 1016 -109 783 600 
Q 550 1309 550 2009 
Q 550 2706 781 3412 
Q 1013 4119 1484 4856 
L 1984 4856 
z
" transform="scale(0.015625)"/>
       <path id="DejaVuSans-29" d="M 513 4856 
L 1013 4856 
Q 1481 4119 1714 3412 
Q 1947 2706 1947 2009 
Q 1947 1309 1714 600 
Q 1481 -109 1013 -844 
L 513 -844 
Q 928 -128 1133 580 
Q 1338 1288 1338 2009 
Q 1338 2731 1133 3434 
Q 928 4138 513 4856 
z
" transform="scale(0.015625)"/>
      </defs>
      <use xlink:href="#DejaVuSans-43"/>
      <use xlink:href="#DejaVuSans-6f" x="69.824219"/>
      <use xlink:href="#DejaVuSans-65" x="131.005859"/>
      <use xlink:href="#DejaVuSans-66" x="192.529297"/>
      <use xlink:href="#DejaVuSans-66" x="227.734375"/>
      <use xlink:href="#DejaVuSans-69" x="262.939453"/>
      <use xlink:href="#DejaVuSans-63" x="290.722656"/>
      <use xlink:href="#DejaVuSans-69" x="345.703125"/>
      <use xlink:href="#DejaVuSans-65" x="373.486328"/>
      <use xlink:href="#DejaVuSans-6e" x="435.009766"/>
      <use xlink:href="#DejaVuSans-74" x="498.388672"/>
      <use xlink:href="#DejaVuSans-20" x="537.597656"/>
      <use xlink:href="#DejaVuSans-6f" x="569.384766"/>
      <use xlink:href="#DejaVuSans-66" x="630.566406"/>
      <use xlink:href="#DejaVuSans-20" x="665.771484"/>
      <use xlink:href="#DejaVuSans-56" x="697.558594"/>
      <use xlink:href="#DejaVuSans-61" x="758.216797"/>
      <use xlink:href="#DejaVuSans-72" x="819.496094"/>
      <use xlink:href="#DejaVuSans-69" x="860.609375"/>
      <use xlink:href="#DejaVuSans-61" x="888.392578"/>
      <use xlink:href="#DejaVuSans-74" x="949.671875"/>
      <use xlink:href="#DejaVuSans-69" x="988.880859"/>
      <use xlink:href="#DejaVuSans-6f" x="1016.664062"/>
      <use xlink:href="#DejaVuSans-6e" x="1077.845703"/>
      <use xlink:href="#DejaVuSans-20" x="1141.224609"/>
      <use xlink:href="#DejaVuSans-28" x="1173.011719"/>
      <use xlink:href="#DejaVuSans-25" x="1212.025391"/>
      <use xlink:href="#DejaVuSans-29" x="1307.044922"/>
     </g>
    </g>
   </g>
   <g id="patch_9">
    <path d="M 786.377815 301.550542 
L 956.775982 301.550542 
L 956.775982 275.663281 
L 786.377815 275.663281 
L 786.377815 301.550542 
z
" clip-path="url(#peee741252a)" style="fill: #1f77b4; opacity: 0.7; stroke: #000000; stroke-linejoin: miter"/>
   </g>
   <g id="line2d_63">
    <path d="M 871.576898 301.550542 
L 871.576898 364.914286 
" clip-path="url(#peee741252a)" style="fill: none; stroke: #000000; stroke-linecap: square"/>
   </g>
   <g id="line2d_64">
    <path d="M 871.576898 275.663281 
L 871.576898 213.396219 
" clip-path="url(#peee741252a)" style="fill: none; stroke: #000000; stroke-linecap: square"/>
   </g>
   <g id="line2d_65">
    <path d="M 828.977357 364.914286 
L 914.17644 364.914286 
" clip-path="url(#peee741252a)" style="fill: none; stroke: #000000; stroke-linecap: square"/>
   </g>
   <g id="line2d_66">
    <path d="M 828.977357 213.396219 
L 914.17644 213.396219 
" clip-path="url(#peee741252a)" style="fill: none; stroke: #000000; stroke-linecap: square"/>
   </g>
   <g id="patch_10">
    <path d="M 1024.935249 148.903542 
L 1195.333416 148.903542 
L 1195.333416 124.304765 
L 1024.935249 124.304765 
L 1024.935249 148.903542 
z
" clip-path="url(#peee741252a)" style="fill: #ff7f0e; opacity: 0.7; stroke: #000000; stroke-linejoin: miter"/>
   </g>
   <g id="line2d_67">
    <path d="M 1110.134333 148.903542 
L 1110.134333 174.592726 
" clip-path="url(#peee741252a)" style="fill: none; stroke: #000000; stroke-linecap: square"/>
   </g>
   <g id="line2d_68">
    <path d="M 1110.134333 124.304765 
L 1110.134333 52.559551 
" clip-path="url(#peee741252a)" style="fill: none; stroke: #000000; stroke-linecap: square"/>
   </g>
   <g id="line2d_69">
    <path d="M 1067.534791 174.592726 
L 1152.733874 174.592726 
" clip-path="url(#peee741252a)" style="fill: none; stroke: #000000; stroke-linecap: square"/>
   </g>
   <g id="line2d_70">
    <path d="M 1067.534791 52.559551 
L 1152.733874 52.559551 
" clip-path="url(#peee741252a)" style="fill: none; stroke: #000000; stroke-linecap: square"/>
   </g>
   <g id="line2d_71">
    <path d="M 786.377815 299.688874 
L 956.775982 299.688874 
" clip-path="url(#peee741252a)" style="fill: none; stroke: #ff7f0e"/>
   </g>
   <g id="line2d_72">
    <path d="M 1024.935249 132.128953 
L 1195.333416 132.128953 
" clip-path="url(#peee741252a)" style="fill: none; stroke: #ff7f0e"/>
   </g>
   <g id="patch_11">
    <path d="M 701.178731 511 
L 701.178731 33.173843 
" style="fill: none; stroke: #000000; stroke-width: 0.8; stroke-linejoin: miter; stroke-linecap: square"/>
   </g>
   <g id="patch_12">
    <path d="M 1280.5325 511 
L 1280.5325 33.173843 
" style="fill: none; stroke: #000000; stroke-width: 0.8; stroke-linejoin: miter; stroke-linecap: square"/>
   </g>
   <g id="patch_13">
    <path d="M 701.178731 511 
L 1280.5325 511 
" style="fill: none; stroke: #000000; stroke-width: 0.8; stroke-linejoin: miter; stroke-linecap: square"/>
   </g>
   <g id="patch_14">
    <path d="M 701.178731 33.173843 
L 1280.5325 33.173843 
" style="fill: none; stroke: #000000; stroke-width: 0.8; stroke-linejoin: miter; stroke-linecap: square"/>
   </g>
  </g>
  <g id="text_33">
   <!-- Comparing Variability in Automated and Manual Knee Tracking Methods -->
   <g transform="translate(277.374219 20.877187) scale(0.18 -0.18)">
    <defs>
     <path id="DejaVuSans-Bold-43" d="M 4288 256 
Q 3956 84 3597 -3 
Q 3238 -91 2847 -91 
Q 1681 -91 1000 561 
Q 319 1213 319 2328 
Q 319 3447 1000 4098 
Q 1681 4750 2847 4750 
Q 3238 4750 3597 4662 
Q 3956 4575 4288 4403 
L 4288 3438 
Q 3953 3666 3628 3772 
Q 3303 3878 2944 3878 
Q 2300 3878 1931 3465 
Q 1563 3053 1563 2328 
Q 1563 1606 1931 1193 
Q 2300 781 2944 781 
Q 3303 781 3628 887 
Q 3953 994 4288 1222 
L 4288 256 
z
" transform="scale(0.015625)"/>
     <path id="DejaVuSans-Bold-6f" d="M 2203 2784 
Q 1831 2784 1636 2517 
Q 1441 2250 1441 1747 
Q 1441 1244 1636 976 
Q 1831 709 2203 709 
Q 2569 709 2762 976 
Q 2956 1244 2956 1747 
Q 2956 2250 2762 2517 
Q 2569 2784 2203 2784 
z
M 2203 3584 
Q 3106 3584 3614 3096 
Q 4122 2609 4122 1747 
Q 4122 884 3614 396 
Q 3106 -91 2203 -91 
Q 1297 -91 786 396 
Q 275 884 275 1747 
Q 275 2609 786 3096 
Q 1297 3584 2203 3584 
z
" transform="scale(0.015625)"/>
     <path id="DejaVuSans-Bold-6d" d="M 3781 2919 
Q 3994 3244 4286 3414 
Q 4578 3584 4928 3584 
Q 5531 3584 5847 3212 
Q 6163 2841 6163 2131 
L 6163 0 
L 5038 0 
L 5038 1825 
Q 5041 1866 5042 1909 
Q 5044 1953 5044 2034 
Q 5044 2406 4934 2573 
Q 4825 2741 4581 2741 
Q 4263 2741 4089 2478 
Q 3916 2216 3909 1719 
L 3909 0 
L 2784 0 
L 2784 1825 
Q 2784 2406 2684 2573 
Q 2584 2741 2328 2741 
Q 2006 2741 1831 2477 
Q 1656 2213 1656 1722 
L 1656 0 
L 531 0 
L 531 3500 
L 1656 3500 
L 1656 2988 
Q 1863 3284 2130 3434 
Q 2397 3584 2719 3584 
Q 3081 3584 3359 3409 
Q 3638 3234 3781 2919 
z
" transform="scale(0.015625)"/>
     <path id="DejaVuSans-Bold-70" d="M 1656 506 
L 1656 -1331 
L 538 -1331 
L 538 3500 
L 1656 3500 
L 1656 2988 
Q 1888 3294 2169 3439 
Q 2450 3584 2816 3584 
Q 3463 3584 3878 3070 
Q 4294 2556 4294 1747 
Q 4294 938 3878 423 
Q 3463 -91 2816 -91 
Q 2450 -91 2169 54 
Q 1888 200 1656 506 
z
M 2400 2772 
Q 2041 2772 1848 2508 
Q 1656 2244 1656 1747 
Q 1656 1250 1848 986 
Q 2041 722 2400 722 
Q 2759 722 2948 984 
Q 3138 1247 3138 1747 
Q 3138 2247 2948 2509 
Q 2759 2772 2400 2772 
z
" transform="scale(0.015625)"/>
     <path id="DejaVuSans-Bold-61" d="M 2106 1575 
Q 1756 1575 1579 1456 
Q 1403 1338 1403 1106 
Q 1403 894 1545 773 
Q 1688 653 1941 653 
Q 2256 653 2472 879 
Q 2688 1106 2688 1447 
L 2688 1575 
L 2106 1575 
z
M 3816 1997 
L 3816 0 
L 2688 0 
L 2688 519 
Q 2463 200 2181 54 
Q 1900 -91 1497 -91 
Q 953 -91 614 226 
Q 275 544 275 1050 
Q 275 1666 698 1953 
Q 1122 2241 2028 2241 
L 2688 2241 
L 2688 2328 
Q 2688 2594 2478 2717 
Q 2269 2841 1825 2841 
Q 1466 2841 1156 2769 
Q 847 2697 581 2553 
L 581 3406 
Q 941 3494 1303 3539 
Q 1666 3584 2028 3584 
Q 2975 3584 3395 3211 
Q 3816 2838 3816 1997 
z
" transform="scale(0.015625)"/>
     <path id="DejaVuSans-Bold-72" d="M 3138 2547 
Q 2991 2616 2845 2648 
Q 2700 2681 2553 2681 
Q 2122 2681 1889 2404 
Q 1656 2128 1656 1613 
L 1656 0 
L 538 0 
L 538 3500 
L 1656 3500 
L 1656 2925 
Q 1872 3269 2151 3426 
Q 2431 3584 2822 3584 
Q 2878 3584 2943 3579 
Q 3009 3575 3134 3559 
L 3138 2547 
z
" transform="scale(0.015625)"/>
     <path id="DejaVuSans-Bold-69" d="M 538 3500 
L 1656 3500 
L 1656 0 
L 538 0 
L 538 3500 
z
M 538 4863 
L 1656 4863 
L 1656 3950 
L 538 3950 
L 538 4863 
z
" transform="scale(0.015625)"/>
     <path id="DejaVuSans-Bold-6e" d="M 4056 2131 
L 4056 0 
L 2931 0 
L 2931 347 
L 2931 1631 
Q 2931 2084 2911 2256 
Q 2891 2428 2841 2509 
Q 2775 2619 2662 2680 
Q 2550 2741 2406 2741 
Q 2056 2741 1856 2470 
Q 1656 2200 1656 1722 
L 1656 0 
L 538 0 
L 538 3500 
L 1656 3500 
L 1656 2988 
Q 1909 3294 2193 3439 
Q 2478 3584 2822 3584 
Q 3428 3584 3742 3212 
Q 4056 2841 4056 2131 
z
" transform="scale(0.015625)"/>
     <path id="DejaVuSans-Bold-67" d="M 2919 594 
Q 2688 288 2409 144 
Q 2131 0 1766 0 
Q 1125 0 706 504 
Q 288 1009 288 1791 
Q 288 2575 706 3076 
Q 1125 3578 1766 3578 
Q 2131 3578 2409 3434 
Q 2688 3291 2919 2981 
L 2919 3500 
L 4044 3500 
L 4044 353 
Q 4044 -491 3511 -936 
Q 2978 -1381 1966 -1381 
Q 1638 -1381 1331 -1331 
Q 1025 -1281 716 -1178 
L 716 -306 
Q 1009 -475 1290 -558 
Q 1572 -641 1856 -641 
Q 2406 -641 2662 -400 
Q 2919 -159 2919 353 
L 2919 594 
z
M 2181 2772 
Q 1834 2772 1640 2515 
Q 1447 2259 1447 1791 
Q 1447 1309 1634 1061 
Q 1822 813 2181 813 
Q 2531 813 2725 1069 
Q 2919 1325 2919 1791 
Q 2919 2259 2725 2515 
Q 2531 2772 2181 2772 
z
" transform="scale(0.015625)"/>
     <path id="DejaVuSans-Bold-20" transform="scale(0.015625)"/>
     <path id="DejaVuSans-Bold-56" d="M 31 4666 
L 1241 4666 
L 2478 1222 
L 3713 4666 
L 4922 4666 
L 3194 0 
L 1759 0 
L 31 4666 
z
" transform="scale(0.015625)"/>
     <path id="DejaVuSans-Bold-62" d="M 2400 722 
Q 2759 722 2948 984 
Q 3138 1247 3138 1747 
Q 3138 2247 2948 2509 
Q 2759 2772 2400 2772 
Q 2041 2772 1848 2508 
Q 1656 2244 1656 1747 
Q 1656 1250 1848 986 
Q 2041 722 2400 722 
z
M 1656 2988 
Q 1888 3294 2169 3439 
Q 2450 3584 2816 3584 
Q 3463 3584 3878 3070 
Q 4294 2556 4294 1747 
Q 4294 938 3878 423 
Q 3463 -91 2816 -91 
Q 2450 -91 2169 54 
Q 1888 200 1656 506 
L 1656 0 
L 538 0 
L 538 4863 
L 1656 4863 
L 1656 2988 
z
" transform="scale(0.015625)"/>
     <path id="DejaVuSans-Bold-6c" d="M 538 4863 
L 1656 4863 
L 1656 0 
L 538 0 
L 538 4863 
z
" transform="scale(0.015625)"/>
     <path id="DejaVuSans-Bold-74" d="M 1759 4494 
L 1759 3500 
L 2913 3500 
L 2913 2700 
L 1759 2700 
L 1759 1216 
Q 1759 972 1856 886 
Q 1953 800 2241 800 
L 2816 800 
L 2816 0 
L 1856 0 
Q 1194 0 917 276 
Q 641 553 641 1216 
L 641 2700 
L 84 2700 
L 84 3500 
L 641 3500 
L 641 4494 
L 1759 4494 
z
" transform="scale(0.015625)"/>
     <path id="DejaVuSans-Bold-79" d="M 78 3500 
L 1197 3500 
L 2138 1125 
L 2938 3500 
L 4056 3500 
L 2584 -331 
Q 2363 -916 2067 -1148 
Q 1772 -1381 1288 -1381 
L 641 -1381 
L 641 -647 
L 991 -647 
Q 1275 -647 1404 -556 
Q 1534 -466 1606 -231 
L 1638 -134 
L 78 3500 
z
" transform="scale(0.015625)"/>
     <path id="DejaVuSans-Bold-41" d="M 3419 850 
L 1538 850 
L 1241 0 
L 31 0 
L 1759 4666 
L 3194 4666 
L 4922 0 
L 3713 0 
L 3419 850 
z
M 1838 1716 
L 3116 1716 
L 2478 3572 
L 1838 1716 
z
" transform="scale(0.015625)"/>
     <path id="DejaVuSans-Bold-75" d="M 500 1363 
L 500 3500 
L 1625 3500 
L 1625 3150 
Q 1625 2866 1622 2436 
Q 1619 2006 1619 1863 
Q 1619 1441 1641 1255 
Q 1663 1069 1716 984 
Q 1784 875 1895 815 
Q 2006 756 2150 756 
Q 2500 756 2700 1025 
Q 2900 1294 2900 1772 
L 2900 3500 
L 4019 3500 
L 4019 0 
L 2900 0 
L 2900 506 
Q 2647 200 2364 54 
Q 2081 -91 1741 -91 
Q 1134 -91 817 281 
Q 500 653 500 1363 
z
" transform="scale(0.015625)"/>
     <path id="DejaVuSans-Bold-65" d="M 4031 1759 
L 4031 1441 
L 1416 1441 
Q 1456 1047 1700 850 
Q 1944 653 2381 653 
Q 2734 653 3104 758 
Q 3475 863 3866 1075 
L 3866 213 
Q 3469 63 3072 -14 
Q 2675 -91 2278 -91 
Q 1328 -91 801 392 
Q 275 875 275 1747 
Q 275 2603 792 3093 
Q 1309 3584 2216 3584 
Q 3041 3584 3536 3087 
Q 4031 2591 4031 1759 
z
M 2881 2131 
Q 2881 2450 2695 2645 
Q 2509 2841 2209 2841 
Q 1884 2841 1681 2658 
Q 1478 2475 1428 2131 
L 2881 2131 
z
" transform="scale(0.015625)"/>
     <path id="DejaVuSans-Bold-64" d="M 2919 2988 
L 2919 4863 
L 4044 4863 
L 4044 0 
L 2919 0 
L 2919 506 
Q 2688 197 2409 53 
Q 2131 -91 1766 -91 
Q 1119 -91 703 423 
Q 288 938 288 1747 
Q 288 2556 703 3070 
Q 1119 3584 1766 3584 
Q 2128 3584 2408 3439 
Q 2688 3294 2919 2988 
z
M 2181 722 
Q 2541 722 2730 984 
Q 2919 1247 2919 1747 
Q 2919 2247 2730 2509 
Q 2541 2772 2181 2772 
Q 1825 2772 1636 2509 
Q 1447 2247 1447 1747 
Q 1447 1247 1636 984 
Q 1825 722 2181 722 
z
" transform="scale(0.015625)"/>
     <path id="DejaVuSans-Bold-4d" d="M 588 4666 
L 2119 4666 
L 3181 2169 
L 4250 4666 
L 5778 4666 
L 5778 0 
L 4641 0 
L 4641 3413 
L 3566 897 
L 2803 897 
L 1728 3413 
L 1728 0 
L 588 0 
L 588 4666 
z
" transform="scale(0.015625)"/>
     <path id="DejaVuSans-Bold-4b" d="M 588 4666 
L 1791 4666 
L 1791 2963 
L 3525 4666 
L 4922 4666 
L 2675 2456 
L 5153 0 
L 3647 0 
L 1791 1838 
L 1791 0 
L 588 0 
L 588 4666 
z
" transform="scale(0.015625)"/>
     <path id="DejaVuSans-Bold-54" d="M 31 4666 
L 4331 4666 
L 4331 3756 
L 2784 3756 
L 2784 0 
L 1581 0 
L 1581 3756 
L 31 3756 
L 31 4666 
z
" transform="scale(0.015625)"/>
     <path id="DejaVuSans-Bold-63" d="M 3366 3391 
L 3366 2478 
Q 3138 2634 2908 2709 
Q 2678 2784 2431 2784 
Q 1963 2784 1702 2511 
Q 1441 2238 1441 1747 
Q 1441 1256 1702 982 
Q 1963 709 2431 709 
Q 2694 709 2930 787 
Q 3166 866 3366 1019 
L 3366 103 
Q 3103 6 2833 -42 
Q 2563 -91 2291 -91 
Q 1344 -91 809 395 
Q 275 881 275 1747 
Q 275 2613 809 3098 
Q 1344 3584 2291 3584 
Q 2566 3584 2833 3536 
Q 3100 3488 3366 3391 
z
" transform="scale(0.015625)"/>
     <path id="DejaVuSans-Bold-6b" d="M 538 4863 
L 1656 4863 
L 1656 2216 
L 2944 3500 
L 4244 3500 
L 2534 1894 
L 4378 0 
L 3022 0 
L 1656 1459 
L 1656 0 
L 538 0 
L 538 4863 
z
" transform="scale(0.015625)"/>
     <path id="DejaVuSans-Bold-68" d="M 4056 2131 
L 4056 0 
L 2931 0 
L 2931 347 
L 2931 1625 
Q 2931 2084 2911 2256 
Q 2891 2428 2841 2509 
Q 2775 2619 2662 2680 
Q 2550 2741 2406 2741 
Q 2056 2741 1856 2470 
Q 1656 2200 1656 1722 
L 1656 0 
L 538 0 
L 538 4863 
L 1656 4863 
L 1656 2988 
Q 1909 3294 2193 3439 
Q 2478 3584 2822 3584 
Q 3428 3584 3742 3212 
Q 4056 2841 4056 2131 
z
" transform="scale(0.015625)"/>
     <path id="DejaVuSans-Bold-73" d="M 3272 3391 
L 3272 2541 
Q 2913 2691 2578 2766 
Q 2244 2841 1947 2841 
Q 1628 2841 1473 2761 
Q 1319 2681 1319 2516 
Q 1319 2381 1436 2309 
Q 1553 2238 1856 2203 
L 2053 2175 
Q 2913 2066 3209 1816 
Q 3506 1566 3506 1031 
Q 3506 472 3093 190 
Q 2681 -91 1863 -91 
Q 1516 -91 1145 -36 
Q 775 19 384 128 
L 384 978 
Q 719 816 1070 734 
Q 1422 653 1784 653 
Q 2113 653 2278 743 
Q 2444 834 2444 1013 
Q 2444 1163 2330 1236 
Q 2216 1309 1875 1350 
L 1678 1375 
Q 931 1469 631 1722 
Q 331 1975 331 2491 
Q 331 3047 712 3315 
Q 1094 3584 1881 3584 
Q 2191 3584 2531 3537 
Q 2872 3491 3272 3391 
z
" transform="scale(0.015625)"/>
    </defs>
    <use xlink:href="#DejaVuSans-Bold-43"/>
    <use xlink:href="#DejaVuSans-Bold-6f" x="73.388672"/>
    <use xlink:href="#DejaVuSans-Bold-6d" x="142.089844"/>
    <use xlink:href="#DejaVuSans-Bold-70" x="246.289062"/>
    <use xlink:href="#DejaVuSans-Bold-61" x="317.871094"/>
    <use xlink:href="#DejaVuSans-Bold-72" x="385.351562"/>
    <use xlink:href="#DejaVuSans-Bold-69" x="434.667969"/>
    <use xlink:href="#DejaVuSans-Bold-6e" x="468.945312"/>
    <use xlink:href="#DejaVuSans-Bold-67" x="540.136719"/>
    <use xlink:href="#DejaVuSans-Bold-20" x="611.71875"/>
    <use xlink:href="#DejaVuSans-Bold-56" x="646.533203"/>
    <use xlink:href="#DejaVuSans-Bold-61" x="718.425781"/>
    <use xlink:href="#DejaVuSans-Bold-72" x="785.90625"/>
    <use xlink:href="#DejaVuSans-Bold-69" x="835.222656"/>
    <use xlink:href="#DejaVuSans-Bold-61" x="869.5"/>
    <use xlink:href="#DejaVuSans-Bold-62" x="936.980469"/>
    <use xlink:href="#DejaVuSans-Bold-69" x="1008.5625"/>
    <use xlink:href="#DejaVuSans-Bold-6c" x="1042.839844"/>
    <use xlink:href="#DejaVuSans-Bold-69" x="1077.117188"/>
    <use xlink:href="#DejaVuSans-Bold-74" x="1111.394531"/>
    <use xlink:href="#DejaVuSans-Bold-79" x="1159.197266"/>
    <use xlink:href="#DejaVuSans-Bold-20" x="1224.382812"/>
    <use xlink:href="#DejaVuSans-Bold-69" x="1259.197266"/>
    <use xlink:href="#DejaVuSans-Bold-6e" x="1293.474609"/>
    <use xlink:href="#DejaVuSans-Bold-20" x="1364.666016"/>
    <use xlink:href="#DejaVuSans-Bold-41" x="1399.480469"/>
    <use xlink:href="#DejaVuSans-Bold-75" x="1476.873047"/>
    <use xlink:href="#DejaVuSans-Bold-74" x="1548.064453"/>
    <use xlink:href="#DejaVuSans-Bold-6f" x="1595.867188"/>
    <use xlink:href="#DejaVuSans-Bold-6d" x="1664.568359"/>
    <use xlink:href="#DejaVuSans-Bold-61" x="1768.767578"/>
    <use xlink:href="#DejaVuSans-Bold-74" x="1836.248047"/>
    <use xlink:href="#DejaVuSans-Bold-65" x="1884.050781"/>
    <use xlink:href="#DejaVuSans-Bold-64" x="1951.873047"/>
    <use xlink:href="#DejaVuSans-Bold-20" x="2023.455078"/>
    <use xlink:href="#DejaVuSans-Bold-61" x="2058.269531"/>
    <use xlink:href="#DejaVuSans-Bold-6e" x="2125.75"/>
    <use xlink:href="#DejaVuSans-Bold-64" x="2196.941406"/>
    <use xlink:href="#DejaVuSans-Bold-20" x="2268.523438"/>
    <use xlink:href="#DejaVuSans-Bold-4d" x="2303.337891"/>
    <use xlink:href="#DejaVuSans-Bold-61" x="2402.849609"/>
    <use xlink:href="#DejaVuSans-Bold-6e" x="2470.330078"/>
    <use xlink:href="#DejaVuSans-Bold-75" x="2541.521484"/>
    <use xlink:href="#DejaVuSans-Bold-61" x="2612.712891"/>
    <use xlink:href="#DejaVuSans-Bold-6c" x="2680.193359"/>
    <use xlink:href="#DejaVuSans-Bold-20" x="2714.470703"/>
    <use xlink:href="#DejaVuSans-Bold-4b" x="2749.285156"/>
    <use xlink:href="#DejaVuSans-Bold-6e" x="2826.775391"/>
    <use xlink:href="#DejaVuSans-Bold-65" x="2897.966797"/>
    <use xlink:href="#DejaVuSans-Bold-65" x="2965.789062"/>
    <use xlink:href="#DejaVuSans-Bold-20" x="3033.611328"/>
    <use xlink:href="#DejaVuSans-Bold-54" x="3068.425781"/>
    <use xlink:href="#DejaVuSans-Bold-72" x="3125.638672"/>
    <use xlink:href="#DejaVuSans-Bold-61" x="3174.955078"/>
    <use xlink:href="#DejaVuSans-Bold-63" x="3242.435547"/>
    <use xlink:href="#DejaVuSans-Bold-6b" x="3301.712891"/>
    <use xlink:href="#DejaVuSans-Bold-69" x="3368.216797"/>
    <use xlink:href="#DejaVuSans-Bold-6e" x="3402.494141"/>
    <use xlink:href="#DejaVuSans-Bold-67" x="3473.685547"/>
    <use xlink:href="#DejaVuSans-Bold-20" x="3545.267578"/>
    <use xlink:href="#DejaVuSans-Bold-4d" x="3580.082031"/>
    <use xlink:href="#DejaVuSans-Bold-65" x="3679.59375"/>
    <use xlink:href="#DejaVuSans-Bold-74" x="3747.416016"/>
    <use xlink:href="#DejaVuSans-Bold-68" x="3795.21875"/>
    <use xlink:href="#DejaVuSans-Bold-6f" x="3866.410156"/>
    <use xlink:href="#DejaVuSans-Bold-64" x="3935.111328"/>
    <use xlink:href="#DejaVuSans-Bold-73" x="4006.693359"/>
   </g>
  </g>
 </g>
 <defs>
  <clipPath id="p49feb38938">
   <rect x="57.2725" y="33.173843" width="579.353769" height="477.826157"/>
  </clipPath>
  <clipPath id="peee741252a">
   <rect x="701.178731" y="33.173843" width="579.353769" height="477.826157"/>
  </clipPath>
 </defs>
</svg>
