<?xml version="1.0" encoding="utf-8" standalone="no"?>
<!DOCTYPE svg PUBLIC "-//W3C//DTD SVG 1.1//EN"
  "http://www.w3.org/Graphics/SVG/1.1/DTD/svg11.dtd">
<svg xmlns:xlink="http://www.w3.org/1999/xlink" width="1287.7325pt" height="565.952495pt" viewBox="0 0 1287.7325 565.952495" xmlns="http://www.w3.org/2000/svg" version="1.1">
 <metadata>
  <rdf:RDF xmlns:dc="http://purl.org/dc/elements/1.1/" xmlns:cc="http://creativecommons.org/ns#" xmlns:rdf="http://www.w3.org/1999/02/22-rdf-syntax-ns#">
   <cc:Work>
    <dc:type rdf:resource="http://purl.org/dc/dcmitype/StillImage"/>
    <dc:date>2024-10-01T10:15:57.021165</dc:date>
    <dc:format>image/svg+xml</dc:format>
    <dc:creator>
     <cc:Agent>
      <dc:title>Matplotlib v3.8.4, https://matplotlib.org/</dc:title>
     </cc:Agent>
    </dc:creator>
   </cc:Work>
  </rdf:RDF>
 </metadata>
 <defs>
  <style type="text/css">*{stroke-linejoin: round; stroke-linecap: butt}</style>
 </defs>
 <g id="figure_1">
  <g id="patch_1">
   <path d="M 0 565.952495 
L 1287.7325 565.952495 
L 1287.7325 0 
L 0 0 
z
" style="fill: #ffffff"/>
  </g>
  <g id="axes_1">
   <g id="patch_2">
    <path d="M 57.2725 516.782495 
L 636.626269 516.782495 
L 636.626269 10.876338 
L 57.2725 10.876338 
z
" style="fill: #ffffff"/>
   </g>
   <g id="PolyCollection_1">
    <defs>
     <path id="mdd488b7686" d="M 83.606762 -122.918292 
L 83.606762 -122.918292 
L 89.843824 -132.955123 
L 96.080886 -135.785002 
L 102.317949 -118.760675 
L 108.555011 -103.381841 
L 114.792073 -123.57492 
L 121.029135 -135.589788 
L 127.266197 -139.102118 
L 133.503259 -129.200395 
L 139.740321 -130.939121 
L 145.977383 -123.709895 
L 152.214445 -137.281781 
L 158.451508 -137.085032 
L 164.68857 -144.128362 
L 170.925632 -151.689963 
L 177.162694 -149.925284 
L 183.399756 -142.652303 
L 189.636818 -156.849012 
L 195.87388 -158.482438 
L 202.110942 -156.999592 
L 208.348004 -152.160055 
L 214.585066 -147.738865 
L 220.822129 -150.878249 
L 227.059191 -159.610306 
L 233.296253 -142.758424 
L 239.533315 -128.613428 
L 245.770377 -157.296025 
L 252.007439 -167.114499 
L 258.244501 -165.671562 
L 264.481563 -173.493653 
L 270.718625 -168.121637 
L 276.955688 -158.468109 
L 283.19275 -145.985794 
L 289.429812 -157.947631 
L 295.666874 -173.121736 
L 301.903936 -176.405966 
L 308.140998 -168.480163 
L 314.37806 -175.453797 
L 320.615122 -184.539464 
L 326.852184 -181.390458 
L 333.089246 -184.039542 
L 333.089246 -184.039542 
L 333.089246 -184.039542 
L 326.852184 -188.051994 
L 320.615122 -206.851307 
L 314.37806 -213.207272 
L 308.140998 -208.662266 
L 301.903936 -197.145648 
L 295.666874 -189.791422 
L 289.429812 -184.63853 
L 283.19275 -187.33186 
L 276.955688 -191.379847 
L 270.718625 -195.441221 
L 264.481563 -211.958553 
L 258.244501 -238.891669 
L 252.007439 -221.544203 
L 245.770377 -201.596768 
L 239.533315 -194.188121 
L 233.296253 -177.920421 
L 227.059191 -180.418348 
L 220.822129 -192.401324 
L 214.585066 -180.041327 
L 208.348004 -166.812002 
L 202.110942 -170.908318 
L 195.87388 -175.976115 
L 189.636818 -168.022774 
L 183.399756 -170.816526 
L 177.162694 -166.643786 
L 170.925632 -166.176431 
L 164.68857 -185.703963 
L 158.451508 -208.660357 
L 152.214445 -180.609233 
L 145.977383 -155.584051 
L 139.740321 -153.054108 
L 133.503259 -173.746867 
L 127.266197 -177.795704 
L 121.029135 -176.001595 
L 114.792073 -165.120188 
L 108.555011 -159.554689 
L 102.317949 -160.575891 
L 96.080886 -157.993132 
L 89.843824 -149.306621 
L 83.606762 -122.918292 
z
" style="stroke: #1f77b4; stroke-opacity: 0.2"/>
    </defs>
    <g clip-path="url(#p25ed192c81)">
     <use xlink:href="#mdd488b7686" x="0" y="565.952495" style="fill: #1f77b4; fill-opacity: 0.2; stroke: #1f77b4; stroke-opacity: 0.2"/>
    </g>
   </g>
   <g id="PolyCollection_2">
    <defs>
     <path id="m8906b09f15" d="M 373.283647 -350.669494 
L 373.283647 -350.669494 
L 379.520709 -383.261409 
L 385.757771 -400.572116 
L 391.994833 -377.268703 
L 398.231895 -368.752379 
L 404.468957 -371.024925 
L 410.706019 -350.666117 
L 416.943081 -362.27693 
L 423.180144 -372.009815 
L 429.417206 -362.60101 
L 435.654268 -344.667929 
L 441.89133 -348.200326 
L 448.128392 -343.662466 
L 454.365454 -371.307046 
L 460.602516 -398.125088 
L 466.839578 -386.615961 
L 473.07664 -370.111483 
L 479.313703 -388.126196 
L 485.550765 -385.003766 
L 491.787827 -386.753376 
L 498.024889 -377.466881 
L 504.261951 -390.596735 
L 510.499013 -396.569693 
L 516.736075 -386.309302 
L 522.973137 -392.391757 
L 529.210199 -396.472314 
L 535.447261 -397.025653 
L 541.684324 -389.150266 
L 547.921386 -370.832097 
L 554.158448 -395.185748 
L 560.39551 -396.675628 
L 566.632572 -399.949437 
L 572.869634 -399.663533 
L 579.106696 -393.547992 
L 585.343758 -395.231337 
L 591.58082 -400.719751 
L 597.817883 -407.026206 
L 604.054945 -409.370295 
L 610.292007 -406.240705 
L 610.292007 -436.923906 
L 610.292007 -436.923906 
L 604.054945 -434.224626 
L 597.817883 -426.452139 
L 591.58082 -424.010104 
L 585.343758 -424.010551 
L 579.106696 -418.729169 
L 572.869634 -420.065764 
L 566.632572 -435.954382 
L 560.39551 -442.115614 
L 554.158448 -420.207495 
L 547.921386 -422.728212 
L 541.684324 -425.672995 
L 535.447261 -432.062503 
L 529.210199 -421.576554 
L 522.973137 -410.941425 
L 516.736075 -405.219437 
L 510.499013 -405.251309 
L 504.261951 -416.272373 
L 498.024889 -425.566944 
L 491.787827 -417.506837 
L 485.550765 -417.053989 
L 479.313703 -412.195998 
L 473.07664 -429.39772 
L 466.839578 -426.715379 
L 460.602516 -415.075766 
L 454.365454 -407.880146 
L 448.128392 -403.533166 
L 441.89133 -397.822885 
L 435.654268 -415.363334 
L 429.417206 -401.507326 
L 423.180144 -398.843057 
L 416.943081 -406.819018 
L 410.706019 -393.854782 
L 404.468957 -379.552105 
L 398.231895 -408.879073 
L 391.994833 -428.287039 
L 385.757771 -437.009862 
L 379.520709 -424.721994 
L 373.283647 -350.669494 
z
" style="stroke: #1f77b4; stroke-opacity: 0.2"/>
    </defs>
    <g clip-path="url(#p25ed192c81)">
     <use xlink:href="#m8906b09f15" x="0" y="565.952495" style="fill: #1f77b4; fill-opacity: 0.2; stroke: #1f77b4; stroke-opacity: 0.2"/>
    </g>
   </g>
   <g id="PolyCollection_3">
    <defs>
     <path id="m86ede59d6b" d="M 83.606762 -119.740045 
L 83.606762 -119.740045 
L 89.843824 -128.288415 
L 96.080886 -123.289625 
L 102.317949 -130.845476 
L 108.555011 -95.367882 
L 114.792073 -114.580632 
L 121.029135 -129.369656 
L 127.266197 -114.463987 
L 133.503259 -75.322321 
L 139.740321 -72.165734 
L 145.977383 -99.161864 
L 152.214445 -127.827159 
L 158.451508 -103.371895 
L 164.68857 -140.257164 
L 170.925632 -131.671931 
L 177.162694 -124.553379 
L 183.399756 -131.295009 
L 189.636818 -146.552361 
L 195.87388 -162.643655 
L 202.110942 -179.282222 
L 208.348004 -164.394576 
L 214.585066 -144.208191 
L 220.822129 -87.171152 
L 227.059191 -83.938882 
L 233.296253 -123.003065 
L 239.533315 -159.095056 
L 245.770377 -157.522665 
L 252.007439 -148.489857 
L 258.244501 -137.048073 
L 264.481563 -111.763478 
L 270.718625 -77.510436 
L 276.955688 -78.460017 
L 283.19275 -93.501279 
L 289.429812 -147.877493 
L 295.666874 -144.195629 
L 301.903936 -155.750317 
L 308.140998 -130.539207 
L 314.37806 -158.653361 
L 320.615122 -138.08245 
L 326.852184 -100.835078 
L 333.089246 -175.079127 
L 333.089246 -175.079127 
L 333.089246 -175.079127 
L 326.852184 -214.576217 
L 320.615122 -241.463459 
L 314.37806 -189.955251 
L 308.140998 -192.792243 
L 301.903936 -222.222386 
L 295.666874 -276.747314 
L 289.429812 -206.165442 
L 283.19275 -210.466027 
L 276.955688 -211.768308 
L 270.718625 -212.416387 
L 264.481563 -195.120966 
L 258.244501 -196.404975 
L 252.007439 -205.930602 
L 245.770377 -224.298068 
L 239.533315 -210.146161 
L 233.296253 -177.888228 
L 227.059191 -170.495423 
L 220.822129 -167.703701 
L 214.585066 -173.335407 
L 208.348004 -230.678951 
L 202.110942 -223.898375 
L 195.87388 -227.205288 
L 189.636818 -213.329163 
L 183.399756 -195.048553 
L 177.162694 -205.034524 
L 170.925632 -215.017608 
L 164.68857 -196.559276 
L 158.451508 -203.240099 
L 152.214445 -182.333184 
L 145.977383 -218.624144 
L 139.740321 -189.213889 
L 133.503259 -169.810145 
L 127.266197 -170.445305 
L 121.029135 -214.290047 
L 114.792073 -203.364019 
L 108.555011 -168.277986 
L 102.317949 -136.94405 
L 96.080886 -184.004889 
L 89.843824 -177.004952 
L 83.606762 -119.740045 
z
" style="stroke: #ff7f0e; stroke-opacity: 0.2"/>
    </defs>
    <g clip-path="url(#p25ed192c81)">
     <use xlink:href="#m86ede59d6b" x="0" y="565.952495" style="fill: #ff7f0e; fill-opacity: 0.2; stroke: #ff7f0e; stroke-opacity: 0.2"/>
    </g>
   </g>
   <g id="PolyCollection_4">
    <defs>
     <path id="m7683c79fb1" d="M 373.283647 -496.384527 
L 373.283647 -496.384527 
L 379.520709 -408.813718 
L 385.757771 -334.472948 
L 391.994833 -351.878167 
L 398.231895 -333.223372 
L 404.468957 -336.581667 
L 410.706019 -337.474106 
L 416.943081 -348.817472 
L 423.180144 -356.887601 
L 429.417206 -363.068886 
L 435.654268 -326.163314 
L 441.89133 -327.334485 
L 448.128392 -348.292182 
L 454.365454 -372.150902 
L 460.602516 -346.96482 
L 466.839578 -322.634048 
L 473.07664 -325.313299 
L 479.313703 -341.15255 
L 485.550765 -304.449332 
L 491.787827 -305.548114 
L 498.024889 -282.5732 
L 504.261951 -320.479675 
L 510.499013 -360.202732 
L 516.736075 -351.260019 
L 522.973137 -353.589943 
L 529.210199 -370.533821 
L 535.447261 -339.775442 
L 541.684324 -339.763572 
L 547.921386 -320.929573 
L 554.158448 -357.987459 
L 560.39551 -350.221061 
L 566.632572 -382.139827 
L 572.869634 -386.53428 
L 579.106696 -352.236393 
L 585.343758 -359.819966 
L 591.58082 -364.395511 
L 597.817883 -357.165174 
L 604.054945 -345.351847 
L 610.292007 -362.547006 
L 610.292007 -503.366216 
L 610.292007 -503.366216 
L 604.054945 -532.080422 
L 597.817883 -496.329694 
L 591.58082 -448.623582 
L 585.343758 -426.510823 
L 579.106696 -450.414632 
L 572.869634 -487.047344 
L 566.632572 -521.316793 
L 560.39551 -516.892061 
L 554.158448 -421.982286 
L 547.921386 -409.872781 
L 541.684324 -428.031298 
L 535.447261 -457.737134 
L 529.210199 -460.121602 
L 522.973137 -486.621448 
L 516.736075 -470.597067 
L 510.499013 -441.023151 
L 504.261951 -439.89413 
L 498.024889 -424.943014 
L 491.787827 -447.993999 
L 485.550765 -514.836557 
L 479.313703 -463.112743 
L 473.07664 -458.729675 
L 466.839578 -465.436508 
L 460.602516 -484.635959 
L 454.365454 -451.720789 
L 448.128392 -440.010647 
L 441.89133 -437.811006 
L 435.654268 -432.020149 
L 429.417206 -422.237774 
L 423.180144 -446.607917 
L 416.943081 -422.906896 
L 410.706019 -412.751366 
L 404.468957 -426.161396 
L 398.231895 -422.881453 
L 391.994833 -391.903652 
L 385.757771 -402.04543 
L 379.520709 -423.837671 
L 373.283647 -496.384527 
z
" style="stroke: #ff7f0e; stroke-opacity: 0.2"/>
    </defs>
    <g clip-path="url(#p25ed192c81)">
     <use xlink:href="#m7683c79fb1" x="0" y="565.952495" style="fill: #ff7f0e; fill-opacity: 0.2; stroke: #ff7f0e; stroke-opacity: 0.2"/>
    </g>
   </g>
   <g id="matplotlib.axis_1">
    <g id="xtick_1">
     <g id="line2d_1">
      <path d="M 69.746624 516.782495 
L 69.746624 10.876338 
" clip-path="url(#p25ed192c81)" style="fill: none; stroke-dasharray: 2.96,1.28; stroke-dashoffset: 0; stroke: #b0b0b0; stroke-opacity: 0.7; stroke-width: 0.8"/>
     </g>
     <g id="line2d_2">
      <defs>
       <path id="me4505a486a" d="M 0 0 
L 0 3.5 
" style="stroke: #000000; stroke-width: 0.8"/>
      </defs>
      <g>
       <use xlink:href="#me4505a486a" x="69.746624" y="516.782495" style="stroke: #000000; stroke-width: 0.8"/>
      </g>
     </g>
     <g id="text_1">
      <!-- −100 -->
      <g transform="translate(47.772874 535.939995) scale(0.16 -0.16)">
       <defs>
        <path id="DejaVuSans-2212" d="M 678 2272 
L 4684 2272 
L 4684 1741 
L 678 1741 
L 678 2272 
z
" transform="scale(0.015625)"/>
        <path id="DejaVuSans-31" d="M 794 531 
L 1825 531 
L 1825 4091 
L 703 3866 
L 703 4441 
L 1819 4666 
L 2450 4666 
L 2450 531 
L 3481 531 
L 3481 0 
L 794 0 
L 794 531 
z
" transform="scale(0.015625)"/>
        <path id="DejaVuSans-30" d="M 2034 4250 
Q 1547 4250 1301 3770 
Q 1056 3291 1056 2328 
Q 1056 1369 1301 889 
Q 1547 409 2034 409 
Q 2525 409 2770 889 
Q 3016 1369 3016 2328 
Q 3016 3291 2770 3770 
Q 2525 4250 2034 4250 
z
M 2034 4750 
Q 2819 4750 3233 4129 
Q 3647 3509 3647 2328 
Q 3647 1150 3233 529 
Q 2819 -91 2034 -91 
Q 1250 -91 836 529 
Q 422 1150 422 2328 
Q 422 3509 836 4129 
Q 1250 4750 2034 4750 
z
" transform="scale(0.015625)"/>
       </defs>
       <use xlink:href="#DejaVuSans-2212"/>
       <use xlink:href="#DejaVuSans-31" x="83.789062"/>
       <use xlink:href="#DejaVuSans-30" x="147.412109"/>
       <use xlink:href="#DejaVuSans-30" x="211.035156"/>
      </g>
     </g>
    </g>
    <g id="xtick_2">
     <g id="line2d_3">
      <path d="M 139.047314 516.782495 
L 139.047314 10.876338 
" clip-path="url(#p25ed192c81)" style="fill: none; stroke-dasharray: 2.96,1.28; stroke-dashoffset: 0; stroke: #b0b0b0; stroke-opacity: 0.7; stroke-width: 0.8"/>
     </g>
     <g id="line2d_4">
      <g>
       <use xlink:href="#me4505a486a" x="139.047314" y="516.782495" style="stroke: #000000; stroke-width: 0.8"/>
      </g>
     </g>
     <g id="text_2">
      <!-- −75 -->
      <g transform="translate(122.163564 535.939995) scale(0.16 -0.16)">
       <defs>
        <path id="DejaVuSans-37" d="M 525 4666 
L 3525 4666 
L 3525 4397 
L 1831 0 
L 1172 0 
L 2766 4134 
L 525 4134 
L 525 4666 
z
" transform="scale(0.015625)"/>
        <path id="DejaVuSans-35" d="M 691 4666 
L 3169 4666 
L 3169 4134 
L 1269 4134 
L 1269 2991 
Q 1406 3038 1543 3061 
Q 1681 3084 1819 3084 
Q 2600 3084 3056 2656 
Q 3513 2228 3513 1497 
Q 3513 744 3044 326 
Q 2575 -91 1722 -91 
Q 1428 -91 1123 -41 
Q 819 9 494 109 
L 494 744 
Q 775 591 1075 516 
Q 1375 441 1709 441 
Q 2250 441 2565 725 
Q 2881 1009 2881 1497 
Q 2881 1984 2565 2268 
Q 2250 2553 1709 2553 
Q 1456 2553 1204 2497 
Q 953 2441 691 2322 
L 691 4666 
z
" transform="scale(0.015625)"/>
       </defs>
       <use xlink:href="#DejaVuSans-2212"/>
       <use xlink:href="#DejaVuSans-37" x="83.789062"/>
       <use xlink:href="#DejaVuSans-35" x="147.412109"/>
      </g>
     </g>
    </g>
    <g id="xtick_3">
     <g id="line2d_5">
      <path d="M 208.348004 516.782495 
L 208.348004 10.876338 
" clip-path="url(#p25ed192c81)" style="fill: none; stroke-dasharray: 2.96,1.28; stroke-dashoffset: 0; stroke: #b0b0b0; stroke-opacity: 0.7; stroke-width: 0.8"/>
     </g>
     <g id="line2d_6">
      <g>
       <use xlink:href="#me4505a486a" x="208.348004" y="516.782495" style="stroke: #000000; stroke-width: 0.8"/>
      </g>
     </g>
     <g id="text_3">
      <!-- −50 -->
      <g transform="translate(191.464254 535.939995) scale(0.16 -0.16)">
       <use xlink:href="#DejaVuSans-2212"/>
       <use xlink:href="#DejaVuSans-35" x="83.789062"/>
       <use xlink:href="#DejaVuSans-30" x="147.412109"/>
      </g>
     </g>
    </g>
    <g id="xtick_4">
     <g id="line2d_7">
      <path d="M 277.648694 516.782495 
L 277.648694 10.876338 
" clip-path="url(#p25ed192c81)" style="fill: none; stroke-dasharray: 2.96,1.28; stroke-dashoffset: 0; stroke: #b0b0b0; stroke-opacity: 0.7; stroke-width: 0.8"/>
     </g>
     <g id="line2d_8">
      <g>
       <use xlink:href="#me4505a486a" x="277.648694" y="516.782495" style="stroke: #000000; stroke-width: 0.8"/>
      </g>
     </g>
     <g id="text_4">
      <!-- −25 -->
      <g transform="translate(260.764944 535.939995) scale(0.16 -0.16)">
       <defs>
        <path id="DejaVuSans-32" d="M 1228 531 
L 3431 531 
L 3431 0 
L 469 0 
L 469 531 
Q 828 903 1448 1529 
Q 2069 2156 2228 2338 
Q 2531 2678 2651 2914 
Q 2772 3150 2772 3378 
Q 2772 3750 2511 3984 
Q 2250 4219 1831 4219 
Q 1534 4219 1204 4116 
Q 875 4013 500 3803 
L 500 4441 
Q 881 4594 1212 4672 
Q 1544 4750 1819 4750 
Q 2544 4750 2975 4387 
Q 3406 4025 3406 3419 
Q 3406 3131 3298 2873 
Q 3191 2616 2906 2266 
Q 2828 2175 2409 1742 
Q 1991 1309 1228 531 
z
" transform="scale(0.015625)"/>
       </defs>
       <use xlink:href="#DejaVuSans-2212"/>
       <use xlink:href="#DejaVuSans-32" x="83.789062"/>
       <use xlink:href="#DejaVuSans-35" x="147.412109"/>
      </g>
     </g>
    </g>
    <g id="xtick_5">
     <g id="line2d_9">
      <path d="M 346.949384 516.782495 
L 346.949384 10.876338 
" clip-path="url(#p25ed192c81)" style="fill: none; stroke-dasharray: 2.96,1.28; stroke-dashoffset: 0; stroke: #b0b0b0; stroke-opacity: 0.7; stroke-width: 0.8"/>
     </g>
     <g id="line2d_10">
      <g>
       <use xlink:href="#me4505a486a" x="346.949384" y="516.782495" style="stroke: #000000; stroke-width: 0.8"/>
      </g>
     </g>
     <g id="text_5">
      <!-- 0 -->
      <g transform="translate(341.859384 535.939995) scale(0.16 -0.16)">
       <use xlink:href="#DejaVuSans-30"/>
      </g>
     </g>
    </g>
    <g id="xtick_6">
     <g id="line2d_11">
      <path d="M 416.250075 516.782495 
L 416.250075 10.876338 
" clip-path="url(#p25ed192c81)" style="fill: none; stroke-dasharray: 2.96,1.28; stroke-dashoffset: 0; stroke: #b0b0b0; stroke-opacity: 0.7; stroke-width: 0.8"/>
     </g>
     <g id="line2d_12">
      <g>
       <use xlink:href="#me4505a486a" x="416.250075" y="516.782495" style="stroke: #000000; stroke-width: 0.8"/>
      </g>
     </g>
     <g id="text_6">
      <!-- 25 -->
      <g transform="translate(406.070075 535.939995) scale(0.16 -0.16)">
       <use xlink:href="#DejaVuSans-32"/>
       <use xlink:href="#DejaVuSans-35" x="63.623047"/>
      </g>
     </g>
    </g>
    <g id="xtick_7">
     <g id="line2d_13">
      <path d="M 485.550765 516.782495 
L 485.550765 10.876338 
" clip-path="url(#p25ed192c81)" style="fill: none; stroke-dasharray: 2.96,1.28; stroke-dashoffset: 0; stroke: #b0b0b0; stroke-opacity: 0.7; stroke-width: 0.8"/>
     </g>
     <g id="line2d_14">
      <g>
       <use xlink:href="#me4505a486a" x="485.550765" y="516.782495" style="stroke: #000000; stroke-width: 0.8"/>
      </g>
     </g>
     <g id="text_7">
      <!-- 50 -->
      <g transform="translate(475.370765 535.939995) scale(0.16 -0.16)">
       <use xlink:href="#DejaVuSans-35"/>
       <use xlink:href="#DejaVuSans-30" x="63.623047"/>
      </g>
     </g>
    </g>
    <g id="xtick_8">
     <g id="line2d_15">
      <path d="M 554.851455 516.782495 
L 554.851455 10.876338 
" clip-path="url(#p25ed192c81)" style="fill: none; stroke-dasharray: 2.96,1.28; stroke-dashoffset: 0; stroke: #b0b0b0; stroke-opacity: 0.7; stroke-width: 0.8"/>
     </g>
     <g id="line2d_16">
      <g>
       <use xlink:href="#me4505a486a" x="554.851455" y="516.782495" style="stroke: #000000; stroke-width: 0.8"/>
      </g>
     </g>
     <g id="text_8">
      <!-- 75 -->
      <g transform="translate(544.671455 535.939995) scale(0.16 -0.16)">
       <use xlink:href="#DejaVuSans-37"/>
       <use xlink:href="#DejaVuSans-35" x="63.623047"/>
      </g>
     </g>
    </g>
    <g id="xtick_9">
     <g id="line2d_17">
      <path d="M 624.152145 516.782495 
L 624.152145 10.876338 
" clip-path="url(#p25ed192c81)" style="fill: none; stroke-dasharray: 2.96,1.28; stroke-dashoffset: 0; stroke: #b0b0b0; stroke-opacity: 0.7; stroke-width: 0.8"/>
     </g>
     <g id="line2d_18">
      <g>
       <use xlink:href="#me4505a486a" x="624.152145" y="516.782495" style="stroke: #000000; stroke-width: 0.8"/>
      </g>
     </g>
     <g id="text_9">
      <!-- 100 -->
      <g transform="translate(608.882145 535.939995) scale(0.16 -0.16)">
       <use xlink:href="#DejaVuSans-31"/>
       <use xlink:href="#DejaVuSans-30" x="63.623047"/>
       <use xlink:href="#DejaVuSans-30" x="127.246094"/>
      </g>
     </g>
    </g>
    <g id="text_10">
     <!-- Percent flexed [%] -->
     <g transform="translate(273.620634 555.424995) scale(0.16 -0.16)">
      <defs>
       <path id="DejaVuSans-50" d="M 1259 4147 
L 1259 2394 
L 2053 2394 
Q 2494 2394 2734 2622 
Q 2975 2850 2975 3272 
Q 2975 3691 2734 3919 
Q 2494 4147 2053 4147 
L 1259 4147 
z
M 628 4666 
L 2053 4666 
Q 2838 4666 3239 4311 
Q 3641 3956 3641 3272 
Q 3641 2581 3239 2228 
Q 2838 1875 2053 1875 
L 1259 1875 
L 1259 0 
L 628 0 
L 628 4666 
z
" transform="scale(0.015625)"/>
       <path id="DejaVuSans-65" d="M 3597 1894 
L 3597 1613 
L 953 1613 
Q 991 1019 1311 708 
Q 1631 397 2203 397 
Q 2534 397 2845 478 
Q 3156 559 3463 722 
L 3463 178 
Q 3153 47 2828 -22 
Q 2503 -91 2169 -91 
Q 1331 -91 842 396 
Q 353 884 353 1716 
Q 353 2575 817 3079 
Q 1281 3584 2069 3584 
Q 2775 3584 3186 3129 
Q 3597 2675 3597 1894 
z
M 3022 2063 
Q 3016 2534 2758 2815 
Q 2500 3097 2075 3097 
Q 1594 3097 1305 2825 
Q 1016 2553 972 2059 
L 3022 2063 
z
" transform="scale(0.015625)"/>
       <path id="DejaVuSans-72" d="M 2631 2963 
Q 2534 3019 2420 3045 
Q 2306 3072 2169 3072 
Q 1681 3072 1420 2755 
Q 1159 2438 1159 1844 
L 1159 0 
L 581 0 
L 581 3500 
L 1159 3500 
L 1159 2956 
Q 1341 3275 1631 3429 
Q 1922 3584 2338 3584 
Q 2397 3584 2469 3576 
Q 2541 3569 2628 3553 
L 2631 2963 
z
" transform="scale(0.015625)"/>
       <path id="DejaVuSans-63" d="M 3122 3366 
L 3122 2828 
Q 2878 2963 2633 3030 
Q 2388 3097 2138 3097 
Q 1578 3097 1268 2742 
Q 959 2388 959 1747 
Q 959 1106 1268 751 
Q 1578 397 2138 397 
Q 2388 397 2633 464 
Q 2878 531 3122 666 
L 3122 134 
Q 2881 22 2623 -34 
Q 2366 -91 2075 -91 
Q 1284 -91 818 406 
Q 353 903 353 1747 
Q 353 2603 823 3093 
Q 1294 3584 2113 3584 
Q 2378 3584 2631 3529 
Q 2884 3475 3122 3366 
z
" transform="scale(0.015625)"/>
       <path id="DejaVuSans-6e" d="M 3513 2113 
L 3513 0 
L 2938 0 
L 2938 2094 
Q 2938 2591 2744 2837 
Q 2550 3084 2163 3084 
Q 1697 3084 1428 2787 
Q 1159 2491 1159 1978 
L 1159 0 
L 581 0 
L 581 3500 
L 1159 3500 
L 1159 2956 
Q 1366 3272 1645 3428 
Q 1925 3584 2291 3584 
Q 2894 3584 3203 3211 
Q 3513 2838 3513 2113 
z
" transform="scale(0.015625)"/>
       <path id="DejaVuSans-74" d="M 1172 4494 
L 1172 3500 
L 2356 3500 
L 2356 3053 
L 1172 3053 
L 1172 1153 
Q 1172 725 1289 603 
Q 1406 481 1766 481 
L 2356 481 
L 2356 0 
L 1766 0 
Q 1100 0 847 248 
Q 594 497 594 1153 
L 594 3053 
L 172 3053 
L 172 3500 
L 594 3500 
L 594 4494 
L 1172 4494 
z
" transform="scale(0.015625)"/>
       <path id="DejaVuSans-20" transform="scale(0.015625)"/>
       <path id="DejaVuSans-66" d="M 2375 4863 
L 2375 4384 
L 1825 4384 
Q 1516 4384 1395 4259 
Q 1275 4134 1275 3809 
L 1275 3500 
L 2222 3500 
L 2222 3053 
L 1275 3053 
L 1275 0 
L 697 0 
L 697 3053 
L 147 3053 
L 147 3500 
L 697 3500 
L 697 3744 
Q 697 4328 969 4595 
Q 1241 4863 1831 4863 
L 2375 4863 
z
" transform="scale(0.015625)"/>
       <path id="DejaVuSans-6c" d="M 603 4863 
L 1178 4863 
L 1178 0 
L 603 0 
L 603 4863 
z
" transform="scale(0.015625)"/>
       <path id="DejaVuSans-78" d="M 3513 3500 
L 2247 1797 
L 3578 0 
L 2900 0 
L 1881 1375 
L 863 0 
L 184 0 
L 1544 1831 
L 300 3500 
L 978 3500 
L 1906 2253 
L 2834 3500 
L 3513 3500 
z
" transform="scale(0.015625)"/>
       <path id="DejaVuSans-64" d="M 2906 2969 
L 2906 4863 
L 3481 4863 
L 3481 0 
L 2906 0 
L 2906 525 
Q 2725 213 2448 61 
Q 2172 -91 1784 -91 
Q 1150 -91 751 415 
Q 353 922 353 1747 
Q 353 2572 751 3078 
Q 1150 3584 1784 3584 
Q 2172 3584 2448 3432 
Q 2725 3281 2906 2969 
z
M 947 1747 
Q 947 1113 1208 752 
Q 1469 391 1925 391 
Q 2381 391 2643 752 
Q 2906 1113 2906 1747 
Q 2906 2381 2643 2742 
Q 2381 3103 1925 3103 
Q 1469 3103 1208 2742 
Q 947 2381 947 1747 
z
" transform="scale(0.015625)"/>
       <path id="DejaVuSans-5b" d="M 550 4863 
L 1875 4863 
L 1875 4416 
L 1125 4416 
L 1125 -397 
L 1875 -397 
L 1875 -844 
L 550 -844 
L 550 4863 
z
" transform="scale(0.015625)"/>
       <path id="DejaVuSans-25" d="M 4653 2053 
Q 4381 2053 4226 1822 
Q 4072 1591 4072 1178 
Q 4072 772 4226 539 
Q 4381 306 4653 306 
Q 4919 306 5073 539 
Q 5228 772 5228 1178 
Q 5228 1588 5073 1820 
Q 4919 2053 4653 2053 
z
M 4653 2450 
Q 5147 2450 5437 2106 
Q 5728 1763 5728 1178 
Q 5728 594 5436 251 
Q 5144 -91 4653 -91 
Q 4153 -91 3862 251 
Q 3572 594 3572 1178 
Q 3572 1766 3864 2108 
Q 4156 2450 4653 2450 
z
M 1428 4353 
Q 1159 4353 1004 4120 
Q 850 3888 850 3481 
Q 850 3069 1003 2837 
Q 1156 2606 1428 2606 
Q 1700 2606 1854 2837 
Q 2009 3069 2009 3481 
Q 2009 3884 1853 4118 
Q 1697 4353 1428 4353 
z
M 4250 4750 
L 4750 4750 
L 1831 -91 
L 1331 -91 
L 4250 4750 
z
M 1428 4750 
Q 1922 4750 2215 4408 
Q 2509 4066 2509 3481 
Q 2509 2891 2217 2550 
Q 1925 2209 1428 2209 
Q 931 2209 642 2551 
Q 353 2894 353 3481 
Q 353 4063 643 4406 
Q 934 4750 1428 4750 
z
" transform="scale(0.015625)"/>
       <path id="DejaVuSans-5d" d="M 1947 4863 
L 1947 -844 
L 622 -844 
L 622 -397 
L 1369 -397 
L 1369 4416 
L 622 4416 
L 622 4863 
L 1947 4863 
z
" transform="scale(0.015625)"/>
      </defs>
      <use xlink:href="#DejaVuSans-50"/>
      <use xlink:href="#DejaVuSans-65" x="56.677734"/>
      <use xlink:href="#DejaVuSans-72" x="118.201172"/>
      <use xlink:href="#DejaVuSans-63" x="157.064453"/>
      <use xlink:href="#DejaVuSans-65" x="212.044922"/>
      <use xlink:href="#DejaVuSans-6e" x="273.568359"/>
      <use xlink:href="#DejaVuSans-74" x="336.947266"/>
      <use xlink:href="#DejaVuSans-20" x="376.15625"/>
      <use xlink:href="#DejaVuSans-66" x="407.943359"/>
      <use xlink:href="#DejaVuSans-6c" x="443.148438"/>
      <use xlink:href="#DejaVuSans-65" x="470.931641"/>
      <use xlink:href="#DejaVuSans-78" x="530.705078"/>
      <use xlink:href="#DejaVuSans-65" x="586.759766"/>
      <use xlink:href="#DejaVuSans-64" x="648.283203"/>
      <use xlink:href="#DejaVuSans-20" x="711.759766"/>
      <use xlink:href="#DejaVuSans-5b" x="743.546875"/>
      <use xlink:href="#DejaVuSans-25" x="782.560547"/>
      <use xlink:href="#DejaVuSans-5d" x="877.580078"/>
     </g>
    </g>
   </g>
   <g id="matplotlib.axis_2">
    <g id="ytick_1">
     <g id="line2d_19">
      <path d="M 57.2725 484.292079 
L 636.626269 484.292079 
" clip-path="url(#p25ed192c81)" style="fill: none; stroke-dasharray: 2.96,1.28; stroke-dashoffset: 0; stroke: #b0b0b0; stroke-opacity: 0.7; stroke-width: 0.8"/>
     </g>
     <g id="line2d_20">
      <defs>
       <path id="m161415b4d9" d="M 0 0 
L -3.5 0 
" style="stroke: #000000; stroke-width: 0.8"/>
      </defs>
      <g>
       <use xlink:href="#m161415b4d9" x="57.2725" y="484.292079" style="stroke: #000000; stroke-width: 0.8"/>
      </g>
     </g>
     <g id="text_11">
      <!-- −3 -->
      <g transform="translate(26.685 490.370829) scale(0.16 -0.16)">
       <defs>
        <path id="DejaVuSans-33" d="M 2597 2516 
Q 3050 2419 3304 2112 
Q 3559 1806 3559 1356 
Q 3559 666 3084 287 
Q 2609 -91 1734 -91 
Q 1441 -91 1130 -33 
Q 819 25 488 141 
L 488 750 
Q 750 597 1062 519 
Q 1375 441 1716 441 
Q 2309 441 2620 675 
Q 2931 909 2931 1356 
Q 2931 1769 2642 2001 
Q 2353 2234 1838 2234 
L 1294 2234 
L 1294 2753 
L 1863 2753 
Q 2328 2753 2575 2939 
Q 2822 3125 2822 3475 
Q 2822 3834 2567 4026 
Q 2313 4219 1838 4219 
Q 1578 4219 1281 4162 
Q 984 4106 628 3988 
L 628 4550 
Q 988 4650 1302 4700 
Q 1616 4750 1894 4750 
Q 2613 4750 3031 4423 
Q 3450 4097 3450 3541 
Q 3450 3153 3228 2886 
Q 3006 2619 2597 2516 
z
" transform="scale(0.015625)"/>
       </defs>
       <use xlink:href="#DejaVuSans-2212"/>
       <use xlink:href="#DejaVuSans-33" x="83.789062"/>
      </g>
     </g>
    </g>
    <g id="ytick_2">
     <g id="line2d_21">
      <path d="M 57.2725 417.004461 
L 636.626269 417.004461 
" clip-path="url(#p25ed192c81)" style="fill: none; stroke-dasharray: 2.96,1.28; stroke-dashoffset: 0; stroke: #b0b0b0; stroke-opacity: 0.7; stroke-width: 0.8"/>
     </g>
     <g id="line2d_22">
      <g>
       <use xlink:href="#m161415b4d9" x="57.2725" y="417.004461" style="stroke: #000000; stroke-width: 0.8"/>
      </g>
     </g>
     <g id="text_12">
      <!-- −2 -->
      <g transform="translate(26.685 423.083211) scale(0.16 -0.16)">
       <use xlink:href="#DejaVuSans-2212"/>
       <use xlink:href="#DejaVuSans-32" x="83.789062"/>
      </g>
     </g>
    </g>
    <g id="ytick_3">
     <g id="line2d_23">
      <path d="M 57.2725 349.716842 
L 636.626269 349.716842 
" clip-path="url(#p25ed192c81)" style="fill: none; stroke-dasharray: 2.96,1.28; stroke-dashoffset: 0; stroke: #b0b0b0; stroke-opacity: 0.7; stroke-width: 0.8"/>
     </g>
     <g id="line2d_24">
      <g>
       <use xlink:href="#m161415b4d9" x="57.2725" y="349.716842" style="stroke: #000000; stroke-width: 0.8"/>
      </g>
     </g>
     <g id="text_13">
      <!-- −1 -->
      <g transform="translate(26.685 355.795592) scale(0.16 -0.16)">
       <use xlink:href="#DejaVuSans-2212"/>
       <use xlink:href="#DejaVuSans-31" x="83.789062"/>
      </g>
     </g>
    </g>
    <g id="ytick_4">
     <g id="line2d_25">
      <path d="M 57.2725 282.429224 
L 636.626269 282.429224 
" clip-path="url(#p25ed192c81)" style="fill: none; stroke-dasharray: 2.96,1.28; stroke-dashoffset: 0; stroke: #b0b0b0; stroke-opacity: 0.7; stroke-width: 0.8"/>
     </g>
     <g id="line2d_26">
      <g>
       <use xlink:href="#m161415b4d9" x="57.2725" y="282.429224" style="stroke: #000000; stroke-width: 0.8"/>
      </g>
     </g>
     <g id="text_14">
      <!-- 0 -->
      <g transform="translate(40.0925 288.507974) scale(0.16 -0.16)">
       <use xlink:href="#DejaVuSans-30"/>
      </g>
     </g>
    </g>
    <g id="ytick_5">
     <g id="line2d_27">
      <path d="M 57.2725 215.141605 
L 636.626269 215.141605 
" clip-path="url(#p25ed192c81)" style="fill: none; stroke-dasharray: 2.96,1.28; stroke-dashoffset: 0; stroke: #b0b0b0; stroke-opacity: 0.7; stroke-width: 0.8"/>
     </g>
     <g id="line2d_28">
      <g>
       <use xlink:href="#m161415b4d9" x="57.2725" y="215.141605" style="stroke: #000000; stroke-width: 0.8"/>
      </g>
     </g>
     <g id="text_15">
      <!-- 1 -->
      <g transform="translate(40.0925 221.220355) scale(0.16 -0.16)">
       <use xlink:href="#DejaVuSans-31"/>
      </g>
     </g>
    </g>
    <g id="ytick_6">
     <g id="line2d_29">
      <path d="M 57.2725 147.853987 
L 636.626269 147.853987 
" clip-path="url(#p25ed192c81)" style="fill: none; stroke-dasharray: 2.96,1.28; stroke-dashoffset: 0; stroke: #b0b0b0; stroke-opacity: 0.7; stroke-width: 0.8"/>
     </g>
     <g id="line2d_30">
      <g>
       <use xlink:href="#m161415b4d9" x="57.2725" y="147.853987" style="stroke: #000000; stroke-width: 0.8"/>
      </g>
     </g>
     <g id="text_16">
      <!-- 2 -->
      <g transform="translate(40.0925 153.932737) scale(0.16 -0.16)">
       <use xlink:href="#DejaVuSans-32"/>
      </g>
     </g>
    </g>
    <g id="ytick_7">
     <g id="line2d_31">
      <path d="M 57.2725 80.566368 
L 636.626269 80.566368 
" clip-path="url(#p25ed192c81)" style="fill: none; stroke-dasharray: 2.96,1.28; stroke-dashoffset: 0; stroke: #b0b0b0; stroke-opacity: 0.7; stroke-width: 0.8"/>
     </g>
     <g id="line2d_32">
      <g>
       <use xlink:href="#m161415b4d9" x="57.2725" y="80.566368" style="stroke: #000000; stroke-width: 0.8"/>
      </g>
     </g>
     <g id="text_17">
      <!-- 3 -->
      <g transform="translate(40.0925 86.645118) scale(0.16 -0.16)">
       <use xlink:href="#DejaVuSans-33"/>
      </g>
     </g>
    </g>
    <g id="ytick_8">
     <g id="line2d_33">
      <path d="M 57.2725 13.27875 
L 636.626269 13.27875 
" clip-path="url(#p25ed192c81)" style="fill: none; stroke-dasharray: 2.96,1.28; stroke-dashoffset: 0; stroke: #b0b0b0; stroke-opacity: 0.7; stroke-width: 0.8"/>
     </g>
     <g id="line2d_34">
      <g>
       <use xlink:href="#m161415b4d9" x="57.2725" y="13.27875" style="stroke: #000000; stroke-width: 0.8"/>
      </g>
     </g>
     <g id="text_18">
      <!-- 4 -->
      <g transform="translate(40.0925 19.3575) scale(0.16 -0.16)">
       <defs>
        <path id="DejaVuSans-34" d="M 2419 4116 
L 825 1625 
L 2419 1625 
L 2419 4116 
z
M 2253 4666 
L 3047 4666 
L 3047 1625 
L 3713 1625 
L 3713 1100 
L 3047 1100 
L 3047 0 
L 2419 0 
L 2419 1100 
L 313 1100 
L 313 1709 
L 2253 4666 
z
" transform="scale(0.015625)"/>
       </defs>
       <use xlink:href="#DejaVuSans-34"/>
      </g>
     </g>
    </g>
    <g id="text_19">
     <!-- Rate of Change of Angle [°/%] -->
     <g transform="translate(19.3575 384.239417) rotate(-90) scale(0.16 -0.16)">
      <defs>
       <path id="DejaVuSans-52" d="M 2841 2188 
Q 3044 2119 3236 1894 
Q 3428 1669 3622 1275 
L 4263 0 
L 3584 0 
L 2988 1197 
Q 2756 1666 2539 1819 
Q 2322 1972 1947 1972 
L 1259 1972 
L 1259 0 
L 628 0 
L 628 4666 
L 2053 4666 
Q 2853 4666 3247 4331 
Q 3641 3997 3641 3322 
Q 3641 2881 3436 2590 
Q 3231 2300 2841 2188 
z
M 1259 4147 
L 1259 2491 
L 2053 2491 
Q 2509 2491 2742 2702 
Q 2975 2913 2975 3322 
Q 2975 3731 2742 3939 
Q 2509 4147 2053 4147 
L 1259 4147 
z
" transform="scale(0.015625)"/>
       <path id="DejaVuSans-61" d="M 2194 1759 
Q 1497 1759 1228 1600 
Q 959 1441 959 1056 
Q 959 750 1161 570 
Q 1363 391 1709 391 
Q 2188 391 2477 730 
Q 2766 1069 2766 1631 
L 2766 1759 
L 2194 1759 
z
M 3341 1997 
L 3341 0 
L 2766 0 
L 2766 531 
Q 2569 213 2275 61 
Q 1981 -91 1556 -91 
Q 1019 -91 701 211 
Q 384 513 384 1019 
Q 384 1609 779 1909 
Q 1175 2209 1959 2209 
L 2766 2209 
L 2766 2266 
Q 2766 2663 2505 2880 
Q 2244 3097 1772 3097 
Q 1472 3097 1187 3025 
Q 903 2953 641 2809 
L 641 3341 
Q 956 3463 1253 3523 
Q 1550 3584 1831 3584 
Q 2591 3584 2966 3190 
Q 3341 2797 3341 1997 
z
" transform="scale(0.015625)"/>
       <path id="DejaVuSans-6f" d="M 1959 3097 
Q 1497 3097 1228 2736 
Q 959 2375 959 1747 
Q 959 1119 1226 758 
Q 1494 397 1959 397 
Q 2419 397 2687 759 
Q 2956 1122 2956 1747 
Q 2956 2369 2687 2733 
Q 2419 3097 1959 3097 
z
M 1959 3584 
Q 2709 3584 3137 3096 
Q 3566 2609 3566 1747 
Q 3566 888 3137 398 
Q 2709 -91 1959 -91 
Q 1206 -91 779 398 
Q 353 888 353 1747 
Q 353 2609 779 3096 
Q 1206 3584 1959 3584 
z
" transform="scale(0.015625)"/>
       <path id="DejaVuSans-43" d="M 4122 4306 
L 4122 3641 
Q 3803 3938 3442 4084 
Q 3081 4231 2675 4231 
Q 1875 4231 1450 3742 
Q 1025 3253 1025 2328 
Q 1025 1406 1450 917 
Q 1875 428 2675 428 
Q 3081 428 3442 575 
Q 3803 722 4122 1019 
L 4122 359 
Q 3791 134 3420 21 
Q 3050 -91 2638 -91 
Q 1578 -91 968 557 
Q 359 1206 359 2328 
Q 359 3453 968 4101 
Q 1578 4750 2638 4750 
Q 3056 4750 3426 4639 
Q 3797 4528 4122 4306 
z
" transform="scale(0.015625)"/>
       <path id="DejaVuSans-68" d="M 3513 2113 
L 3513 0 
L 2938 0 
L 2938 2094 
Q 2938 2591 2744 2837 
Q 2550 3084 2163 3084 
Q 1697 3084 1428 2787 
Q 1159 2491 1159 1978 
L 1159 0 
L 581 0 
L 581 4863 
L 1159 4863 
L 1159 2956 
Q 1366 3272 1645 3428 
Q 1925 3584 2291 3584 
Q 2894 3584 3203 3211 
Q 3513 2838 3513 2113 
z
" transform="scale(0.015625)"/>
       <path id="DejaVuSans-67" d="M 2906 1791 
Q 2906 2416 2648 2759 
Q 2391 3103 1925 3103 
Q 1463 3103 1205 2759 
Q 947 2416 947 1791 
Q 947 1169 1205 825 
Q 1463 481 1925 481 
Q 2391 481 2648 825 
Q 2906 1169 2906 1791 
z
M 3481 434 
Q 3481 -459 3084 -895 
Q 2688 -1331 1869 -1331 
Q 1566 -1331 1297 -1286 
Q 1028 -1241 775 -1147 
L 775 -588 
Q 1028 -725 1275 -790 
Q 1522 -856 1778 -856 
Q 2344 -856 2625 -561 
Q 2906 -266 2906 331 
L 2906 616 
Q 2728 306 2450 153 
Q 2172 0 1784 0 
Q 1141 0 747 490 
Q 353 981 353 1791 
Q 353 2603 747 3093 
Q 1141 3584 1784 3584 
Q 2172 3584 2450 3431 
Q 2728 3278 2906 2969 
L 2906 3500 
L 3481 3500 
L 3481 434 
z
" transform="scale(0.015625)"/>
       <path id="DejaVuSans-41" d="M 2188 4044 
L 1331 1722 
L 3047 1722 
L 2188 4044 
z
M 1831 4666 
L 2547 4666 
L 4325 0 
L 3669 0 
L 3244 1197 
L 1141 1197 
L 716 0 
L 50 0 
L 1831 4666 
z
" transform="scale(0.015625)"/>
       <path id="DejaVuSans-b0" d="M 1600 4347 
Q 1350 4347 1178 4173 
Q 1006 4000 1006 3750 
Q 1006 3503 1178 3333 
Q 1350 3163 1600 3163 
Q 1850 3163 2022 3333 
Q 2194 3503 2194 3750 
Q 2194 3997 2020 4172 
Q 1847 4347 1600 4347 
z
M 1600 4750 
Q 1800 4750 1984 4673 
Q 2169 4597 2303 4453 
Q 2447 4313 2519 4134 
Q 2591 3956 2591 3750 
Q 2591 3338 2302 3052 
Q 2013 2766 1594 2766 
Q 1172 2766 890 3047 
Q 609 3328 609 3750 
Q 609 4169 896 4459 
Q 1184 4750 1600 4750 
z
" transform="scale(0.015625)"/>
       <path id="DejaVuSans-2f" d="M 1625 4666 
L 2156 4666 
L 531 -594 
L 0 -594 
L 1625 4666 
z
" transform="scale(0.015625)"/>
      </defs>
      <use xlink:href="#DejaVuSans-52"/>
      <use xlink:href="#DejaVuSans-61" x="67.232422"/>
      <use xlink:href="#DejaVuSans-74" x="128.511719"/>
      <use xlink:href="#DejaVuSans-65" x="167.720703"/>
      <use xlink:href="#DejaVuSans-20" x="229.244141"/>
      <use xlink:href="#DejaVuSans-6f" x="261.03125"/>
      <use xlink:href="#DejaVuSans-66" x="322.212891"/>
      <use xlink:href="#DejaVuSans-20" x="357.417969"/>
      <use xlink:href="#DejaVuSans-43" x="389.205078"/>
      <use xlink:href="#DejaVuSans-68" x="459.029297"/>
      <use xlink:href="#DejaVuSans-61" x="522.408203"/>
      <use xlink:href="#DejaVuSans-6e" x="583.6875"/>
      <use xlink:href="#DejaVuSans-67" x="647.066406"/>
      <use xlink:href="#DejaVuSans-65" x="710.542969"/>
      <use xlink:href="#DejaVuSans-20" x="772.066406"/>
      <use xlink:href="#DejaVuSans-6f" x="803.853516"/>
      <use xlink:href="#DejaVuSans-66" x="865.035156"/>
      <use xlink:href="#DejaVuSans-20" x="900.240234"/>
      <use xlink:href="#DejaVuSans-41" x="932.027344"/>
      <use xlink:href="#DejaVuSans-6e" x="1000.435547"/>
      <use xlink:href="#DejaVuSans-67" x="1063.814453"/>
      <use xlink:href="#DejaVuSans-6c" x="1127.291016"/>
      <use xlink:href="#DejaVuSans-65" x="1155.074219"/>
      <use xlink:href="#DejaVuSans-20" x="1216.597656"/>
      <use xlink:href="#DejaVuSans-5b" x="1248.384766"/>
      <use xlink:href="#DejaVuSans-b0" x="1287.398438"/>
      <use xlink:href="#DejaVuSans-2f" x="1337.398438"/>
      <use xlink:href="#DejaVuSans-25" x="1371.089844"/>
      <use xlink:href="#DejaVuSans-5d" x="1466.109375"/>
     </g>
    </g>
   </g>
   <g id="line2d_35">
    <path d="M 83.606762 443.034203 
L 89.843824 416.645874 
L 96.080886 407.959363 
L 102.317949 405.376604 
L 108.555011 406.397806 
L 114.792073 400.832307 
L 121.029135 389.9509 
L 127.266197 388.156791 
L 133.503259 392.205628 
L 139.740321 412.898387 
L 145.977383 410.368444 
L 152.214445 385.343262 
L 158.451508 357.292138 
L 164.68857 380.248532 
L 170.925632 399.776064 
L 177.162694 399.308709 
L 183.399756 395.135969 
L 189.636818 397.929721 
L 195.87388 389.97638 
L 202.110942 395.044177 
L 208.348004 399.140493 
L 214.585066 385.911168 
L 220.822129 373.551171 
L 227.059191 385.534147 
L 233.296253 388.032074 
L 239.533315 371.764374 
L 245.770377 364.355727 
L 252.007439 344.408292 
L 258.244501 327.060826 
L 264.481563 353.993942 
L 270.718625 370.511274 
L 276.955688 374.572648 
L 283.19275 378.620635 
L 289.429812 381.313965 
L 295.666874 376.161073 
L 301.903936 368.806847 
L 308.140998 357.290229 
L 314.37806 352.745223 
L 320.615122 359.101188 
L 326.852184 377.900501 
L 333.089246 381.912953 
" clip-path="url(#p25ed192c81)" style="fill: none; stroke: #1f77b4; stroke-width: 1.5; stroke-linecap: square"/>
   </g>
   <g id="line2d_36">
    <path d="M 83.606762 443.034203 
L 89.843824 432.997372 
L 96.080886 430.167493 
L 102.317949 447.19182 
L 108.555011 462.570654 
L 114.792073 442.377575 
L 121.029135 430.362707 
L 127.266197 426.850377 
L 133.503259 436.7521 
L 139.740321 435.013374 
L 145.977383 442.2426 
L 152.214445 428.670714 
L 158.451508 428.867463 
L 164.68857 421.824133 
L 170.925632 414.262532 
L 177.162694 416.027211 
L 183.399756 423.300192 
L 189.636818 409.103483 
L 195.87388 407.470057 
L 202.110942 408.952903 
L 208.348004 413.79244 
L 214.585066 418.21363 
L 220.822129 415.074246 
L 227.059191 406.342189 
L 233.296253 423.194071 
L 239.533315 437.339067 
L 245.770377 408.65647 
L 252.007439 398.837996 
L 258.244501 400.280933 
L 264.481563 392.458842 
L 270.718625 397.830858 
L 276.955688 407.484386 
L 283.19275 419.966701 
L 289.429812 408.004864 
L 295.666874 392.830759 
L 301.903936 389.546529 
L 308.140998 397.472332 
L 314.37806 390.498698 
L 320.615122 381.413031 
L 326.852184 384.562037 
L 333.089246 381.912953 
" clip-path="url(#p25ed192c81)" style="fill: none; stroke: #1f77b4; stroke-width: 1.5; stroke-linecap: square"/>
   </g>
   <g id="line2d_37">
    <path d="M 373.283647 215.283001 
L 379.520709 141.230501 
L 385.757771 128.942633 
L 391.994833 137.665456 
L 398.231895 157.073422 
L 404.468957 186.40039 
L 410.706019 172.097713 
L 416.943081 159.133477 
L 423.180144 167.109438 
L 429.417206 164.445169 
L 435.654268 150.589161 
L 441.89133 168.12961 
L 448.128392 162.419329 
L 454.365454 158.072349 
L 460.602516 150.876729 
L 466.839578 139.237116 
L 473.07664 136.554775 
L 479.313703 153.756497 
L 485.550765 148.898506 
L 491.787827 148.445658 
L 498.024889 140.385551 
L 504.261951 149.680122 
L 510.499013 160.701186 
L 516.736075 160.733058 
L 522.973137 155.01107 
L 529.210199 144.375941 
L 535.447261 133.889992 
L 541.684324 140.2795 
L 547.921386 143.224283 
L 554.158448 145.745 
L 560.39551 123.836881 
L 566.632572 129.998113 
L 572.869634 145.886731 
L 579.106696 147.223326 
L 585.343758 141.941944 
L 591.58082 141.942391 
L 597.817883 139.500356 
L 604.054945 131.727869 
L 610.292007 129.028589 
" clip-path="url(#p25ed192c81)" style="fill: none; stroke: #1f77b4; stroke-width: 1.5; stroke-linecap: square"/>
   </g>
   <g id="line2d_38">
    <path d="M 373.283647 215.283001 
L 379.520709 182.691086 
L 385.757771 165.380379 
L 391.994833 188.683792 
L 398.231895 197.200116 
L 404.468957 194.92757 
L 410.706019 215.286378 
L 416.943081 203.675565 
L 423.180144 193.94268 
L 429.417206 203.351485 
L 435.654268 221.284566 
L 441.89133 217.752169 
L 448.128392 222.290029 
L 454.365454 194.645449 
L 460.602516 167.827407 
L 466.839578 179.336534 
L 473.07664 195.841012 
L 479.313703 177.826299 
L 485.550765 180.948729 
L 491.787827 179.199119 
L 498.024889 188.485614 
L 504.261951 175.35576 
L 510.499013 169.382802 
L 516.736075 179.643193 
L 522.973137 173.560738 
L 529.210199 169.480181 
L 535.447261 168.926842 
L 541.684324 176.802229 
L 547.921386 195.120398 
L 554.158448 170.766747 
L 560.39551 169.276867 
L 566.632572 166.003058 
L 572.869634 166.288962 
L 579.106696 172.404503 
L 585.343758 170.721158 
L 591.58082 165.232744 
L 597.817883 158.926289 
L 604.054945 156.5822 
L 610.292007 159.71179 
" clip-path="url(#p25ed192c81)" style="fill: none; stroke: #1f77b4; stroke-width: 1.5; stroke-linecap: square"/>
   </g>
   <g id="line2d_39">
    <path d="M 83.606762 446.21245 
L 89.843824 388.947543 
L 96.080886 381.947606 
L 102.317949 429.008445 
L 108.555011 397.674509 
L 114.792073 362.588476 
L 121.029135 351.662448 
L 127.266197 395.50719 
L 133.503259 396.14235 
L 139.740321 376.738606 
L 145.977383 347.328351 
L 152.214445 383.619311 
L 158.451508 362.712396 
L 164.68857 369.393219 
L 170.925632 350.934887 
L 177.162694 360.917971 
L 183.399756 370.903942 
L 189.636818 352.623332 
L 195.87388 338.747207 
L 202.110942 342.05412 
L 208.348004 335.273544 
L 214.585066 392.617088 
L 220.822129 398.248794 
L 227.059191 395.457072 
L 233.296253 388.064267 
L 239.533315 355.806334 
L 245.770377 341.654427 
L 252.007439 360.021893 
L 258.244501 369.54752 
L 264.481563 370.831529 
L 270.718625 353.536108 
L 276.955688 354.184187 
L 283.19275 355.486468 
L 289.429812 359.787053 
L 295.666874 289.205181 
L 301.903936 343.730109 
L 308.140998 373.160252 
L 314.37806 375.997244 
L 320.615122 324.489036 
L 326.852184 351.376278 
L 333.089246 390.873368 
" clip-path="url(#p25ed192c81)" style="fill: none; stroke: #ff7f0e; stroke-width: 1.5; stroke-linecap: square"/>
   </g>
   <g id="line2d_40">
    <path d="M 83.606762 446.21245 
L 89.843824 437.66408 
L 96.080886 442.66287 
L 102.317949 435.107019 
L 108.555011 470.584613 
L 114.792073 451.371863 
L 121.029135 436.582839 
L 127.266197 451.488508 
L 133.503259 490.630174 
L 139.740321 493.786761 
L 145.977383 466.790631 
L 152.214445 438.125336 
L 158.451508 462.5806 
L 164.68857 425.695331 
L 170.925632 434.280564 
L 177.162694 441.399116 
L 183.399756 434.657486 
L 189.636818 419.400134 
L 195.87388 403.30884 
L 202.110942 386.670273 
L 208.348004 401.557919 
L 214.585066 421.744304 
L 220.822129 478.781343 
L 227.059191 482.013613 
L 233.296253 442.94943 
L 239.533315 406.857439 
L 245.770377 408.42983 
L 252.007439 417.462638 
L 258.244501 428.904422 
L 264.481563 454.189017 
L 270.718625 488.442059 
L 276.955688 487.492478 
L 283.19275 472.451216 
L 289.429812 418.075002 
L 295.666874 421.756866 
L 301.903936 410.202178 
L 308.140998 435.413288 
L 314.37806 407.299134 
L 320.615122 427.870045 
L 326.852184 465.117417 
L 333.089246 390.873368 
" clip-path="url(#p25ed192c81)" style="fill: none; stroke: #ff7f0e; stroke-width: 1.5; stroke-linecap: square"/>
   </g>
   <g id="line2d_41">
    <path d="M 373.283647 69.567968 
L 379.520709 142.114824 
L 385.757771 163.907065 
L 391.994833 174.048843 
L 398.231895 143.071042 
L 404.468957 139.791099 
L 410.706019 153.201129 
L 416.943081 143.045599 
L 423.180144 119.344578 
L 429.417206 143.714721 
L 435.654268 133.932346 
L 441.89133 128.141489 
L 448.128392 125.941848 
L 454.365454 114.231706 
L 460.602516 81.316536 
L 466.839578 100.515987 
L 473.07664 107.22282 
L 479.313703 102.839752 
L 485.550765 51.115938 
L 491.787827 117.958496 
L 498.024889 141.009481 
L 504.261951 126.058365 
L 510.499013 124.929344 
L 516.736075 95.355428 
L 522.973137 79.331047 
L 529.210199 105.830893 
L 535.447261 108.215361 
L 541.684324 137.921197 
L 547.921386 156.079714 
L 554.158448 143.970209 
L 560.39551 49.060434 
L 566.632572 44.635702 
L 572.869634 78.905151 
L 579.106696 115.537863 
L 585.343758 139.441672 
L 591.58082 117.328913 
L 597.817883 69.622801 
L 604.054945 33.872073 
L 610.292007 62.586279 
" clip-path="url(#p25ed192c81)" style="fill: none; stroke: #ff7f0e; stroke-width: 1.5; stroke-linecap: square"/>
   </g>
   <g id="line2d_42">
    <path d="M 373.283647 69.567968 
L 379.520709 157.138777 
L 385.757771 231.479547 
L 391.994833 214.074328 
L 398.231895 232.729123 
L 404.468957 229.370828 
L 410.706019 228.478389 
L 416.943081 217.135023 
L 423.180144 209.064894 
L 429.417206 202.883609 
L 435.654268 239.789181 
L 441.89133 238.61801 
L 448.128392 217.660313 
L 454.365454 193.801593 
L 460.602516 218.987675 
L 466.839578 243.318447 
L 473.07664 240.639196 
L 479.313703 224.799945 
L 485.550765 261.503163 
L 491.787827 260.404381 
L 498.024889 283.379295 
L 504.261951 245.47282 
L 510.499013 205.749763 
L 516.736075 214.692476 
L 522.973137 212.362552 
L 529.210199 195.418674 
L 535.447261 226.177053 
L 541.684324 226.188923 
L 547.921386 245.022922 
L 554.158448 207.965036 
L 560.39551 215.731434 
L 566.632572 183.812668 
L 572.869634 179.418215 
L 579.106696 213.716102 
L 585.343758 206.132529 
L 591.58082 201.556984 
L 597.817883 208.787321 
L 604.054945 220.600648 
L 610.292007 203.405489 
" clip-path="url(#p25ed192c81)" style="fill: none; stroke: #ff7f0e; stroke-width: 1.5; stroke-linecap: square"/>
   </g>
   <g id="patch_3">
    <path d="M 57.2725 516.782495 
L 57.2725 10.876338 
" style="fill: none; stroke: #000000; stroke-width: 0.8; stroke-linejoin: miter; stroke-linecap: square"/>
   </g>
   <g id="patch_4">
    <path d="M 636.626269 516.782495 
L 636.626269 10.876338 
" style="fill: none; stroke: #000000; stroke-width: 0.8; stroke-linejoin: miter; stroke-linecap: square"/>
   </g>
   <g id="patch_5">
    <path d="M 57.2725 516.782495 
L 636.626269 516.782495 
" style="fill: none; stroke: #000000; stroke-width: 0.8; stroke-linejoin: miter; stroke-linecap: square"/>
   </g>
   <g id="patch_6">
    <path d="M 57.2725 10.876338 
L 636.626269 10.876338 
" style="fill: none; stroke: #000000; stroke-width: 0.8; stroke-linejoin: miter; stroke-linecap: square"/>
   </g>
   <g id="legend_1">
    <g id="patch_7">
     <path d="M 64.2725 48.232588 
L 132.61 48.232588 
Q 134.61 48.232588 134.61 46.232588 
L 134.61 17.876338 
Q 134.61 15.876338 132.61 15.876338 
L 64.2725 15.876338 
Q 62.2725 15.876338 62.2725 17.876338 
L 62.2725 46.232588 
Q 62.2725 48.232588 64.2725 48.232588 
z
" style="fill: #ffffff; opacity: 0.8; stroke: #cccccc; stroke-linejoin: miter"/>
    </g>
    <g id="line2d_43">
     <path d="M 66.2725 23.974776 
L 76.2725 23.974776 
L 86.2725 23.974776 
" style="fill: none; stroke: #1f77b4; stroke-width: 1.5; stroke-linecap: square"/>
    </g>
    <g id="text_20">
     <!-- Auto -->
     <g transform="translate(94.2725 27.474776) scale(0.1 -0.1)">
      <defs>
       <path id="DejaVuSans-75" d="M 544 1381 
L 544 3500 
L 1119 3500 
L 1119 1403 
Q 1119 906 1312 657 
Q 1506 409 1894 409 
Q 2359 409 2629 706 
Q 2900 1003 2900 1516 
L 2900 3500 
L 3475 3500 
L 3475 0 
L 2900 0 
L 2900 538 
Q 2691 219 2414 64 
Q 2138 -91 1772 -91 
Q 1169 -91 856 284 
Q 544 659 544 1381 
z
M 1991 3584 
L 1991 3584 
z
" transform="scale(0.015625)"/>
      </defs>
      <use xlink:href="#DejaVuSans-41"/>
      <use xlink:href="#DejaVuSans-75" x="68.408203"/>
      <use xlink:href="#DejaVuSans-74" x="131.787109"/>
      <use xlink:href="#DejaVuSans-6f" x="170.996094"/>
     </g>
    </g>
    <g id="line2d_44">
     <path d="M 66.2725 38.652901 
L 76.2725 38.652901 
L 86.2725 38.652901 
" style="fill: none; stroke: #ff7f0e; stroke-width: 1.5; stroke-linecap: square"/>
    </g>
    <g id="text_21">
     <!-- Manual -->
     <g transform="translate(94.2725 42.152901) scale(0.1 -0.1)">
      <defs>
       <path id="DejaVuSans-4d" d="M 628 4666 
L 1569 4666 
L 2759 1491 
L 3956 4666 
L 4897 4666 
L 4897 0 
L 4281 0 
L 4281 4097 
L 3078 897 
L 2444 897 
L 1241 4097 
L 1241 0 
L 628 0 
L 628 4666 
z
" transform="scale(0.015625)"/>
      </defs>
      <use xlink:href="#DejaVuSans-4d"/>
      <use xlink:href="#DejaVuSans-61" x="86.279297"/>
      <use xlink:href="#DejaVuSans-6e" x="147.558594"/>
      <use xlink:href="#DejaVuSans-75" x="210.9375"/>
      <use xlink:href="#DejaVuSans-61" x="274.316406"/>
      <use xlink:href="#DejaVuSans-6c" x="335.595703"/>
     </g>
    </g>
   </g>
  </g>
  <g id="axes_2">
   <g id="patch_8">
    <path d="M 701.178731 516.782495 
L 1280.5325 516.782495 
L 1280.5325 10.876338 
L 701.178731 10.876338 
z
" style="fill: #ffffff"/>
   </g>
   <g id="PathCollection_1">
    <defs>
     <path id="m48f1aec3ef" d="M 0 3.535534 
C 0.937635 3.535534 1.836992 3.163008 2.5 2.5 
C 3.163008 1.836992 3.535534 0.937635 3.535534 0 
C 3.535534 -0.937635 3.163008 -1.836992 2.5 -2.5 
C 1.836992 -3.163008 0.937635 -3.535534 0 -3.535534 
C -0.937635 -3.535534 -1.836992 -3.163008 -2.5 -2.5 
C -3.163008 -1.836992 -3.535534 -0.937635 -3.535534 0 
C -3.535534 0.937635 -3.163008 1.836992 -2.5 2.5 
C -1.836992 3.163008 -0.937635 3.535534 0 3.535534 
z
" style="stroke: #000000; stroke-opacity: 0.7"/>
    </defs>
    <g clip-path="url(#pa1eb2da482)">
     <use xlink:href="#m48f1aec3ef" x="878.938377" y="362.111887" style="fill: #1f77b4; fill-opacity: 0.7; stroke: #000000; stroke-opacity: 0.7"/>
     <use xlink:href="#m48f1aec3ef" x="881.743135" y="201.689688" style="fill: #1f77b4; fill-opacity: 0.7; stroke: #000000; stroke-opacity: 0.7"/>
     <use xlink:href="#m48f1aec3ef" x="885.669372" y="293.05343" style="fill: #1f77b4; fill-opacity: 0.7; stroke: #000000; stroke-opacity: 0.7"/>
     <use xlink:href="#m48f1aec3ef" x="872.142678" y="295.0245" style="fill: #1f77b4; fill-opacity: 0.7; stroke: #000000; stroke-opacity: 0.7"/>
     <use xlink:href="#m48f1aec3ef" x="879.634048" y="267.615945" style="fill: #1f77b4; fill-opacity: 0.7; stroke: #000000; stroke-opacity: 0.7"/>
    </g>
   </g>
   <g id="PathCollection_2">
    <defs>
     <path id="m9f1f81d22a" d="M 0 3.535534 
C 0.937635 3.535534 1.836992 3.163008 2.5 2.5 
C 3.163008 1.836992 3.535534 0.937635 3.535534 0 
C 3.535534 -0.937635 3.163008 -1.836992 2.5 -2.5 
C 1.836992 -3.163008 0.937635 -3.535534 0 -3.535534 
C -0.937635 -3.535534 -1.836992 -3.163008 -2.5 -2.5 
C -3.163008 -1.836992 -3.535534 -0.937635 -3.535534 0 
C -3.535534 0.937635 -3.163008 1.836992 -2.5 2.5 
C -1.836992 3.163008 -0.937635 3.535534 0 3.535534 
z
" style="stroke: #000000; stroke-opacity: 0.7"/>
    </defs>
    <g clip-path="url(#pa1eb2da482)">
     <use xlink:href="#m9f1f81d22a" x="1104.015282" y="133.407024" style="fill: #ff7f0e; fill-opacity: 0.7; stroke: #000000; stroke-opacity: 0.7"/>
     <use xlink:href="#m9f1f81d22a" x="1099.81292" y="115.646658" style="fill: #ff7f0e; fill-opacity: 0.7; stroke: #000000; stroke-opacity: 0.7"/>
     <use xlink:href="#m9f1f81d22a" x="1104.972813" y="160.605863" style="fill: #ff7f0e; fill-opacity: 0.7; stroke: #000000; stroke-opacity: 0.7"/>
     <use xlink:href="#m9f1f81d22a" x="1100.196059" y="31.40127" style="fill: #ff7f0e; fill-opacity: 0.7; stroke: #000000; stroke-opacity: 0.7"/>
     <use xlink:href="#m9f1f81d22a" x="1126.628229" y="107.362672" style="fill: #ff7f0e; fill-opacity: 0.7; stroke: #000000; stroke-opacity: 0.7"/>
    </g>
   </g>
   <g id="matplotlib.axis_3">
    <g id="xtick_10">
     <g id="line2d_45">
      <g>
       <use xlink:href="#me4505a486a" x="871.576898" y="516.782495" style="stroke: #000000; stroke-width: 0.8"/>
      </g>
     </g>
     <g id="text_22">
      <!-- Automatic -->
      <g transform="translate(830.550648 535.939995) scale(0.16 -0.16)">
       <defs>
        <path id="DejaVuSans-6d" d="M 3328 2828 
Q 3544 3216 3844 3400 
Q 4144 3584 4550 3584 
Q 5097 3584 5394 3201 
Q 5691 2819 5691 2113 
L 5691 0 
L 5113 0 
L 5113 2094 
Q 5113 2597 4934 2840 
Q 4756 3084 4391 3084 
Q 3944 3084 3684 2787 
Q 3425 2491 3425 1978 
L 3425 0 
L 2847 0 
L 2847 2094 
Q 2847 2600 2669 2842 
Q 2491 3084 2119 3084 
Q 1678 3084 1418 2786 
Q 1159 2488 1159 1978 
L 1159 0 
L 581 0 
L 581 3500 
L 1159 3500 
L 1159 2956 
Q 1356 3278 1631 3431 
Q 1906 3584 2284 3584 
Q 2666 3584 2933 3390 
Q 3200 3197 3328 2828 
z
" transform="scale(0.015625)"/>
        <path id="DejaVuSans-69" d="M 603 3500 
L 1178 3500 
L 1178 0 
L 603 0 
L 603 3500 
z
M 603 4863 
L 1178 4863 
L 1178 4134 
L 603 4134 
L 603 4863 
z
" transform="scale(0.015625)"/>
       </defs>
       <use xlink:href="#DejaVuSans-41"/>
       <use xlink:href="#DejaVuSans-75" x="68.408203"/>
       <use xlink:href="#DejaVuSans-74" x="131.787109"/>
       <use xlink:href="#DejaVuSans-6f" x="170.996094"/>
       <use xlink:href="#DejaVuSans-6d" x="232.177734"/>
       <use xlink:href="#DejaVuSans-61" x="329.589844"/>
       <use xlink:href="#DejaVuSans-74" x="390.869141"/>
       <use xlink:href="#DejaVuSans-69" x="430.078125"/>
       <use xlink:href="#DejaVuSans-63" x="457.861328"/>
      </g>
     </g>
    </g>
    <g id="xtick_11">
     <g id="line2d_46">
      <g>
       <use xlink:href="#me4505a486a" x="1110.134333" y="516.782495" style="stroke: #000000; stroke-width: 0.8"/>
      </g>
     </g>
     <g id="text_23">
      <!-- Manual -->
      <g transform="translate(1081.064333 535.939995) scale(0.16 -0.16)">
       <use xlink:href="#DejaVuSans-4d"/>
       <use xlink:href="#DejaVuSans-61" x="86.279297"/>
       <use xlink:href="#DejaVuSans-6e" x="147.558594"/>
       <use xlink:href="#DejaVuSans-75" x="210.9375"/>
       <use xlink:href="#DejaVuSans-61" x="274.316406"/>
       <use xlink:href="#DejaVuSans-6c" x="335.595703"/>
      </g>
     </g>
    </g>
   </g>
   <g id="matplotlib.axis_4">
    <g id="ytick_9">
     <g id="line2d_47">
      <path d="M 701.178731 516.782495 
L 1280.5325 516.782495 
" clip-path="url(#pa1eb2da482)" style="fill: none; stroke: #b0b0b0; stroke-width: 0.8; stroke-linecap: square"/>
     </g>
     <g id="line2d_48">
      <g>
       <use xlink:href="#m161415b4d9" x="701.178731" y="516.782495" style="stroke: #000000; stroke-width: 0.8"/>
      </g>
     </g>
     <g id="text_24">
      <!-- 0 -->
      <g transform="translate(683.998731 522.861245) scale(0.16 -0.16)">
       <use xlink:href="#DejaVuSans-30"/>
      </g>
     </g>
    </g>
    <g id="ytick_10">
     <g id="line2d_49">
      <path d="M 701.178731 448.366057 
L 1280.5325 448.366057 
" clip-path="url(#pa1eb2da482)" style="fill: none; stroke: #b0b0b0; stroke-width: 0.8; stroke-linecap: square"/>
     </g>
     <g id="line2d_50">
      <g>
       <use xlink:href="#m161415b4d9" x="701.178731" y="448.366057" style="stroke: #000000; stroke-width: 0.8"/>
      </g>
     </g>
     <g id="text_25">
      <!-- 10 -->
      <g transform="translate(673.818731 454.444807) scale(0.16 -0.16)">
       <use xlink:href="#DejaVuSans-31"/>
       <use xlink:href="#DejaVuSans-30" x="63.623047"/>
      </g>
     </g>
    </g>
    <g id="ytick_11">
     <g id="line2d_51">
      <path d="M 701.178731 379.949619 
L 1280.5325 379.949619 
" clip-path="url(#pa1eb2da482)" style="fill: none; stroke: #b0b0b0; stroke-width: 0.8; stroke-linecap: square"/>
     </g>
     <g id="line2d_52">
      <g>
       <use xlink:href="#m161415b4d9" x="701.178731" y="379.949619" style="stroke: #000000; stroke-width: 0.8"/>
      </g>
     </g>
     <g id="text_26">
      <!-- 20 -->
      <g transform="translate(673.818731 386.028369) scale(0.16 -0.16)">
       <use xlink:href="#DejaVuSans-32"/>
       <use xlink:href="#DejaVuSans-30" x="63.623047"/>
      </g>
     </g>
    </g>
    <g id="ytick_12">
     <g id="line2d_53">
      <path d="M 701.178731 311.533182 
L 1280.5325 311.533182 
" clip-path="url(#pa1eb2da482)" style="fill: none; stroke: #b0b0b0; stroke-width: 0.8; stroke-linecap: square"/>
     </g>
     <g id="line2d_54">
      <g>
       <use xlink:href="#m161415b4d9" x="701.178731" y="311.533182" style="stroke: #000000; stroke-width: 0.8"/>
      </g>
     </g>
     <g id="text_27">
      <!-- 30 -->
      <g transform="translate(673.818731 317.611932) scale(0.16 -0.16)">
       <use xlink:href="#DejaVuSans-33"/>
       <use xlink:href="#DejaVuSans-30" x="63.623047"/>
      </g>
     </g>
    </g>
    <g id="ytick_13">
     <g id="line2d_55">
      <path d="M 701.178731 243.116744 
L 1280.5325 243.116744 
" clip-path="url(#pa1eb2da482)" style="fill: none; stroke: #b0b0b0; stroke-width: 0.8; stroke-linecap: square"/>
     </g>
     <g id="line2d_56">
      <g>
       <use xlink:href="#m161415b4d9" x="701.178731" y="243.116744" style="stroke: #000000; stroke-width: 0.8"/>
      </g>
     </g>
     <g id="text_28">
      <!-- 40 -->
      <g transform="translate(673.818731 249.195494) scale(0.16 -0.16)">
       <use xlink:href="#DejaVuSans-34"/>
       <use xlink:href="#DejaVuSans-30" x="63.623047"/>
      </g>
     </g>
    </g>
    <g id="ytick_14">
     <g id="line2d_57">
      <path d="M 701.178731 174.700306 
L 1280.5325 174.700306 
" clip-path="url(#pa1eb2da482)" style="fill: none; stroke: #b0b0b0; stroke-width: 0.8; stroke-linecap: square"/>
     </g>
     <g id="line2d_58">
      <g>
       <use xlink:href="#m161415b4d9" x="701.178731" y="174.700306" style="stroke: #000000; stroke-width: 0.8"/>
      </g>
     </g>
     <g id="text_29">
      <!-- 50 -->
      <g transform="translate(673.818731 180.779056) scale(0.16 -0.16)">
       <use xlink:href="#DejaVuSans-35"/>
       <use xlink:href="#DejaVuSans-30" x="63.623047"/>
      </g>
     </g>
    </g>
    <g id="ytick_15">
     <g id="line2d_59">
      <path d="M 701.178731 106.283868 
L 1280.5325 106.283868 
" clip-path="url(#pa1eb2da482)" style="fill: none; stroke: #b0b0b0; stroke-width: 0.8; stroke-linecap: square"/>
     </g>
     <g id="line2d_60">
      <g>
       <use xlink:href="#m161415b4d9" x="701.178731" y="106.283868" style="stroke: #000000; stroke-width: 0.8"/>
      </g>
     </g>
     <g id="text_30">
      <!-- 60 -->
      <g transform="translate(673.818731 112.362618) scale(0.16 -0.16)">
       <defs>
        <path id="DejaVuSans-36" d="M 2113 2584 
Q 1688 2584 1439 2293 
Q 1191 2003 1191 1497 
Q 1191 994 1439 701 
Q 1688 409 2113 409 
Q 2538 409 2786 701 
Q 3034 994 3034 1497 
Q 3034 2003 2786 2293 
Q 2538 2584 2113 2584 
z
M 3366 4563 
L 3366 3988 
Q 3128 4100 2886 4159 
Q 2644 4219 2406 4219 
Q 1781 4219 1451 3797 
Q 1122 3375 1075 2522 
Q 1259 2794 1537 2939 
Q 1816 3084 2150 3084 
Q 2853 3084 3261 2657 
Q 3669 2231 3669 1497 
Q 3669 778 3244 343 
Q 2819 -91 2113 -91 
Q 1303 -91 875 529 
Q 447 1150 447 2328 
Q 447 3434 972 4092 
Q 1497 4750 2381 4750 
Q 2619 4750 2861 4703 
Q 3103 4656 3366 4563 
z
" transform="scale(0.015625)"/>
       </defs>
       <use xlink:href="#DejaVuSans-36"/>
       <use xlink:href="#DejaVuSans-30" x="63.623047"/>
      </g>
     </g>
    </g>
    <g id="ytick_16">
     <g id="line2d_61">
      <path d="M 701.178731 37.86743 
L 1280.5325 37.86743 
" clip-path="url(#pa1eb2da482)" style="fill: none; stroke: #b0b0b0; stroke-width: 0.8; stroke-linecap: square"/>
     </g>
     <g id="line2d_62">
      <g>
       <use xlink:href="#m161415b4d9" x="701.178731" y="37.86743" style="stroke: #000000; stroke-width: 0.8"/>
      </g>
     </g>
     <g id="text_31">
      <!-- 70 -->
      <g transform="translate(673.818731 43.94618) scale(0.16 -0.16)">
       <use xlink:href="#DejaVuSans-37"/>
       <use xlink:href="#DejaVuSans-30" x="63.623047"/>
      </g>
     </g>
    </g>
    <g id="text_32">
     <!-- Coefficient of Variation (%) -->
     <g transform="translate(666.491231 371.513167) rotate(-90) scale(0.16 -0.16)">
      <defs>
       <path id="DejaVuSans-56" d="M 1831 0 
L 50 4666 
L 709 4666 
L 2188 738 
L 3669 4666 
L 4325 4666 
L 2547 0 
L 1831 0 
z
" transform="scale(0.015625)"/>
       <path id="DejaVuSans-28" d="M 1984 4856 
Q 1566 4138 1362 3434 
Q 1159 2731 1159 2009 
Q 1159 1288 1364 580 
Q 1569 -128 1984 -844 
L 1484 -844 
Q 1016 -109 783 600 
Q 550 1309 550 2009 
Q 550 2706 781 3412 
Q 1013 4119 1484 4856 
L 1984 4856 
z
" transform="scale(0.015625)"/>
       <path id="DejaVuSans-29" d="M 513 4856 
L 1013 4856 
Q 1481 4119 1714 3412 
Q 1947 2706 1947 2009 
Q 1947 1309 1714 600 
Q 1481 -109 1013 -844 
L 513 -844 
Q 928 -128 1133 580 
Q 1338 1288 1338 2009 
Q 1338 2731 1133 3434 
Q 928 4138 513 4856 
z
" transform="scale(0.015625)"/>
      </defs>
      <use xlink:href="#DejaVuSans-43"/>
      <use xlink:href="#DejaVuSans-6f" x="69.824219"/>
      <use xlink:href="#DejaVuSans-65" x="131.005859"/>
      <use xlink:href="#DejaVuSans-66" x="192.529297"/>
      <use xlink:href="#DejaVuSans-66" x="227.734375"/>
      <use xlink:href="#DejaVuSans-69" x="262.939453"/>
      <use xlink:href="#DejaVuSans-63" x="290.722656"/>
      <use xlink:href="#DejaVuSans-69" x="345.703125"/>
      <use xlink:href="#DejaVuSans-65" x="373.486328"/>
      <use xlink:href="#DejaVuSans-6e" x="435.009766"/>
      <use xlink:href="#DejaVuSans-74" x="498.388672"/>
      <use xlink:href="#DejaVuSans-20" x="537.597656"/>
      <use xlink:href="#DejaVuSans-6f" x="569.384766"/>
      <use xlink:href="#DejaVuSans-66" x="630.566406"/>
      <use xlink:href="#DejaVuSans-20" x="665.771484"/>
      <use xlink:href="#DejaVuSans-56" x="697.558594"/>
      <use xlink:href="#DejaVuSans-61" x="758.216797"/>
      <use xlink:href="#DejaVuSans-72" x="819.496094"/>
      <use xlink:href="#DejaVuSans-69" x="860.609375"/>
      <use xlink:href="#DejaVuSans-61" x="888.392578"/>
      <use xlink:href="#DejaVuSans-74" x="949.671875"/>
      <use xlink:href="#DejaVuSans-69" x="988.880859"/>
      <use xlink:href="#DejaVuSans-6f" x="1016.664062"/>
      <use xlink:href="#DejaVuSans-6e" x="1077.845703"/>
      <use xlink:href="#DejaVuSans-20" x="1141.224609"/>
      <use xlink:href="#DejaVuSans-28" x="1173.011719"/>
      <use xlink:href="#DejaVuSans-25" x="1212.025391"/>
      <use xlink:href="#DejaVuSans-29" x="1307.044922"/>
     </g>
    </g>
   </g>
   <g id="patch_9">
    <path d="M 786.377815 295.0245 
L 956.775982 295.0245 
L 956.775982 267.615945 
L 786.377815 267.615945 
L 786.377815 295.0245 
z
" clip-path="url(#pa1eb2da482)" style="fill: #1f77b4; opacity: 0.7; stroke: #000000; stroke-linejoin: miter"/>
   </g>
   <g id="line2d_63">
    <path d="M 871.576898 295.0245 
L 871.576898 362.111887 
" clip-path="url(#pa1eb2da482)" style="fill: none; stroke: #000000; stroke-linecap: square"/>
   </g>
   <g id="line2d_64">
    <path d="M 871.576898 267.615945 
L 871.576898 201.689688 
" clip-path="url(#pa1eb2da482)" style="fill: none; stroke: #000000; stroke-linecap: square"/>
   </g>
   <g id="line2d_65">
    <path d="M 828.977357 362.111887 
L 914.17644 362.111887 
" clip-path="url(#pa1eb2da482)" style="fill: none; stroke: #000000; stroke-linecap: square"/>
   </g>
   <g id="line2d_66">
    <path d="M 828.977357 201.689688 
L 914.17644 201.689688 
" clip-path="url(#pa1eb2da482)" style="fill: none; stroke: #000000; stroke-linecap: square"/>
   </g>
   <g id="patch_10">
    <path d="M 1024.935249 133.407024 
L 1195.333416 133.407024 
L 1195.333416 107.362672 
L 1024.935249 107.362672 
L 1024.935249 133.407024 
z
" clip-path="url(#pa1eb2da482)" style="fill: #ff7f0e; opacity: 0.7; stroke: #000000; stroke-linejoin: miter"/>
   </g>
   <g id="line2d_67">
    <path d="M 1110.134333 133.407024 
L 1110.134333 160.605863 
" clip-path="url(#pa1eb2da482)" style="fill: none; stroke: #000000; stroke-linecap: square"/>
   </g>
   <g id="line2d_68">
    <path d="M 1110.134333 107.362672 
L 1110.134333 31.40127 
" clip-path="url(#pa1eb2da482)" style="fill: none; stroke: #000000; stroke-linecap: square"/>
   </g>
   <g id="line2d_69">
    <path d="M 1067.534791 160.605863 
L 1152.733874 160.605863 
" clip-path="url(#pa1eb2da482)" style="fill: none; stroke: #000000; stroke-linecap: square"/>
   </g>
   <g id="line2d_70">
    <path d="M 1067.534791 31.40127 
L 1152.733874 31.40127 
" clip-path="url(#pa1eb2da482)" style="fill: none; stroke: #000000; stroke-linecap: square"/>
   </g>
   <g id="line2d_71">
    <path d="M 786.377815 293.05343 
L 956.775982 293.05343 
" clip-path="url(#pa1eb2da482)" style="fill: none; stroke: #ff7f0e"/>
   </g>
   <g id="line2d_72">
    <path d="M 1024.935249 115.646658 
L 1195.333416 115.646658 
" clip-path="url(#pa1eb2da482)" style="fill: none; stroke: #ff7f0e"/>
   </g>
   <g id="patch_11">
    <path d="M 701.178731 516.782495 
L 701.178731 10.876338 
" style="fill: none; stroke: #000000; stroke-width: 0.8; stroke-linejoin: miter; stroke-linecap: square"/>
   </g>
   <g id="patch_12">
    <path d="M 1280.5325 516.782495 
L 1280.5325 10.876338 
" style="fill: none; stroke: #000000; stroke-width: 0.8; stroke-linejoin: miter; stroke-linecap: square"/>
   </g>
   <g id="patch_13">
    <path d="M 701.178731 516.782495 
L 1280.5325 516.782495 
" style="fill: none; stroke: #000000; stroke-width: 0.8; stroke-linejoin: miter; stroke-linecap: square"/>
   </g>
   <g id="patch_14">
    <path d="M 701.178731 10.876338 
L 1280.5325 10.876338 
" style="fill: none; stroke: #000000; stroke-width: 0.8; stroke-linejoin: miter; stroke-linecap: square"/>
   </g>
  </g>
 </g>
 <defs>
  <clipPath id="p25ed192c81">
   <rect x="57.2725" y="10.876338" width="579.353769" height="505.906157"/>
  </clipPath>
  <clipPath id="pa1eb2da482">
   <rect x="701.178731" y="10.876338" width="579.353769" height="505.906157"/>
  </clipPath>
 </defs>
</svg>
